<svg width="703" height="463" viewBox="0 0 703 463" fill="none" xmlns="http://www.w3.org/2000/svg">
<path d="M370.814 216.675L323.502 244.007L276.189 216.675L323.502 189.344L370.814 216.675Z" fill="#FFDA54" stroke="#1E2532" stroke-width="0.2" stroke-linejoin="round"/>
<path d="M370.814 162L323.502 189.342V244.005L370.814 216.673V162Z" fill="#FFDA54" stroke="#1E2532" stroke-width="0.2" stroke-linejoin="round"/>
<path d="M276.189 216.673V162L323.502 189.342V244.005L276.189 216.673Z" fill="#FFDA54" stroke="#1E2532" stroke-width="0.2" stroke-linejoin="round"/>
<path d="M370.814 162L323.502 134.668L276.189 162L323.502 189.341L370.814 162Z" fill="#FFDA54" stroke="#1E2532" stroke-width="0.2" stroke-linejoin="round"/>
<path d="M323.502 244.008L276.189 271.339L228.877 244.008L276.189 216.676L323.502 244.008Z" fill="#FFDA54" stroke="#1E2532" stroke-width="0.2" stroke-linejoin="round"/>
<path d="M323.502 189.34L276.189 216.672V271.335L323.502 244.003V189.34Z" fill="#FFDA54" stroke="#1E2532" stroke-width="0.2" stroke-linejoin="round"/>
<path d="M228.877 244.003V189.34L276.189 216.672V271.335L228.877 244.003Z" fill="#FFDA54" stroke="#1E2532" stroke-width="0.2" stroke-linejoin="round"/>
<path d="M323.502 189.342L276.189 162L228.877 189.342L276.189 216.673L323.502 189.342Z" fill="#FFDA54" stroke="#1E2532" stroke-width="0.2" stroke-linejoin="round"/>
<path d="M370.814 162L323.502 189.341L276.189 162L323.502 134.668L370.814 162Z" fill="#FFDA54" stroke="#1E2532" stroke-width="0.2" stroke-linejoin="round"/>
<path d="M370.814 107.332L323.502 134.664V189.337L370.814 161.995V107.332Z" fill="#FFDA54" stroke="#1E2532" stroke-width="0.2" stroke-linejoin="round"/>
<path d="M276.189 161.995V107.332L323.502 134.664V189.337L276.189 161.995Z" fill="#FFDA54" stroke="#1E2532" stroke-width="0.2" stroke-linejoin="round"/>
<path d="M370.814 107.336L323.502 80.0039L276.189 107.336L323.502 134.667L370.814 107.336Z" fill="#FFDA54" stroke="#1E2532" stroke-width="0.2" stroke-linejoin="round"/>
<path d="M323.502 189.338L276.189 216.67L228.877 189.338L276.189 161.996L323.502 189.338Z" fill="#FFDA54" stroke="#1E2532" stroke-width="0.2" stroke-linejoin="round"/>
<path d="M323.502 134.66L276.189 161.992V216.665L323.502 189.334V134.66Z" fill="#FFDA54" stroke="#1E2532" stroke-width="0.2" stroke-linejoin="round"/>
<path d="M228.877 189.334V134.66L276.189 161.992V216.665L228.877 189.334Z" fill="#E1B102" stroke="#1E2532" stroke-width="0.2" stroke-linejoin="round"/>
<path d="M323.502 134.664L276.189 107.332L228.877 134.664L276.189 161.995L323.502 134.664Z" fill="#FFDA54" stroke="#1E2532" stroke-width="0.2" stroke-linejoin="round"/>
<path d="M276.189 271.336L228.877 298.667L181.564 271.336L228.877 244.004L276.189 271.336Z" fill="#FFDA54" stroke="#1E2532" stroke-width="0.2" stroke-linejoin="round"/>
<path d="M276.189 216.668L228.877 244V298.663L276.189 271.331V216.668Z" fill="#FFDA54" stroke="#1E2532" stroke-width="0.2" stroke-linejoin="round"/>
<path d="M181.564 271.331V216.668L228.877 244V298.663L181.564 271.331Z" fill="#FFDA54" stroke="#1E2532" stroke-width="0.2" stroke-linejoin="round"/>
<path d="M276.189 216.672L228.877 189.34L181.564 216.672L228.877 244.003L276.189 216.672Z" fill="#FFDA54" stroke="#1E2532" stroke-width="0.2" stroke-linejoin="round"/>
<path d="M228.876 298.672L181.564 326.003L134.251 298.672L181.564 271.34L228.876 298.672Z" fill="#FFDA54" stroke="#1E2532" stroke-width="0.2" stroke-linejoin="round"/>
<path d="M228.876 244.004L181.564 271.336V325.999L228.876 298.667V244.004Z" fill="#FFDA54" stroke="#1E2532" stroke-width="0.2" stroke-linejoin="round"/>
<path d="M134.251 298.667V244.004L181.563 271.336V325.999L134.251 298.667Z" fill="#E1B102" stroke="#1E2532" stroke-width="0.2" stroke-linejoin="round"/>
<path d="M228.876 244.008L181.564 216.676L134.251 244.008L181.564 271.339L228.876 244.008Z" fill="#FFDA54" stroke="#1E2532" stroke-width="0.2" stroke-linejoin="round"/>
<path d="M120.34 70.5006L103.894 80.0012L87.4479 70.5006L103.894 61L120.34 70.5006Z" fill="#FFDA54" stroke="#1E2532" stroke-width="0.2" stroke-linejoin="round"/>
<path d="M120.34 51.5L103.894 61.0006V80.0018L120.34 70.5012V51.5Z" fill="#E1B102" stroke="#1E2532" stroke-width="0.2" stroke-linejoin="round"/>
<path d="M87.4476 70.5012V51.5L103.894 61.0006V80.0018L87.4476 70.5012Z" fill="#FFDA54" stroke="#1E2532" stroke-width="0.2" stroke-linejoin="round"/>
<path d="M120.34 51.5006L103.894 42L87.4479 51.5006L103.894 61.0012L120.34 51.5006Z" fill="#FFDA54" stroke="#1E2532" stroke-width="0.2" stroke-linejoin="round"/>
<path d="M418.127 244.008L370.814 271.339L323.502 244.008L370.814 216.676L418.127 244.008Z" fill="#FFDA54" stroke="#1E2532" stroke-width="0.2" stroke-linejoin="round"/>
<path d="M418.127 189.34L370.814 216.672V271.335L418.127 244.003V189.34Z" fill="#FFDA54" stroke="#1E2532" stroke-width="0.2" stroke-linejoin="round"/>
<path d="M323.502 244.003V189.34L370.814 216.672V271.335L323.502 244.003Z" fill="#FFDA54" stroke="#1E2532" stroke-width="0.2" stroke-linejoin="round"/>
<path d="M418.127 189.342L370.814 162L323.502 189.342L370.814 216.673L418.127 189.342Z" fill="#FFDA54" stroke="#1E2532" stroke-width="0.2" stroke-linejoin="round"/>
<path d="M370.814 271.336L323.502 298.667L276.189 271.336L323.502 244.004L370.814 271.336Z" fill="#FFDA54" stroke="#1E2532" stroke-width="0.2" stroke-linejoin="round"/>
<path d="M370.814 216.668L323.502 244V298.663L370.814 271.331V216.668Z" fill="#FFDA54" stroke="#1E2532" stroke-width="0.2" stroke-linejoin="round"/>
<path d="M276.189 271.331V216.668L323.502 244V298.663L276.189 271.331Z" fill="#FFDA54" stroke="#1E2532" stroke-width="0.2" stroke-linejoin="round"/>
<path d="M370.814 216.672L323.502 189.34L276.189 216.672L323.502 244.003L370.814 216.672Z" fill="#FFDA54" stroke="#1E2532" stroke-width="0.2" stroke-linejoin="round"/>
<path d="M323.502 298.672L276.189 326.003L228.877 298.672L276.189 271.34L323.502 298.672Z" fill="#FFDA54" stroke="#1E2532" stroke-width="0.2" stroke-linejoin="round"/>
<path d="M323.502 244.004L276.189 271.336V325.999L323.502 298.667V244.004Z" fill="#FFDA54" stroke="#1E2532" stroke-width="0.2" stroke-linejoin="round"/>
<path d="M228.877 298.667V244.004L276.189 271.336V325.999L228.877 298.667Z" fill="#FFDA54" stroke="#1E2532" stroke-width="0.2" stroke-linejoin="round"/>
<path d="M323.502 244.008L276.189 216.676L228.877 244.008L276.189 271.339L323.502 244.008Z" fill="#FFDA54" stroke="#1E2532" stroke-width="0.2" stroke-linejoin="round"/>
<path d="M276.189 326.004L228.877 353.345L181.564 326.004L228.877 298.672L276.189 326.004Z" fill="#FFDA54" stroke="#1E2532" stroke-width="0.2" stroke-linejoin="round"/>
<path d="M276.189 271.336L228.877 298.668V353.341L276.189 325.999V271.336Z" fill="#F2BE00" stroke="#1E2532" stroke-width="0.2" stroke-linejoin="round"/>
<path d="M181.564 325.999V271.336L228.877 298.668V353.341L181.564 325.999Z" fill="#E1B102" stroke="#1E2532" stroke-width="0.2" stroke-linejoin="round"/>
<path d="M276.189 271.34L228.877 244.008L181.564 271.34L228.877 298.671L276.189 271.34Z" fill="#FFDA54" stroke="#1E2532" stroke-width="0.2" stroke-linejoin="round"/>
<path d="M465.439 257.664L418.127 285.005L370.814 257.664L418.127 230.332L465.439 257.664Z" fill="white" stroke="#1E2532" stroke-width="0.2" stroke-linejoin="round"/>
<path d="M465.439 202.996L418.127 230.328V285.001L465.439 257.66V202.996Z" fill="#E2E2E2" stroke="#1E2532" stroke-width="0.2" stroke-linejoin="round"/>
<path d="M370.814 257.66V202.996L418.127 230.328V285.001L370.814 257.66Z" fill="white" stroke="#1E2532" stroke-width="0.2" stroke-linejoin="round"/>
<path d="M465.439 203L418.127 175.668L370.814 203L418.127 230.331L465.439 203Z" fill="white" stroke="#1E2532" stroke-width="0.2" stroke-linejoin="round"/>
<path d="M418.127 298.672L370.814 326.003L323.502 298.672L370.814 271.34L418.127 298.672Z" fill="#FFDA54" stroke="#1E2532" stroke-width="0.2" stroke-linejoin="round"/>
<path d="M418.127 244.004L370.814 271.336V325.999L418.127 298.667V244.004Z" fill="#FFDA54" stroke="#1E2532" stroke-width="0.2" stroke-linejoin="round"/>
<path d="M323.502 298.667V244.004L370.814 271.336V325.999L323.502 298.667Z" fill="#FFDA54" stroke="#1E2532" stroke-width="0.2" stroke-linejoin="round"/>
<path d="M418.127 244.008L370.814 216.676L323.502 244.008L370.814 271.339L418.127 244.008Z" fill="#FFDA54" stroke="#1E2532" stroke-width="0.2" stroke-linejoin="round"/>
<path d="M370.814 326.004L323.502 353.345L276.189 326.004L323.502 298.672L370.814 326.004Z" fill="#FFDA54" stroke="#1E2532" stroke-width="0.2" stroke-linejoin="round"/>
<path d="M370.814 271.336L323.502 298.668V353.341L370.814 325.999V271.336Z" fill="#FFDA54" stroke="#1E2532" stroke-width="0.2" stroke-linejoin="round"/>
<path d="M276.189 325.999V271.336L323.502 298.668V353.341L276.189 325.999Z" fill="#E1B102" stroke="#1E2532" stroke-width="0.2" stroke-linejoin="round"/>
<path d="M370.814 271.34L323.502 244.008L276.189 271.34L323.502 298.671L370.814 271.34Z" fill="#FFDA54" stroke="#1E2532" stroke-width="0.2" stroke-linejoin="round"/>
<path d="M181.563 367.004L134.251 394.335L86.9384 367.004L134.251 339.672L181.563 367.004Z" fill="white" stroke="#1E2532" stroke-width="0.2" stroke-linejoin="round"/>
<path d="M181.563 312.336L134.251 339.668V394.331L181.563 366.999V312.336Z" fill="white" stroke="#1E2532" stroke-width="0.2" stroke-linejoin="round"/>
<path d="M86.9384 366.999V312.336L134.251 339.668V394.331L86.9384 366.999Z" fill="#E2E2E2" stroke="#1E2532" stroke-width="0.2" stroke-linejoin="round"/>
<path d="M181.563 312.34L134.251 285.008L86.9384 312.34L134.251 339.671L181.563 312.34Z" fill="white" stroke="#1E2532" stroke-width="0.2" stroke-linejoin="round"/>
<path d="M134.252 408.007L86.9394 435.339L39.627 408.007L86.9394 380.676L134.252 408.007Z" fill="#FFDA54" stroke="#1E2532" stroke-width="0.2" stroke-linejoin="round"/>
<path d="M134.252 353.34L86.9394 380.672V435.335L134.252 408.003V353.34Z" fill="#FFDA54" stroke="#1E2532" stroke-width="0.2" stroke-linejoin="round"/>
<path d="M39.627 408.003V353.34L86.9395 380.672V435.335L39.627 408.003Z" fill="#FFDA54" stroke="#1E2532" stroke-width="0.2" stroke-linejoin="round"/>
<path d="M134.252 353.342L86.9394 326L39.627 353.342L86.9394 380.673L134.252 353.342Z" fill="#FFDA54" stroke="#1E2532" stroke-width="0.2" stroke-linejoin="round"/>
<path d="M86.9395 435.336L39.627 462.667L-7.68554 435.336L39.627 408.004L86.9395 435.336Z" fill="#FFDA54" stroke="#1E2532" stroke-width="0.2" stroke-linejoin="round"/>
<path d="M86.9395 380.668L39.627 408V462.663L86.9395 435.331V380.668Z" fill="#FFDA54" stroke="#1E2532" stroke-width="0.2" stroke-linejoin="round"/>
<path d="M-7.68557 435.331V380.668L39.627 408V462.663L-7.68557 435.331Z" fill="#FFDA54" stroke="#1E2532" stroke-width="0.2" stroke-linejoin="round"/>
<path d="M86.9395 380.672L39.627 353.34L-7.68554 380.672L39.627 408.003L86.9395 380.672Z" fill="#FFDA54" stroke="#1E2532" stroke-width="0.2" stroke-linejoin="round"/>
<path d="M39.627 462.668L-7.68557 489.999L-54.998 462.668L-7.68557 435.336L39.627 462.668Z" fill="#FFDA54" stroke="#1E2532" stroke-width="0.2" stroke-linejoin="round"/>
<path d="M39.627 408.004L-7.68557 435.336V489.999L39.627 462.667V408.004Z" fill="#FFDA54" stroke="#1E2532" stroke-width="0.2" stroke-linejoin="round"/>
<path d="M39.627 408.004L-7.68557 380.672L-54.998 408.004L-7.68557 435.335L39.627 408.004Z" fill="#FFDA54" stroke="#1E2532" stroke-width="0.2" stroke-linejoin="round"/>
<path d="M86.9395 380.672L39.627 408.003L-7.68554 380.672L39.627 353.34L86.9395 380.672Z" fill="#FFDA54" stroke="#1E2532" stroke-width="0.2" stroke-linejoin="round"/>
<path d="M86.9395 325.992L39.627 353.334V407.997L86.9395 380.666V325.992Z" fill="#E1B102" stroke="#1E2532" stroke-width="0.2" stroke-linejoin="round"/>
<path d="M-7.68557 380.666V325.992L39.627 353.334V407.997L-7.68557 380.666Z" fill="#FFDA54" stroke="#1E2532" stroke-width="0.2" stroke-linejoin="round"/>
<path d="M86.9395 325.996L39.627 298.664L-7.68554 325.996L39.627 353.337L86.9395 325.996Z" fill="#FFDA54" stroke="#1E2532" stroke-width="0.2" stroke-linejoin="round"/>
<path d="M39.627 408.007L-7.68557 435.339L-54.998 408.007L-7.68557 380.676L39.627 408.007Z" fill="#FFDA54" stroke="#1E2532" stroke-width="0.2" stroke-linejoin="round"/>
<path d="M39.627 353.34L-7.68557 380.672V435.335L39.627 408.003V353.34Z" fill="#E1B102" stroke="#1E2532" stroke-width="0.2" stroke-linejoin="round"/>
<path d="M39.627 353.342L-7.68557 326L-54.998 353.342L-7.68557 380.673L39.627 353.342Z" fill="#FFDA54" stroke="#1E2532" stroke-width="0.2" stroke-linejoin="round"/>
<path d="M512.752 298.672L465.439 326.003L418.127 298.672L465.439 271.34L512.752 298.672Z" fill="#FFDA54" stroke="#1E2532" stroke-width="0.2" stroke-linejoin="round"/>
<path d="M512.752 244.004L465.439 271.336V325.999L512.752 298.667V244.004Z" fill="#FFDA54" stroke="#1E2532" stroke-width="0.2" stroke-linejoin="round"/>
<path d="M418.127 298.667V244.004L465.439 271.336V325.999L418.127 298.667Z" fill="#FFDA54" stroke="#1E2532" stroke-width="0.2" stroke-linejoin="round"/>
<path d="M512.752 244.008L465.439 216.676L418.127 244.008L465.439 271.339L512.752 244.008Z" fill="#FFDA54" stroke="#1E2532" stroke-width="0.2" stroke-linejoin="round"/>
<path d="M228.876 408.007L181.564 435.339L134.251 408.007L181.564 380.676L228.876 408.007Z" fill="#FFDA54" stroke="#1E2532" stroke-width="0.2" stroke-linejoin="round"/>
<path d="M228.876 353.34L181.564 380.672V435.335L228.876 408.003V353.34Z" fill="#FFDA54" stroke="#1E2532" stroke-width="0.2" stroke-linejoin="round"/>
<path d="M134.251 408.003V353.34L181.563 380.672V435.335L134.251 408.003Z" fill="#FFDA54" stroke="#1E2532" stroke-width="0.2" stroke-linejoin="round"/>
<path d="M228.876 353.342L181.564 326L134.251 353.342L181.564 380.673L228.876 353.342Z" fill="#FFDA54" stroke="#1E2532" stroke-width="0.2" stroke-linejoin="round"/>
<path d="M181.563 435.336L134.251 462.667L86.9384 435.336L134.251 408.004L181.563 435.336Z" fill="#FFDA54" stroke="#1E2532" stroke-width="0.2" stroke-linejoin="round"/>
<path d="M181.563 380.668L134.251 408V462.663L181.563 435.331V380.668Z" fill="#FFDA54" stroke="#1E2532" stroke-width="0.2" stroke-linejoin="round"/>
<path d="M86.9384 435.331V380.668L134.251 408V462.663L86.9384 435.331Z" fill="#FFDA54" stroke="#1E2532" stroke-width="0.2" stroke-linejoin="round"/>
<path d="M181.563 380.672L134.251 353.34L86.9384 380.672L134.251 408.003L181.563 380.672Z" fill="#FFDA54" stroke="#1E2532" stroke-width="0.2" stroke-linejoin="round"/>
<path d="M134.252 462.668L86.9394 489.999L39.627 462.668L86.9394 435.336L134.252 462.668Z" fill="#FFDA54" stroke="#1E2532" stroke-width="0.2" stroke-linejoin="round"/>
<path d="M134.252 408.004L86.9394 435.336V489.999L134.252 462.667V408.004Z" fill="#FFDA54" stroke="#1E2532" stroke-width="0.2" stroke-linejoin="round"/>
<path d="M39.627 462.667V408.004L86.9395 435.336V489.999L39.627 462.667Z" fill="#FFDA54" stroke="#1E2532" stroke-width="0.2" stroke-linejoin="round"/>
<path d="M134.252 408.004L86.9394 380.672L39.627 408.004L86.9394 435.335L134.252 408.004Z" fill="#FFDA54" stroke="#1E2532" stroke-width="0.2" stroke-linejoin="round"/>
<path d="M86.9395 490L39.627 517.341L-7.68554 490L39.627 462.668L86.9395 490Z" fill="#FFDA54" stroke="#1E2532" stroke-width="0.2" stroke-linejoin="round"/>
<path d="M86.9395 435.332L39.627 462.664V517.337L86.9395 489.995V435.332Z" fill="#FFDA54" stroke="#1E2532" stroke-width="0.2" stroke-linejoin="round"/>
<path d="M-7.68557 489.995V435.332L39.627 462.664V517.337L-7.68557 489.995Z" fill="#FFDA54" stroke="#1E2532" stroke-width="0.2" stroke-linejoin="round"/>
<path d="M86.9395 435.336L39.627 408.004L-7.68554 435.336L39.627 462.667L86.9395 435.336Z" fill="#FFDA54" stroke="#1E2532" stroke-width="0.2" stroke-linejoin="round"/>
<path d="M276.189 435.336L228.877 462.667L181.564 435.336L228.877 408.004L276.189 435.336Z" fill="#FFDA54" stroke="#1E2532" stroke-width="0.2" stroke-linejoin="round"/>
<path d="M276.189 380.668L228.877 408V462.663L276.189 435.331V380.668Z" fill="#FFDA54" stroke="#1E2532" stroke-width="0.2" stroke-linejoin="round"/>
<path d="M181.564 435.331V380.668L228.877 408V462.663L181.564 435.331Z" fill="#FFDA54" stroke="#1E2532" stroke-width="0.2" stroke-linejoin="round"/>
<path d="M276.189 380.672L228.877 353.34L181.564 380.672L228.877 408.003L276.189 380.672Z" fill="#FFDA54" stroke="#1E2532" stroke-width="0.2" stroke-linejoin="round"/>
<path d="M228.876 462.668L181.564 489.999L134.251 462.668L181.564 435.336L228.876 462.668Z" fill="#FFDA54" stroke="#1E2532" stroke-width="0.2" stroke-linejoin="round"/>
<path d="M228.876 408.004L181.564 435.336V489.999L228.876 462.667V408.004Z" fill="#FFDA54" stroke="#1E2532" stroke-width="0.2" stroke-linejoin="round"/>
<path d="M134.251 462.667V408.004L181.563 435.336V489.999L134.251 462.667Z" fill="#FFDA54" stroke="#1E2532" stroke-width="0.2" stroke-linejoin="round"/>
<path d="M228.876 408.004L181.564 380.672L134.251 408.004L181.564 435.335L228.876 408.004Z" fill="#FFDA54" stroke="#1E2532" stroke-width="0.2" stroke-linejoin="round"/>
<path d="M181.563 490L134.251 517.341L86.9384 490L134.251 462.668L181.563 490Z" fill="#FFDA54" stroke="#1E2532" stroke-width="0.2" stroke-linejoin="round"/>
<path d="M181.563 435.332L134.251 462.664V517.337L181.563 489.995V435.332Z" fill="#FFDA54" stroke="#1E2532" stroke-width="0.2" stroke-linejoin="round"/>
<path d="M86.9384 489.995V435.332L134.251 462.664V517.337L86.9384 489.995Z" fill="#FFDA54" stroke="#1E2532" stroke-width="0.2" stroke-linejoin="round"/>
<path d="M181.563 435.336L134.251 408.004L86.9384 435.336L134.251 462.667L181.563 435.336Z" fill="#FFDA54" stroke="#1E2532" stroke-width="0.2" stroke-linejoin="round"/>
<path d="M134.252 462.664L86.9394 489.996V544.669L134.252 517.337V462.664Z" fill="#FFDA54" stroke="#1E2532" stroke-width="0.2" stroke-linejoin="round"/>
<path d="M39.627 517.337V462.664L86.9395 489.996V544.669L39.627 517.337Z" fill="#FFDA54" stroke="#1E2532" stroke-width="0.2" stroke-linejoin="round"/>
<path d="M134.252 462.668L86.9394 435.336L39.627 462.668L86.9394 489.999L134.252 462.668Z" fill="#FFDA54" stroke="#1E2532" stroke-width="0.2" stroke-linejoin="round"/>
<path d="M370.814 490.004L323.502 462.672L276.189 490.004L323.502 517.345L370.814 490.004Z" fill="#FFDA54" stroke="#1E2532" stroke-width="0.2" stroke-linejoin="round"/>
<path d="M323.502 462.668L276.189 489.999L228.877 462.668L276.189 435.336L323.502 462.668Z" fill="#FFDA54" stroke="#1E2532" stroke-width="0.2" stroke-linejoin="round"/>
<path d="M323.502 408.004L276.189 435.336V489.999L323.502 462.667V408.004Z" fill="#E1B102" stroke="#1E2532" stroke-width="0.2" stroke-linejoin="round"/>
<path d="M228.877 462.667V408.004L276.189 435.336V489.999L228.877 462.667Z" fill="#FFDA54" stroke="#1E2532" stroke-width="0.2" stroke-linejoin="round"/>
<path d="M323.502 408.004L276.189 380.672L228.877 408.004L276.189 435.335L323.502 408.004Z" fill="#FFDA54" stroke="#1E2532" stroke-width="0.2" stroke-linejoin="round"/>
<path d="M276.189 490L228.877 517.341L181.564 490L228.877 462.668L276.189 490Z" fill="#FFDA54" stroke="#1E2532" stroke-width="0.2" stroke-linejoin="round"/>
<path d="M276.189 435.332L228.877 462.664V517.337L276.189 489.995V435.332Z" fill="#E1B102" stroke="#1E2532" stroke-width="0.2" stroke-linejoin="round"/>
<path d="M181.564 489.995V435.332L228.877 462.664V517.337L181.564 489.995Z" fill="#FFDA54" stroke="#1E2532" stroke-width="0.2" stroke-linejoin="round"/>
<path d="M276.189 435.336L228.877 408.004L181.564 435.336L228.877 462.667L276.189 435.336Z" fill="#FFDA54" stroke="#1E2532" stroke-width="0.2" stroke-linejoin="round"/>
<path d="M228.876 462.664L181.564 489.996V544.669L228.876 517.337V462.664Z" fill="#FFDA54" stroke="#1E2532" stroke-width="0.2" stroke-linejoin="round"/>
<path d="M134.251 517.337V462.664L181.563 489.996V544.669L134.251 517.337Z" fill="#FFDA54" stroke="#1E2532" stroke-width="0.2" stroke-linejoin="round"/>
<path d="M228.876 462.668L181.564 435.336L134.251 462.668L181.564 489.999L228.876 462.668Z" fill="#FFDA54" stroke="#1E2532" stroke-width="0.2" stroke-linejoin="round"/>
<path d="M311.669 360.187L264.356 387.519L217.044 360.187L264.356 332.855L311.669 360.187Z" fill="white" stroke="#1E2532" stroke-width="0.2" stroke-linejoin="round"/>
<path d="M311.669 305.52L264.356 332.851V387.515L311.669 360.183V305.52Z" fill="#E2E2E2" stroke="#1E2532" stroke-width="0.2" stroke-linejoin="round"/>
<path d="M217.044 360.183V305.52L264.356 332.851V387.515L217.044 360.183Z" fill="white" stroke="#1E2532" stroke-width="0.2" stroke-linejoin="round"/>
<path d="M311.669 305.521L264.356 278.18L217.044 305.521L264.356 332.853L311.669 305.521Z" fill="white" stroke="#1E2532" stroke-width="0.2" stroke-linejoin="round"/>
<path d="M181.563 490.004L134.251 462.672L86.9384 490.004L134.251 517.345L181.563 490.004Z" fill="#FFDA54" stroke="#1E2532" stroke-width="0.2" stroke-linejoin="round"/>
<path d="M607.377 353.342L560.064 380.673L512.752 353.342L560.064 326L607.377 353.342Z" fill="#FFDA54" stroke="#1E2532" stroke-width="0.2" stroke-linejoin="round"/>
<path d="M607.377 298.664L560.064 325.996V380.669L607.377 353.337V298.664Z" fill="#FFDA54" stroke="#1E2532" stroke-width="0.2" stroke-linejoin="round"/>
<path d="M512.752 353.337V298.664L560.064 325.996V380.669L512.752 353.337Z" fill="#FFDA54" stroke="#1E2532" stroke-width="0.2" stroke-linejoin="round"/>
<path d="M607.377 298.668L560.064 271.336L512.752 298.668L560.064 325.999L607.377 298.668Z" fill="#FFDA54" stroke="#1E2532" stroke-width="0.2" stroke-linejoin="round"/>
<path d="M560.064 380.672L512.752 408.003L465.439 380.672L512.752 353.34L560.064 380.672Z" fill="#FFDA54" stroke="#1E2532" stroke-width="0.2" stroke-linejoin="round"/>
<path d="M560.064 325.992L512.752 353.334V407.997L560.064 380.666V325.992Z" fill="#FFDA54" stroke="#1E2532" stroke-width="0.2" stroke-linejoin="round"/>
<path d="M465.439 380.666V325.992L512.752 353.334V407.997L465.439 380.666Z" fill="#FFDA54" stroke="#1E2532" stroke-width="0.2" stroke-linejoin="round"/>
<path d="M560.064 325.996L512.752 298.664L465.439 325.996L512.752 353.337L560.064 325.996Z" fill="#FFDA54" stroke="#1E2532" stroke-width="0.2" stroke-linejoin="round"/>
<path d="M607.377 298.672L560.064 326.003L512.752 298.672L560.064 271.34L607.377 298.672Z" fill="#FFDA54" stroke="#1E2532" stroke-width="0.2" stroke-linejoin="round"/>
<path d="M607.377 244.004L560.064 271.336V325.999L607.377 298.667V244.004Z" fill="#E1B102" stroke="#1E2532" stroke-width="0.2" stroke-linejoin="round"/>
<path d="M512.752 298.667V244.004L560.064 271.336V325.999L512.752 298.667Z" fill="#FFDA54" stroke="#1E2532" stroke-width="0.2" stroke-linejoin="round"/>
<path d="M607.377 244.008L560.064 216.676L512.752 244.008L560.064 271.339L607.377 244.008Z" fill="#FFDA54" stroke="#1E2532" stroke-width="0.2" stroke-linejoin="round"/>
<path d="M607.057 150.505L583.686 164.006L560.315 150.505L583.686 137.004L607.057 150.505Z" fill="#FFDA54" stroke="#1E2532" stroke-width="0.2" stroke-linejoin="round"/>
<path d="M607.057 123.504L583.686 137.005V164.006L607.057 150.506V123.504Z" fill="#E1B102" stroke="#1E2532" stroke-width="0.2" stroke-linejoin="round"/>
<path d="M560.315 150.506V123.504L583.686 137.005V164.006L560.315 150.506Z" fill="#FFDA54" stroke="#1E2532" stroke-width="0.2" stroke-linejoin="round"/>
<path d="M607.057 123.505L583.686 110.004L560.315 123.505L583.686 137.006L607.057 123.505Z" fill="#FFDA54" stroke="#1E2532" stroke-width="0.2" stroke-linejoin="round"/>
<path d="M560.064 326.004L512.752 353.345L465.439 326.004L512.752 298.672L560.064 326.004Z" fill="#FFDA54" stroke="#1E2532" stroke-width="0.2" stroke-linejoin="round"/>
<path d="M560.064 271.336L512.752 298.668V353.341L560.064 325.999V271.336Z" fill="#E1B102" stroke="#1E2532" stroke-width="0.2" stroke-linejoin="round"/>
<path d="M465.439 325.999V271.336L512.752 298.668V353.341L465.439 325.999Z" fill="#E1B102" stroke="#1E2532" stroke-width="0.2" stroke-linejoin="round"/>
<path d="M560.064 271.34L512.752 244.008L465.439 271.34L512.752 298.671L560.064 271.34Z" fill="#FFDA54" stroke="#1E2532" stroke-width="0.2" stroke-linejoin="round"/>
<path d="M512.752 408.007L465.439 435.339L418.127 408.007L465.439 380.676L512.752 408.007Z" fill="#FFDA54" stroke="#1E2532" stroke-width="0.2" stroke-linejoin="round"/>
<path d="M512.752 353.34L465.439 380.672V435.335L512.752 408.003V353.34Z" fill="#FFDA54" stroke="#1E2532" stroke-width="0.2" stroke-linejoin="round"/>
<path d="M418.127 408.003V353.34L465.439 380.672V435.335L418.127 408.003Z" fill="#FFDA54" stroke="#1E2532" stroke-width="0.2" stroke-linejoin="round"/>
<path d="M512.752 353.342L465.439 326L418.127 353.342L465.439 380.673L512.752 353.342Z" fill="#FFDA54" stroke="#1E2532" stroke-width="0.2" stroke-linejoin="round"/>
<path d="M465.439 435.336L418.127 462.667L370.814 435.336L418.127 408.004L465.439 435.336Z" fill="#FFDA54" stroke="#1E2532" stroke-width="0.2" stroke-linejoin="round"/>
<path d="M465.439 380.668L418.127 408V462.663L465.439 435.331V380.668Z" fill="#FFDA54" stroke="#1E2532" stroke-width="0.2" stroke-linejoin="round"/>
<path d="M370.814 435.331V380.668L418.127 408V462.663L370.814 435.331Z" fill="#FFDA54" stroke="#1E2532" stroke-width="0.2" stroke-linejoin="round"/>
<path d="M465.439 380.672L418.127 353.34L370.814 380.672L418.127 408.003L465.439 380.672Z" fill="#FFDA54" stroke="#1E2532" stroke-width="0.2" stroke-linejoin="round"/>
<path d="M418.127 462.668L370.814 489.999L323.502 462.668L370.814 435.336L418.127 462.668Z" fill="#FFDA54" stroke="#1E2532" stroke-width="0.2" stroke-linejoin="round"/>
<path d="M418.127 408.004L370.814 435.336V489.999L418.127 462.667V408.004Z" fill="#FFDA54" stroke="#1E2532" stroke-width="0.2" stroke-linejoin="round"/>
<path d="M323.502 462.667V408.004L370.814 435.336V489.999L323.502 462.667Z" fill="#E1B102" stroke="#1E2532" stroke-width="0.2" stroke-linejoin="round"/>
<path d="M418.127 408.004L370.814 380.672L323.502 408.004L370.814 435.335L418.127 408.004Z" fill="#FFDA54" stroke="#1E2532" stroke-width="0.2" stroke-linejoin="round"/>
<path d="M465.439 326.004L418.127 353.345L370.814 326.004L418.127 298.672L465.439 326.004Z" fill="#FFDA54" stroke="#1E2532" stroke-width="0.2" stroke-linejoin="round"/>
<path d="M465.439 271.336L418.127 298.668V353.341L465.439 325.999V271.336Z" fill="#E1B102" stroke="#1E2532" stroke-width="0.2" stroke-linejoin="round"/>
<path d="M370.814 325.999V271.336L418.127 298.668V353.341L370.814 325.999Z" fill="#FFDA54" stroke="#1E2532" stroke-width="0.2" stroke-linejoin="round"/>
<path d="M465.439 271.34L418.127 244.008L370.814 271.34L418.127 298.671L465.439 271.34Z" fill="#FFDA54" stroke="#1E2532" stroke-width="0.2" stroke-linejoin="round"/>
<path d="M418.127 353.342L370.814 380.673L323.502 353.342L370.814 326L418.127 353.342Z" fill="#FFDA54" stroke="#1E2532" stroke-width="0.2" stroke-linejoin="round"/>
<path d="M418.127 298.664L370.814 325.996V380.669L418.127 353.337V298.664Z" fill="#E1B102" stroke="#1E2532" stroke-width="0.2" stroke-linejoin="round"/>
<path d="M323.502 353.337V298.664L370.814 325.996V380.669L323.502 353.337Z" fill="#FFDA54" stroke="#1E2532" stroke-width="0.2" stroke-linejoin="round"/>
<path d="M418.127 298.668L370.814 271.336L323.502 298.668L370.814 325.999L418.127 298.668Z" fill="#FFDA54" stroke="#1E2532" stroke-width="0.2" stroke-linejoin="round"/>
<path d="M422.294 378.444L398.638 392.105L374.981 378.444L398.638 364.773L422.294 378.444Z" fill="white" stroke="#1E2532" stroke-width="0.2" stroke-linejoin="round"/>
<path d="M422.294 351.105L398.638 364.776V392.108L422.294 378.447V351.105Z" fill="white" stroke="#1E2532" stroke-width="0.2" stroke-linejoin="round"/>
<path d="M374.981 378.447V351.105L398.638 364.776V392.108L374.981 378.447Z" fill="#E2E2E2" stroke="#1E2532" stroke-width="0.2" stroke-linejoin="round"/>
<path d="M422.294 351.106L398.638 337.445L374.981 351.106L398.638 364.777L422.294 351.106Z" fill="white" stroke="#1E2532" stroke-width="0.2" stroke-linejoin="round"/>
<path d="M432.938 386.816L422.295 392.966L411.651 386.816L422.295 380.676L432.938 386.816Z" fill="#F9B8C4" stroke="#1E2532" stroke-width="0.2" stroke-linejoin="round"/>
<path d="M432.938 374.523L422.295 380.674V392.965L432.938 386.814V374.523Z" fill="#F9B8C4" stroke="#1E2532" stroke-width="0.2" stroke-linejoin="round"/>
<path d="M411.65 386.814V374.523L422.294 380.674V392.965L411.65 386.814Z" fill="#ED889B" stroke="#1E2532" stroke-width="0.2" stroke-linejoin="round"/>
<path d="M432.938 374.525L422.295 368.375L411.651 374.525L422.295 380.675L432.938 374.525Z" fill="#F9B8C4" stroke="#1E2532" stroke-width="0.2" stroke-linejoin="round"/>
<path d="M370.814 380.672L323.502 408.003L276.189 380.672L323.502 353.34L370.814 380.672Z" fill="#FFDA54" stroke="#1E2532" stroke-width="0.2" stroke-linejoin="round"/>
<path d="M370.814 325.992L323.502 353.334V407.997L370.814 380.666V325.992Z" fill="#E1B102" stroke="#1E2532" stroke-width="0.2" stroke-linejoin="round"/>
<path d="M276.189 380.666V325.992L323.502 353.334V407.997L276.189 380.666Z" fill="#E1B102" stroke="#1E2532" stroke-width="0.2" stroke-linejoin="round"/>
<path d="M370.814 325.996L323.502 298.664L276.189 325.996L323.502 353.337L370.814 325.996Z" fill="#FFDA54" stroke="#1E2532" stroke-width="0.2" stroke-linejoin="round"/>
<path d="M654.689 380.672L607.377 408.003L560.064 380.672L607.377 353.34L654.689 380.672Z" fill="#FFDA54" stroke="#1E2532" stroke-width="0.2" stroke-linejoin="round"/>
<path d="M654.689 325.992L607.377 353.334V407.997L654.689 380.666V325.992Z" fill="#E1B102" stroke="#1E2532" stroke-width="0.2" stroke-linejoin="round"/>
<path d="M560.064 380.666V325.992L607.377 353.334V407.997L560.064 380.666Z" fill="#FFDA54" stroke="#1E2532" stroke-width="0.2" stroke-linejoin="round"/>
<path d="M654.689 325.996L607.377 298.664L560.064 325.996L607.377 353.337L654.689 325.996Z" fill="#FFDA54" stroke="#1E2532" stroke-width="0.2" stroke-linejoin="round"/>
<path d="M607.377 408.007L560.064 435.339L512.752 408.007L560.064 380.676L607.377 408.007Z" fill="#FFDA54" stroke="#1E2532" stroke-width="0.2" stroke-linejoin="round"/>
<path d="M607.377 353.34L560.064 380.672V435.335L607.377 408.003V353.34Z" fill="#E1B102" stroke="#1E2532" stroke-width="0.2" stroke-linejoin="round"/>
<path d="M512.752 408.003V353.34L560.064 380.672V435.335L512.752 408.003Z" fill="#FFDA54" stroke="#1E2532" stroke-width="0.2" stroke-linejoin="round"/>
<path d="M607.377 353.342L560.064 326L512.752 353.342L560.064 380.673L607.377 353.342Z" fill="#FFDA54" stroke="#1E2532" stroke-width="0.2" stroke-linejoin="round"/>
<path d="M560.064 435.336L512.752 462.667L465.439 435.336L512.752 408.004L560.064 435.336Z" fill="#FFDA54" stroke="#1E2532" stroke-width="0.2" stroke-linejoin="round"/>
<path d="M560.064 380.668L512.752 408V462.663L560.064 435.331V380.668Z" fill="#E1B102" stroke="#1E2532" stroke-width="0.2" stroke-linejoin="round"/>
<path d="M465.439 435.331V380.668L512.752 408V462.663L465.439 435.331Z" fill="#FFDA54" stroke="#1E2532" stroke-width="0.2" stroke-linejoin="round"/>
<path d="M560.064 380.672L512.752 353.34L465.439 380.672L512.752 408.003L560.064 380.672Z" fill="#FFDA54" stroke="#1E2532" stroke-width="0.2" stroke-linejoin="round"/>
<path d="M512.752 462.668L465.439 489.999L418.127 462.668L465.439 435.336L512.752 462.668Z" fill="#FFDA54" stroke="#1E2532" stroke-width="0.2" stroke-linejoin="round"/>
<path d="M512.752 408.004L465.439 435.336V489.999L512.752 462.667V408.004Z" fill="#E1B102" stroke="#1E2532" stroke-width="0.2" stroke-linejoin="round"/>
<path d="M418.127 462.667V408.004L465.439 435.336V489.999L418.127 462.667Z" fill="#FFDA54" stroke="#1E2532" stroke-width="0.2" stroke-linejoin="round"/>
<path d="M512.752 408.004L465.439 380.672L418.127 408.004L465.439 435.335L512.752 408.004Z" fill="#FFDA54" stroke="#1E2532" stroke-width="0.2" stroke-linejoin="round"/>
<path d="M465.439 490L418.127 517.341L370.814 490L418.127 462.668L465.439 490Z" fill="#FFDA54" stroke="#1E2532" stroke-width="0.2" stroke-linejoin="round"/>
<path d="M465.439 435.332L418.127 462.664V517.337L465.439 489.995V435.332Z" fill="#E1B102" stroke="#1E2532" stroke-width="0.2" stroke-linejoin="round"/>
<path d="M370.814 489.995V435.332L418.127 462.664V517.337L370.814 489.995Z" fill="#E1B102" stroke="#1E2532" stroke-width="0.2" stroke-linejoin="round"/>
<path d="M465.439 435.336L418.127 408.004L370.814 435.336L418.127 462.667L465.439 435.336Z" fill="#FFDA54" stroke="#1E2532" stroke-width="0.2" stroke-linejoin="round"/>
<path d="M702.002 462.668L654.689 489.999L607.377 462.668L654.689 435.336L702.002 462.668Z" fill="#FFDA54" stroke="#1E2532" stroke-width="0.2" stroke-linejoin="round"/>
<path d="M702.002 408.004L654.689 435.336V489.999L702.002 462.667V408.004Z" fill="#E1B102" stroke="#1E2532" stroke-width="0.2" stroke-linejoin="round"/>
<path d="M607.377 462.667V408.004L654.689 435.336V489.999L607.377 462.667Z" fill="#FFDA54" stroke="#1E2532" stroke-width="0.2" stroke-linejoin="round"/>
<path d="M702.002 408.004L654.689 380.672L607.377 408.004L654.689 435.335L702.002 408.004Z" fill="#FFDA54" stroke="#1E2532" stroke-width="0.2" stroke-linejoin="round"/>
<path d="M654.689 490L607.377 517.341L560.064 490L607.377 462.668L654.689 490Z" fill="#FFDA54" stroke="#1E2532" stroke-width="0.2" stroke-linejoin="round"/>
<path d="M654.689 435.332L607.377 462.664V517.337L654.689 489.995V435.332Z" fill="#E1B102" stroke="#1E2532" stroke-width="0.2" stroke-linejoin="round"/>
<path d="M560.064 489.995V435.332L607.377 462.664V517.337L560.064 489.995Z" fill="#FFDA54" stroke="#1E2532" stroke-width="0.2" stroke-linejoin="round"/>
<path d="M654.689 435.336L607.377 408.004L560.064 435.336L607.377 462.667L654.689 435.336Z" fill="#FFDA54" stroke="#1E2532" stroke-width="0.2" stroke-linejoin="round"/>
<path d="M607.377 462.664L560.064 489.996V544.669L607.377 517.337V462.664Z" fill="#FFDA54" stroke="#1E2532" stroke-width="0.2" stroke-linejoin="round"/>
<path d="M512.752 517.337V462.664L560.064 489.996V544.669L512.752 517.337Z" fill="#FFDA54" stroke="#1E2532" stroke-width="0.2" stroke-linejoin="round"/>
<path d="M607.377 462.668L560.064 435.336L512.752 462.668L560.064 489.999L607.377 462.668Z" fill="#FFDA54" stroke="#1E2532" stroke-width="0.2" stroke-linejoin="round"/>
<path d="M560.064 490.004L512.752 462.672L465.439 490.004L512.752 517.345L560.064 490.004Z" fill="#FFDA54" stroke="#1E2532" stroke-width="0.2" stroke-linejoin="round"/>
<path d="M39.627 353.343V203.004L86.9395 326.002L39.627 353.343Z" fill="#ED889B" stroke="#1E2532" stroke-width="0.2" stroke-linejoin="round"/>
<path d="M-7.68557 326.002L39.627 203.004V353.343L-7.68557 326.002Z" fill="#F9B8C4" stroke="#1E2532" stroke-width="0.2" stroke-linejoin="round"/>
<path d="M275.352 157.969L271.334 160.28V146.379L275.352 144.059V157.969Z" fill="#0099FF" stroke="#1E2532" stroke-width="0.2" stroke-linejoin="round"/>
<path d="M267.327 144.059L271.335 146.379V160.28L267.327 157.969V144.059Z" fill="#0099FF" stroke="#1E2532" stroke-width="0.2" stroke-linejoin="round"/>
<path d="M275.352 144.058L271.334 141.738L267.326 144.058" fill="#0099FF"/>
<path d="M275.352 144.058L271.334 141.738L267.326 144.058" stroke="#1E2532" stroke-width="0.2" stroke-linejoin="round"/>
<path d="M262.529 150.577L258.512 152.887V138.976L262.529 136.656V150.577Z" fill="#0099FF" stroke="#1E2532" stroke-width="0.2" stroke-linejoin="round"/>
<path d="M254.504 136.656L258.512 138.976V152.887L254.504 150.577V136.656Z" fill="#0099FF" stroke="#1E2532" stroke-width="0.2" stroke-linejoin="round"/>
<path d="M262.529 136.658L258.512 134.348L254.504 136.658" fill="#0099FF"/>
<path d="M262.529 136.658L258.512 134.348L254.504 136.658" stroke="#1E2532" stroke-width="0.2" stroke-linejoin="round"/>
<path d="M284.156 140.349L264.927 151.46L245.699 140.349L264.927 129.238L284.156 140.349Z" fill="white" stroke="#1E2532" stroke-width="0.2" stroke-linejoin="round"/>
<path d="M284.156 118.125L264.927 129.236V151.457L284.156 140.346V118.125Z" fill="white" stroke="#1E2532" stroke-width="0.2" stroke-linejoin="round"/>
<path d="M245.699 140.346V118.125L264.928 129.236V151.457L245.699 140.346Z" fill="white" stroke="#1E2532" stroke-width="0.2" stroke-linejoin="round"/>
<path d="M284.156 118.126L264.927 107.016L245.699 118.126L264.927 129.237L284.156 118.126Z" fill="white" stroke="#1E2532" stroke-width="0.2" stroke-linejoin="round"/>
<path d="M267.438 18.9531L238.404 35.7242L267.438 52.4952L296.471 35.7242L267.438 18.9531Z" fill="#0099FF" stroke="#1E2532" stroke-width="0.2" stroke-linejoin="round"/>
<path d="M267.438 141.949L238.404 125.178V35.7227L267.438 52.4937V141.949Z" fill="#0099FF" stroke="#1E2532" stroke-width="0.2" stroke-linejoin="round"/>
<path d="M296.471 125.178L267.438 141.949V52.4937L296.471 35.7227V125.178Z" fill="#0F7FC9" stroke="#1E2532" stroke-width="0.2" stroke-linejoin="round"/>
<path d="M273.244 55.5234L291.094 65.8341V86.4654L273.244 76.1448V55.5234Z" fill="#0F7FC9" stroke="#1E2532" stroke-width="0.2" stroke-linejoin="round"/>
<path d="M308.943 76.1448L291.094 86.4654V65.8341L308.943 55.5234V76.1448Z" fill="#0099FF" stroke="#1E2532" stroke-width="0.2" stroke-linejoin="round"/>
<path d="M290.934 45.4648L308.943 55.5255L291.094 65.8362L273.244 55.5255L290.934 45.4648Z" fill="#0F7FC9" stroke="#1E2532" stroke-width="0.2" stroke-linejoin="round"/>
<path d="M395.032 303.288L371.376 316.949L347.72 303.288L371.376 289.617L395.032 303.288Z" fill="#0099FF" stroke="#1E2532" stroke-width="0.2" stroke-linejoin="round"/>
<path d="M395.032 275.957L371.376 289.618V316.95L395.032 303.289V275.957Z" fill="#0099FF" stroke="#1E2532" stroke-width="0.2" stroke-linejoin="round"/>
<path d="M347.72 303.289V275.957L371.376 289.618V316.95L347.72 303.289Z" fill="#0099FF" stroke="#1E2532" stroke-width="0.2" stroke-linejoin="round"/>
<path d="M395.032 275.956L371.376 262.285L347.72 275.956L371.376 289.617L395.032 275.956Z" fill="#0099FF" stroke="#1E2532" stroke-width="0.2" stroke-linejoin="round"/>
<path d="M395.032 275.956L371.376 289.617L347.72 275.956L371.376 262.285L395.032 275.956Z" fill="#0099FF" stroke="#1E2532" stroke-width="0.2" stroke-linejoin="round"/>
<path d="M395.032 248.617L371.376 262.288V289.62L395.032 275.959V248.617Z" fill="#0099FF" stroke="#1E2532" stroke-width="0.2" stroke-linejoin="round"/>
<path d="M347.72 275.959V248.617L371.376 262.288V289.62L347.72 275.959Z" fill="#0099FF" stroke="#1E2532" stroke-width="0.2" stroke-linejoin="round"/>
<path d="M395.032 248.618L371.376 234.957L347.72 248.618L371.376 262.289L395.032 248.618Z" fill="#0099FF" stroke="#1E2532" stroke-width="0.2" stroke-linejoin="round"/>
<path d="M335.896 269.114L312.24 282.785L288.584 269.114L312.24 255.453L335.896 269.114Z" fill="#0099FF" stroke="#1E2532" stroke-width="0.2" stroke-linejoin="round"/>
<path d="M335.896 241.785L312.24 255.456V282.788L335.896 269.117V241.785Z" fill="#0F7FC9" stroke="#1E2532" stroke-width="0.2" stroke-linejoin="round"/>
<path d="M288.584 269.117V241.785L312.24 255.456V282.788L288.584 269.117Z" fill="#0099FF" stroke="#1E2532" stroke-width="0.2" stroke-linejoin="round"/>
<path d="M335.896 241.784L312.24 228.113L288.584 241.784L312.24 255.455L335.896 241.784Z" fill="#0099FF" stroke="#1E2532" stroke-width="0.2" stroke-linejoin="round"/>
<path d="M335.896 241.784L312.24 255.455L288.584 241.784L312.24 228.113L335.896 241.784Z" fill="#0099FF" stroke="#1E2532" stroke-width="0.2" stroke-linejoin="round"/>
<path d="M335.896 214.453L312.24 228.114V255.456L335.896 241.785V214.453Z" fill="#0F7FC9" stroke="#1E2532" stroke-width="0.2" stroke-linejoin="round"/>
<path d="M288.584 241.785V214.453L312.24 228.114V255.456L288.584 241.785Z" fill="#0099FF" stroke="#1E2532" stroke-width="0.2" stroke-linejoin="round"/>
<path d="M335.896 214.452L312.24 200.781L288.584 214.452L312.24 228.113L335.896 214.452Z" fill="#0099FF" stroke="#1E2532" stroke-width="0.2" stroke-linejoin="round"/>
<path d="M371.376 221.285L324.063 248.617L276.751 221.285L324.063 193.953L371.376 221.285Z" fill="#0099FF" stroke="#1E2532" stroke-width="0.2" stroke-linejoin="round"/>
<path d="M324.063 248.616V193.953L371.376 166.621V221.285L324.063 248.616Z" fill="#0099FF" stroke="#1E2532" stroke-width="0.2" stroke-linejoin="round"/>
<path d="M276.751 221.285V166.621L324.063 193.953V248.616L276.751 221.285Z" fill="#0099FF" stroke="#1E2532" stroke-width="0.2" stroke-linejoin="round"/>
<path d="M371.376 166.621L324.063 139.289L276.751 166.621L324.063 193.953L371.376 166.621Z" fill="#0099FF" stroke="#1E2532" stroke-width="0.2" stroke-linejoin="round"/>
<path d="M371.376 166.625L324.063 193.956L276.751 166.625L324.063 139.293L371.376 166.625Z" fill="#0099FF" stroke="#1E2532" stroke-width="0.2" stroke-linejoin="round"/>
<path d="M324.063 193.95V139.287L371.376 111.945V166.619L324.063 193.95Z" fill="#0099FF" stroke="#1E2532" stroke-width="0.2" stroke-linejoin="round"/>
<path d="M276.751 166.619V111.945L324.063 139.287V193.95L276.751 166.619Z" fill="#0099FF" stroke="#1E2532" stroke-width="0.2" stroke-linejoin="round"/>
<path d="M371.376 111.949L324.063 84.6172L276.751 111.949L324.063 139.291L371.376 111.949Z" fill="#0099FF" stroke="#1E2532" stroke-width="0.2" stroke-linejoin="round"/>
<path d="M418.688 248.613L371.375 275.955L324.063 248.613L371.375 221.281L418.688 248.613Z" fill="#0099FF" stroke="#1E2532" stroke-width="0.2" stroke-linejoin="round"/>
<path d="M371.375 275.95V221.277L418.688 193.945V248.609L371.375 275.95Z" fill="#0F7FC9" stroke="#1E2532" stroke-width="0.2" stroke-linejoin="round"/>
<path d="M324.062 248.609V193.945L371.375 221.277V275.95L324.062 248.609Z" fill="#0099FF" stroke="#1E2532" stroke-width="0.2" stroke-linejoin="round"/>
<path d="M418.688 193.949L371.375 166.617L324.063 193.949L371.375 221.281L418.688 193.949Z" fill="#0099FF" stroke="#1E2532" stroke-width="0.2" stroke-linejoin="round"/>
<path d="M418.688 193.957L371.375 221.288L324.063 193.957L371.375 166.625L418.688 193.957Z" fill="#0099FF" stroke="#1E2532" stroke-width="0.2" stroke-linejoin="round"/>
<path d="M371.375 221.284V166.621L418.688 139.289V193.953L371.375 221.284Z" fill="#0F7FC9" stroke="#1E2532" stroke-width="0.2" stroke-linejoin="round"/>
<path d="M324.062 193.953V139.289L371.375 166.621V221.284L324.062 193.953Z" fill="#0099FF" stroke="#1E2532" stroke-width="0.2" stroke-linejoin="round"/>
<path d="M418.688 139.291L371.375 111.949L324.063 139.291L371.375 166.623L418.688 139.291Z" fill="#0099FF" stroke="#1E2532" stroke-width="0.2" stroke-linejoin="round"/>
<path d="M371.376 111.949L324.063 139.291L276.751 111.949L324.063 84.6172L371.376 111.949Z" fill="#0099FF" stroke="#1E2532" stroke-width="0.2" stroke-linejoin="round"/>
<path d="M324.063 139.286V84.613L371.376 57.2812V111.945L324.063 139.286Z" fill="#0099FF" stroke="#1E2532" stroke-width="0.2" stroke-linejoin="round"/>
<path d="M276.751 111.945V57.2812L324.063 84.613V139.286L276.751 111.945Z" fill="#0099FF" stroke="#1E2532" stroke-width="0.2" stroke-linejoin="round"/>
<path d="M371.376 57.2848L324.063 29.9531L276.751 57.2848L324.063 84.6166L371.376 57.2848Z" fill="#0099FF" stroke="#1E2532" stroke-width="0.2" stroke-linejoin="round"/>
<path d="M418.688 139.291L371.375 166.623L324.063 139.291L371.375 111.949L418.688 139.291Z" fill="#0099FF" stroke="#1E2532" stroke-width="0.2" stroke-linejoin="round"/>
<path d="M371.375 166.618V111.945L418.688 84.6133V139.287L371.375 166.618Z" fill="#0F7FC9" stroke="#1E2532" stroke-width="0.2" stroke-linejoin="round"/>
<path d="M324.062 139.287V84.6133L371.375 111.945V166.618L324.062 139.287Z" fill="#0099FF" stroke="#1E2532" stroke-width="0.2" stroke-linejoin="round"/>
<path d="M418.688 84.6169L371.375 57.2852L324.063 84.6169L371.375 111.949L418.688 84.6169Z" fill="#0099FF" stroke="#1E2532" stroke-width="0.2" stroke-linejoin="round"/>
<path d="M353.636 94.8689V53.8763L389.125 33.375V74.3676L353.636 94.8689Z" fill="#0099FF" stroke="#1E2532" stroke-width="0.2" stroke-linejoin="round"/>
<path d="M306.323 67.5338V26.5312L353.636 53.873V94.8656L306.323 67.5338Z" fill="#0099FF" stroke="#1E2532" stroke-width="0.2" stroke-linejoin="round"/>
<path d="M389.125 33.373L341.812 6.03125L306.323 26.5325L353.636 53.8743L389.125 33.373Z" fill="#0099FF" stroke="#1E2532" stroke-width="0.2" stroke-linejoin="round"/>
<path d="M386.387 120.188L404.236 130.498V151.119L386.387 140.809V120.188Z" fill="#0099FF" stroke="#1E2532" stroke-width="0.2" stroke-linejoin="round"/>
<path d="M422.086 140.809L404.236 151.119V130.498L422.086 120.188V140.809Z" fill="#0099FF" stroke="#1E2532" stroke-width="0.2" stroke-linejoin="round"/>
<path d="M404.086 110.117L422.086 120.188L404.236 130.498L386.387 120.188L404.086 110.117Z" fill="#0099FF" stroke="#1E2532" stroke-width="0.2" stroke-linejoin="round"/>
<path d="M341.812 24.9232L335.896 28.3434V7.84207L341.812 4.42188V24.9232Z" fill="white" stroke="#1E2532" stroke-width="0.2" stroke-linejoin="round"/>
<path d="M329.979 4.42188L335.896 7.84207V28.3434L329.979 24.9232V4.42188Z" fill="white" stroke="#1E2532" stroke-width="0.2" stroke-linejoin="round"/>
<path d="M329.979 4.42001L335.896 1L341.812 4.42001L335.896 7.84L329.979 4.42001Z" fill="white" stroke="#1E2532" stroke-width="0.2" stroke-linejoin="round"/>
<path d="M365.469 38.5851L359.552 42.0053V21.504L365.469 18.0938V38.5851Z" fill="white" stroke="#1E2532" stroke-width="0.2" stroke-linejoin="round"/>
<path d="M353.635 18.0938L359.552 21.504V42.0053L353.635 38.5851V18.0938Z" fill="white" stroke="#1E2532" stroke-width="0.2" stroke-linejoin="round"/>
<path d="M353.636 18.0919L359.552 14.6719L365.469 18.0919L359.552 21.5019L353.636 18.0919Z" fill="white" stroke="#1E2532" stroke-width="0.2" stroke-linejoin="round"/>
<path d="M494.583 83.8854L498.542 86.1788L486.402 93.0707L482.443 90.7773L494.583 83.8854Z" fill="#0099FF" stroke="#1E2532" stroke-width="0.2" stroke-linejoin="round"/>
<path d="M486.349 97.7116L486.445 93.1279L498.585 86.236L498.489 90.8198L486.349 97.7116Z" fill="#0099FF" stroke="#1E2532" stroke-width="0.2" stroke-linejoin="round"/>
<path d="M482.477 90.722L482.384 95.375L486.391 97.69" fill="#0099FF"/>
<path d="M482.477 90.722L482.384 95.375L486.391 97.69" stroke="#1E2532" stroke-width="0.2" stroke-linejoin="round"/>
<path d="M494.46 98.69L498.419 100.983L486.279 107.875L482.32 105.582L494.46 98.69Z" fill="#0099FF" stroke="#1E2532" stroke-width="0.2" stroke-linejoin="round"/>
<path d="M486.225 112.516L486.322 107.933L498.462 101.041L498.366 105.624L486.225 112.516Z" fill="#0099FF" stroke="#1E2532" stroke-width="0.2" stroke-linejoin="round"/>
<path d="M482.354 105.527L482.261 110.18L486.268 112.495" fill="#0099FF"/>
<path d="M482.354 105.527L482.261 110.18L486.268 112.495" stroke="#1E2532" stroke-width="0.2" stroke-linejoin="round"/>
<path d="M474.912 84.8822L494.039 96.1456L493.791 118.363L474.665 107.1L474.912 84.8822Z" fill="white" stroke="#1E2532" stroke-width="0.2" stroke-linejoin="round"/>
<path d="M455.559 95.8242L474.665 107.079L494.018 96.1325L474.912 84.8777L455.559 95.8242Z" fill="white" stroke="#1E2532" stroke-width="0.2" stroke-linejoin="round"/>
<path d="M493.801 118.356L474.447 129.302L474.694 107.101L494.048 96.1544L493.801 118.356Z" fill="white" stroke="#1E2532" stroke-width="0.2" stroke-linejoin="round"/>
<path d="M455.578 95.8118L455.331 118.03L474.458 129.293L474.705 107.075L455.578 95.8118Z" fill="white" stroke="#1E2532" stroke-width="0.2" stroke-linejoin="round"/>
<path d="M376.749 162.823L405.632 179.569L406.297 146.025L377.423 129.274L376.749 162.823Z" fill="#0099FF" stroke="#1E2532" stroke-width="0.2" stroke-linejoin="round"/>
<path d="M484.043 101.79L483.593 135.374L405.505 179.713L405.955 146.129L484.043 101.79Z" fill="#0099FF" stroke="#1E2532" stroke-width="0.2" stroke-linejoin="round"/>
<path d="M455.332 85.1844L483.952 101.769L405.864 146.108L377.244 129.523L455.332 85.1844Z" fill="#0099FF" stroke="#1E2532" stroke-width="0.2" stroke-linejoin="round"/>
<path d="M378.781 69.4383L368.117 75.5387V63.2779L378.781 57.1875V69.4383Z" fill="white" stroke="#1E2532" stroke-width="0.2" stroke-linejoin="round"/>
<path d="M364.629 73.5256L368.117 75.5356V63.2756L364.629 61.2656V73.5256Z" fill="white" stroke="#1E2532" stroke-width="0.2" stroke-linejoin="round"/>
<path d="M378.781 57.1867L375.243 55.1367L364.63 61.2667L368.117 63.2767L378.781 57.1867Z" fill="white" stroke="#1E2532" stroke-width="0.2" stroke-linejoin="round"/>
<path d="M312.57 228.535V132.529L348.05 112.027V208.033L312.57 228.535Z" fill="#ED889B" stroke="#1E2532" stroke-width="0.2" stroke-linejoin="round"/>
<path d="M265.248 201.205V105.199L312.57 132.531V228.537L265.248 201.205Z" fill="#F9B8C4" stroke="#1E2532" stroke-width="0.2" stroke-linejoin="round"/>
<path d="M348.05 112.031L300.737 84.6992L265.248 105.201L312.57 132.532L348.05 112.031Z" fill="#F9B8C4" stroke="#1E2532" stroke-width="0.2" stroke-linejoin="round"/>
<path d="M324.394 115.502L318.567 118.862V112.132L324.394 108.762V115.502Z" fill="#31E7B6" stroke="#1E2532" stroke-width="0.2" stroke-linejoin="round"/>
<path d="M312.73 108.762V115.502L318.566 118.862V112.132L312.73 108.762Z" fill="#31E7B6" stroke="#1E2532" stroke-width="0.2" stroke-linejoin="round"/>
<path d="M324.394 108.761L318.567 105.391L312.73 108.761L318.567 112.131L324.394 108.761Z" fill="#31E7B6" stroke="#1E2532" stroke-width="0.2" stroke-linejoin="round"/>
<path d="M336.137 208.655L330.31 212.025V135.28L336.137 131.91V208.655Z" fill="white" stroke="#1E2532" stroke-width="0.2" stroke-linejoin="round"/>
<path d="M324.474 131.91V208.655L330.311 212.025V135.28L324.474 131.91Z" fill="white" stroke="#1E2532" stroke-width="0.2" stroke-linejoin="round"/>
<path d="M336.137 131.911L330.31 128.551L324.474 131.911L330.31 135.281L336.137 131.911Z" fill="white" stroke="#1E2532" stroke-width="0.2" stroke-linejoin="round"/>
<path d="M312.73 108.377L306.904 111.747V105.007L312.73 101.637V108.377Z" fill="white" stroke="#1E2532" stroke-width="0.2" stroke-linejoin="round"/>
<path d="M301.077 101.637V108.377L306.903 111.747V105.007L301.077 101.637Z" fill="white" stroke="#1E2532" stroke-width="0.2" stroke-linejoin="round"/>
<path d="M312.73 101.636L306.904 98.2656L301.077 101.636L306.904 105.006L312.73 101.636Z" fill="white" stroke="#1E2532" stroke-width="0.2" stroke-linejoin="round"/>
<path d="M301.077 101.64L295.241 105.01V98.2702L301.077 94.9102V101.64Z" fill="#FE595A" stroke="#1E2532" stroke-width="0.2" stroke-linejoin="round"/>
<path d="M289.415 94.9102V101.64L295.241 105.01V98.2702L289.415 94.9102Z" fill="#FE595A" stroke="#1E2532" stroke-width="0.2" stroke-linejoin="round"/>
<path d="M301.077 94.9091L295.241 91.5391L289.414 94.9091L295.241 98.2691L301.077 94.9091Z" fill="#FE595A" stroke="#1E2532" stroke-width="0.2" stroke-linejoin="round"/>
</svg>
