<svg width="819" height="826" viewBox="0 0 819 826" fill="none" xmlns="http://www.w3.org/2000/svg">
<path d="M264.229 151.619L244.983 162.719L225.737 151.619L244.983 140.52L264.229 151.619Z" fill="#F9B8C4" stroke="#1E2532" stroke-width="0.2" stroke-linejoin="round"/>
<path d="M264.229 129.414L244.983 140.518V162.717L264.229 151.617V129.414Z" fill="#ED889B" stroke="#1E2532" stroke-width="0.2" stroke-linejoin="round"/>
<path d="M225.737 151.617V129.414L244.983 140.518V162.717L225.737 151.617Z" fill="#F9B8C4" stroke="#1E2532" stroke-width="0.2" stroke-linejoin="round"/>
<path d="M264.229 129.416L244.983 118.316L225.737 129.416L244.983 140.52L264.229 129.416Z" fill="#F9B8C4" stroke="#1E2532" stroke-width="0.2" stroke-linejoin="round"/>
<path d="M743.408 270.304L728.143 279.108L712.877 270.304L728.143 261.5L743.408 270.304Z" fill="white" stroke="#1E2532" stroke-width="0.2" stroke-linejoin="round"/>
<path d="M743.408 252.691L728.143 261.499V279.107L743.408 270.303V252.691Z" fill="#E2E2E2" stroke="#1E2532" stroke-width="0.2" stroke-linejoin="round"/>
<path d="M712.877 270.303V252.691L728.143 261.499V279.107L712.877 270.303Z" fill="white" stroke="#1E2532" stroke-width="0.2" stroke-linejoin="round"/>
<path d="M743.408 252.691L728.143 243.887L712.877 252.691L728.143 261.498L743.408 252.691Z" fill="white" stroke="#1E2532" stroke-width="0.2" stroke-linejoin="round"/>
<path d="M517.612 248.489L499.929 258.688L482.245 248.489L499.929 238.289L517.612 248.489Z" fill="white" stroke="#1E2532" stroke-width="0.2" stroke-linejoin="round"/>
<path d="M517.612 228.09L499.929 238.289V258.688L517.612 248.489V228.09Z" fill="#37C99E" stroke="#1E2532" stroke-width="0.2" stroke-linejoin="round"/>
<path d="M482.245 248.489V228.09L499.929 238.289V258.688L482.245 248.489Z" fill="#31E7B6" stroke="#1E2532" stroke-width="0.2" stroke-linejoin="round"/>
<path d="M517.612 228.09L499.929 217.891L482.245 228.09L499.929 238.29L517.612 228.09Z" fill="#31E7B6" stroke="#1E2532" stroke-width="0.2" stroke-linejoin="round"/>
<path d="M787.72 465.144L765.549 477.932L743.377 465.144L765.549 452.355L787.72 465.144Z" fill="#F9B8C4" stroke="#1E2532" stroke-width="0.2" stroke-linejoin="round"/>
<path d="M787.72 439.562L765.549 452.351V477.927L787.72 465.139V439.562Z" fill="#ED889B" stroke="#1E2532" stroke-width="0.2" stroke-linejoin="round"/>
<path d="M743.377 465.139V439.562L765.549 452.351V477.927L743.377 465.139Z" fill="#F9B8C4" stroke="#1E2532" stroke-width="0.2" stroke-linejoin="round"/>
<path d="M787.72 439.565L765.549 426.777L743.377 439.565L765.549 452.354L787.72 439.565Z" fill="#F9B8C4" stroke="#1E2532" stroke-width="0.2" stroke-linejoin="round"/>
<path d="M582.815 554.384L535.451 581.7L488.087 554.384L535.451 527.059L582.815 554.384Z" fill="#F9B8C4" stroke="#1E2532" stroke-width="0.2" stroke-linejoin="round"/>
<path d="M582.815 499.738L535.451 527.054V581.696L582.815 554.38V499.738Z" fill="#F9B8C4" stroke="#1E2532" stroke-width="0.2" stroke-linejoin="round"/>
<path d="M488.087 554.38V499.738L535.451 527.054V581.696L488.087 554.38Z" fill="#F9B8C4" stroke="#1E2532" stroke-width="0.2" stroke-linejoin="round"/>
<path d="M582.815 499.742L535.451 472.426L488.087 499.742L535.451 527.058L582.815 499.742Z" fill="#F9B8C4" stroke="#1E2532" stroke-width="0.2" stroke-linejoin="round"/>
<path d="M630.179 581.703L582.815 609.018L535.451 581.703L582.815 554.387L630.179 581.703Z" fill="#F9B8C4" stroke="#1E2532" stroke-width="0.2" stroke-linejoin="round"/>
<path d="M630.179 527.055L582.815 554.381V609.012L630.179 581.696V527.055Z" fill="#F9B8C4" stroke="#1E2532" stroke-width="0.2" stroke-linejoin="round"/>
<path d="M535.451 581.696V527.055L582.815 554.381V609.012L535.451 581.696Z" fill="#F9B8C4" stroke="#1E2532" stroke-width="0.2" stroke-linejoin="round"/>
<path d="M630.179 527.058L582.815 499.742L535.451 527.058L582.815 554.384L630.179 527.058Z" fill="#F9B8C4" stroke="#1E2532" stroke-width="0.2" stroke-linejoin="round"/>
<path d="M677.544 609.023L630.179 636.339L582.815 609.023L630.179 581.707L677.544 609.023Z" fill="#F9B8C4" stroke="#1E2532" stroke-width="0.2" stroke-linejoin="round"/>
<path d="M677.544 554.387L630.18 581.703V636.334L677.544 609.018V554.387Z" fill="#F9B8C4" stroke="#1E2532" stroke-width="0.2" stroke-linejoin="round"/>
<path d="M582.815 609.018V554.387L630.179 581.703V636.334L582.815 609.018Z" fill="#F9B8C4" stroke="#1E2532" stroke-width="0.2" stroke-linejoin="round"/>
<path d="M677.544 554.388L630.179 527.062L582.815 554.388L630.179 581.704L677.544 554.388Z" fill="#F9B8C4" stroke="#1E2532" stroke-width="0.2" stroke-linejoin="round"/>
<path d="M724.908 636.288L677.544 663.604L630.18 636.288L677.544 608.973L724.908 636.288Z" fill="#F9B8C4" stroke="#1E2532" stroke-width="0.2" stroke-linejoin="round"/>
<path d="M724.908 581.641L677.544 608.967V663.598L724.908 636.282V581.641Z" fill="#F9B8C4" stroke="#1E2532" stroke-width="0.2" stroke-linejoin="round"/>
<path d="M630.18 636.282V581.641L677.544 608.967V663.598L630.18 636.282Z" fill="#F9B8C4" stroke="#1E2532" stroke-width="0.2" stroke-linejoin="round"/>
<path d="M724.908 581.644L677.544 554.328L630.18 581.644L677.544 608.97L724.908 581.644Z" fill="#F9B8C4" stroke="#1E2532" stroke-width="0.2" stroke-linejoin="round"/>
<path d="M772.272 663.601L724.908 690.917L677.544 663.601L724.908 636.285L772.272 663.601Z" fill="#F9B8C4" stroke="#1E2532" stroke-width="0.2" stroke-linejoin="round"/>
<path d="M772.272 608.969L724.908 636.285V690.916L772.272 663.6V608.969Z" fill="#ED889B" stroke="#1E2532" stroke-width="0.2" stroke-linejoin="round"/>
<path d="M677.544 663.6V608.969L724.908 636.285V690.916L677.544 663.6Z" fill="#ED889B" stroke="#1E2532" stroke-width="0.2" stroke-linejoin="round"/>
<path d="M772.272 608.967L724.908 581.641L677.544 608.967L724.908 636.282L772.272 608.967Z" fill="#F9B8C4" stroke="#1E2532" stroke-width="0.2" stroke-linejoin="round"/>
<path d="M535.452 581.722L488.088 609.048L440.724 581.722L488.088 554.406L535.452 581.722Z" fill="#F9B8C4" stroke="#1E2532" stroke-width="0.2" stroke-linejoin="round"/>
<path d="M535.452 527.086L488.088 554.402V609.044L535.452 581.718V527.086Z" fill="#F9B8C4" stroke="#1E2532" stroke-width="0.2" stroke-linejoin="round"/>
<path d="M440.724 581.718V527.086L488.088 554.402V609.044L440.724 581.718Z" fill="#F9B8C4" stroke="#1E2532" stroke-width="0.2" stroke-linejoin="round"/>
<path d="M535.452 527.089L488.088 499.773L440.724 527.089L488.088 554.405L535.452 527.089Z" fill="#F9B8C4" stroke="#1E2532" stroke-width="0.2" stroke-linejoin="round"/>
<path d="M582.815 609.052L535.451 636.368L488.087 609.052L535.451 581.727L582.815 609.052Z" fill="#F9B8C4" stroke="#1E2532" stroke-width="0.2" stroke-linejoin="round"/>
<path d="M582.815 554.406L535.451 581.722V636.364L582.815 609.048V554.406Z" fill="#F9B8C4" stroke="#1E2532" stroke-width="0.2" stroke-linejoin="round"/>
<path d="M488.087 609.048V554.406L535.451 581.722V636.364L488.087 609.048Z" fill="#F9B8C4" stroke="#1E2532" stroke-width="0.2" stroke-linejoin="round"/>
<path d="M582.815 554.41L535.451 527.094L488.087 554.41L535.451 581.726L582.815 554.41Z" fill="#F9B8C4" stroke="#1E2532" stroke-width="0.2" stroke-linejoin="round"/>
<path d="M630.179 636.367L582.815 663.683L535.451 636.367L582.815 609.051L630.179 636.367Z" fill="#F9B8C4" stroke="#1E2532" stroke-width="0.2" stroke-linejoin="round"/>
<path d="M630.179 581.719L582.815 609.045V663.676L630.179 636.36V581.719Z" fill="#F9B8C4" stroke="#1E2532" stroke-width="0.2" stroke-linejoin="round"/>
<path d="M535.451 636.36V581.719L582.815 609.045V663.676L535.451 636.36Z" fill="#F9B8C4" stroke="#1E2532" stroke-width="0.2" stroke-linejoin="round"/>
<path d="M630.179 581.722L582.815 554.406L535.451 581.722L582.815 609.048L630.179 581.722Z" fill="#F9B8C4" stroke="#1E2532" stroke-width="0.2" stroke-linejoin="round"/>
<path d="M677.544 663.632L630.179 690.948L582.815 663.632L630.179 636.316L677.544 663.632Z" fill="#F9B8C4" stroke="#1E2532" stroke-width="0.2" stroke-linejoin="round"/>
<path d="M677.544 608.988L630.18 636.314V690.946L677.544 663.63V608.988Z" fill="#ED889B" stroke="#1E2532" stroke-width="0.2" stroke-linejoin="round"/>
<path d="M582.815 663.63V608.988L630.179 636.314V690.946L582.815 663.63Z" fill="#F9B8C4" stroke="#1E2532" stroke-width="0.2" stroke-linejoin="round"/>
<path d="M677.544 608.988L630.179 581.672L582.815 608.988L630.179 636.314L677.544 608.988Z" fill="#F9B8C4" stroke="#1E2532" stroke-width="0.2" stroke-linejoin="round"/>
<path d="M724.908 704.597L677.544 731.923L630.18 704.597L677.544 677.281L724.908 704.597Z" fill="white" stroke="#1E2532" stroke-width="0.2" stroke-linejoin="round"/>
<path d="M724.908 649.961L677.544 677.277V731.919L724.908 704.593V649.961Z" fill="white" stroke="#1E2532" stroke-width="0.2" stroke-linejoin="round"/>
<path d="M630.18 704.593V649.961L677.544 677.277V731.919L630.18 704.593Z" fill="white" stroke="#1E2532" stroke-width="0.2" stroke-linejoin="round"/>
<path d="M724.908 649.964L677.544 622.648L630.18 649.964L677.544 677.28L724.908 649.964Z" fill="white" stroke="#1E2532" stroke-width="0.2" stroke-linejoin="round"/>
<path d="M488.087 609.124L440.723 636.44L393.359 609.124L440.723 581.809L488.087 609.124Z" fill="#F9B8C4" stroke="#1E2532" stroke-width="0.2" stroke-linejoin="round"/>
<path d="M488.088 554.488L440.724 581.804V636.436L488.088 609.12V554.488Z" fill="#F9B8C4" stroke="#1E2532" stroke-width="0.2" stroke-linejoin="round"/>
<path d="M393.359 609.12V554.488L440.723 581.804V636.436L393.359 609.12Z" fill="#F9B8C4" stroke="#1E2532" stroke-width="0.2" stroke-linejoin="round"/>
<path d="M488.087 554.49L440.723 527.164L393.359 554.49L440.723 581.806L488.087 554.49Z" fill="#F9B8C4" stroke="#1E2532" stroke-width="0.2" stroke-linejoin="round"/>
<path d="M535.452 636.437L488.088 663.753L440.724 636.437L488.088 609.121L535.452 636.437Z" fill="#F9B8C4" stroke="#1E2532" stroke-width="0.2" stroke-linejoin="round"/>
<path d="M535.452 581.801L488.088 609.117V663.748L535.452 636.433V581.801Z" fill="#F9B8C4" stroke="#1E2532" stroke-width="0.2" stroke-linejoin="round"/>
<path d="M440.724 636.433V581.801L488.088 609.117V663.748L440.724 636.433Z" fill="#F9B8C4" stroke="#1E2532" stroke-width="0.2" stroke-linejoin="round"/>
<path d="M535.452 581.804L488.088 554.488L440.724 581.804L488.088 609.12L535.452 581.804Z" fill="#F9B8C4" stroke="#1E2532" stroke-width="0.2" stroke-linejoin="round"/>
<path d="M582.815 663.749L535.451 691.065L488.087 663.749L535.451 636.434L582.815 663.749Z" fill="#F9B8C4" stroke="#1E2532" stroke-width="0.2" stroke-linejoin="round"/>
<path d="M582.815 609.117L535.451 636.433V691.065L582.815 663.749V609.117Z" fill="#F9B8C4" stroke="#1E2532" stroke-width="0.2" stroke-linejoin="round"/>
<path d="M488.087 663.749V609.117L535.451 636.433V691.065L488.087 663.749Z" fill="#F9B8C4" stroke="#1E2532" stroke-width="0.2" stroke-linejoin="round"/>
<path d="M582.815 609.117L535.451 581.801L488.087 609.117L535.451 636.433L582.815 609.117Z" fill="#F9B8C4" stroke="#1E2532" stroke-width="0.2" stroke-linejoin="round"/>
<path d="M630.179 691.015L582.815 718.331L535.451 691.015L582.815 663.699L630.179 691.015Z" fill="#F9B8C4" stroke="#1E2532" stroke-width="0.2" stroke-linejoin="round"/>
<path d="M630.179 636.379L582.815 663.695V718.327L630.179 691.011V636.379Z" fill="#F9B8C4" stroke="#1E2532" stroke-width="0.2" stroke-linejoin="round"/>
<path d="M535.451 691.011V636.379L582.815 663.695V718.327L535.451 691.011Z" fill="#F9B8C4" stroke="#1E2532" stroke-width="0.2" stroke-linejoin="round"/>
<path d="M630.179 636.382L582.815 609.066L535.451 636.382L582.815 663.698L630.179 636.382Z" fill="#F9B8C4" stroke="#1E2532" stroke-width="0.2" stroke-linejoin="round"/>
<path d="M677.544 718.332L630.179 745.647L582.815 718.332L630.179 691.016L677.544 718.332Z" fill="#F9B8C4" stroke="#1E2532" stroke-width="0.2" stroke-linejoin="round"/>
<path d="M677.544 663.695L630.18 691.011V745.643L677.544 718.327V663.695Z" fill="#ED889B" stroke="#1E2532" stroke-width="0.2" stroke-linejoin="round"/>
<path d="M582.815 718.327V663.695L630.179 691.011V745.643L582.815 718.327Z" fill="#ED889B" stroke="#1E2532" stroke-width="0.2" stroke-linejoin="round"/>
<path d="M677.544 663.699L630.179 636.383L582.815 663.699L630.179 691.015L677.544 663.699Z" fill="#F9B8C4" stroke="#1E2532" stroke-width="0.2" stroke-linejoin="round"/>
<path d="M440.724 636.468L393.36 663.784L345.996 636.468L393.36 609.152L440.724 636.468Z" fill="#F9B8C4" stroke="#1E2532" stroke-width="0.2" stroke-linejoin="round"/>
<path d="M440.724 581.82L393.36 609.146V663.778L440.724 636.462V581.82Z" fill="#F9B8C4" stroke="#1E2532" stroke-width="0.2" stroke-linejoin="round"/>
<path d="M345.996 636.462V581.82L393.36 609.146V663.778L345.996 636.462Z" fill="#F9B8C4" stroke="#1E2532" stroke-width="0.2" stroke-linejoin="round"/>
<path d="M440.724 581.824L393.36 554.508L345.996 581.824L393.36 609.15L440.724 581.824Z" fill="#F9B8C4" stroke="#1E2532" stroke-width="0.2" stroke-linejoin="round"/>
<path d="M488.087 663.781L440.723 691.097L393.359 663.781L440.723 636.465L488.087 663.781Z" fill="#F9B8C4" stroke="#1E2532" stroke-width="0.2" stroke-linejoin="round"/>
<path d="M488.088 609.148L440.724 636.464V691.096L488.088 663.78V609.148Z" fill="#F9B8C4" stroke="#1E2532" stroke-width="0.2" stroke-linejoin="round"/>
<path d="M393.359 663.78V609.148L440.723 636.464V691.096L393.359 663.78Z" fill="#F9B8C4" stroke="#1E2532" stroke-width="0.2" stroke-linejoin="round"/>
<path d="M488.087 609.146L440.723 581.82L393.359 609.146L440.723 636.462L488.087 609.146Z" fill="#F9B8C4" stroke="#1E2532" stroke-width="0.2" stroke-linejoin="round"/>
<path d="M535.452 691.093L488.088 718.409L440.724 691.093L488.088 663.777L535.452 691.093Z" fill="#F9B8C4" stroke="#1E2532" stroke-width="0.2" stroke-linejoin="round"/>
<path d="M535.452 636.457L488.088 663.773V718.405L535.452 691.089V636.457Z" fill="#F9B8C4" stroke="#1E2532" stroke-width="0.2" stroke-linejoin="round"/>
<path d="M440.724 691.089V636.457L488.088 663.773V718.405L440.724 691.089Z" fill="#ED889B" stroke="#1E2532" stroke-width="0.2" stroke-linejoin="round"/>
<path d="M535.452 636.46L488.088 609.145L440.724 636.46L488.088 663.776L535.452 636.46Z" fill="#F9B8C4" stroke="#1E2532" stroke-width="0.2" stroke-linejoin="round"/>
<path d="M582.815 718.363L535.451 745.679L488.087 718.363L535.451 691.047L582.815 718.363Z" fill="#F9B8C4" stroke="#1E2532" stroke-width="0.2" stroke-linejoin="round"/>
<path d="M582.815 663.727L535.451 691.042V745.674L582.815 718.358V663.727Z" fill="#ED889B" stroke="#1E2532" stroke-width="0.2" stroke-linejoin="round"/>
<path d="M488.087 718.358V663.727L535.451 691.042V745.674L488.087 718.358Z" fill="#ED889B" stroke="#1E2532" stroke-width="0.2" stroke-linejoin="round"/>
<path d="M582.815 663.73L535.451 636.414L488.087 663.73L535.451 691.046L582.815 663.73Z" fill="#F9B8C4" stroke="#1E2532" stroke-width="0.2" stroke-linejoin="round"/>
<path d="M393.36 663.81L345.996 691.126L298.632 663.81L345.996 636.484L393.36 663.81Z" fill="#F9B8C4" stroke="#1E2532" stroke-width="0.2" stroke-linejoin="round"/>
<path d="M393.36 609.168L345.996 636.484V691.126L393.36 663.81V609.168Z" fill="#F9B8C4" stroke="#1E2532" stroke-width="0.2" stroke-linejoin="round"/>
<path d="M298.632 663.81V609.168L345.996 636.484V691.126L298.632 663.81Z" fill="#F9B8C4" stroke="#1E2532" stroke-width="0.2" stroke-linejoin="round"/>
<path d="M393.36 609.167L345.996 581.852L298.632 609.167L345.996 636.483L393.36 609.167Z" fill="#F9B8C4" stroke="#1E2532" stroke-width="0.2" stroke-linejoin="round"/>
<path d="M440.724 691.124L393.36 718.44L345.996 691.124L393.36 663.809L440.724 691.124Z" fill="#F9B8C4" stroke="#1E2532" stroke-width="0.2" stroke-linejoin="round"/>
<path d="M440.724 636.477L393.36 663.802V718.434L440.724 691.118V636.477Z" fill="#ED889B" stroke="#1E2532" stroke-width="0.2" stroke-linejoin="round"/>
<path d="M345.996 691.118V636.477L393.36 663.802V718.434L345.996 691.118Z" fill="#F9B8C4" stroke="#1E2532" stroke-width="0.2" stroke-linejoin="round"/>
<path d="M440.724 636.48L393.36 609.164L345.996 636.48L393.36 663.806L440.724 636.48Z" fill="#F9B8C4" stroke="#1E2532" stroke-width="0.2" stroke-linejoin="round"/>
<path d="M488.087 745.701L440.723 773.017L393.359 745.701L440.723 718.375L488.087 745.701Z" fill="#F9B8C4" stroke="#1E2532" stroke-width="0.2" stroke-linejoin="round"/>
<path d="M488.088 691.055L440.724 718.371V773.012L488.088 745.696V691.055Z" fill="#F9B8C4" stroke="#1E2532" stroke-width="0.2" stroke-linejoin="round"/>
<path d="M393.359 745.696V691.055L440.723 718.371V773.012L393.359 745.696Z" fill="#F9B8C4" stroke="#1E2532" stroke-width="0.2" stroke-linejoin="round"/>
<path d="M488.087 691.058L440.723 663.742L393.359 691.058L440.723 718.374L488.087 691.058Z" fill="white" stroke="#1E2532" stroke-width="0.2" stroke-linejoin="round"/>
<path d="M535.452 772.953L488.088 800.268L440.724 772.953L488.088 745.637L535.452 772.953Z" fill="#F9B8C4" stroke="#1E2532" stroke-width="0.2" stroke-linejoin="round"/>
<path d="M535.452 718.316L488.088 745.632V800.264L535.452 772.948V718.316Z" fill="#F9B8C4" stroke="#1E2532" stroke-width="0.2" stroke-linejoin="round"/>
<path d="M440.724 772.948V718.316L488.088 745.632V800.264L440.724 772.948Z" fill="#F9B8C4" stroke="#1E2532" stroke-width="0.2" stroke-linejoin="round"/>
<path d="M535.452 718.32L488.088 691.004L440.724 718.32L488.088 745.636L535.452 718.32Z" fill="white" stroke="#1E2532" stroke-width="0.2" stroke-linejoin="round"/>
<path d="M345.995 691.093L298.631 718.409L251.267 691.093L298.631 663.777L345.995 691.093Z" fill="#F9B8C4" stroke="#1E2532" stroke-width="0.2" stroke-linejoin="round"/>
<path d="M345.995 636.457L298.631 663.773V718.405L345.995 691.089V636.457Z" fill="#F9B8C4" stroke="#1E2532" stroke-width="0.2" stroke-linejoin="round"/>
<path d="M251.267 691.089V636.457L298.631 663.773V718.405L251.267 691.089Z" fill="#F9B8C4" stroke="#1E2532" stroke-width="0.2" stroke-linejoin="round"/>
<path d="M345.995 636.46L298.631 609.145L251.267 636.46L298.631 663.776L345.995 636.46Z" fill="#F9B8C4" stroke="#1E2532" stroke-width="0.2" stroke-linejoin="round"/>
<path d="M393.36 718.414L345.996 745.739L298.632 718.414L345.996 691.098L393.36 718.414Z" fill="#F9B8C4" stroke="#1E2532" stroke-width="0.2" stroke-linejoin="round"/>
<path d="M393.36 663.777L345.996 691.093V745.735L393.36 718.409V663.777Z" fill="#ED889B" stroke="#1E2532" stroke-width="0.2" stroke-linejoin="round"/>
<path d="M298.632 718.409V663.777L345.996 691.093V745.735L298.632 718.409Z" fill="#F9B8C4" stroke="#1E2532" stroke-width="0.2" stroke-linejoin="round"/>
<path d="M393.36 663.781L345.996 636.465L298.632 663.781L345.996 691.097L393.36 663.781Z" fill="#F9B8C4" stroke="#1E2532" stroke-width="0.2" stroke-linejoin="round"/>
<path d="M440.724 772.98L393.36 800.296L345.996 772.98L393.36 745.664L440.724 772.98Z" fill="#F9B8C4" stroke="#1E2532" stroke-width="0.2" stroke-linejoin="round"/>
<path d="M440.724 718.344L393.36 745.66V800.291L440.724 772.975V718.344Z" fill="#F9B8C4" stroke="#1E2532" stroke-width="0.2" stroke-linejoin="round"/>
<path d="M345.996 772.975V718.344L393.36 745.66V800.291L345.996 772.975Z" fill="#F9B8C4" stroke="#1E2532" stroke-width="0.2" stroke-linejoin="round"/>
<path d="M440.724 718.347L393.36 691.031L345.996 718.347L393.36 745.663L440.724 718.347Z" fill="white" stroke="#1E2532" stroke-width="0.2" stroke-linejoin="round"/>
<path d="M488.087 800.249L440.723 827.565L393.359 800.249L440.723 772.934L488.087 800.249Z" fill="#F9B8C4" stroke="#1E2532" stroke-width="0.2" stroke-linejoin="round"/>
<path d="M488.088 745.613L440.724 772.929V827.561L488.088 800.245V745.613Z" fill="#F9B8C4" stroke="#1E2532" stroke-width="0.2" stroke-linejoin="round"/>
<path d="M393.359 800.245V745.613L440.723 772.929V827.561L393.359 800.245Z" fill="#F9B8C4" stroke="#1E2532" stroke-width="0.2" stroke-linejoin="round"/>
<path d="M488.087 745.615L440.723 718.289L393.359 745.615L440.723 772.931L488.087 745.615Z" fill="white" stroke="#1E2532" stroke-width="0.2" stroke-linejoin="round"/>
<path d="M298.631 718.392L251.267 745.708L203.903 718.392L251.267 691.066L298.631 718.392Z" fill="#F9B8C4" stroke="#1E2532" stroke-width="0.2" stroke-linejoin="round"/>
<path d="M298.632 663.746L251.268 691.062V745.704L298.632 718.388V663.746Z" fill="#F9B8C4" stroke="#1E2532" stroke-width="0.2" stroke-linejoin="round"/>
<path d="M203.903 718.388V663.746L251.267 691.062V745.704L203.903 718.388Z" fill="#ED889B" stroke="#1E2532" stroke-width="0.2" stroke-linejoin="round"/>
<path d="M298.631 663.749L251.267 636.434L203.903 663.749L251.267 691.065L298.631 663.749Z" fill="#F9B8C4" stroke="#1E2532" stroke-width="0.2" stroke-linejoin="round"/>
<path d="M582.815 499.828L535.451 527.143L488.087 499.828L535.451 472.512L582.815 499.828Z" fill="#F9B8C4" stroke="#1E2532" stroke-width="0.2" stroke-linejoin="round"/>
<path d="M582.815 445.191L535.451 472.507V527.139L582.815 499.823V445.191Z" fill="#ED889B" stroke="#1E2532" stroke-width="0.2" stroke-linejoin="round"/>
<path d="M488.087 499.823V445.191L535.451 472.507V527.139L488.087 499.823Z" fill="#F9B8C4" stroke="#1E2532" stroke-width="0.2" stroke-linejoin="round"/>
<path d="M582.815 445.193L535.451 417.867L488.087 445.193L535.451 472.509L582.815 445.193Z" fill="#F9B8C4" stroke="#1E2532" stroke-width="0.2" stroke-linejoin="round"/>
<path d="M597.458 91.4242L575.062 104.341L552.666 91.4242L575.062 78.5078L597.458 91.4242Z" fill="#F9B8C4" stroke="#1E2532" stroke-width="0.2" stroke-linejoin="round"/>
<path d="M597.459 65.582L575.062 78.5032V104.336L597.459 91.4196V65.582Z" fill="#ED889B" stroke="#1E2532" stroke-width="0.2" stroke-linejoin="round"/>
<path d="M552.666 91.4196V65.582L575.062 78.5032V104.336L552.666 91.4196Z" fill="#F9B8C4" stroke="#1E2532" stroke-width="0.2" stroke-linejoin="round"/>
<path d="M597.458 65.5844L575.062 52.668L552.666 65.5844L575.062 78.5055L597.458 65.5844Z" fill="#F9B8C4" stroke="#1E2532" stroke-width="0.2" stroke-linejoin="round"/>
<path d="M319.878 403.515L340.603 415.468L361.328 403.515L340.603 391.562L319.878 403.515Z" fill="white" stroke="#1E2532" stroke-width="0.2" stroke-linejoin="round"/>
<path d="M319.876 379.598L340.602 391.555V415.46L319.876 403.507V379.598Z" fill="#E2E2E2" stroke="#1E2532" stroke-width="0.2" stroke-linejoin="round"/>
<path d="M361.328 403.507V379.598L340.603 391.555V415.46L361.328 403.507Z" fill="white" stroke="#1E2532" stroke-width="0.2" stroke-linejoin="round"/>
<path d="M319.878 379.605L340.603 367.652L361.328 379.605L340.603 391.562L319.878 379.605Z" fill="white" stroke="#1E2532" stroke-width="0.2" stroke-linejoin="round"/>
<path d="M575.062 52.6742L552.666 65.5906L530.27 52.6742L552.666 39.7578L575.062 52.6742Z" fill="#F9B8C4" stroke="#1E2532" stroke-width="0.2" stroke-linejoin="round"/>
<path d="M575.061 26.8359L552.665 39.7523V65.5851L575.061 52.6687V26.8359Z" fill="#F9B8C4" stroke="#1E2532" stroke-width="0.2" stroke-linejoin="round"/>
<path d="M530.27 52.6687V26.8359L552.666 39.7523V65.5851L530.27 52.6687Z" fill="#F9B8C4" stroke="#1E2532" stroke-width="0.2" stroke-linejoin="round"/>
<path d="M575.062 26.8383L552.666 13.9219L530.27 26.8383L552.666 39.7547L575.062 26.8383Z" fill="#ED889B" stroke="#1E2532" stroke-width="0.2" stroke-linejoin="round"/>
<path d="M340.604 367.648L361.329 379.601L382.055 367.648L361.329 355.695L340.604 367.648Z" fill="white" stroke="#1E2532" stroke-width="0.2" stroke-linejoin="round"/>
<path d="M340.603 343.738L361.328 355.691V379.596L340.603 367.644V343.738Z" fill="white" stroke="#1E2532" stroke-width="0.2" stroke-linejoin="round"/>
<path d="M382.055 367.644V343.738L361.329 355.691V379.596L382.055 367.644Z" fill="white" stroke="#1E2532" stroke-width="0.2" stroke-linejoin="round"/>
<path d="M340.604 343.742L361.329 331.789L382.055 343.742L361.329 355.694L340.604 343.742Z" fill="#E2E2E2" stroke="#1E2532" stroke-width="0.2" stroke-linejoin="round"/>
<path d="M597.458 65.5844L575.062 78.5055L552.666 65.5844L575.062 52.668L597.458 65.5844Z" fill="#F9B8C4" stroke="#1E2532" stroke-width="0.2" stroke-linejoin="round"/>
<path d="M597.459 39.7461L575.062 52.6625V78.5L597.459 65.5789V39.7461Z" fill="#F9B8C4" stroke="#1E2532" stroke-width="0.2" stroke-linejoin="round"/>
<path d="M552.666 65.5789V39.7461L575.062 52.6625V78.5L552.666 65.5789Z" fill="#F9B8C4" stroke="#1E2532" stroke-width="0.2" stroke-linejoin="round"/>
<path d="M597.458 39.7484L575.062 26.832L552.666 39.7484L575.062 52.6648L597.458 39.7484Z" fill="#F9B8C4" stroke="#1E2532" stroke-width="0.2" stroke-linejoin="round"/>
<path d="M319.878 379.601L340.603 391.558L361.328 379.601L340.603 367.648L319.878 379.601Z" fill="white" stroke="#1E2532" stroke-width="0.2" stroke-linejoin="round"/>
<path d="M319.876 355.688L340.602 367.64V391.55L319.876 379.593V355.688Z" fill="white" stroke="#1E2532" stroke-width="0.2" stroke-linejoin="round"/>
<path d="M361.328 379.593V355.688L340.603 367.64V391.55L361.328 379.593Z" fill="white" stroke="#1E2532" stroke-width="0.2" stroke-linejoin="round"/>
<path d="M319.878 355.695L340.603 343.742L361.328 355.695L340.603 367.648L319.878 355.695Z" fill="white" stroke="#1E2532" stroke-width="0.2" stroke-linejoin="round"/>
<path d="M619.855 78.5071L597.459 91.4235L575.062 78.5071L597.459 65.5859L619.855 78.5071Z" fill="#F9B8C4" stroke="#1E2532" stroke-width="0.2" stroke-linejoin="round"/>
<path d="M619.855 52.668L597.459 65.5844V91.4219L619.855 78.5055V52.668Z" fill="#ED889B" stroke="#1E2532" stroke-width="0.2" stroke-linejoin="round"/>
<path d="M575.062 78.5055V52.668L597.459 65.5844V91.4219L575.062 78.5055Z" fill="#F9B8C4" stroke="#1E2532" stroke-width="0.2" stroke-linejoin="round"/>
<path d="M619.855 52.6703L597.459 39.7539L575.062 52.6703L597.459 65.5867L619.855 52.6703Z" fill="#ED889B" stroke="#1E2532" stroke-width="0.2" stroke-linejoin="round"/>
<path d="M299.152 391.566L319.877 403.519L340.603 391.566L319.877 379.609L299.152 391.566Z" fill="white" stroke="#1E2532" stroke-width="0.2" stroke-linejoin="round"/>
<path d="M299.151 367.648L319.876 379.601V403.511L299.151 391.558V367.648Z" fill="#E2E2E2" stroke="#1E2532" stroke-width="0.2" stroke-linejoin="round"/>
<path d="M340.603 391.558V367.648L319.877 379.601V403.511L340.603 391.558Z" fill="white" stroke="#1E2532" stroke-width="0.2" stroke-linejoin="round"/>
<path d="M299.152 367.656L319.877 355.703L340.603 367.656L319.877 379.609L299.152 367.656Z" fill="#E2E2E2" stroke="#1E2532" stroke-width="0.2" stroke-linejoin="round"/>
<path d="M597.458 39.7523L575.062 52.6687L552.666 39.7523L575.062 26.8359L597.458 39.7523Z" fill="#F9B8C4" stroke="#1E2532" stroke-width="0.2" stroke-linejoin="round"/>
<path d="M597.459 13.9141L575.062 26.8305V52.6633L597.459 39.7469V13.9141Z" fill="#ED889B" stroke="#1E2532" stroke-width="0.2" stroke-linejoin="round"/>
<path d="M552.666 39.7469V13.9141L575.062 26.8305V52.6633L552.666 39.7469Z" fill="#F9B8C4" stroke="#1E2532" stroke-width="0.2" stroke-linejoin="round"/>
<path d="M597.458 13.9164L575.062 1L552.666 13.9164L575.062 26.8328L597.458 13.9164Z" fill="#F9B8C4" stroke="#1E2532" stroke-width="0.2" stroke-linejoin="round"/>
<path d="M319.878 355.695L340.603 367.648L361.328 355.695L340.603 343.742L319.878 355.695Z" fill="white" stroke="#1E2532" stroke-width="0.2" stroke-linejoin="round"/>
<path d="M319.876 331.781L340.602 343.734V367.639L319.876 355.687V331.781Z" fill="#E2E2E2" stroke="#1E2532" stroke-width="0.2" stroke-linejoin="round"/>
<path d="M361.328 355.687V331.781L340.603 343.734V367.639L361.328 355.687Z" fill="white" stroke="#1E2532" stroke-width="0.2" stroke-linejoin="round"/>
<path d="M319.878 331.789L340.603 319.836L361.328 331.789L340.603 343.741L319.878 331.789Z" fill="white" stroke="#1E2532" stroke-width="0.2" stroke-linejoin="round"/>
<path d="M535.452 527.171L488.088 554.487L440.724 527.171L488.088 499.855L535.452 527.171Z" fill="#F9B8C4" stroke="#1E2532" stroke-width="0.2" stroke-linejoin="round"/>
<path d="M535.452 472.527L488.088 499.853V554.485L535.452 527.169V472.527Z" fill="#ED889B" stroke="#1E2532" stroke-width="0.2" stroke-linejoin="round"/>
<path d="M440.724 527.169V472.527L488.088 499.853V554.485L440.724 527.169Z" fill="#F9B8C4" stroke="#1E2532" stroke-width="0.2" stroke-linejoin="round"/>
<path d="M535.452 472.527L488.088 445.211L440.724 472.527L488.088 499.853L535.452 472.527Z" fill="#F9B8C4" stroke="#1E2532" stroke-width="0.2" stroke-linejoin="round"/>
<path d="M488.087 554.554L440.723 581.87L393.359 554.554L440.723 527.238L488.087 554.554Z" fill="#F9B8C4" stroke="#1E2532" stroke-width="0.2" stroke-linejoin="round"/>
<path d="M488.088 499.918L440.724 527.234V581.866L488.088 554.55V499.918Z" fill="#ED889B" stroke="#1E2532" stroke-width="0.2" stroke-linejoin="round"/>
<path d="M393.359 554.55V499.918L440.723 527.234V581.866L393.359 554.55Z" fill="#F9B8C4" stroke="#1E2532" stroke-width="0.2" stroke-linejoin="round"/>
<path d="M488.087 499.921L440.723 472.605L393.359 499.921L440.723 527.237L488.087 499.921Z" fill="#F9B8C4" stroke="#1E2532" stroke-width="0.2" stroke-linejoin="round"/>
<path d="M440.724 581.906L393.36 609.222L345.996 581.906L393.36 554.59L440.724 581.906Z" fill="#F9B8C4" stroke="#1E2532" stroke-width="0.2" stroke-linejoin="round"/>
<path d="M440.724 527.27L393.36 554.585V609.217L440.724 581.901V527.27Z" fill="#ED889B" stroke="#1E2532" stroke-width="0.2" stroke-linejoin="round"/>
<path d="M345.996 581.901V527.27L393.36 554.585V609.217L345.996 581.901Z" fill="#F9B8C4" stroke="#1E2532" stroke-width="0.2" stroke-linejoin="round"/>
<path d="M440.724 527.271L393.36 499.945L345.996 527.271L393.36 554.587L440.724 527.271Z" fill="#F9B8C4" stroke="#1E2532" stroke-width="0.2" stroke-linejoin="round"/>
<path d="M393.36 609.253L345.996 636.569L298.632 609.253L345.996 581.938L393.36 609.253Z" fill="#F9B8C4" stroke="#1E2532" stroke-width="0.2" stroke-linejoin="round"/>
<path d="M393.36 554.605L345.996 581.931V636.563L393.36 609.247V554.605Z" fill="#ED889B" stroke="#1E2532" stroke-width="0.2" stroke-linejoin="round"/>
<path d="M298.632 609.247V554.605L345.996 581.931V636.563L298.632 609.247Z" fill="#F9B8C4" stroke="#1E2532" stroke-width="0.2" stroke-linejoin="round"/>
<path d="M393.36 554.609L345.996 527.293L298.632 554.609L345.996 581.935L393.36 554.609Z" fill="#F9B8C4" stroke="#1E2532" stroke-width="0.2" stroke-linejoin="round"/>
<path d="M345.995 636.535L298.631 663.86L251.267 636.535L298.631 609.219L345.995 636.535Z" fill="#F9B8C4" stroke="#1E2532" stroke-width="0.2" stroke-linejoin="round"/>
<path d="M345.995 581.898L298.631 609.214V663.856L345.995 636.53V581.898Z" fill="#ED889B" stroke="#1E2532" stroke-width="0.2" stroke-linejoin="round"/>
<path d="M251.267 636.53V581.898L298.631 609.214V663.856L251.267 636.53Z" fill="#F9B8C4" stroke="#1E2532" stroke-width="0.2" stroke-linejoin="round"/>
<path d="M345.995 581.902L298.631 554.586L251.267 581.902L298.631 609.218L345.995 581.902Z" fill="#F9B8C4" stroke="#1E2532" stroke-width="0.2" stroke-linejoin="round"/>
<path d="M298.631 663.831L251.267 691.147L203.903 663.831L251.267 636.516L298.631 663.831Z" fill="#F9B8C4" stroke="#1E2532" stroke-width="0.2" stroke-linejoin="round"/>
<path d="M298.632 609.199L251.268 636.515V691.147L298.632 663.831V609.199Z" fill="#ED889B" stroke="#1E2532" stroke-width="0.2" stroke-linejoin="round"/>
<path d="M203.903 663.831V609.199L251.267 636.515V691.147L203.903 663.831Z" fill="#ED889B" stroke="#1E2532" stroke-width="0.2" stroke-linejoin="round"/>
<path d="M298.631 609.197L251.267 581.871L203.903 609.197L251.267 636.513L298.631 609.197Z" fill="#F9B8C4" stroke="#1E2532" stroke-width="0.2" stroke-linejoin="round"/>
<path d="M298.631 609.222L251.267 636.538L203.903 609.222L251.267 581.906L298.631 609.222Z" fill="#F9B8C4" stroke="#1E2532" stroke-width="0.2" stroke-linejoin="round"/>
<path d="M298.632 554.586L251.268 581.902V636.534L298.632 609.218V554.586Z" fill="#ED889B" stroke="#1E2532" stroke-width="0.2" stroke-linejoin="round"/>
<path d="M203.903 609.218V554.586L251.267 581.902V636.534L203.903 609.218Z" fill="#ED889B" stroke="#1E2532" stroke-width="0.2" stroke-linejoin="round"/>
<path d="M298.631 554.589L251.267 527.273L203.903 554.589L251.267 581.905L298.631 554.589Z" fill="#F9B8C4" stroke="#1E2532" stroke-width="0.2" stroke-linejoin="round"/>
<path d="M225.737 151.608L206.491 162.707L187.245 151.608L206.491 140.504L225.737 151.608Z" fill="#F9B8C4" stroke="#1E2532" stroke-width="0.2" stroke-linejoin="round"/>
<path d="M225.737 129.402L206.491 140.502V162.705L225.737 151.606V129.402Z" fill="#F9B8C4" stroke="#1E2532" stroke-width="0.2" stroke-linejoin="round"/>
<path d="M187.245 151.606V129.402L206.491 140.502V162.705L187.245 151.606Z" fill="#ED889B" stroke="#1E2532" stroke-width="0.2" stroke-linejoin="round"/>
<path d="M225.737 129.404L206.491 118.305L187.245 129.404L206.491 140.504L225.737 129.404Z" fill="#F9B8C4" stroke="#1E2532" stroke-width="0.2" stroke-linejoin="round"/>
<path d="M712.877 270.292L697.611 279.096L682.346 270.292L697.611 261.484L712.877 270.292Z" fill="white" stroke="#1E2532" stroke-width="0.2" stroke-linejoin="round"/>
<path d="M712.877 252.68L697.611 261.484V279.095L712.877 270.291V252.68Z" fill="white" stroke="#1E2532" stroke-width="0.2" stroke-linejoin="round"/>
<path d="M682.346 270.291V252.68L697.611 261.484V279.095L682.346 270.291Z" fill="#E2E2E2" stroke="#1E2532" stroke-width="0.2" stroke-linejoin="round"/>
<path d="M712.877 252.679L697.611 243.875L682.346 252.679L697.611 261.483L712.877 252.679Z" fill="white" stroke="#1E2532" stroke-width="0.2" stroke-linejoin="round"/>
<path d="M244.983 162.705L225.737 173.805L206.491 162.705L225.737 151.605L244.983 162.705Z" fill="#F9B8C4" stroke="#1E2532" stroke-width="0.2" stroke-linejoin="round"/>
<path d="M244.983 140.5L225.737 151.604V173.803L244.983 162.703V140.5Z" fill="#F9B8C4" stroke="#1E2532" stroke-width="0.2" stroke-linejoin="round"/>
<path d="M206.491 162.703V140.5L225.737 151.604V173.803L206.491 162.703Z" fill="#F9B8C4" stroke="#1E2532" stroke-width="0.2" stroke-linejoin="round"/>
<path d="M244.983 140.502L225.737 129.402L206.491 140.502L225.737 151.606L244.983 140.502Z" fill="#F9B8C4" stroke="#1E2532" stroke-width="0.2" stroke-linejoin="round"/>
<path d="M728.143 279.093L712.877 287.897L697.611 279.093L712.877 270.289L728.143 279.093Z" fill="white" stroke="#1E2532" stroke-width="0.2" stroke-linejoin="round"/>
<path d="M728.143 261.48L712.877 270.288V287.896L728.143 279.092V261.48Z" fill="white" stroke="#1E2532" stroke-width="0.2" stroke-linejoin="round"/>
<path d="M697.611 279.092V261.48L712.877 270.288V287.896L697.611 279.092Z" fill="white" stroke="#1E2532" stroke-width="0.2" stroke-linejoin="round"/>
<path d="M728.143 261.48L712.877 252.676L697.611 261.48L712.877 270.287L728.143 261.48Z" fill="white" stroke="#1E2532" stroke-width="0.2" stroke-linejoin="round"/>
<path d="M264.229 173.803L244.983 184.902L225.737 173.803L244.983 162.703L264.229 173.803Z" fill="#F9B8C4" stroke="#1E2532" stroke-width="0.2" stroke-linejoin="round"/>
<path d="M264.229 151.605L244.983 162.705V184.904L264.229 173.805V151.605Z" fill="#ED889B" stroke="#1E2532" stroke-width="0.2" stroke-linejoin="round"/>
<path d="M225.737 173.805V151.605L244.983 162.705V184.904L225.737 173.805Z" fill="#ED889B" stroke="#1E2532" stroke-width="0.2" stroke-linejoin="round"/>
<path d="M264.229 151.604L244.983 140.5L225.737 151.604L244.983 162.703L264.229 151.604Z" fill="#F9B8C4" stroke="#1E2532" stroke-width="0.2" stroke-linejoin="round"/>
<path d="M743.409 287.898L728.144 296.702L712.878 287.898L728.144 279.094L743.409 287.898Z" fill="white" stroke="#1E2532" stroke-width="0.2" stroke-linejoin="round"/>
<path d="M743.409 270.289L728.144 279.093V296.701L743.409 287.897V270.289Z" fill="#E2E2E2" stroke="#1E2532" stroke-width="0.2" stroke-linejoin="round"/>
<path d="M712.878 287.897V270.289L728.144 279.093V296.701L712.878 287.897Z" fill="#E2E2E2" stroke="#1E2532" stroke-width="0.2" stroke-linejoin="round"/>
<path d="M743.409 270.288L728.144 261.48L712.878 270.288L728.144 279.092L743.409 270.288Z" fill="white" stroke="#1E2532" stroke-width="0.2" stroke-linejoin="round"/>
<path d="M225.737 173.803L206.491 184.902L187.245 173.803L206.491 162.703L225.737 173.803Z" fill="#F9B8C4" stroke="#1E2532" stroke-width="0.2" stroke-linejoin="round"/>
<path d="M225.737 151.605L206.491 162.705V184.904L225.737 173.805V151.605Z" fill="#ED889B" stroke="#1E2532" stroke-width="0.2" stroke-linejoin="round"/>
<path d="M187.245 173.805V151.605L206.491 162.705V184.904L187.245 173.805Z" fill="#ED889B" stroke="#1E2532" stroke-width="0.2" stroke-linejoin="round"/>
<path d="M225.737 151.604L206.491 140.5L187.245 151.604L206.491 162.703L225.737 151.604Z" fill="#F9B8C4" stroke="#1E2532" stroke-width="0.2" stroke-linejoin="round"/>
<path d="M712.878 287.898L697.612 296.702L682.347 287.898L697.612 279.094L712.878 287.898Z" fill="white" stroke="#1E2532" stroke-width="0.2" stroke-linejoin="round"/>
<path d="M712.878 270.289L697.612 279.093V296.701L712.878 287.897V270.289Z" fill="#E2E2E2" stroke="#1E2532" stroke-width="0.2" stroke-linejoin="round"/>
<path d="M682.347 287.897V270.289L697.612 279.093V296.701L682.347 287.897Z" fill="#E2E2E2" stroke="#1E2532" stroke-width="0.2" stroke-linejoin="round"/>
<path d="M712.878 270.288L697.612 261.48L682.347 270.288L697.612 279.092L712.878 270.288Z" fill="white" stroke="#1E2532" stroke-width="0.2" stroke-linejoin="round"/>
<path d="M345.995 745.71L298.631 773.026L251.267 745.71L298.631 718.395L345.995 745.71Z" fill="#F9B8C4" stroke="#1E2532" stroke-width="0.2" stroke-linejoin="round"/>
<path d="M345.995 691.062L298.631 718.388V773.02L345.995 745.704V691.062Z" fill="#F9B8C4" stroke="#1E2532" stroke-width="0.2" stroke-linejoin="round"/>
<path d="M251.267 745.704V691.062L298.631 718.388V773.02L251.267 745.704Z" fill="#ED889B" stroke="#1E2532" stroke-width="0.2" stroke-linejoin="round"/>
<path d="M345.995 691.066L298.631 663.75L251.267 691.066L298.631 718.392L345.995 691.066Z" fill="#F9B8C4" stroke="#1E2532" stroke-width="0.2" stroke-linejoin="round"/>
<path d="M393.36 773.023L345.996 800.339L298.632 773.023L345.996 745.707L393.36 773.023Z" fill="#F9B8C4" stroke="#1E2532" stroke-width="0.2" stroke-linejoin="round"/>
<path d="M393.36 718.387L345.996 745.703V800.334L393.36 773.018V718.387Z" fill="#F9B8C4" stroke="#1E2532" stroke-width="0.2" stroke-linejoin="round"/>
<path d="M298.632 773.018V718.387L345.996 745.703V800.334L298.632 773.018Z" fill="#ED889B" stroke="#1E2532" stroke-width="0.2" stroke-linejoin="round"/>
<path d="M393.36 718.388L345.996 691.062L298.632 718.388L345.996 745.704L393.36 718.388Z" fill="#F9B8C4" stroke="#1E2532" stroke-width="0.2" stroke-linejoin="round"/>
<path d="M440.724 800.292L393.36 827.608L345.996 800.292L393.36 772.977L440.724 800.292Z" fill="#F9B8C4" stroke="#1E2532" stroke-width="0.2" stroke-linejoin="round"/>
<path d="M440.724 745.645L393.36 772.97V827.602L440.724 800.286V745.645Z" fill="#F9B8C4" stroke="#1E2532" stroke-width="0.2" stroke-linejoin="round"/>
<path d="M345.996 800.286V745.645L393.36 772.97V827.602L345.996 800.286Z" fill="#ED889B" stroke="#1E2532" stroke-width="0.2" stroke-linejoin="round"/>
<path d="M440.724 745.648L393.36 718.332L345.996 745.648L393.36 772.974L440.724 745.648Z" fill="#F9B8C4" stroke="#1E2532" stroke-width="0.2" stroke-linejoin="round"/>
<path d="M203.382 773.152L156.018 800.468L108.654 773.152L156.018 745.836L203.382 773.152Z" fill="#F9B8C4" stroke="#1E2532" stroke-width="0.2" stroke-linejoin="round"/>
<path d="M203.383 718.516L156.019 745.832V800.463L203.383 773.147V718.516Z" fill="#F9B8C4" stroke="#1E2532" stroke-width="0.2" stroke-linejoin="round"/>
<path d="M108.654 773.147V718.516L156.018 745.832V800.463L108.654 773.147Z" fill="#F9B8C4" stroke="#1E2532" stroke-width="0.2" stroke-linejoin="round"/>
<path d="M203.382 718.517L156.018 691.191L108.654 718.517L156.018 745.833L203.382 718.517Z" fill="#F9B8C4" stroke="#1E2532" stroke-width="0.2" stroke-linejoin="round"/>
<path d="M251.337 800.261L203.973 827.587L156.609 800.261L203.973 772.945L251.337 800.261Z" fill="#F9B8C4" stroke="#1E2532" stroke-width="0.2" stroke-linejoin="round"/>
<path d="M251.338 745.625L203.974 772.941V827.583L251.338 800.257V745.625Z" fill="#F9B8C4" stroke="#1E2532" stroke-width="0.2" stroke-linejoin="round"/>
<path d="M156.609 800.257V745.625L203.973 772.941V827.583L156.609 800.257Z" fill="#F9B8C4" stroke="#1E2532" stroke-width="0.2" stroke-linejoin="round"/>
<path d="M251.337 745.628L203.973 718.312L156.609 745.628L203.973 772.944L251.337 745.628Z" fill="#F9B8C4" stroke="#1E2532" stroke-width="0.2" stroke-linejoin="round"/>
<path d="M298.702 827.588L251.338 854.904L203.974 827.588L251.338 800.262L298.702 827.588Z" fill="#F9B8C4" stroke="#1E2532" stroke-width="0.2" stroke-linejoin="round"/>
<path d="M298.702 772.941L251.338 800.257V854.899L298.702 827.583V772.941Z" fill="#F9B8C4" stroke="#1E2532" stroke-width="0.2" stroke-linejoin="round"/>
<path d="M203.974 827.583V772.941L251.338 800.257V854.899L203.974 827.583Z" fill="#F9B8C4" stroke="#1E2532" stroke-width="0.2" stroke-linejoin="round"/>
<path d="M298.702 772.945L251.338 745.629L203.974 772.945L251.338 800.261L298.702 772.945Z" fill="#F9B8C4" stroke="#1E2532" stroke-width="0.2" stroke-linejoin="round"/>
<path d="M346.065 800.207L298.701 827.523V882.165L346.065 854.839V800.207Z" fill="#F9B8C4" stroke="#1E2532" stroke-width="0.2" stroke-linejoin="round"/>
<path d="M251.337 854.839V800.207L298.701 827.523V882.165L251.337 854.839Z" fill="#F9B8C4" stroke="#1E2532" stroke-width="0.2" stroke-linejoin="round"/>
<path d="M346.065 800.21L298.701 772.895L251.337 800.21L298.701 827.526L346.065 800.21Z" fill="#F9B8C4" stroke="#1E2532" stroke-width="0.2" stroke-linejoin="round"/>
<path d="M156.54 800.273L109.176 827.589L61.8115 800.273L109.176 772.957L156.54 800.273Z" fill="#F9B8C4" stroke="#1E2532" stroke-width="0.2" stroke-linejoin="round"/>
<path d="M156.54 745.625L109.176 772.951V827.583L156.54 800.267V745.625Z" fill="#F9B8C4" stroke="#1E2532" stroke-width="0.2" stroke-linejoin="round"/>
<path d="M61.8115 800.267V745.625L109.176 772.951V827.583L61.8115 800.267Z" fill="#ED889B" stroke="#1E2532" stroke-width="0.2" stroke-linejoin="round"/>
<path d="M156.54 745.628L109.176 718.312L61.8115 745.628L109.176 772.954L156.54 745.628Z" fill="#F9B8C4" stroke="#1E2532" stroke-width="0.2" stroke-linejoin="round"/>
<path d="M203.904 827.589L156.54 854.905L109.176 827.589L156.54 800.273L203.904 827.589Z" fill="#F9B8C4" stroke="#1E2532" stroke-width="0.2" stroke-linejoin="round"/>
<path d="M203.904 772.953L156.54 800.269V854.901L203.904 827.585V772.953Z" fill="#F9B8C4" stroke="#1E2532" stroke-width="0.2" stroke-linejoin="round"/>
<path d="M109.176 827.585V772.953L156.54 800.269V854.901L109.176 827.585Z" fill="#ED889B" stroke="#1E2532" stroke-width="0.2" stroke-linejoin="round"/>
<path d="M203.904 772.955L156.54 745.629L109.176 772.955L156.54 800.271L203.904 772.955Z" fill="#F9B8C4" stroke="#1E2532" stroke-width="0.2" stroke-linejoin="round"/>
<path d="M251.267 800.266L203.903 827.582V882.213L251.267 854.897V800.266Z" fill="#F9B8C4" stroke="#1E2532" stroke-width="0.2" stroke-linejoin="round"/>
<path d="M156.539 854.897V800.266L203.903 827.582V882.213L156.539 854.897Z" fill="#ED889B" stroke="#1E2532" stroke-width="0.2" stroke-linejoin="round"/>
<path d="M251.267 800.269L203.903 772.953L156.539 800.269L203.903 827.585L251.267 800.269Z" fill="#F9B8C4" stroke="#1E2532" stroke-width="0.2" stroke-linejoin="round"/>
<path d="M298.631 827.535L251.267 800.219L203.903 827.535L251.267 854.851L298.631 827.535Z" fill="#F9B8C4" stroke="#1E2532" stroke-width="0.2" stroke-linejoin="round"/>
<path d="M393.429 827.523L346.065 800.207L298.701 827.523L346.065 854.839L393.429 827.523Z" fill="#F9B8C4" stroke="#1E2532" stroke-width="0.2" stroke-linejoin="round"/>
<path d="M819.636 745.664L772.272 772.979L724.908 745.664L772.272 718.348L819.636 745.664Z" fill="#F9B8C4" stroke="#1E2532" stroke-width="0.2" stroke-linejoin="round"/>
<path d="M819.636 691.027L772.272 718.343V772.975L819.636 745.659V691.027Z" fill="#ED889B" stroke="#1E2532" stroke-width="0.2" stroke-linejoin="round"/>
<path d="M724.908 745.659V691.027L772.272 718.343V772.975L724.908 745.659Z" fill="#F9B8C4" stroke="#1E2532" stroke-width="0.2" stroke-linejoin="round"/>
<path d="M819.636 691.029L772.272 663.703L724.908 691.029L772.272 718.345L819.636 691.029Z" fill="#F9B8C4" stroke="#1E2532" stroke-width="0.2" stroke-linejoin="round"/>
<path d="M772.272 773.002L724.908 800.318L677.544 773.002L724.908 745.676L772.272 773.002Z" fill="#F9B8C4" stroke="#1E2532" stroke-width="0.2" stroke-linejoin="round"/>
<path d="M772.272 718.355L724.908 745.671V800.313L772.272 772.997V718.355Z" fill="#ED889B" stroke="#1E2532" stroke-width="0.2" stroke-linejoin="round"/>
<path d="M677.544 772.997V718.355L724.908 745.671V800.313L677.544 772.997Z" fill="#F9B8C4" stroke="#1E2532" stroke-width="0.2" stroke-linejoin="round"/>
<path d="M772.272 718.359L724.908 691.043L677.544 718.359L724.908 745.675L772.272 718.359Z" fill="#F9B8C4" stroke="#1E2532" stroke-width="0.2" stroke-linejoin="round"/>
<path d="M724.908 800.39L677.544 827.706L630.18 800.39L677.544 773.074L724.908 800.39Z" fill="#F9B8C4" stroke="#1E2532" stroke-width="0.2" stroke-linejoin="round"/>
<path d="M724.908 745.754L677.544 773.07V827.702L724.908 800.386V745.754Z" fill="#ED889B" stroke="#1E2532" stroke-width="0.2" stroke-linejoin="round"/>
<path d="M630.18 800.386V745.754L677.544 773.07V827.702L630.18 800.386Z" fill="#F9B8C4" stroke="#1E2532" stroke-width="0.2" stroke-linejoin="round"/>
<path d="M724.908 745.757L677.544 718.441L630.18 745.757L677.544 773.073L724.908 745.757Z" fill="#F9B8C4" stroke="#1E2532" stroke-width="0.2" stroke-linejoin="round"/>
<path d="M677.544 827.738L630.179 855.054L582.815 827.738L630.179 800.422L677.544 827.738Z" fill="#F9B8C4" stroke="#1E2532" stroke-width="0.2" stroke-linejoin="round"/>
<path d="M677.544 773.102L630.18 800.417V855.049L677.544 827.733V773.102Z" fill="#ED889B" stroke="#1E2532" stroke-width="0.2" stroke-linejoin="round"/>
<path d="M582.815 827.733V773.102L630.179 800.417V855.049L582.815 827.733Z" fill="#F9B8C4" stroke="#1E2532" stroke-width="0.2" stroke-linejoin="round"/>
<path d="M677.544 773.103L630.179 745.777L582.815 773.103L630.179 800.419L677.544 773.103Z" fill="#F9B8C4" stroke="#1E2532" stroke-width="0.2" stroke-linejoin="round"/>
<path d="M630.179 800.449L582.815 827.765V882.397L630.179 855.081V800.449Z" fill="#ED889B" stroke="#1E2532" stroke-width="0.2" stroke-linejoin="round"/>
<path d="M535.451 855.081V800.449L582.815 827.765V882.397L535.451 855.081Z" fill="#F9B8C4" stroke="#1E2532" stroke-width="0.2" stroke-linejoin="round"/>
<path d="M630.179 800.451L582.815 773.125L535.451 800.451L582.815 827.767L630.179 800.451Z" fill="#F9B8C4" stroke="#1E2532" stroke-width="0.2" stroke-linejoin="round"/>
<path d="M867 827.687L819.635 855.003L772.271 827.687L819.635 800.371L867 827.687Z" fill="#F9B8C4" stroke="#1E2532" stroke-width="0.2" stroke-linejoin="round"/>
<path d="M772.271 827.683V773.051L819.635 800.367V854.998L772.271 827.683Z" fill="#F9B8C4" stroke="#1E2532" stroke-width="0.2" stroke-linejoin="round"/>
<path d="M867 773.054L819.635 745.738L772.271 773.054L819.635 800.37L867 773.054Z" fill="#F9B8C4" stroke="#1E2532" stroke-width="0.2" stroke-linejoin="round"/>
<path d="M582.815 827.734L535.451 800.418L488.087 827.734L535.451 855.05L582.815 827.734Z" fill="#F9B8C4" stroke="#1E2532" stroke-width="0.2" stroke-linejoin="round"/>
<path d="M217.797 108.844V139.991C217.797 139.991 217.797 143.684 224.603 143.924C224.603 143.924 230.692 144.099 231.405 139.991V108.844H217.797Z" fill="white" stroke="#1E2532" stroke-width="0.2" stroke-linejoin="round"/>
<path d="M224.603 112.768C228.356 112.768 231.405 111.02 231.405 108.835C231.405 106.65 228.343 104.902 224.603 104.902C220.863 104.902 217.797 106.65 217.797 108.835C217.797 111.02 220.846 112.768 224.603 112.768Z" fill="white" stroke="#1E2532" stroke-width="0.2" stroke-linejoin="round"/>
<path d="M224.614 109.944C229.31 109.944 233.118 106.141 233.118 101.449C233.118 96.7567 229.31 92.9531 224.614 92.9531C219.917 92.9531 216.109 96.7567 216.109 101.449C216.109 106.141 219.917 109.944 224.614 109.944Z" fill="#31E7B6" stroke="#1E2532" stroke-width="0.2" stroke-linejoin="round"/>
<path d="M642.025 752.437L594.661 779.753L547.287 752.437L594.661 725.121L642.025 752.437Z" fill="white" stroke="#1E2532" stroke-width="0.2" stroke-linejoin="round"/>
<path d="M642.025 697.801L594.661 725.117V779.748L642.025 752.433V697.801Z" fill="white" stroke="#1E2532" stroke-width="0.2" stroke-linejoin="round"/>
<path d="M547.287 752.433V697.801L594.661 725.117V779.748L547.287 752.433Z" fill="#E2E2E2" stroke="#1E2532" stroke-width="0.2" stroke-linejoin="round"/>
<path d="M642.025 697.804L594.661 670.488L547.287 697.804L594.661 725.12L642.025 697.804Z" fill="white" stroke="#1E2532" stroke-width="0.2" stroke-linejoin="round"/>
<path d="M582.815 773.023L535.451 800.339L488.087 773.023L535.451 745.707L582.815 773.023Z" fill="#F9B8C4" stroke="#1E2532" stroke-width="0.2" stroke-linejoin="round"/>
<path d="M582.815 718.387L535.451 745.703V800.334L582.815 773.018V718.387Z" fill="#ED889B" stroke="#1E2532" stroke-width="0.2" stroke-linejoin="round"/>
<path d="M488.087 773.018V718.387L535.451 745.703V800.334L488.087 773.018Z" fill="#F9B8C4" stroke="#1E2532" stroke-width="0.2" stroke-linejoin="round"/>
<path d="M582.815 718.388L535.451 691.062L488.087 718.388L535.451 745.704L582.815 718.388Z" fill="#F9B8C4" stroke="#1E2532" stroke-width="0.2" stroke-linejoin="round"/>
<path d="M535.452 800.318L488.088 827.634L440.724 800.318L488.088 772.992L535.452 800.318Z" fill="#F9B8C4" stroke="#1E2532" stroke-width="0.2" stroke-linejoin="round"/>
<path d="M535.452 745.672L488.088 772.988V827.63L535.452 800.314V745.672Z" fill="#ED889B" stroke="#1E2532" stroke-width="0.2" stroke-linejoin="round"/>
<path d="M440.724 800.314V745.672L488.088 772.988V827.63L440.724 800.314Z" fill="#F9B8C4" stroke="#1E2532" stroke-width="0.2" stroke-linejoin="round"/>
<path d="M535.452 745.675L488.088 718.359L440.724 745.675L488.088 772.991L535.452 745.675Z" fill="#F9B8C4" stroke="#1E2532" stroke-width="0.2" stroke-linejoin="round"/>
<path d="M488.087 827.609L440.723 854.925L393.359 827.609L440.723 800.293L488.087 827.609Z" fill="#F9B8C4" stroke="#1E2532" stroke-width="0.2" stroke-linejoin="round"/>
<path d="M488.088 772.973L440.724 800.289V854.92L488.088 827.604V772.973Z" fill="#ED889B" stroke="#1E2532" stroke-width="0.2" stroke-linejoin="round"/>
<path d="M393.359 827.604V772.973L440.723 800.289V854.92L393.359 827.604Z" fill="#ED889B" stroke="#1E2532" stroke-width="0.2" stroke-linejoin="round"/>
<path d="M488.087 772.974L440.723 745.648L393.359 772.974L440.723 800.29L488.087 772.974Z" fill="#F9B8C4" stroke="#1E2532" stroke-width="0.2" stroke-linejoin="round"/>
<path d="M756.714 621.02V692.263C756.714 692.263 756.714 700.708 772.272 701.258C772.272 701.258 786.209 701.658 787.83 692.263V621.02H756.714Z" fill="white" stroke="#1E2532" stroke-width="0.2" stroke-linejoin="round"/>
<path d="M772.272 629.995C780.866 629.995 787.83 625.997 787.83 620.999C787.83 616.002 780.826 612.004 772.272 612.004C763.717 612.004 756.714 616.002 756.714 620.999C756.714 625.997 763.677 629.995 772.272 629.995Z" fill="white" stroke="#1E2532" stroke-width="0.2" stroke-linejoin="round"/>
<path d="M772.273 626.109C783.705 626.109 792.973 616.85 792.973 605.429C792.973 594.008 783.705 584.75 772.273 584.75C760.84 584.75 751.572 594.008 751.572 605.429C751.572 616.85 760.84 626.109 772.273 626.109Z" fill="#31E7B6" stroke="#1E2532" stroke-width="0.2" stroke-linejoin="round"/>
<path d="M250.818 561.089C262.25 561.089 271.518 551.831 271.518 540.41C271.518 528.989 262.25 519.73 250.818 519.73C239.385 519.73 230.117 528.989 230.117 540.41C230.117 551.831 239.385 561.089 250.818 561.089Z" fill="white" stroke="#1E2532" stroke-width="0.2" stroke-linejoin="round"/>
<path d="M819.636 800.484L772.272 827.81V882.442L819.636 855.126V800.484Z" fill="#ED889B" stroke="#1E2532" stroke-width="0.2" stroke-linejoin="round"/>
<path d="M724.908 855.126V800.484L772.272 827.81V882.442L724.908 855.126Z" fill="#F9B8C4" stroke="#1E2532" stroke-width="0.2" stroke-linejoin="round"/>
<path d="M819.636 800.488L772.272 773.172L724.908 800.488L772.272 827.814L819.636 800.488Z" fill="#F9B8C4" stroke="#1E2532" stroke-width="0.2" stroke-linejoin="round"/>
<path d="M772.272 827.785L724.908 800.469L677.544 827.785L724.908 855.101L772.272 827.785Z" fill="#F9B8C4" stroke="#1E2532" stroke-width="0.2" stroke-linejoin="round"/>
<path d="M289.723 767.604L261.42 783.926L233.118 767.604L261.42 751.281L289.723 767.604Z" fill="white" stroke="#1E2532" stroke-width="0.2" stroke-linejoin="round"/>
<path d="M289.723 734.949L261.421 751.278V783.923L289.723 767.6V734.949Z" fill="#31E7B6" stroke="#1E2532" stroke-width="0.2" stroke-linejoin="round"/>
<path d="M233.118 767.6V734.949L261.42 751.278V783.923L233.118 767.6Z" fill="#37C99E" stroke="#1E2532" stroke-width="0.2" stroke-linejoin="round"/>
<path d="M289.723 734.951L261.42 718.629L233.118 734.951L261.42 751.28L289.723 734.951Z" fill="#31E7B6" stroke="#1E2532" stroke-width="0.2" stroke-linejoin="round"/>
<path d="M602.006 524.01V428.06L637.524 407.57V503.521L602.006 524.01Z" fill="#ED889B" stroke="#1E2532" stroke-width="0.2" stroke-linejoin="round"/>
<path d="M554.643 496.686V400.746L602.007 428.062V524.012L554.643 496.686Z" fill="#F9B8C4" stroke="#1E2532" stroke-width="0.2" stroke-linejoin="round"/>
<path d="M637.524 407.574L590.16 380.258L554.642 400.747L602.006 428.063L637.524 407.574Z" fill="#F9B8C4" stroke="#1E2532" stroke-width="0.2" stroke-linejoin="round"/>
<path d="M613.843 411.033L608.01 414.402V407.665L613.843 404.297V411.033Z" fill="#31E7B6" stroke="#1E2532" stroke-width="0.2" stroke-linejoin="round"/>
<path d="M602.177 404.297V411.033L608.01 414.402V407.665L602.177 404.297Z" fill="#31E7B6" stroke="#1E2532" stroke-width="0.2" stroke-linejoin="round"/>
<path d="M613.843 404.296L608.01 400.938L602.177 404.296L608.01 407.664L613.843 404.296Z" fill="#31E7B6" stroke="#1E2532" stroke-width="0.2" stroke-linejoin="round"/>
<path d="M625.599 504.136L619.766 507.504V430.814L625.599 427.445V504.136Z" fill="#F9B8C4" stroke="#1E2532" stroke-width="0.2" stroke-linejoin="round"/>
<path d="M613.933 427.445V504.136L619.766 507.504V430.814L613.933 427.445Z" fill="#F9B8C4" stroke="#1E2532" stroke-width="0.2" stroke-linejoin="round"/>
<path d="M625.599 427.442L619.766 424.074L613.933 427.442L619.766 430.811L625.599 427.442Z" fill="#F9B8C4" stroke="#1E2532" stroke-width="0.2" stroke-linejoin="round"/>
<path d="M602.177 403.918L596.334 407.286V400.56L602.177 397.191V403.918Z" fill="#F9B8C4" stroke="#1E2532" stroke-width="0.2" stroke-linejoin="round"/>
<path d="M590.501 397.191V403.918L596.334 407.286V400.56L590.501 397.191Z" fill="#F9B8C4" stroke="#1E2532" stroke-width="0.2" stroke-linejoin="round"/>
<path d="M602.177 397.189L596.334 393.82L590.501 397.189L596.334 400.557L602.177 397.189Z" fill="#F9B8C4" stroke="#1E2532" stroke-width="0.2" stroke-linejoin="round"/>
<path d="M590.501 397.186L584.668 400.554V393.817L590.501 390.449V397.186Z" fill="#F9B8C4" stroke="#1E2532" stroke-width="0.2" stroke-linejoin="round"/>
<path d="M578.825 390.449V397.186L584.668 400.554V393.817L578.825 390.449Z" fill="#F9B8C4" stroke="#1E2532" stroke-width="0.2" stroke-linejoin="round"/>
<path d="M590.501 390.45L584.668 387.082L578.825 390.45L584.668 393.819L590.501 390.45Z" fill="#F9B8C4" stroke="#1E2532" stroke-width="0.2" stroke-linejoin="round"/>
<path d="M495.782 494.711L491.76 497.02V483.127L495.782 480.809V494.711Z" fill="#0F7FC9" stroke="#1E2532" stroke-width="0.2" stroke-linejoin="round"/>
<path d="M487.739 480.809L491.761 483.127V497.02L487.739 494.711V480.809Z" fill="#0099FF" stroke="#1E2532" stroke-width="0.2" stroke-linejoin="round"/>
<path d="M495.782 480.807L491.76 478.488L487.738 480.807" fill="#0099FF"/>
<path d="M495.782 480.807L491.76 478.488L487.738 480.807" stroke="#1E2532" stroke-width="0.2" stroke-linejoin="round"/>
<path d="M482.946 487.319L478.924 489.628V475.725L482.946 473.406V487.319Z" fill="#0F7FC9" stroke="#1E2532" stroke-width="0.2" stroke-linejoin="round"/>
<path d="M474.902 473.406L478.924 475.725V489.628L474.902 487.319V473.406Z" fill="#0099FF" stroke="#1E2532" stroke-width="0.2" stroke-linejoin="round"/>
<path d="M482.946 473.41L478.924 471.102L474.902 473.41" fill="#0099FF"/>
<path d="M482.946 473.41L478.924 471.102L474.902 473.41" stroke="#1E2532" stroke-width="0.2" stroke-linejoin="round"/>
<path d="M504.597 477.1L485.347 488.205L466.087 477.1L485.347 465.996L504.597 477.1Z" fill="white" stroke="#1E2532" stroke-width="0.2" stroke-linejoin="round"/>
<path d="M504.597 454.895L485.347 465.999V488.207L504.597 477.103V454.895Z" fill="white" stroke="#1E2532" stroke-width="0.2" stroke-linejoin="round"/>
<path d="M466.087 477.103V454.895L485.347 465.999V488.207L466.087 477.103Z" fill="white" stroke="#1E2532" stroke-width="0.2" stroke-linejoin="round"/>
<path d="M504.597 454.893L485.347 443.789L466.087 454.893L485.347 465.998L504.597 454.893Z" fill="white" stroke="#1E2532" stroke-width="0.2" stroke-linejoin="round"/>
<path d="M485.857 355.77L456.792 372.531L485.857 389.292L514.922 372.531L485.857 355.77Z" fill="#0099FF" stroke="#1E2532" stroke-width="0.2" stroke-linejoin="round"/>
<path d="M485.857 478.696L456.793 461.935V372.531L485.857 389.293V478.696Z" fill="#0099FF" stroke="#1E2532" stroke-width="0.2" stroke-linejoin="round"/>
<path d="M514.922 461.935L485.857 478.696V389.293L514.922 372.531V461.935Z" fill="#0F7FC9" stroke="#1E2532" stroke-width="0.2" stroke-linejoin="round"/>
<path d="M491.661 392.32L509.54 402.625V423.244L491.661 412.93V392.32Z" fill="#0099FF" stroke="#1E2532" stroke-width="0.2" stroke-linejoin="round"/>
<path d="M527.409 412.93L509.54 423.244V402.625L527.409 392.32V412.93Z" fill="#0099FF" stroke="#1E2532" stroke-width="0.2" stroke-linejoin="round"/>
<path d="M509.38 382.266L527.409 392.32L509.54 402.625L491.661 392.32L509.38 382.266Z" fill="#0099FF" stroke="#1E2532" stroke-width="0.2" stroke-linejoin="round"/>
<path d="M613.593 639.94L589.911 653.593L566.229 639.94L589.911 626.277L613.593 639.94Z" fill="#0099FF" stroke="#1E2532" stroke-width="0.2" stroke-linejoin="round"/>
<path d="M613.593 612.629L589.911 626.282V653.598L613.593 639.945V612.629Z" fill="#0099FF" stroke="#1E2532" stroke-width="0.2" stroke-linejoin="round"/>
<path d="M566.229 639.945V612.629L589.911 626.282V653.598L566.229 639.945Z" fill="#0099FF" stroke="#1E2532" stroke-width="0.2" stroke-linejoin="round"/>
<path d="M613.593 612.628L589.911 598.965L566.229 612.628L589.911 626.281L613.593 612.628Z" fill="#0099FF" stroke="#1E2532" stroke-width="0.2" stroke-linejoin="round"/>
<path d="M613.593 612.628L589.911 626.281L566.229 612.628L589.911 598.965L613.593 612.628Z" fill="#0099FF" stroke="#1E2532" stroke-width="0.2" stroke-linejoin="round"/>
<path d="M613.593 585.305L589.911 598.968V626.284L613.593 612.631V585.305Z" fill="#0099FF" stroke="#1E2532" stroke-width="0.2" stroke-linejoin="round"/>
<path d="M566.229 612.631V585.305L589.911 598.968V626.284L566.229 612.631Z" fill="#0099FF" stroke="#1E2532" stroke-width="0.2" stroke-linejoin="round"/>
<path d="M613.593 585.305L589.911 571.652L566.229 585.305L589.911 598.968L613.593 585.305Z" fill="#0099FF" stroke="#1E2532" stroke-width="0.2" stroke-linejoin="round"/>
<path d="M554.383 605.794L530.701 619.457L507.029 605.794L530.701 592.141L554.383 605.794Z" fill="#0099FF" stroke="#1E2532" stroke-width="0.2" stroke-linejoin="round"/>
<path d="M554.383 578.48L530.701 592.143V619.459L554.383 605.796V578.48Z" fill="#0F7FC9" stroke="#1E2532" stroke-width="0.2" stroke-linejoin="round"/>
<path d="M507.029 605.796V578.48L530.701 592.143V619.459L507.029 605.796Z" fill="#0099FF" stroke="#1E2532" stroke-width="0.2" stroke-linejoin="round"/>
<path d="M554.383 578.479L530.701 564.816L507.029 578.479L530.701 592.142L554.383 578.479Z" fill="#0099FF" stroke="#1E2532" stroke-width="0.2" stroke-linejoin="round"/>
<path d="M554.383 578.472L530.701 592.134L507.029 578.472L530.701 564.809L554.383 578.472Z" fill="#0099FF" stroke="#1E2532" stroke-width="0.2" stroke-linejoin="round"/>
<path d="M554.383 551.16L530.701 564.813V592.139L554.383 578.476V551.16Z" fill="#0F7FC9" stroke="#1E2532" stroke-width="0.2" stroke-linejoin="round"/>
<path d="M507.029 578.476V551.16L530.701 564.813V592.139L507.029 578.476Z" fill="#0099FF" stroke="#1E2532" stroke-width="0.2" stroke-linejoin="round"/>
<path d="M554.383 551.159L530.701 537.496L507.029 551.159L530.701 564.812L554.383 551.159Z" fill="#0099FF" stroke="#1E2532" stroke-width="0.2" stroke-linejoin="round"/>
<path d="M589.91 557.988L542.546 585.304L495.182 557.988L542.546 530.672L589.91 557.988Z" fill="#0099FF" stroke="#1E2532" stroke-width="0.2" stroke-linejoin="round"/>
<path d="M542.546 585.303V530.671L589.91 503.355V557.987L542.546 585.303Z" fill="#0099FF" stroke="#1E2532" stroke-width="0.2" stroke-linejoin="round"/>
<path d="M495.182 557.987V503.355L542.546 530.671V585.303L495.182 557.987Z" fill="#0099FF" stroke="#1E2532" stroke-width="0.2" stroke-linejoin="round"/>
<path d="M589.91 503.355L542.546 476.039L495.182 503.355L542.546 530.671L589.91 503.355Z" fill="#0099FF" stroke="#1E2532" stroke-width="0.2" stroke-linejoin="round"/>
<path d="M589.91 503.359L542.546 530.675L495.182 503.359L542.546 476.043L589.91 503.359Z" fill="#0099FF" stroke="#1E2532" stroke-width="0.2" stroke-linejoin="round"/>
<path d="M542.546 530.669V476.037L589.91 448.711V503.353L542.546 530.669Z" fill="#0099FF" stroke="#1E2532" stroke-width="0.2" stroke-linejoin="round"/>
<path d="M495.182 503.353V448.711L542.546 476.037V530.669L495.182 503.353Z" fill="#0099FF" stroke="#1E2532" stroke-width="0.2" stroke-linejoin="round"/>
<path d="M589.91 448.714L542.546 421.398L495.182 448.714L542.546 476.04L589.91 448.714Z" fill="#0099FF" stroke="#1E2532" stroke-width="0.2" stroke-linejoin="round"/>
<path d="M637.274 585.3L589.91 612.626L542.546 585.3L589.91 557.984L637.274 585.3Z" fill="#0099FF" stroke="#1E2532" stroke-width="0.2" stroke-linejoin="round"/>
<path d="M589.91 612.622V557.98L637.274 530.664V585.296L589.91 612.622Z" fill="#0F7FC9" stroke="#1E2532" stroke-width="0.2" stroke-linejoin="round"/>
<path d="M542.546 585.296V530.664L589.91 557.98V612.622L542.546 585.296Z" fill="#0099FF" stroke="#1E2532" stroke-width="0.2" stroke-linejoin="round"/>
<path d="M637.274 530.667L589.91 503.352L542.546 530.667L589.91 557.983L637.274 530.667Z" fill="#0099FF" stroke="#1E2532" stroke-width="0.2" stroke-linejoin="round"/>
<path d="M637.274 530.675L589.91 557.991L542.546 530.675L589.91 503.359L637.274 530.675Z" fill="#0099FF" stroke="#1E2532" stroke-width="0.2" stroke-linejoin="round"/>
<path d="M589.91 557.987V503.355L637.274 476.039V530.671L589.91 557.987Z" fill="#0F7FC9" stroke="#1E2532" stroke-width="0.2" stroke-linejoin="round"/>
<path d="M542.546 530.671V476.039L589.91 503.355V557.987L542.546 530.671Z" fill="#0099FF" stroke="#1E2532" stroke-width="0.2" stroke-linejoin="round"/>
<path d="M637.274 476.041L589.91 448.715L542.546 476.041L589.91 503.357L637.274 476.041Z" fill="#0099FF" stroke="#1E2532" stroke-width="0.2" stroke-linejoin="round"/>
<path d="M589.91 448.71L542.546 476.036L495.182 448.71L542.546 421.395L589.91 448.71Z" fill="#0099FF" stroke="#1E2532" stroke-width="0.2" stroke-linejoin="round"/>
<path d="M542.546 476.032V421.39L589.91 394.074V448.706L542.546 476.032Z" fill="#0099FF" stroke="#1E2532" stroke-width="0.2" stroke-linejoin="round"/>
<path d="M495.182 448.706V394.074L542.546 421.39V476.032L495.182 448.706Z" fill="#0099FF" stroke="#1E2532" stroke-width="0.2" stroke-linejoin="round"/>
<path d="M589.91 394.078L542.546 366.762L495.182 394.078L542.546 421.393L589.91 394.078Z" fill="#0099FF" stroke="#1E2532" stroke-width="0.2" stroke-linejoin="round"/>
<path d="M637.274 476.041L589.91 503.357L542.546 476.041L589.91 448.715L637.274 476.041Z" fill="#0099FF" stroke="#1E2532" stroke-width="0.2" stroke-linejoin="round"/>
<path d="M589.91 503.352V448.71L637.274 421.395V476.036L589.91 503.352Z" fill="#0F7FC9" stroke="#1E2532" stroke-width="0.2" stroke-linejoin="round"/>
<path d="M542.546 476.036V421.395L589.91 448.71V503.352L542.546 476.036Z" fill="#0099FF" stroke="#1E2532" stroke-width="0.2" stroke-linejoin="round"/>
<path d="M637.274 421.398L589.91 394.082L542.546 421.398L589.91 448.714L637.274 421.398Z" fill="#0099FF" stroke="#1E2532" stroke-width="0.2" stroke-linejoin="round"/>
<path d="M572.152 431.642V390.673L607.67 370.184V411.152L572.152 431.642Z" fill="#0099FF" stroke="#1E2532" stroke-width="0.2" stroke-linejoin="round"/>
<path d="M524.787 404.326V363.348L572.151 390.674V431.642L524.787 404.326Z" fill="#0099FF" stroke="#1E2532" stroke-width="0.2" stroke-linejoin="round"/>
<path d="M607.67 370.185L560.306 342.859L524.788 363.349L572.152 390.675L607.67 370.185Z" fill="#0099FF" stroke="#1E2532" stroke-width="0.2" stroke-linejoin="round"/>
<path d="M604.939 456.949L622.808 467.254V487.863L604.939 477.559V456.949Z" fill="#0099FF" stroke="#1E2532" stroke-width="0.2" stroke-linejoin="round"/>
<path d="M640.677 477.559L622.808 487.863V467.254L640.677 456.949V477.559Z" fill="#0099FF" stroke="#1E2532" stroke-width="0.2" stroke-linejoin="round"/>
<path d="M622.658 446.883L640.677 456.948L622.808 467.252L604.939 456.948L622.658 446.883Z" fill="#0099FF" stroke="#1E2532" stroke-width="0.2" stroke-linejoin="round"/>
<path d="M560.306 361.743L554.383 365.162V344.672L560.306 341.254V361.743Z" fill="white" stroke="#1E2532" stroke-width="0.2" stroke-linejoin="round"/>
<path d="M548.47 341.254L554.383 344.672V365.162L548.47 361.743V341.254Z" fill="white" stroke="#1E2532" stroke-width="0.2" stroke-linejoin="round"/>
<path d="M548.47 341.25L554.383 337.832L560.306 341.25L554.383 344.668L548.47 341.25Z" fill="white" stroke="#1E2532" stroke-width="0.2" stroke-linejoin="round"/>
<path d="M583.987 375.393L578.074 378.812V358.322L583.987 354.914V375.393Z" fill="white" stroke="#1E2532" stroke-width="0.2" stroke-linejoin="round"/>
<path d="M572.15 354.914L578.073 358.322V378.812L572.15 375.393V354.914Z" fill="white" stroke="#1E2532" stroke-width="0.2" stroke-linejoin="round"/>
<path d="M572.151 354.91L578.074 351.492L583.987 354.91L578.074 358.319L572.151 354.91Z" fill="white" stroke="#1E2532" stroke-width="0.2" stroke-linejoin="round"/>
<path d="M648.109 583.375L644.087 585.694V571.791L648.109 569.473V583.375Z" fill="#0099FF" stroke="#1E2532" stroke-width="0.2" stroke-linejoin="round"/>
<path d="M640.066 569.473L644.088 571.791V585.694L640.066 583.375V569.473Z" fill="#0099FF" stroke="#1E2532" stroke-width="0.2" stroke-linejoin="round"/>
<path d="M648.109 569.471L644.087 567.152L640.065 569.471" fill="#0099FF"/>
<path d="M648.109 569.471L644.087 567.152L640.065 569.471" stroke="#1E2532" stroke-width="0.2" stroke-linejoin="round"/>
<path d="M635.273 575.989L631.251 578.308V564.405L635.273 562.086V575.989Z" fill="#0F7FC9" stroke="#1E2532" stroke-width="0.2" stroke-linejoin="round"/>
<path d="M627.239 562.086L631.251 564.405V578.308L627.239 575.989V562.086Z" fill="#0099FF" stroke="#1E2532" stroke-width="0.2" stroke-linejoin="round"/>
<path d="M635.273 562.084L631.251 559.766L627.239 562.084" fill="#0099FF"/>
<path d="M635.273 562.084L631.251 559.766L627.239 562.084" stroke="#1E2532" stroke-width="0.2" stroke-linejoin="round"/>
<path d="M656.924 565.768L637.674 576.873L618.414 565.768L637.674 554.664L656.924 565.768Z" fill="white" stroke="#1E2532" stroke-width="0.2" stroke-linejoin="round"/>
<path d="M656.924 543.562L637.674 554.667V576.875L656.924 565.771V543.562Z" fill="white" stroke="#1E2532" stroke-width="0.2" stroke-linejoin="round"/>
<path d="M618.414 565.771V543.562L637.674 554.667V576.875L618.414 565.771Z" fill="white" stroke="#1E2532" stroke-width="0.2" stroke-linejoin="round"/>
<path d="M656.924 543.561L637.674 532.457L618.414 543.561L637.674 554.666L656.924 543.561Z" fill="white" stroke="#1E2532" stroke-width="0.2" stroke-linejoin="round"/>
<path d="M637.274 442.715L608.209 459.486L637.274 476.247L666.339 459.486L637.274 442.715Z" fill="#0099FF" stroke="#1E2532" stroke-width="0.2" stroke-linejoin="round"/>
<path d="M637.274 565.653L608.21 548.892V459.488L637.274 476.25V565.653Z" fill="#0099FF" stroke="#1E2532" stroke-width="0.2" stroke-linejoin="round"/>
<path d="M666.339 548.892L637.274 565.653V476.25L666.339 459.488V548.892Z" fill="#0099FF" stroke="#1E2532" stroke-width="0.2" stroke-linejoin="round"/>
<path d="M597.544 405.937L586.879 412.034V399.78L597.544 393.684V405.937Z" fill="white" stroke="#1E2532" stroke-width="0.2" stroke-linejoin="round"/>
<path d="M583.386 410.023L586.878 412.032V399.779L583.386 397.77V410.023Z" fill="white" stroke="#1E2532" stroke-width="0.2" stroke-linejoin="round"/>
<path d="M597.544 393.683L594.012 391.645L583.387 397.771L586.879 399.78L597.544 393.683Z" fill="white" stroke="#1E2532" stroke-width="0.2" stroke-linejoin="round"/>
<path d="M566.229 401.076L554.383 394.25V407.903L566.229 414.739V401.076Z" fill="#FFDA54" stroke="#1E2532" stroke-width="0.2" stroke-linejoin="round"/>
<path d="M542.547 387.426L530.701 380.59V394.253L542.547 401.079V387.426Z" fill="#FFDA54" stroke="#1E2532" stroke-width="0.2" stroke-linejoin="round"/>
<path d="M243.123 968.004L565.787 406.794L554.782 401.297L23.5118 854.563L243.123 968.004Z" fill="#FFDA54" fill-opacity="0.4"/>
<path d="M219.612 957.508L542.275 396.298L531.27 390.801L0.00012207 844.066L219.612 957.508Z" fill="#FFDA54" fill-opacity="0.4"/>
</svg>
