<?xml version="1.0" encoding="UTF-8"?> <svg xmlns="http://www.w3.org/2000/svg" width="265" height="48" viewBox="0 0 265 48" fill="none"> <path d="M0 10.904V8.32718H0.374294C0.617563 8.0726 0.816387 7.77631 0.961938 7.45145C1.38149 6.50899 1.58149 5.47773 1.54584 4.44065V2.32108H5.9962V8.32718H6.82713V10.904H5.77162V9.4044H1.09294V10.9195L0 10.904ZM1.56081 8.32718H4.92946V3.3828H2.63503V4.44065C2.66237 5.47199 2.48001 6.49776 2.09979 7.45145C1.96196 7.76879 1.78041 8.06377 1.56081 8.32718Z" fill="white"></path> <path d="M8.33923 9.4044V2.32108H13.1639V3.3828H9.42095V5.20013H12.3966V6.25798H9.42095V8.32718H13.2575V9.4044H8.33923Z" fill="white"></path> <path d="M16.2517 9.40441V3.3983H14.2043V2.33658H19.3696V3.3983H17.3222V9.40441H16.2517Z" fill="white"></path> <path d="M25.9386 7.36991L26.6235 8.07515C26.2838 8.51463 25.8533 8.86976 25.3636 9.1145C24.874 9.35924 24.3376 9.48737 23.7939 9.48949C23.3193 9.50221 22.8472 9.41539 22.4059 9.23426C21.9647 9.05313 21.5634 8.78142 21.2262 8.43551C20.8967 8.09788 20.6351 7.69596 20.4565 7.253C20.278 6.81003 20.186 6.33481 20.186 5.85482C20.186 5.37484 20.278 4.89963 20.4565 4.45666C20.6351 4.01369 20.8967 3.61177 21.2262 3.27414C21.5634 2.92822 21.9647 2.65653 22.4059 2.47539C22.8472 2.29426 23.3193 2.20745 23.7939 2.22017C24.5435 2.20812 25.2766 2.44885 25.8824 2.90602C26.1392 3.10187 26.3717 3.32961 26.5749 3.58413L25.8899 4.28937C25.7466 4.08682 25.5721 3.91008 25.3734 3.76625C24.9186 3.41193 24.363 3.22386 23.7939 3.23152C23.1218 3.23152 22.4773 3.5079 22.0021 3.99987C21.5269 4.49183 21.2599 5.15908 21.2599 5.85482C21.2599 6.55057 21.5269 7.21782 22.0021 7.70978C22.4773 8.20175 23.1218 8.47814 23.7939 8.47814C24.3715 8.48396 24.9343 8.28883 25.3921 7.92402C25.6042 7.77394 25.7892 7.58638 25.9386 7.36991Z" fill="white"></path> <path d="M28.1802 9.4044V2.32108H29.2544V5.75424L32.3274 2.32108H33.6898L31.0697 5.2505L33.8882 9.4044H32.5706L30.3249 6.07198L29.2507 7.28483V9.4044H28.1802Z" fill="white"></path> <path d="M34.278 9.40441L37.0066 2.33658H38.1781L40.9067 9.40441H39.7838L39.0989 7.58707H36.0895L35.3971 9.40441H34.278ZM36.4713 6.57572H38.7171L37.5942 3.65017L36.4713 6.57572Z" fill="white"></path> <path d="M41.7039 9.40447L43.2534 6.57579C43.0119 6.47786 42.7898 6.33468 42.5984 6.15343C42.3824 5.9539 42.2119 5.70716 42.0993 5.43106C41.9866 5.15496 41.9347 4.8564 41.9472 4.55697C41.9401 4.26176 41.9928 3.96829 42.1017 3.69537C42.2106 3.42245 42.3735 3.1761 42.5797 2.97213C42.7937 2.76069 43.0462 2.59558 43.3226 2.48646C43.5989 2.37734 43.8936 2.32641 44.1892 2.33664H47.0188V9.40447H45.9446V6.78116H44.3239L42.9053 9.40447H41.7039ZM44.1892 5.76981H45.9446V3.34799H44.1742C44.0189 3.34079 43.8639 3.36703 43.719 3.42506C43.574 3.48309 43.4422 3.57164 43.332 3.68511C43.1203 3.92331 43.0028 4.23519 43.0028 4.5589C43.0028 4.88261 43.1203 5.1945 43.332 5.43269C43.4435 5.54338 43.5758 5.62907 43.7207 5.68441C43.8656 5.73975 44.02 5.76355 44.1742 5.75431L44.1892 5.76981Z" fill="white"></path> <path d="M52.1841 8.43585C51.8555 8.0977 51.5947 7.69561 51.4167 7.25271C51.2387 6.80981 51.1471 6.33486 51.1471 5.85516C51.1471 5.37547 51.2387 4.90052 51.4167 4.45762C51.5947 4.01473 51.8555 3.61263 52.1841 3.27448C52.8789 2.59542 53.7982 2.21713 54.7536 2.21713C55.7091 2.21713 56.6284 2.59542 57.3231 3.27448C57.6527 3.6121 57.9143 4.01403 58.0928 4.457C58.2714 4.89997 58.3633 5.37518 58.3633 5.85516C58.3633 6.33515 58.2714 6.81037 58.0928 7.25334C57.9143 7.6963 57.6527 8.09822 57.3231 8.43585C56.6284 9.11491 55.7091 9.4932 54.7536 9.4932C53.7982 9.4932 52.8789 9.11491 52.1841 8.43585V8.43585ZM52.9551 3.97971C52.5319 4.41521 52.2678 4.98937 52.2082 5.60407C52.1485 6.21877 52.2969 6.83584 52.628 7.34981C52.9591 7.86379 53.4524 8.24276 54.0235 8.42195C54.5946 8.60114 55.2081 8.56943 55.7591 8.33224C56.3101 8.09505 56.7645 7.6671 57.0445 7.12154C57.3245 6.57598 57.4128 5.94667 57.2943 5.34119C57.1758 4.7357 56.8578 4.19161 56.3947 3.80193C55.9317 3.41224 55.3522 3.20115 54.7555 3.20473C54.4202 3.20002 54.0876 3.26633 53.778 3.39961C53.4684 3.53288 53.1883 3.73029 52.9551 3.97971V3.97971Z" fill="white"></path> <path d="M60.1675 9.4044V2.32108H61.238V5.30088H64.6066V2.32108H65.6808V9.4044H64.6066V6.30448H61.238V9.4044H60.1675Z" fill="white"></path> <path d="M66.8973 9.33853V8.32718C66.9462 8.35071 66.9978 8.36764 67.0508 8.37755C67.1726 8.41326 67.2985 8.43151 67.4251 8.4318C67.5926 8.4341 67.756 8.37816 67.8892 8.27293C68.0546 8.11838 68.1827 7.92598 68.2635 7.71107C68.4138 7.31933 68.5072 6.90669 68.5405 6.4866C68.6147 5.80741 68.6484 5.12413 68.6415 4.44065V2.32108H73.2716V9.4044H72.2086V3.3983H69.7233V4.45615C69.7284 5.1615 69.6947 5.86659 69.6222 6.56797C69.5752 7.06106 69.4799 7.54793 69.3377 8.02106C69.2418 8.34595 69.0882 8.6495 68.8848 8.91616C68.7344 9.11565 68.5391 9.27396 68.3159 9.37727C68.0967 9.46631 67.8627 9.50976 67.6272 9.50514C67.449 9.50841 67.2712 9.48492 67.0994 9.4354L66.8973 9.33853Z" fill="white"></path> <path d="M74.6416 9.40441L77.3702 2.33658H78.5417L81.2778 9.40441H80.1549L79.47 7.58707H76.4494L75.7645 9.40441H74.6416ZM76.835 6.57572H79.0807L77.9578 3.65017L76.835 6.57572Z" fill="white"></path> <path d="M82.6442 9.40435V2.32102H83.7184V7.52114L87.4613 2.32102H88.4345V9.40435H87.3678V4.18872L83.6248 9.40435H82.6442ZM84.1076 0.0154512H84.8562C84.8542 0.108978 84.8705 0.201965 84.9043 0.288751C84.938 0.375537 84.9884 0.454309 85.0525 0.520278C85.1166 0.586247 85.1929 0.638034 85.2769 0.672487C85.361 0.706939 85.4509 0.723336 85.5412 0.720684C85.6312 0.722803 85.7207 0.70601 85.8043 0.671319C85.8879 0.636628 85.9638 0.584758 86.0275 0.518844C86.0911 0.45293 86.1412 0.37434 86.1747 0.28782C86.2082 0.201299 86.2245 0.108643 86.2224 0.0154512H86.971C86.9759 0.203254 86.9432 0.390077 86.8749 0.564141C86.8067 0.738205 86.7043 0.895738 86.5743 1.0268C86.2959 1.28631 85.9345 1.4299 85.5599 1.4299C85.1853 1.4299 84.824 1.28631 84.5456 1.0268C84.4056 0.898248 84.2941 0.739986 84.2185 0.562793C84.1429 0.385599 84.1051 0.193632 84.1076 -4.57764e-05V0.0154512Z" fill="white"></path> <path d="M90.6914 9.4044V2.32108H91.7619V5.30088H95.1305V2.32108H96.201V9.4044H95.1305V6.30448H91.7619V9.4044H90.6914Z" fill="white"></path> <path d="M97.9041 6.86641V5.95581H101.026V6.86641H97.9041Z" fill="white"></path> <path d="M102.733 9.4044V2.32108H103.807V8.32718H106.292V2.32108H107.366V8.32718H109.852V2.32108H110.926V9.4044H102.733Z" fill="white"></path> <path d="M113.168 9.4044V2.32108H114.238V5.75424L117.311 2.32108H118.677L116.057 5.2505L118.872 9.4044H117.554L115.309 6.07198L114.234 7.28483V9.4044H113.168Z" fill="white"></path> <path d="M120.545 8.43585C120.215 8.09822 119.954 7.6963 119.775 7.25334C119.597 6.81037 119.505 6.33515 119.505 5.85516C119.505 5.37518 119.597 4.89997 119.775 4.457C119.954 4.01403 120.215 3.6121 120.545 3.27448C121.24 2.59542 122.159 2.21713 123.115 2.21713C124.07 2.21713 124.989 2.59542 125.684 3.27448C126.013 3.61263 126.274 4.01473 126.452 4.45762C126.629 4.90052 126.721 5.37547 126.721 5.85516C126.721 6.33486 126.629 6.80981 126.452 7.25271C126.274 7.69561 126.013 8.0977 125.684 8.43585C124.989 9.11491 124.07 9.4932 123.115 9.4932C122.159 9.4932 121.24 9.11491 120.545 8.43585V8.43585ZM121.316 3.97971C120.894 4.41486 120.63 4.98839 120.571 5.60226C120.512 6.21614 120.661 6.83225 120.992 7.34527C121.322 7.85829 121.815 8.23637 122.386 8.4149C122.956 8.59342 123.569 8.56129 124.119 8.32401C124.669 8.08674 125.122 7.65904 125.401 7.11402C125.681 6.569 125.768 5.9405 125.65 5.33596C125.531 4.73143 125.213 4.18838 124.75 3.79964C124.287 3.41091 123.709 3.20062 123.113 3.20473C122.778 3.19963 122.446 3.26579 122.137 3.3991C121.828 3.53241 121.548 3.73003 121.316 3.97971V3.97971Z" fill="white"></path> <path d="M127.309 9.33853V8.32718C127.357 8.3507 127.409 8.36764 127.462 8.37755C127.584 8.41355 127.71 8.43181 127.836 8.4318C128.004 8.4341 128.167 8.37816 128.3 8.27293C128.466 8.11838 128.594 7.92598 128.675 7.71107C128.825 7.31933 128.918 6.90669 128.952 6.4866C129.026 5.8074 129.06 5.12413 129.053 4.44065V2.32108H133.683V9.4044H132.62V3.3983H130.135V4.45614C130.14 5.1615 130.106 5.86659 130.033 6.56797C129.986 7.06106 129.891 7.54793 129.749 8.02105C129.649 8.34106 129.493 8.63925 129.289 8.90066C129.138 9.10157 128.941 9.26012 128.716 9.36177C128.498 9.4511 128.265 9.49457 128.031 9.48965C127.853 9.49291 127.675 9.46941 127.503 9.41989L127.309 9.33853Z" fill="white"></path> <path d="M135.06 9.40441L137.789 2.33658H138.96L141.689 9.40441H140.566L139.881 7.58707H136.861L136.179 9.40441H135.06ZM137.254 6.57572H139.499L138.377 3.65017L137.254 6.57572Z" fill="white"></path> <path d="M145.102 9.4044V2.32108H150.623V9.4044H149.553V3.3983H146.184V9.4044H145.102Z" fill="white"></path> <path d="M152.869 9.40429V2.32096H155.598C155.9 2.31226 156.2 2.36604 156.482 2.47916C156.763 2.59227 157.02 2.76245 157.237 2.9797C157.444 3.19058 157.608 3.44185 157.72 3.71891C157.832 3.99596 157.889 4.29328 157.889 4.5936C157.889 4.89391 157.832 5.19123 157.72 5.46828C157.608 5.74534 157.444 5.99661 157.237 6.20749C157.02 6.42474 156.763 6.59492 156.482 6.70803C156.2 6.82115 155.9 6.87493 155.598 6.86623H153.94V9.40429H152.869ZM153.94 5.87038H155.598C155.758 5.87372 155.917 5.84312 156.065 5.78048C156.213 5.71783 156.347 5.62447 156.459 5.50614C156.573 5.38844 156.663 5.24862 156.725 5.09469C156.786 4.94076 156.818 4.77575 156.818 4.60909C156.818 4.44244 156.786 4.27743 156.725 4.1235C156.663 3.96957 156.573 3.82975 156.459 3.71205C156.347 3.59372 156.213 3.50036 156.065 3.43771C155.917 3.37507 155.758 3.34447 155.598 3.34781H153.94V5.87038Z" fill="white"></path> <path d="M160.183 8.43585C159.854 8.0977 159.593 7.69561 159.415 7.25271C159.237 6.80981 159.146 6.33486 159.146 5.85516C159.146 5.37547 159.237 4.90052 159.415 4.45762C159.593 4.01473 159.854 3.61263 160.183 3.27448C160.878 2.59542 161.797 2.21713 162.752 2.21713C163.708 2.21713 164.627 2.59542 165.322 3.27448C165.651 3.6121 165.913 4.01403 166.092 4.457C166.27 4.89997 166.362 5.37518 166.362 5.85516C166.362 6.33515 166.27 6.81037 166.092 7.25334C165.913 7.6963 165.651 8.09822 165.322 8.43585C164.627 9.11491 163.708 9.4932 162.752 9.4932C161.797 9.4932 160.878 9.11491 160.183 8.43585V8.43585ZM160.954 3.97971C160.531 4.41521 160.267 4.98937 160.207 5.60407C160.147 6.21877 160.296 6.83584 160.627 7.34981C160.958 7.86379 161.451 8.24276 162.022 8.42195C162.593 8.60114 163.207 8.56943 163.758 8.33224C164.309 8.09505 164.763 7.6671 165.043 7.12154C165.323 6.57598 165.411 5.94667 165.293 5.34119C165.174 4.7357 164.856 4.19161 164.393 3.80193C163.93 3.41224 163.351 3.20115 162.754 3.20473C162.419 3.19979 162.086 3.266 161.777 3.39929C161.467 3.53257 161.187 3.73011 160.954 3.97971V3.97971Z" fill="white"></path> <path d="M168.167 9.4044V2.32108H172.553V3.3828H169.237V9.4044H168.167Z" fill="white"></path> <path d="M174.017 9.40445V2.32113H176.749C177.05 2.31163 177.35 2.36505 177.632 2.47823C177.913 2.5914 178.169 2.76201 178.385 2.97986C178.592 3.19021 178.757 3.44131 178.869 3.71843C178.982 3.99556 179.04 4.29315 179.04 4.59376C179.04 4.89438 178.982 5.19196 178.869 5.46909C178.757 5.74622 178.592 5.99731 178.385 6.20766C178.169 6.42551 177.913 6.59612 177.632 6.70929C177.35 6.82247 177.05 6.87589 176.749 6.86639H175.091V9.40445H174.017ZM175.091 5.87054H176.749C176.915 5.88005 177.08 5.85448 177.236 5.79539C177.392 5.73631 177.535 5.64494 177.655 5.52688C177.776 5.40883 177.872 5.26657 177.937 5.10879C178.003 4.95101 178.037 4.78104 178.037 4.60926C178.037 4.43748 178.003 4.26751 177.937 4.10973C177.872 3.95196 177.776 3.80969 177.655 3.69164C177.535 3.57358 177.392 3.48222 177.236 3.42313C177.08 3.36404 176.915 3.33847 176.749 3.34798H175.091V5.87054Z" fill="white"></path> <path d="M179.283 9.40441L182.011 2.33658H183.187L185.912 9.40441H184.789L184.107 7.58707H181.083L180.402 9.40441H179.283ZM181.476 6.57572H183.722L182.599 3.65017L181.476 6.57572Z" fill="white"></path> <path d="M187.278 9.4044V2.32108H188.255L190.838 5.75424L193.42 2.32108H194.416V9.4044H193.342V4.18878L190.838 7.46695L188.352 4.1849V9.4044H187.278Z" fill="white"></path> <path d="M196.639 9.4044V2.32108H197.616L200.199 5.75424L202.785 2.32108H203.773V9.4044H202.688V4.18878L200.199 7.46695L197.713 4.1849V9.4044H196.639Z" fill="white"></path> <path d="M206.019 9.4044V2.32108H207.093V7.5212L210.836 2.32108H211.813V9.4044H210.739V4.18878L206.996 9.3889L206.019 9.4044Z" fill="white"></path> <path d="M214.047 9.40439V2.32106H216.776C217.078 2.31104 217.379 2.36421 217.661 2.4774C217.942 2.59059 218.199 2.76146 218.415 2.9798C218.622 3.19068 218.786 3.44195 218.898 3.71901C219.01 3.99606 219.067 4.29338 219.067 4.5937C219.067 4.89401 219.01 5.19133 218.898 5.46838C218.786 5.74544 218.622 5.99671 218.415 6.20759C218.199 6.42593 217.942 6.59681 217.661 6.71C217.379 6.82318 217.078 6.87635 216.776 6.86633H215.118V9.40439H214.047ZM215.118 5.87048H216.776C216.936 5.87389 217.096 5.84335 217.245 5.78071C217.393 5.71808 217.528 5.62468 217.641 5.50624C217.868 5.26704 217.995 4.94484 217.995 4.6092C217.995 4.27355 217.868 3.95136 217.641 3.71215C217.528 3.59371 217.393 3.50031 217.245 3.43768C217.096 3.37505 216.936 3.3445 216.776 3.34791H215.118V5.87048Z" fill="white"></path> <path d="M221.365 8.43585C221.035 8.09822 220.774 7.6963 220.595 7.25334C220.417 6.81037 220.325 6.33515 220.325 5.85516C220.325 5.37518 220.417 4.89997 220.595 4.457C220.774 4.01403 221.035 3.6121 221.365 3.27448C222.06 2.59542 222.979 2.21713 223.935 2.21713C224.89 2.21713 225.809 2.59542 226.504 3.27448C226.833 3.61263 227.093 4.01473 227.271 4.45762C227.449 4.90052 227.541 5.37547 227.541 5.85516C227.541 6.33486 227.449 6.80981 227.271 7.25271C227.093 7.69561 226.833 8.0977 226.504 8.43585C225.809 9.11491 224.89 9.4932 223.935 9.4932C222.979 9.4932 222.06 9.11491 221.365 8.43585V8.43585ZM222.132 3.99134C221.709 4.42683 221.445 5.001 221.385 5.6157C221.326 6.2304 221.474 6.84746 221.805 7.36144C222.136 7.87541 222.63 8.25438 223.201 8.43358C223.772 8.61277 224.385 8.58106 224.936 8.34386C225.487 8.10667 225.942 7.67872 226.222 7.13316C226.502 6.5876 226.59 5.9583 226.471 5.35281C226.353 4.74732 226.035 4.20323 225.572 3.81355C225.109 3.42387 224.529 3.21278 223.933 3.21636C223.6 3.21149 223.27 3.27665 222.962 3.40787C222.655 3.53909 222.376 3.73364 222.144 3.97971L222.132 3.99134Z" fill="white"></path> <path d="M229.356 9.40437V2.32104H232.088C232.628 2.29964 233.156 2.49543 233.559 2.86741C233.742 3.03146 233.888 3.23453 233.987 3.46264C234.087 3.69075 234.138 3.93846 234.136 4.18875C234.138 4.59783 233.988 4.99216 233.716 5.28922C233.601 5.4209 233.461 5.52757 233.305 5.60309C233.523 5.69185 233.722 5.82342 233.892 5.99058C234.08 6.15304 234.23 6.35725 234.331 6.58803C234.432 6.81881 234.482 7.07022 234.476 7.32355C234.478 7.59983 234.421 7.87311 234.31 8.12461C234.2 8.37611 234.038 8.59986 233.836 8.78051C233.397 9.20051 232.817 9.42465 232.219 9.40437H229.356ZM230.43 5.2156H232.088C232.217 5.22184 232.345 5.20139 232.466 5.15548C232.587 5.10956 232.698 5.0391 232.792 4.94823C232.965 4.76258 233.062 4.51461 233.062 4.25656C233.062 3.99851 232.965 3.75054 232.792 3.56489C232.698 3.47402 232.587 3.40356 232.466 3.35764C232.345 3.31173 232.217 3.29129 232.088 3.29752H230.43V5.2156ZM230.43 8.44727H232.219C232.375 8.45447 232.53 8.42823 232.675 8.3702C232.82 8.31217 232.951 8.22362 233.061 8.11015C233.168 8.00328 233.252 7.87478 233.308 7.73274C233.364 7.5907 233.391 7.43818 233.387 7.2848C233.391 7.13085 233.363 6.97781 233.307 6.83516C233.251 6.69252 233.168 6.56331 233.061 6.45557C232.95 6.34429 232.818 6.25744 232.673 6.20018C232.528 6.14293 232.374 6.11645 232.219 6.12232H230.415L230.43 8.44727Z" fill="white"></path> <path d="M235.214 9.40441L237.946 2.33658H239.114L241.846 9.40441H240.723L240.042 7.58707H237.018L236.337 9.40441H235.214ZM237.407 6.57572H239.653L238.53 3.65017L237.407 6.57572Z" fill="white"></path> <path d="M243.205 9.4044V2.32108H244.275V5.30088H247.644V2.32108H248.718V9.4044H247.644V6.30448H244.275V9.4044H243.205Z" fill="white"></path> <path d="M250.956 9.4044V2.32108H252.027V7.5212L255.77 2.32108H256.743V9.4044H255.669V4.18878L251.926 9.3889L250.956 9.4044Z" fill="white"></path> <path d="M258.42 9.40418L259.97 6.5755C259.729 6.47844 259.508 6.33514 259.318 6.15313C259.101 5.95449 258.929 5.70801 258.816 5.43177C258.703 5.15552 258.651 4.85652 258.663 4.55667C258.657 4.26159 258.71 3.9684 258.819 3.69562C258.928 3.42284 259.09 3.17639 259.296 2.97183C259.511 2.76147 259.763 2.59704 260.039 2.48799C260.316 2.37894 260.61 2.32741 260.905 2.33635H263.735V9.40418H262.661V6.78087H261.04L259.629 9.40418H258.42ZM260.905 5.76952H262.661V3.3477H260.905C260.746 3.33838 260.587 3.36278 260.437 3.41942C260.287 3.47606 260.15 3.56375 260.035 3.67711C259.919 3.79046 259.826 3.92711 259.763 4.07869C259.7 4.23026 259.668 4.39356 259.668 4.55861C259.668 4.72365 259.7 4.88696 259.763 5.03854C259.826 5.19011 259.919 5.32676 260.035 5.44012C260.15 5.55348 260.287 5.64116 260.437 5.6978C260.587 5.75444 260.746 5.77884 260.905 5.76952V5.76952Z" fill="white"></path> <path d="M0.744263 47.0595V19.9705H6.09856V30.6188H16.8071V19.9705H22.1614V47.0761H16.8071V36.0454H6.09856V47.0817L0.744263 47.0595Z" fill="white"></path> <path d="M28.5336 47.0595V19.9705H47.0541V25.3916H33.8772V30.6188H44.2056V35.8459H33.8772V41.655H47.4128V47.0761L28.5336 47.0595Z" fill="white"></path> <path d="M52.2207 47.0595V19.9705H57.575V41.655H69.151V47.0761L52.2207 47.0595Z" fill="white"></path> <path d="M73.0594 47.0595V19.9705H78.4137V41.655H89.9897V47.0761L73.0594 47.0595Z" fill="white"></path> <path d="M94.7712 43.4952C92.2768 40.8156 90.8832 37.2391 90.8832 33.5177C90.8832 29.7963 92.2768 26.2198 94.7712 23.5402C96.0349 22.2262 97.5368 21.1836 99.1907 20.4721C100.845 19.7607 102.618 19.3945 104.409 19.3945C106.2 19.3945 107.973 19.7607 109.627 20.4721C111.281 21.1836 112.783 22.2262 114.047 23.5402C116.541 26.2198 117.935 29.7963 117.935 33.5177C117.935 37.2391 116.541 40.8156 114.047 43.4952C112.783 44.8092 111.281 45.8518 109.627 46.5632C107.973 47.2747 106.2 47.6409 104.409 47.6409C102.618 47.6409 100.845 47.2747 99.1907 46.5632C97.5368 45.8518 96.0349 44.8092 94.7712 43.4952V43.4952ZM98.728 27.3316C97.227 29.0125 96.3933 31.2175 96.3933 33.5066C96.3933 35.7958 97.227 38.0007 98.728 39.6816C99.4579 40.4832 100.338 41.1219 101.315 41.5585C102.292 41.995 103.345 42.2202 104.409 42.2202C105.473 42.2202 106.526 41.995 107.503 41.5585C108.48 41.1219 109.36 40.4832 110.09 39.6816C111.591 38.0007 112.425 35.7958 112.425 33.5066C112.425 31.2175 111.591 29.0125 110.09 27.3316C109.36 26.53 108.48 25.8913 107.503 25.4548C106.526 25.0182 105.473 24.793 104.409 24.793C103.345 24.793 102.292 25.0182 101.315 25.4548C100.338 25.8913 99.4579 26.53 98.728 27.3316Z" fill="white"></path> <path d="M134.687 47.0595L126.495 19.9705H132.016L137.182 38.1684H137.359L142.526 19.9705H147.511L152.678 38.1684H152.854L158.021 19.9705H163.542L155.35 47.0761H150.183L145.128 29.4547H144.914L139.854 47.0761L134.687 47.0595Z" fill="white"></path> <path d="M168.869 43.4951C166.372 40.8168 164.977 37.2398 164.977 33.5176C164.977 29.7953 166.372 26.2184 168.869 23.5401C170.133 22.2254 171.634 21.1822 173.288 20.4704C174.942 19.7585 176.716 19.392 178.507 19.392C180.298 19.392 182.072 19.7585 183.726 20.4704C185.38 21.1822 186.881 22.2254 188.145 23.5401C190.642 26.2184 192.037 29.7953 192.037 33.5176C192.037 37.2398 190.642 40.8168 188.145 43.4951C186.881 44.8097 185.38 45.853 183.726 46.5648C182.072 47.2767 180.298 47.6431 178.507 47.6431C176.716 47.6431 174.942 47.2767 173.288 46.5648C171.634 45.853 170.133 44.8097 168.869 43.4951V43.4951ZM172.815 27.3315C171.318 29.0142 170.486 31.2185 170.486 33.5065C170.486 35.7945 171.318 37.9988 172.815 39.6815C173.546 40.4832 174.427 41.122 175.404 41.5587C176.381 41.9953 177.434 42.2205 178.499 42.2205C179.563 42.2205 180.617 41.9953 181.594 41.5587C182.571 41.122 183.452 40.4832 184.183 39.6815C185.684 38.0006 186.517 35.7956 186.517 33.5065C186.517 31.2174 185.684 29.0124 184.183 27.3315C183.452 26.5298 182.571 25.891 181.594 25.4543C180.617 25.0177 179.563 24.7925 178.499 24.7925C177.434 24.7925 176.381 25.0177 175.404 25.4543C174.427 25.891 173.546 26.5298 172.815 27.3315V27.3315Z" fill="white"></path> <path d="M196.851 47.0595V19.9705H207.897C210.552 19.9705 212.671 20.802 214.252 22.4649C215.834 24.1278 216.622 26.3303 216.619 29.0722C216.619 31.7292 215.905 33.8319 214.477 35.3803C213.886 36.0779 213.155 36.634 212.335 37.0099L217.502 47.0761H211.613L207.158 38.1684H202.173V47.0761L196.851 47.0595ZM202.205 32.7307H207.725C208.179 32.7481 208.632 32.6658 209.052 32.489C209.473 32.3122 209.853 32.0451 210.167 31.7052C210.776 30.9652 211.11 30.0249 211.11 29.0528C211.11 28.0808 210.776 27.1405 210.167 26.4005C209.853 26.0606 209.473 25.7935 209.052 25.6167C208.632 25.4399 208.179 25.3576 207.725 25.375H202.194L202.205 32.7307Z" fill="white"></path> <path d="M221.968 47.0595V19.9705H227.322V41.655H238.887V47.0761L221.968 47.0595Z" fill="white"></path> <path d="M242.807 47.0595V19.9705H251.909C255.381 19.9705 258.711 21.3984 261.166 23.94C263.621 26.4817 265 29.9289 265 33.5233C265 37.1178 263.621 40.565 261.166 43.1066C258.711 45.6482 255.381 47.0761 251.909 47.0761L242.807 47.0595ZM248.161 41.6384H251.909C252.929 41.6686 253.945 41.4776 254.89 41.0777C255.835 40.6777 256.689 40.0776 257.397 39.3158C258.799 37.7249 259.576 35.6491 259.576 33.4956C259.576 31.3421 258.799 29.2663 257.397 27.6754C256.689 26.9136 255.835 26.3135 254.89 25.9135C253.945 25.5136 252.929 25.3226 251.909 25.3528H248.161V41.6384Z" fill="white"></path> <path d="M178.359 46.8701C185.514 46.8701 191.314 40.8651 191.314 33.4576C191.314 26.05 185.514 20.045 178.359 20.045C171.203 20.045 165.403 26.05 165.403 33.4576C165.403 40.8651 171.203 46.8701 178.359 46.8701Z" fill="white"></path> <path d="M176.894 44.0861L169.3 39.5197C169.205 39.4628 169.127 39.3812 169.072 39.283C169.017 39.1848 168.987 39.0734 168.987 38.9598L168.963 29.8688C168.962 29.7542 168.991 29.6414 169.045 29.5418C169.1 29.4422 169.179 29.3593 169.275 29.3015C169.37 29.2438 169.479 29.2132 169.59 29.2128C169.701 29.2124 169.809 29.2423 169.905 29.2995L177.501 33.8715C177.597 33.9292 177.676 34.0124 177.731 34.1124C177.786 34.2125 177.814 34.3259 177.812 34.4409L177.838 43.53C177.837 43.644 177.808 43.7558 177.752 43.8542C177.696 43.9525 177.617 44.034 177.521 44.0904C177.425 44.1467 177.317 44.176 177.207 44.1753C177.097 44.1745 176.989 44.1438 176.894 44.0861V44.0861Z" fill="#662D8F"></path> <path d="M178.012 33.0916L170.415 28.5214C170.32 28.4641 170.241 28.382 170.186 28.2832C170.131 28.1845 170.102 28.0726 170.102 27.9587C170.102 27.8447 170.131 27.7328 170.186 27.6341C170.241 27.5353 170.32 27.4532 170.415 27.3959L178.067 22.822C178.163 22.7646 178.272 22.7345 178.382 22.7345C178.493 22.7345 178.602 22.7646 178.698 22.822L186.295 27.394C186.39 27.451 186.469 27.533 186.524 27.6316C186.579 27.7302 186.608 27.842 186.608 27.9558C186.608 28.0696 186.579 28.1814 186.524 28.2801C186.469 28.3787 186.39 28.4606 186.295 28.5176L178.65 33.0916C178.554 33.1511 178.443 33.1825 178.331 33.1825C178.219 33.1825 178.109 33.1511 178.012 33.0916Z" fill="#60A9E0"></path> <path d="M187.727 29.8594L187.75 38.9561C187.752 39.0714 187.724 39.1849 187.669 39.2851C187.614 39.3852 187.534 39.4682 187.437 39.5255L179.785 44.1014C179.689 44.1585 179.58 44.1884 179.469 44.188C179.359 44.1877 179.25 44.1571 179.154 44.0993C179.059 44.0415 178.98 43.9586 178.925 43.859C178.87 43.7594 178.842 43.6466 178.843 43.532L178.817 34.441C178.816 34.3257 178.845 34.2122 178.9 34.1121C178.956 34.0121 179.036 33.9291 179.132 33.8716L186.784 29.2976C186.88 29.2408 186.988 29.2109 187.098 29.211C187.208 29.211 187.316 29.241 187.412 29.2978C187.507 29.3547 187.586 29.4365 187.642 29.5351C187.697 29.6336 187.726 29.7455 187.727 29.8594Z" fill="#FF9D00"></path> <path d="M175.035 34.9968L175.018 40.7779L173.922 40.1231L173.929 37.7032L172.118 36.6214L172.113 39.0413L171.016 38.3865L171.033 32.6054L172.127 33.2602L172.122 35.4827L173.931 36.5626L173.938 34.342L175.035 34.9968Z" fill="white"></path> <path d="M179.532 24.7976L182.867 28.1778L181.767 28.8249L179.46 27.8988C178.923 27.6805 178.43 27.4736 177.867 27.1984C178.28 27.5571 178.632 27.8551 178.978 28.1891L180.485 29.5974L179.383 30.2655L173.847 28.2176L174.925 27.5685L177.105 28.4681C177.743 28.7301 178.414 29.0204 178.938 29.2463C178.54 28.9047 178.107 28.5194 177.655 28.117L176.201 26.7885L177.271 26.1432L179.519 27.058C180.142 27.3123 180.694 27.5552 181.261 27.8172C180.841 27.4717 180.414 27.0978 179.977 26.7202L178.511 25.4068L179.532 24.7976Z" fill="white"></path> <path d="M183.966 33.492C184.57 33.1314 184.999 33.0137 185.312 33.0042L185.05 34.2967C184.659 34.3139 184.28 34.437 183.95 34.6535C183.435 34.9629 183.185 35.3994 183.185 35.7163C183.185 36.1168 183.477 36.1206 184.166 36.0162C185.098 35.8701 185.53 36.1889 185.532 37.0715C185.532 38.1229 184.865 39.4173 183.416 40.2827C182.815 40.6433 182.219 40.8028 181.922 40.7857L182.163 39.478C182.629 39.4662 183.085 39.3289 183.484 39.0794C184.034 38.7511 184.322 38.3089 184.32 37.9008C184.318 37.4928 184.067 37.4359 183.433 37.5535C182.557 37.7035 181.976 37.4738 181.966 36.5628C181.966 35.4829 182.724 34.2208 183.966 33.492Z" fill="white"></path> </svg> 