<?xml version="1.0" encoding="UTF-8"?> <svg xmlns="http://www.w3.org/2000/svg" width="29" height="24" viewBox="0 0 29 24" fill="none"> <path d="M28.2804 8.97402V15.1434C28.2804 17.1531 26.9557 19.1553 24.3214 20.6882C19.0226 23.7691 10.3893 23.7691 5.05265 20.6882C2.36539 19.1364 1.02176 17.1001 1.02933 15.0677V8.89453C1.02933 10.9308 2.36918 12.9671 5.05265 14.5151C10.3931 17.5997 19.0188 17.5997 24.3214 14.5151C26.9557 12.986 28.2728 10.98 28.2804 8.97402Z" fill="#F2BE00" stroke="black" stroke-width="0.2" stroke-miterlimit="10"></path> <path d="M28.273 8.96593C28.2852 4.60761 22.1947 1.05746 14.6696 1.03645C7.14441 1.01543 1.03421 4.53151 1.02204 8.88983C1.00987 13.2481 7.10034 16.7983 14.6255 16.8193C22.1506 16.8403 28.2608 13.3242 28.273 8.96593Z" fill="#FFDA54" stroke="#1E2532" stroke-width="0.2" stroke-linejoin="round"></path> </svg> 