<svg width="37" height="37" viewBox="0 0 37 37" fill="none" xmlns="http://www.w3.org/2000/svg">
<path d="M16.294 35.8441L3.5665 28.3923C3.24317 28.2039 3.04276 27.8539 3.04276 27.4797L3.00001 12.649C2.99733 11.8306 3.87915 11.3164 4.58193 11.7283L17.3094 19.18C17.6328 19.3684 17.8332 19.7184 17.8332 20.0926L17.8759 34.9234C17.8786 35.7418 16.9968 36.2533 16.294 35.8441Z" fill="#662D8F"/>
<path d="M18.1665 17.9003L5.42829 10.4432C4.72818 10.034 4.73085 9.01641 5.43096 8.60721L18.2627 1.14202C18.5887 0.950876 18.9922 0.953568 19.3182 1.14471L32.0564 8.60183C32.7565 9.01103 32.7538 10.0286 32.0537 10.4378L19.222 17.903C18.896 18.0942 18.4925 18.0915 18.1665 17.9003Z" fill="#4A9FE0"/>
<path d="M34.4574 12.6266L34.5001 27.4708C34.5001 27.8504 34.2997 28.203 33.9737 28.3915L21.142 35.8567C20.4419 36.2632 19.5654 35.757 19.5628 34.9413L19.52 20.0971C19.52 19.7175 19.7204 19.3649 20.0464 19.1764L32.8781 11.7113C33.5782 11.3048 34.4547 11.8109 34.4574 12.6266Z" fill="#FF9D00"/>
<path d="M13.1745 21.0081L13.1478 30.4412L11.3093 29.3724L11.32 25.4258L8.28444 23.6598L8.27375 27.6064L6.4353 26.5377L6.46202 17.1072L8.30047 18.176L8.28978 21.7996L11.3254 23.5656L11.336 19.9393L13.1745 21.0081Z" fill="white"/>
<path d="M19.9649 4.47937L25.5551 9.98202L23.7273 11.0535L19.8607 9.54052C18.9602 9.18247 18.1345 8.84596 17.1886 8.39907C17.8807 8.98325 18.4712 9.47053 19.0537 10.0143L21.5789 12.3107L19.7298 13.3929L10.4333 10.0601L12.2424 9.0021L15.8979 10.4693C16.9668 10.8973 18.0918 11.3711 18.9736 11.7427C18.3055 11.1854 17.5787 10.5554 16.8305 9.90126L14.3935 7.74758L16.1892 6.69766L19.9569 8.19178C21.0044 8.60636 21.929 9.0021 22.8749 9.42476C22.1721 8.85942 21.456 8.251 20.7078 7.63451L18.2494 5.4916L19.9649 4.47937Z" fill="white"/>
<path d="M28.1406 18.5376C29.1507 17.9507 29.8722 17.7596 30.3986 17.7434L29.9577 19.854C29.6156 19.854 28.9716 19.9402 28.1219 20.4355C27.2561 20.9389 26.8392 21.6523 26.8392 22.1692C26.8419 22.8234 27.3256 22.8288 28.4826 22.6565C30.0432 22.4196 30.77 22.9392 30.7727 24.3794C30.778 26.0943 29.6557 28.2076 27.2267 29.6183C26.2166 30.2052 25.2199 30.4663 24.7202 30.4367L25.121 28.3018C25.6448 28.3153 26.4865 28.1457 27.3389 27.6503C28.2582 27.1173 28.7418 26.3931 28.7392 25.7255C28.7365 25.0875 28.3143 24.969 27.2508 25.1602C25.7811 25.4051 24.8084 25.0309 24.8031 23.5422C24.8004 21.8031 26.0697 19.7409 28.1406 18.5376Z" fill="white"/>
</svg>
