<svg width="678" height="110" viewBox="0 0 678 110" fill="none" xmlns="http://www.w3.org/2000/svg">
<path d="M0 28H2.85974V24.1111H15.3386V28H18.1983V21.3889H15.9885V5.96296H4.15962V11.4074C4.15962 18.6667 1.03991 21.3889 1.03991 21.3889H0V28ZM4.15962 21.3889C4.15962 21.3889 7.01936 18.6667 7.01936 11.4074V8.68519H13.1288V21.3889H4.15962Z" fill="#1E2532"/>
<path d="M21.4379 24.1111H34.5667V21.3889H24.2976V16.0741H32.2269V13.3519H24.2976V8.68519H34.3067V5.96296H21.4379V24.1111Z" fill="#1E2532"/>
<path d="M41.7262 24.1111H44.5859V8.68519H50.0454V5.96296H36.2667V8.68519H41.7262V24.1111Z" fill="#1E2532"/>
<path d="M61.1147 24.3704C66.0543 24.3704 68.6541 20.7407 68.6541 20.7407L66.8342 18.9259C66.8342 18.9259 64.8844 21.7778 61.1147 21.7778C57.3451 21.7778 54.3554 18.7963 54.3554 15.037C54.3554 11.2778 57.3451 8.2963 61.1147 8.2963C64.8844 8.2963 66.7042 11.0185 66.7042 11.0185L68.5241 9.2037C68.5241 9.2037 66.0543 5.7037 61.1147 5.7037C55.6552 5.7037 51.4956 9.85185 51.4956 15.037C51.4956 20.2222 55.6552 24.3704 61.1147 24.3704Z" fill="#1E2532"/>
<path d="M72.0368 24.1111H74.8965V18.6667L77.7563 15.5556L83.7357 24.1111H87.2454L79.7061 13.4815L86.7254 5.96296H83.0858L74.8965 14.7778V5.96296H72.0368V24.1111Z" fill="#1E2532"/>
<path d="M87.4942 24.1111H90.4839L92.3038 19.4444H100.363L102.183 24.1111H105.173L97.8933 5.96296H94.7735L87.4942 24.1111ZM93.3437 16.8519L96.3334 9.33333L99.3231 16.8519H93.3437Z" fill="#1E2532"/>
<path d="M106.478 24.1111H109.727L113.497 17.3704H117.787V24.1111H120.646V5.96296H113.107C109.597 5.96296 107.127 8.42593 107.127 11.6667C107.127 15.6852 110.611 16.8519 110.611 16.8519L106.478 24.1111ZM113.107 14.7778C111.287 14.7778 109.987 13.4815 109.987 11.6667C109.987 9.85185 111.287 8.55556 113.107 8.55556H117.787V14.7778H113.107Z" fill="#1E2532"/>
<path d="M139.742 24.3704C145.202 24.3704 149.361 20.2222 149.361 15.037C149.361 9.85185 145.202 5.7037 139.742 5.7037C134.283 5.7037 130.123 9.85185 130.123 15.037C130.123 20.2222 134.283 24.3704 139.742 24.3704ZM139.742 21.7778C135.973 21.7778 132.983 18.7963 132.983 15.037C132.983 11.2778 135.973 8.2963 139.742 8.2963C143.512 8.2963 146.502 11.2778 146.502 15.037C146.502 18.7963 143.512 21.7778 139.742 21.7778Z" fill="#1E2532"/>
<path d="M153.381 24.1111H156.241V16.2037H165.21V24.1111H168.07V5.96296H165.21V13.6111H156.241V5.96296H153.381V24.1111Z" fill="#1E2532"/>
<path d="M172.48 24.3704C175.73 24.3704 178.07 22.037 178.07 11.4074V8.68519H184.699V24.1111H187.559V5.96296H175.21V11.4074C175.21 20.0926 173.65 21.6481 171.96 21.6481C171.18 21.6481 170.53 21.3889 170.53 21.3889V23.9815C170.53 23.9815 171.31 24.3704 172.48 24.3704Z" fill="#1E2532"/>
<path d="M190.418 24.1111H193.408L195.228 19.4444H203.287L205.107 24.1111H208.097L200.817 5.96296H197.698L190.418 24.1111ZM196.268 16.8519L199.258 9.33333L202.247 16.8519H196.268Z" fill="#1E2532"/>
<path d="M210.962 24.1111H213.561L223.57 10.7593V24.1111H226.43V5.96296H223.83L213.821 19.3148V5.96296H210.962V24.1111ZM218.631 3.62963C220.841 3.62963 222.401 2.07407 222.401 0H220.451C220.451 1.03704 219.671 1.81482 218.631 1.81482C217.591 1.81482 216.811 1.03704 216.811 0H214.861C214.861 2.07407 216.421 3.62963 218.631 3.62963Z" fill="#1E2532"/>
<path d="M231.628 24.1111H234.487V16.2037H243.457V24.1111H246.316V5.96296H243.457V13.6111H234.487V5.96296H231.628V24.1111Z" fill="#1E2532"/>
<path d="M250.077 17.6296H258.396V15.2963H250.077V17.6296Z" fill="#1E2532"/>
<path d="M262.17 24.1111H284.008V5.96296H281.148V21.3889H274.519V5.96296H271.659V21.3889H265.03V5.96296H262.17V24.1111Z" fill="#1E2532"/>
<path d="M289.208 24.1111H292.068V18.6667L294.928 15.5556L300.907 24.1111H304.417L296.878 13.4815L303.897 5.96296H300.257L292.068 14.7778V5.96296H289.208V24.1111Z" fill="#1E2532"/>
<path d="M314.947 24.3704C320.407 24.3704 324.566 20.2222 324.566 15.037C324.566 9.85185 320.407 5.7037 314.947 5.7037C309.488 5.7037 305.328 9.85185 305.328 15.037C305.328 20.2222 309.488 24.3704 314.947 24.3704ZM314.947 21.7778C311.177 21.7778 308.188 18.7963 308.188 15.037C308.188 11.2778 311.177 8.2963 314.947 8.2963C318.717 8.2963 321.706 11.2778 321.706 15.037C321.706 18.7963 318.717 21.7778 314.947 21.7778Z" fill="#1E2532"/>
<path d="M327.298 24.3704C330.548 24.3704 332.887 22.037 332.887 11.4074V8.68519H339.517V24.1111H342.377V5.96296H330.028V11.4074C330.028 20.0926 328.468 21.6481 326.778 21.6481C325.998 21.6481 325.348 21.3889 325.348 21.3889V23.9815C325.348 23.9815 326.128 24.3704 327.298 24.3704Z" fill="#1E2532"/>
<path d="M345.236 24.1111H348.226L350.046 19.4444H358.105L359.925 24.1111H362.915L355.635 5.96296H352.516L345.236 24.1111ZM351.086 16.8519L354.076 9.33333L357.065 16.8519H351.086Z" fill="#1E2532"/>
<path d="M370.451 24.1111H373.311V8.68519H382.28V24.1111H385.14V5.96296H370.451V24.1111Z" fill="#1E2532"/>
<path d="M390.33 24.1111H393.19V17.6296H397.609C401.119 17.6296 403.719 15.037 403.719 11.7963C403.719 8.55556 401.119 5.96296 397.609 5.96296H390.33V24.1111ZM393.19 15.037V8.55556H397.609C399.429 8.55556 400.859 9.98148 400.859 11.7963C400.859 13.6111 399.429 15.037 397.609 15.037H393.19Z" fill="#1E2532"/>
<path d="M415.942 24.3704C421.401 24.3704 425.561 20.2222 425.561 15.037C425.561 9.85185 421.401 5.7037 415.942 5.7037C410.482 5.7037 406.323 9.85185 406.323 15.037C406.323 20.2222 410.482 24.3704 415.942 24.3704ZM415.942 21.7778C412.172 21.7778 409.182 18.7963 409.182 15.037C409.182 11.2778 412.172 8.2963 415.942 8.2963C419.711 8.2963 422.701 11.2778 422.701 15.037C422.701 18.7963 419.711 21.7778 415.942 21.7778Z" fill="#1E2532"/>
<path d="M429.58 24.1111H432.44V8.68519H441.279V5.96296H429.58V24.1111Z" fill="#1E2532"/>
<path d="M444.407 24.1111H447.267V17.6296H451.686C455.196 17.6296 457.796 15.037 457.796 11.7963C457.796 8.55556 455.196 5.96296 451.686 5.96296H444.407V24.1111ZM447.267 15.037V8.55556H451.686C453.506 8.55556 454.936 9.98148 454.936 11.7963C454.936 13.6111 453.506 15.037 451.686 15.037H447.267Z" fill="#1E2532"/>
<path d="M457.681 24.1111H460.671L462.491 19.4444H470.55L472.37 24.1111H475.36L468.08 5.96296H464.96L457.681 24.1111ZM463.531 16.8519L466.52 9.33333L469.51 16.8519H463.531Z" fill="#1E2532"/>
<path d="M478.224 24.1111H481.084V10.7593L487.713 19.1852L494.343 10.7593V24.1111H497.203V5.96296H494.603L487.713 14.7778L480.824 5.96296H478.224V24.1111Z" fill="#1E2532"/>
<path d="M502.394 24.1111H505.254V10.7593L511.883 19.1852L518.513 10.7593V24.1111H521.372V5.96296H518.773L511.883 14.7778L504.994 5.96296H502.394V24.1111Z" fill="#1E2532"/>
<path d="M526.564 24.1111H529.163L539.173 10.7593V24.1111H542.032V5.96296H539.433L529.423 19.3148V5.96296H526.564V24.1111Z" fill="#1E2532"/>
<path d="M547.23 24.1111H550.09V17.6296H554.509C558.019 17.6296 560.619 15.037 560.619 11.7963C560.619 8.55556 558.019 5.96296 554.509 5.96296H547.23V24.1111ZM550.09 15.037V8.55556H554.509C556.329 8.55556 557.759 9.98148 557.759 11.7963C557.759 13.6111 556.329 15.037 554.509 15.037H550.09Z" fill="#1E2532"/>
<path d="M572.842 24.3704C578.301 24.3704 582.461 20.2222 582.461 15.037C582.461 9.85185 578.301 5.7037 572.842 5.7037C567.382 5.7037 563.222 9.85185 563.222 15.037C563.222 20.2222 567.382 24.3704 572.842 24.3704ZM572.842 21.7778C569.072 21.7778 566.082 18.7963 566.082 15.037C566.082 11.2778 569.072 8.2963 572.842 8.2963C576.611 8.2963 579.601 11.2778 579.601 15.037C579.601 18.7963 576.611 21.7778 572.842 21.7778Z" fill="#1E2532"/>
<path d="M586.48 24.1111H594.149C597.659 24.1111 600.129 21.6481 600.129 18.7963C600.129 15.5556 597.009 14.3889 597.009 14.3889C597.009 14.3889 599.219 13.4815 599.219 10.7593C599.219 8.16667 597.009 5.96296 593.759 5.96296H586.48V24.1111ZM589.34 21.6481V15.6852H594.149C595.969 15.6852 597.269 16.9815 597.269 18.6667C597.269 20.3519 595.969 21.6481 594.149 21.6481H589.34ZM589.34 13.3519V8.42593H593.759C595.319 8.42593 596.359 9.46296 596.359 10.8889C596.359 12.3148 595.319 13.3519 593.759 13.3519H589.34Z" fill="#1E2532"/>
<path d="M601.303 24.1111H604.293L606.112 19.4444H614.172L615.991 24.1111H618.981L611.702 5.96296H608.582L601.303 24.1111ZM607.152 16.8519L610.142 9.33333L613.132 16.8519H607.152Z" fill="#1E2532"/>
<path d="M621.846 24.1111H624.706V16.2037H633.675V24.1111H636.535V5.96296H633.675V13.6111H624.706V5.96296H621.846V24.1111Z" fill="#1E2532"/>
<path d="M641.725 24.1111H644.325L654.334 10.7593V24.1111H657.194V5.96296H654.594L644.585 19.3148V5.96296H641.725V24.1111Z" fill="#1E2532"/>
<path d="M660.831 24.1111H664.081L667.851 17.3704H672.14V24.1111H675V5.96296H667.461C663.951 5.96296 661.481 8.42593 661.481 11.6667C661.481 15.6852 664.965 16.8519 664.965 16.8519L660.831 24.1111ZM667.461 14.7778C665.641 14.7778 664.341 13.4815 664.341 11.6667C664.341 9.85185 665.641 8.55556 667.461 8.55556H672.14V14.7778H667.461Z" fill="#1E2532"/>
<path d="M3 108.623H16.6457V82.4657H43.9371V108.623H57.5828V44.3767H43.9371V69.6164H16.6457V44.3767H3V108.623Z" fill="#1E2532"/>
<path d="M73.9825 108.623H122.197V95.774H87.6282V82.0068H114.01V69.6164H87.6282V57.226H121.288V44.3767H73.9825V108.623Z" fill="#1E2532"/>
<path d="M134.482 108.623H177.693V95.774H148.128V44.3767H134.482V108.623Z" fill="#1E2532"/>
<path d="M187.697 108.623H230.908V95.774H201.342V44.3767H187.697V108.623Z" fill="#1E2532"/>
<path d="M267.744 110C287.303 110 302.313 94.8562 302.313 76.5C302.313 58.1438 287.303 43 267.744 43C248.185 43 233.175 58.1438 233.175 76.5C233.175 94.8562 248.185 110 267.744 110ZM267.744 97.1507C256.373 97.1507 247.276 87.9726 247.276 76.5C247.276 65.0274 256.373 55.8493 267.744 55.8493C279.116 55.8493 288.213 65.0274 288.213 76.5C288.213 87.9726 279.116 97.1507 267.744 97.1507Z" fill="#1E2532"/>
<path d="M345.006 108.623H358.197L371.115 66.863H371.661L384.578 108.623H397.769L418.693 44.3767H404.592L391.401 87.5137H390.946L377.756 44.3767H365.02L351.829 87.5137H351.374L338.183 44.3767H324.083L345.006 108.623Z" fill="#1E2532"/>
<path d="M456.972 110C476.531 110 491.541 94.8562 491.541 76.5C491.541 58.1438 476.531 43 456.972 43C437.413 43 422.403 58.1438 422.403 76.5C422.403 94.8562 437.413 110 456.972 110ZM456.972 97.1507C445.6 97.1507 436.503 87.9726 436.503 76.5C436.503 65.0274 445.6 55.8493 456.972 55.8493C468.343 55.8493 477.44 65.0274 477.44 76.5C477.44 87.9726 468.343 97.1507 456.972 97.1507Z" fill="#1E2532"/>
<path d="M503.786 108.623H517.432V87.5137H530.168L541.54 108.623H556.55L543.359 84.7603C543.359 84.7603 554.275 80.6301 554.275 65.9452C554.275 53.0959 545.633 44.3767 531.988 44.3767H503.786V108.623ZM517.432 74.6644V57.226H531.533C536.536 57.226 540.175 60.8973 540.175 65.9452C540.175 70.9931 536.536 74.6644 531.533 74.6644H517.432Z" fill="#1E2532"/>
<path d="M567.928 108.623H611.14V95.774H581.574V44.3767H567.928V108.623Z" fill="#1E2532"/>
<path d="M621.143 108.623H644.341C663.899 108.623 678 94.3973 678 76.5C678 58.6027 663.899 44.3767 644.341 44.3767H621.143V108.623ZM634.789 95.774V57.226H644.341C655.712 57.226 663.899 65.4863 663.899 76.5C663.899 87.5137 655.712 95.774 644.341 95.774H634.789Z" fill="#1E2532"/>
<path d="M454.902 92.9856L442.849 85.7712C442.699 85.6813 442.575 85.5523 442.488 85.3972C442.4 85.2421 442.353 85.0661 442.353 84.8866L442.314 70.5238C442.313 70.3428 442.359 70.1646 442.445 70.0072C442.532 69.8499 442.657 69.7189 442.81 69.6276C442.96 69.5364 443.133 69.4881 443.31 69.4874C443.486 69.4868 443.657 69.534 443.81 69.6244L455.866 76.8476C456.018 76.9388 456.144 77.0703 456.231 77.2282C456.318 77.3864 456.363 77.5655 456.359 77.7472L456.401 92.107C456.399 92.2871 456.353 92.4637 456.264 92.6192C456.175 92.7745 456.05 92.9032 455.898 92.9923C455.745 93.0813 455.574 93.1276 455.399 93.1265C455.225 93.1252 455.053 93.0767 454.902 92.9856Z" fill="#662D8F"/>
<path d="M456.677 75.6179L444.619 68.3975C444.468 68.3069 444.343 68.1772 444.255 68.0211C444.168 67.8652 444.122 67.6884 444.122 67.5085C444.122 67.3284 444.168 67.1516 444.255 66.9956C444.343 66.8395 444.468 66.7098 444.619 66.6193L456.764 59.3931C456.916 59.3024 457.089 59.2548 457.264 59.2548C457.44 59.2548 457.613 59.3024 457.765 59.3931L469.823 66.6163C469.974 66.7063 470.099 66.8359 470.187 66.9917C470.274 67.1475 470.32 67.3241 470.32 67.5039C470.32 67.6837 470.274 67.8603 470.187 68.0162C470.099 68.172 469.974 68.3014 469.823 68.3915L457.689 75.6179C457.537 75.7119 457.361 75.7615 457.183 75.7615C457.005 75.7615 456.831 75.7119 456.677 75.6179Z" fill="#60A9E0"/>
<path d="M472.103 70.5118L472.139 84.8836C472.142 85.0657 472.098 85.245 472.011 85.4034C471.923 85.5615 471.796 85.6926 471.642 85.7832L459.497 93.0126C459.345 93.1028 459.172 93.15 458.996 93.1494C458.821 93.1489 458.648 93.1006 458.496 93.0092C458.345 92.9179 458.22 92.787 458.132 92.6296C458.045 92.4722 458.001 92.294 458.002 92.113L457.961 77.7502C457.959 77.5681 458.005 77.3887 458.093 77.2306C458.182 77.0726 458.309 76.9415 458.461 76.8506L470.606 69.6242C470.758 69.5345 470.93 69.4873 471.104 69.4874C471.279 69.4874 471.45 69.5348 471.603 69.6246C471.754 69.7145 471.879 69.8437 471.968 69.9995C472.055 70.1551 472.101 70.3319 472.103 70.5118Z" fill="#FF9D00"/>
<path d="M451.955 78.6296L451.928 87.7631L450.188 86.7285L450.2 82.9054L447.325 81.1963L447.317 85.0194L445.576 83.9849L445.603 74.8514L447.34 75.886L447.332 79.3972L450.203 81.1034L450.214 77.5951L451.955 78.6296Z" fill="white"/>
<path d="M459.095 62.5139L464.389 67.8542L462.643 68.8765L458.981 67.4134C458.129 67.0685 457.346 66.7416 456.453 66.3068C457.108 66.8736 457.667 67.3444 458.216 67.872L460.608 70.097L458.859 71.1525L450.072 67.9171L451.783 66.8916L455.243 68.3128C456.256 68.7268 457.321 69.1854 458.153 69.5423C457.521 69.0026 456.834 68.3939 456.116 67.7581L453.808 65.6592L455.507 64.6397L459.075 66.085C460.064 66.4868 460.94 66.8705 461.84 67.2845C461.173 66.7386 460.495 66.1479 459.802 65.5513L457.475 63.4763L459.095 62.5139Z" fill="white"/>
<path d="M466.131 76.2547C467.09 75.685 467.77 75.499 468.267 75.484L467.851 77.526C467.231 77.5532 466.629 77.7477 466.106 78.0897C465.288 78.5785 464.891 79.2682 464.891 79.7688C464.891 80.4016 465.355 80.4076 466.448 80.2426C467.928 80.0118 468.613 80.5155 468.616 81.9099C468.616 83.571 467.558 85.616 465.258 86.9832C464.304 87.5529 463.358 87.8049 462.887 87.7779L463.269 85.7119C464.009 85.6932 464.733 85.4763 465.366 85.0821C466.239 84.5634 466.696 83.8648 466.693 83.2201C466.69 82.5755 466.291 82.4856 465.285 82.6714C463.895 82.9084 462.972 82.5455 462.957 81.1062C462.957 79.4001 464.16 77.4061 466.131 76.2547Z" fill="white"/>
</svg>
