<svg width="136" height="37" viewBox="0 0 136 37" fill="none" xmlns="http://www.w3.org/2000/svg">
<path d="M43.0801 22H44.8801V18.58H48.4801V22H50.2801V13.6H48.4801V16.9H44.8801V13.6H43.0801V22Z" fill="white"/>
<path d="M52.4434 22H58.8034V20.32H54.2434V18.52H57.7234V16.9H54.2434V15.28H58.6834V13.6H52.4434V22Z" fill="white"/>
<path d="M60.4238 22H66.1238V20.32H62.2238V13.6H60.4238V22Z" fill="white"/>
<path d="M67.4434 22H73.1434V20.32H69.2434V13.6H67.4434V22Z" fill="white"/>
<path d="M78.0024 22.18C80.5824 22.18 82.5624 20.2 82.5624 17.8C82.5624 15.4 80.5824 13.42 78.0024 13.42C75.4224 13.42 73.4424 15.4 73.4424 17.8C73.4424 20.2 75.4224 22.18 78.0024 22.18ZM78.0024 20.5C76.5024 20.5 75.3024 19.3 75.3024 17.8C75.3024 16.3 76.5024 15.1 78.0024 15.1C79.5024 15.1 80.7024 16.3 80.7024 17.8C80.7024 19.3 79.5024 20.5 78.0024 20.5Z" fill="white"/>
<path d="M88.194 22H89.934L91.638 16.54H91.71L93.414 22H95.154L97.914 13.6H96.054L94.314 19.24H94.254L92.514 13.6H90.834L89.094 19.24H89.034L87.294 13.6H85.434L88.194 22Z" fill="white"/>
<path d="M102.963 22.18C105.543 22.18 107.523 20.2 107.523 17.8C107.523 15.4 105.543 13.42 102.963 13.42C100.383 13.42 98.4034 15.4 98.4034 17.8C98.4034 20.2 100.383 22.18 102.963 22.18ZM102.963 20.5C101.463 20.5 100.263 19.3 100.263 17.8C100.263 16.3 101.463 15.1 102.963 15.1C104.463 15.1 105.663 16.3 105.663 17.8C105.663 19.3 104.463 20.5 102.963 20.5Z" fill="white"/>
<path d="M109.139 22H110.939V19.24H112.619L114.119 22H116.099L114.359 18.88C114.359 18.88 115.799 18.34 115.799 16.42C115.799 14.74 114.659 13.6 112.859 13.6H109.139V22ZM110.939 17.56V15.28H112.799C113.459 15.28 113.939 15.76 113.939 16.42C113.939 17.08 113.459 17.56 112.799 17.56H110.939Z" fill="white"/>
<path d="M117.6 22H123.3V20.32H119.4V13.6H117.6V22Z" fill="white"/>
<path d="M124.619 22H127.679C130.259 22 132.119 20.14 132.119 17.8C132.119 15.46 130.259 13.6 127.679 13.6H124.619V22ZM126.419 20.32V15.28H127.679C129.179 15.28 130.259 16.36 130.259 17.8C130.259 19.24 129.179 20.32 127.679 20.32H126.419Z" fill="white"/>
<path d="M16.294 35.8441L3.5665 28.3923C3.24317 28.2039 3.04276 27.8539 3.04276 27.4797L3.00001 12.649C2.99733 11.8306 3.87915 11.3164 4.58193 11.7283L17.3094 19.18C17.6328 19.3684 17.8332 19.7184 17.8332 20.0926L17.8759 34.9234C17.8786 35.7418 16.9968 36.2533 16.294 35.8441Z" fill="#662D8F"/>
<path d="M18.1665 17.9003L5.42829 10.4432C4.72818 10.034 4.73085 9.01641 5.43096 8.60721L18.2627 1.14202C18.5887 0.950876 18.9922 0.953568 19.3182 1.14471L32.0564 8.60183C32.7565 9.01103 32.7538 10.0286 32.0537 10.4378L19.222 17.903C18.896 18.0942 18.4925 18.0915 18.1665 17.9003Z" fill="#4A9FE0"/>
<path d="M34.4574 12.6266L34.5001 27.4708C34.5001 27.8504 34.2997 28.203 33.9737 28.3915L21.142 35.8567C20.4419 36.2632 19.5654 35.757 19.5628 34.9413L19.52 20.0971C19.52 19.7175 19.7204 19.3649 20.0464 19.1764L32.8781 11.7113C33.5782 11.3048 34.4547 11.8109 34.4574 12.6266Z" fill="#FF9D00"/>
<path d="M13.1745 21.0081L13.1478 30.4412L11.3093 29.3724L11.32 25.4258L8.28444 23.6598L8.27375 27.6064L6.4353 26.5377L6.46202 17.1072L8.30047 18.176L8.28978 21.7996L11.3254 23.5656L11.336 19.9393L13.1745 21.0081Z" fill="white"/>
<path d="M19.9649 4.47937L25.5551 9.98202L23.7273 11.0535L19.8607 9.54052C18.9602 9.18247 18.1345 8.84596 17.1886 8.39907C17.8807 8.98325 18.4712 9.47053 19.0537 10.0143L21.5789 12.3107L19.7298 13.3929L10.4333 10.0601L12.2424 9.0021L15.8979 10.4693C16.9668 10.8973 18.0918 11.3711 18.9736 11.7427C18.3055 11.1854 17.5787 10.5554 16.8305 9.90126L14.3935 7.74758L16.1892 6.69766L19.9569 8.19178C21.0044 8.60636 21.929 9.0021 22.8749 9.42476C22.1721 8.85942 21.456 8.251 20.7078 7.63451L18.2494 5.4916L19.9649 4.47937Z" fill="white"/>
<path d="M28.1406 18.5376C29.1507 17.9507 29.8722 17.7596 30.3986 17.7434L29.9577 19.854C29.6156 19.854 28.9716 19.9402 28.1219 20.4355C27.2561 20.9389 26.8392 21.6523 26.8392 22.1692C26.8419 22.8234 27.3256 22.8288 28.4826 22.6565C30.0432 22.4196 30.77 22.9392 30.7727 24.3794C30.778 26.0943 29.6557 28.2076 27.2267 29.6183C26.2166 30.2052 25.2199 30.4663 24.7202 30.4367L25.121 28.3018C25.6448 28.3153 26.4865 28.1457 27.3389 27.6503C28.2582 27.1173 28.7418 26.3931 28.7392 25.7255C28.7365 25.0875 28.3143 24.969 27.2508 25.1602C25.7811 25.4051 24.8084 25.0309 24.8031 23.5422C24.8004 21.8031 26.0697 19.7409 28.1406 18.5376Z" fill="white"/>
</svg>
