<?xml version="1.0" encoding="UTF-8"?> <svg xmlns="http://www.w3.org/2000/svg" width="193" height="165" viewBox="0 0 193 165" fill="none"> <path d="M110.863 101.337L122.948 0.109085L192.489 0.110625L110.863 101.337Z" fill="#1BB5FF"></path> <path d="M110.863 101.337L122.948 0.109085L192.489 0.110625L110.863 101.337Z" fill="#1BB5FF"></path> <path d="M110.863 101.337L122.948 0.109085L192.489 0.110625L110.863 101.337Z" fill="#1BB5FF"></path> <path d="M110.863 101.337L122.948 0.109085L173 0.110624L110.863 101.337Z" fill="#1BB5FF"></path> <path d="M110.864 101.34L122.949 0.112237L151.65 0.112073L110.864 101.34Z" fill="#F9B8C4"></path> <path d="M81.6251 101.337L69.5401 0.109085L-0.000244169 0.110625L81.6251 101.337Z" fill="#1BB5FF"></path> <path d="M81.626 101.332L69.5409 0.104424L36.9316 0.108868L81.626 101.332Z" fill="#F9B8C4"></path> <circle cx="95.999" cy="117.422" r="47" fill="#FFDA54"></circle> <ellipse cx="95.999" cy="117.922" rx="39" ry="39.5" stroke="#E7BF2E" stroke-width="3"></ellipse> <path d="M93.1101 138.422H101.999V98.4219H94.5916C94.5916 98.4219 92.5175 102.993 85.999 103.85V109.279H93.1101V138.422Z" fill="white"></path> </svg> 