<?xml version="1.0" encoding="UTF-8"?> <svg xmlns="http://www.w3.org/2000/svg" width="708" height="127" viewBox="0 0 708 127" fill="none"> <path d="M0 29.4059H2.99505V25.3217H16.0643V29.4059H19.0594V22.4628H16.745V6.26237H4.35643V11.9802C4.35643 19.6039 1.08911 22.4628 1.08911 22.4628H0V29.4059ZM4.35643 22.4628C4.35643 22.4628 7.35148 19.6039 7.35148 11.9802V9.12127H13.75V22.4628H4.35643Z" fill="#1E2532"></path> <path d="M22.4522 25.3217H36.2022V22.4628H25.4473V16.8812H33.7517V14.0223H25.4473V9.12127H35.9299V6.26237H22.4522V25.3217Z" fill="#1E2532"></path> <path d="M43.7004 25.3217H46.6955V9.12127H52.4133V6.26237H37.9826V9.12127H43.7004V25.3217Z" fill="#1E2532"></path> <path d="M64.0063 25.594C69.1796 25.594 71.9024 21.7821 71.9024 21.7821L69.9964 19.8762C69.9964 19.8762 67.9544 22.8713 64.0063 22.8713C60.0583 22.8713 56.9271 19.7401 56.9271 15.7921C56.9271 11.844 60.0583 8.71286 64.0063 8.71286C67.9544 8.71286 69.8603 11.5718 69.8603 11.5718L71.7662 9.66583C71.7662 9.66583 69.1796 5.99009 64.0063 5.99009C58.2885 5.99009 53.9321 10.3465 53.9321 15.7921C53.9321 21.2376 58.2885 25.594 64.0063 25.594Z" fill="#1E2532"></path> <path d="M75.4452 25.3217H78.4402V19.6039L81.4352 16.3366L87.6976 25.3217H91.3734L83.4773 14.1584L90.8288 6.26237H87.0169L78.4402 15.5198V6.26237H75.4452V25.3217Z" fill="#1E2532"></path> <path d="M91.6339 25.3217H94.7651L96.6711 20.4208H105.112L107.018 25.3217H110.149L102.525 6.26237H99.2577L91.6339 25.3217ZM97.7602 17.698L100.891 9.80197L104.023 17.698H97.7602Z" fill="#1E2532"></path> <path d="M111.515 25.3217H114.919L118.867 18.2425H123.359V25.3217H126.355V6.26237H118.459C114.783 6.26237 112.196 8.849 112.196 12.2525C112.196 16.4727 115.845 17.698 115.845 17.698L111.515 25.3217ZM118.459 15.5198C116.553 15.5198 115.191 14.1584 115.191 12.2525C115.191 10.3465 116.553 8.98514 118.459 8.98514H123.359V15.5198H118.459Z" fill="#1E2532"></path> <path d="M146.354 25.594C152.072 25.594 156.428 21.2376 156.428 15.7921C156.428 10.3465 152.072 5.99009 146.354 5.99009C140.636 5.99009 136.28 10.3465 136.28 15.7921C136.28 21.2376 140.636 25.594 146.354 25.594ZM146.354 22.8713C142.406 22.8713 139.275 19.7401 139.275 15.7921C139.275 11.844 142.406 8.71286 146.354 8.71286C150.302 8.71286 153.433 11.844 153.433 15.7921C153.433 19.7401 150.302 22.8713 146.354 22.8713Z" fill="#1E2532"></path> <path d="M160.638 25.3217H163.633V17.0173H173.027V25.3217H176.022V6.26237H173.027V14.2945H163.633V6.26237H160.638V25.3217Z" fill="#1E2532"></path> <path d="M180.641 25.594C184.044 25.594 186.495 23.1435 186.495 11.9802V9.12127H193.438V25.3217H196.433V6.26237H183.5V11.9802C183.5 21.1015 181.866 22.7351 180.096 22.7351C179.279 22.7351 178.599 22.4628 178.599 22.4628V25.1856C178.599 25.1856 179.416 25.594 180.641 25.594Z" fill="#1E2532"></path> <path d="M199.428 25.3217H202.559L204.465 20.4208H212.906L214.812 25.3217H217.943L210.319 6.26237H207.052L199.428 25.3217ZM205.554 17.698L208.685 9.80197L211.817 17.698H205.554Z" fill="#1E2532"></path> <path d="M220.943 25.3217H223.666L234.149 11.2995V25.3217H237.144V6.26237H234.421L223.938 20.2846V6.26237H220.943V25.3217ZM228.975 3.81188C231.29 3.81188 232.923 2.17822 232.923 0H230.881C230.881 1.08911 230.064 1.90594 228.975 1.90594C227.886 1.90594 227.069 1.08911 227.069 0H225.027C225.027 2.17822 226.661 3.81188 228.975 3.81188Z" fill="#1E2532"></path> <path d="M242.587 25.3217H245.582V17.0173H254.976V25.3217H257.971V6.26237H254.976V14.2945H245.582V6.26237H242.587V25.3217Z" fill="#1E2532"></path> <path d="M261.909 18.5148H270.622V16.0643H261.909V18.5148Z" fill="#1E2532"></path> <path d="M274.574 25.3217H297.445V6.26237H294.45V22.4628H287.507V6.26237H284.512V22.4628H277.569V6.26237H274.574V25.3217Z" fill="#1E2532"></path> <path d="M302.892 25.3217H305.887V19.6039L308.882 16.3366L315.145 25.3217H318.82L310.924 14.1584L318.276 6.26237H314.464L305.887 15.5198V6.26237H302.892V25.3217Z" fill="#1E2532"></path> <path d="M329.849 25.594C335.566 25.594 339.923 21.2376 339.923 15.7921C339.923 10.3465 335.566 5.99009 329.849 5.99009C324.131 5.99009 319.774 10.3465 319.774 15.7921C319.774 21.2376 324.131 25.594 329.849 25.594ZM329.849 22.8713C325.901 22.8713 322.769 19.7401 322.769 15.7921C322.769 11.844 325.901 8.71286 329.849 8.71286C333.797 8.71286 336.928 11.844 336.928 15.7921C336.928 19.7401 333.797 22.8713 329.849 22.8713Z" fill="#1E2532"></path> <path d="M342.784 25.594C346.187 25.594 348.638 23.1435 348.638 11.9802V9.12127H355.581V25.3217H358.576V6.26237H345.643V11.9802C345.643 21.1015 344.009 22.7351 342.239 22.7351C341.422 22.7351 340.742 22.4628 340.742 22.4628V25.1856C340.742 25.1856 341.559 25.594 342.784 25.594Z" fill="#1E2532"></path> <path d="M361.571 25.3217H364.702L366.608 20.4208H375.049L376.955 25.3217H380.086L372.462 6.26237H369.195L361.571 25.3217ZM367.697 17.698L370.828 9.80197L373.96 17.698H367.697Z" fill="#1E2532"></path> <path d="M387.979 25.3217H390.974V9.12127H400.367V25.3217H403.362V6.26237H387.979V25.3217Z" fill="#1E2532"></path> <path d="M408.798 25.3217H411.793V18.5148H416.422C420.098 18.5148 422.82 15.7921 422.82 12.3886C422.82 8.98514 420.098 6.26237 416.422 6.26237H408.798V25.3217ZM411.793 15.7921V8.98514H416.422C418.328 8.98514 419.825 10.4827 419.825 12.3886C419.825 14.2945 418.328 15.7921 416.422 15.7921H411.793Z" fill="#1E2532"></path> <path d="M435.622 25.594C441.34 25.594 445.696 21.2376 445.696 15.7921C445.696 10.3465 441.34 5.99009 435.622 5.99009C429.904 5.99009 425.547 10.3465 425.547 15.7921C425.547 21.2376 429.904 25.594 435.622 25.594ZM435.622 22.8713C431.674 22.8713 428.542 19.7401 428.542 15.7921C428.542 11.844 431.674 8.71286 435.622 8.71286C439.57 8.71286 442.701 11.844 442.701 15.7921C442.701 19.7401 439.57 22.8713 435.622 22.8713Z" fill="#1E2532"></path> <path d="M449.906 25.3217H452.901V9.12127H462.158V6.26237H449.906V25.3217Z" fill="#1E2532"></path> <path d="M465.434 25.3217H468.429V18.5148H473.058C476.733 18.5148 479.456 15.7921 479.456 12.3886C479.456 8.98514 476.733 6.26237 473.058 6.26237H465.434V25.3217ZM468.429 15.7921V8.98514H473.058C474.964 8.98514 476.461 10.4827 476.461 12.3886C476.461 14.2945 474.964 15.7921 473.058 15.7921H468.429Z" fill="#1E2532"></path> <path d="M479.336 25.3217H482.467L484.373 20.4208H492.814L494.72 25.3217H497.851L490.227 6.26237H486.96L479.336 25.3217ZM485.462 17.698L488.593 9.80197L491.725 17.698H485.462Z" fill="#1E2532"></path> <path d="M500.851 25.3217H503.846V11.2995L510.789 20.1485L517.732 11.2995V25.3217H520.727V6.26237H518.005L510.789 15.5198L503.574 6.26237H500.851V25.3217Z" fill="#1E2532"></path> <path d="M526.164 25.3217H529.159V11.2995L536.102 20.1485L543.046 11.2995V25.3217H546.041V6.26237H543.318L536.102 15.5198L528.887 6.26237H526.164V25.3217Z" fill="#1E2532"></path> <path d="M551.478 25.3217H554.2L564.683 11.2995V25.3217H567.678V6.26237H564.955L554.473 20.2846V6.26237H551.478V25.3217Z" fill="#1E2532"></path> <path d="M573.122 25.3217H576.117V18.5148H580.745C584.421 18.5148 587.144 15.7921 587.144 12.3886C587.144 8.98514 584.421 6.26237 580.745 6.26237H573.122V25.3217ZM576.117 15.7921V8.98514H580.745C582.651 8.98514 584.149 10.4827 584.149 12.3886C584.149 14.2945 582.651 15.7921 580.745 15.7921H576.117Z" fill="#1E2532"></path> <path d="M599.945 25.594C605.663 25.594 610.019 21.2376 610.019 15.7921C610.019 10.3465 605.663 5.99009 599.945 5.99009C594.227 5.99009 589.871 10.3465 589.871 15.7921C589.871 21.2376 594.227 25.594 599.945 25.594ZM599.945 22.8713C595.997 22.8713 592.866 19.7401 592.866 15.7921C592.866 11.844 595.997 8.71286 599.945 8.71286C603.893 8.71286 607.024 11.844 607.024 15.7921C607.024 19.7401 603.893 22.8713 599.945 22.8713Z" fill="#1E2532"></path> <path d="M614.229 25.3217H622.261C625.937 25.3217 628.523 22.7351 628.523 19.7401C628.523 16.3366 625.256 15.1114 625.256 15.1114C625.256 15.1114 627.57 14.1584 627.57 11.2995C627.57 8.57672 625.256 6.26237 621.853 6.26237H614.229V25.3217ZM617.224 22.7351V16.4727H622.261C624.167 16.4727 625.528 17.8341 625.528 19.6039C625.528 21.3737 624.167 22.7351 622.261 22.7351H617.224ZM617.224 14.0223V8.849H621.853C623.486 8.849 624.576 9.93811 624.576 11.4356C624.576 12.9332 623.486 14.0223 621.853 14.0223H617.224Z" fill="#1E2532"></path> <path d="M629.753 25.3217H632.884L634.79 20.4208H643.231L645.137 25.3217H648.268L640.644 6.26237H637.377L629.753 25.3217ZM635.879 17.698L639.01 9.80197L642.142 17.698H635.879Z" fill="#1E2532"></path> <path d="M651.268 25.3217H654.263V17.0173H663.657V25.3217H666.652V6.26237H663.657V14.2945H654.263V6.26237H651.268V25.3217Z" fill="#1E2532"></path> <path d="M672.088 25.3217H674.811L685.293 11.2995V25.3217H688.288V6.26237H685.565L675.083 20.2846V6.26237H672.088V25.3217Z" fill="#1E2532"></path> <path d="M692.098 25.3217H695.501L699.449 18.2425H703.942V25.3217H706.937V6.26237H699.041C695.365 6.26237 692.779 8.849 692.779 12.2525C692.779 16.4727 696.427 17.698 696.427 17.698L692.098 25.3217ZM699.041 15.5198C697.135 15.5198 695.774 14.1584 695.774 12.2525C695.774 10.3465 697.135 8.98514 699.041 8.98514H703.942V15.5198H699.041Z" fill="#1E2532"></path> <path d="M0 125.161H14.2945V98.0011H42.8836V125.161H57.1781V58.4529H42.8836V84.6595H14.2945V58.4529H0V125.161Z" fill="#1E2532"></path> <path d="M74.3576 125.161H124.865V111.819H88.6522V97.5246H116.288V84.6595H88.6522V71.7945H123.912V58.4529H74.3576V125.161Z" fill="#1E2532"></path> <path d="M137.734 125.161H183V111.819H152.028V58.4529H137.734V125.161Z" fill="#1E2532"></path> <path d="M193.479 125.161H238.745V111.819H207.773V58.4529H193.479V125.161Z" fill="#1E2532"></path> <path d="M277.333 126.59C297.821 126.59 313.545 110.866 313.545 91.8068C313.545 72.7474 297.821 57.0234 277.333 57.0234C256.844 57.0234 241.12 72.7474 241.12 91.8068C241.12 110.866 256.844 126.59 277.333 126.59ZM277.333 113.249C265.42 113.249 255.891 103.719 255.891 91.8068C255.891 79.8947 265.42 70.365 277.333 70.365C289.245 70.365 298.774 79.8947 298.774 91.8068C298.774 103.719 289.245 113.249 277.333 113.249Z" fill="#1E2532"></path> <path d="M358.268 125.161H372.086L385.618 81.8006H386.19L399.722 125.161H413.54L435.458 58.4529H420.687L406.869 103.242H406.393L392.575 58.4529H379.233L365.415 103.242H364.939L351.121 58.4529H336.35L358.268 125.161Z" fill="#1E2532"></path> <path d="M475.558 126.59C496.046 126.59 511.77 110.866 511.77 91.8068C511.77 72.7474 496.046 57.0234 475.558 57.0234C455.069 57.0234 439.345 72.7474 439.345 91.8068C439.345 110.866 455.069 126.59 475.558 126.59ZM475.558 113.249C463.645 113.249 454.116 103.719 454.116 91.8068C454.116 79.8947 463.645 70.365 475.558 70.365C487.47 70.365 496.999 79.8947 496.999 91.8068C496.999 103.719 487.47 113.249 475.558 113.249Z" fill="#1E2532"></path> <path d="M524.598 125.161H538.893V103.242H552.234L564.146 125.161H579.87L566.052 100.384C566.052 100.384 577.488 96.0952 577.488 80.8477C577.488 67.5061 568.435 58.4529 554.14 58.4529H524.598V125.161ZM538.893 89.9009V71.7945H553.664C558.905 71.7945 562.717 75.6063 562.717 80.8477C562.717 86.089 558.905 89.9009 553.664 89.9009H538.893Z" fill="#1E2532"></path> <path d="M591.79 125.161H637.056V111.819H606.084V58.4529H591.79V125.161Z" fill="#1E2532"></path> <path d="M647.535 125.161H671.836C692.324 125.161 707.095 110.39 707.095 91.8068C707.095 73.2239 692.324 58.4529 671.836 58.4529H647.535V125.161ZM661.829 111.819V71.7945H671.836C683.748 71.7945 692.324 80.3712 692.324 91.8068C692.324 103.242 683.748 111.819 671.836 111.819H661.829Z" fill="#1E2532"></path> </svg> 