<?xml version="1.0" encoding="UTF-8"?> <svg xmlns="http://www.w3.org/2000/svg" width="30" height="30" viewBox="0 0 30 30" fill="none"> <circle cx="15" cy="15" r="15" fill="#1E2532"></circle> <path d="M22.3551 18.8367C22.3551 18.7744 22.2929 18.7744 22.2929 18.7122C22.0438 18.214 21.4834 17.5913 20.7362 16.9064C20.3626 16.5951 20.1758 16.346 20.0512 16.2215C19.8644 15.9724 19.8644 15.7856 19.9267 15.5365C19.989 15.3497 20.238 15.0384 20.6739 14.478C20.923 14.1666 21.0475 13.9798 21.2343 13.793C22.1683 12.5477 22.6042 11.7382 22.4796 11.3646L22.4174 11.3024C22.3551 11.2401 22.2928 11.1778 22.1683 11.1778C22.0438 11.1156 21.857 11.1156 21.6702 11.1778H19.304C19.2418 11.1778 19.2418 11.1778 19.1172 11.1778C19.055 11.1778 18.9927 11.1778 18.9927 11.1778H18.9304H18.8682L18.8059 11.2401C18.7436 11.3024 18.7436 11.3024 18.7436 11.3646C18.4945 12.0496 18.1832 12.61 17.8719 13.2326C17.6851 13.544 17.4983 13.8553 17.3115 14.1044C17.1247 14.3535 17.0001 14.5402 16.8756 14.6648C16.7511 14.7893 16.6265 14.8516 16.5643 14.9761C16.502 15.0384 16.3775 15.1007 16.3775 15.0384C16.3152 15.0384 16.2529 15.0384 16.2529 14.9761C16.1907 14.9139 16.1284 14.8516 16.0661 14.7893C16.0039 14.727 16.0039 14.6025 15.9416 14.478C15.9416 14.3534 15.9416 14.2289 15.9416 14.1666C15.9416 14.1044 15.9416 13.9176 15.9416 13.793C15.9416 13.6062 15.9416 13.4817 15.9416 13.4194C15.9416 13.2326 15.9416 12.9836 15.9416 12.7345C15.9416 12.4854 15.9416 12.2986 15.9416 12.1741C15.9416 12.0496 15.9416 11.8628 15.9416 11.7382C15.9416 11.5514 15.9416 11.4269 15.9416 11.3646C15.9416 11.3024 15.8793 11.1778 15.8793 11.1156C15.8171 11.0533 15.7548 10.991 15.6925 10.9288C15.6303 10.8665 15.5057 10.8665 15.4435 10.8042C15.1321 10.742 14.7585 10.6797 14.3227 10.6797C13.3264 10.6797 12.6414 10.742 12.3924 10.8665C12.2678 10.9288 12.1433 10.991 12.081 11.1156C11.9565 11.2401 11.9565 11.3024 12.0188 11.3024C12.3301 11.3646 12.5792 11.4892 12.7037 11.676L12.766 11.8005C12.8282 11.8628 12.8282 11.9873 12.8905 12.1741C12.9528 12.3609 12.9528 12.5477 12.9528 12.7968C12.9528 13.1704 12.9528 13.544 12.9528 13.793C12.9528 14.1044 12.8905 14.2912 12.8905 14.478C12.8905 14.6648 12.8282 14.7893 12.766 14.8516C12.7037 14.9761 12.7037 15.0384 12.6414 15.0384C12.6414 15.0384 12.6414 15.1007 12.5792 15.1007C12.5169 15.1007 12.4546 15.1629 12.3301 15.1629C12.2678 15.1629 12.1433 15.1007 12.081 15.0384C11.9565 14.9761 11.832 14.8516 11.7697 14.7271C11.6452 14.6025 11.5206 14.4157 11.3961 14.1666C11.2716 13.9176 11.0847 13.6685 10.9602 13.2949L10.8357 13.0458C10.7734 12.9213 10.6489 12.6722 10.5244 12.3609C10.3998 12.0496 10.2753 11.8005 10.1507 11.4892C10.0885 11.3646 10.0262 11.3024 9.96396 11.2401H9.90168C9.90168 11.2401 9.83941 11.1778 9.77714 11.1778C9.71488 11.1778 9.65262 11.1156 9.59035 11.1156H7.34873C7.09966 11.1156 6.97512 11.1778 6.91286 11.2401L6.85059 11.3024C6.85059 11.3024 6.85059 11.3646 6.85059 11.4269C6.85059 11.4892 6.85059 11.5514 6.91286 11.676C7.22419 12.4232 7.59779 13.1704 7.9714 13.9176C8.345 14.6025 8.71861 15.2252 8.96768 15.6611C9.27901 16.0969 9.52808 16.5328 9.83941 16.9064C10.1507 17.28 10.3375 17.5291 10.3998 17.6536C10.5243 17.7781 10.5866 17.8404 10.6489 17.9027L10.8357 18.0895C10.9602 18.214 11.147 18.4008 11.3961 18.5876C11.6452 18.7744 11.9565 18.9612 12.2678 19.148C12.5792 19.3348 12.9528 19.4594 13.3264 19.5839C13.7623 19.7084 14.1358 19.7707 14.5095 19.7084H15.4435C15.6303 19.7084 15.7548 19.6462 15.8793 19.5216L15.9416 19.4594C15.9416 19.3971 16.0039 19.3971 16.0039 19.3348C16.0039 19.2726 16.0039 19.2103 16.0039 19.0858C16.0039 18.8367 16.0039 18.6499 16.0661 18.4631C16.1284 18.2763 16.1284 18.1518 16.1907 18.0272C16.2529 17.9027 16.3152 17.8404 16.3775 17.7781C16.4397 17.7159 16.502 17.6536 16.502 17.6536H16.5643C16.6888 17.5913 16.8756 17.6536 17.0001 17.7781C17.1869 17.9027 17.3737 18.0895 17.4983 18.2763C17.6228 18.4631 17.8096 18.6499 18.0587 18.899C18.3078 19.148 18.4946 19.3348 18.6191 19.3971L18.8059 19.5216C18.9304 19.5839 19.055 19.6462 19.2418 19.7084C19.4286 19.7707 19.5531 19.7707 19.6776 19.7707L21.7947 19.7084C21.9815 19.7084 22.1683 19.6462 22.2929 19.5839C22.4174 19.5216 22.4796 19.4594 22.4796 19.3348C22.4796 19.2726 22.4796 19.148 22.4796 19.0858C22.3551 18.9612 22.3551 18.899 22.3551 18.8367Z" fill="white"></path> </svg> 