<svg width="600" height="600" viewBox="0 0 600 600" fill="none" xmlns="http://www.w3.org/2000/svg">
<path d="M77.3789 309.904L111.637 329.681V290.127L77.3789 270.35V309.904Z" fill="#FFDA54" stroke="#1E2532" stroke-width="0.2" stroke-linejoin="round"/>
<path d="M145.889 270.35L111.641 290.127V329.681L145.889 309.904V270.35Z" fill="#FFDA54" stroke="#1E2532" stroke-width="0.2" stroke-linejoin="round"/>
<path d="M77.3789 270.349L111.637 250.572L145.885 270.349L111.637 290.127L77.3789 270.349Z" fill="#FFDA54" stroke="#1E2532" stroke-width="0.2" stroke-linejoin="round"/>
<path d="M43.25 329.683L77.5078 349.46V309.906L43.25 290.129V329.683Z" fill="#FFDA54" stroke="#1E2532" stroke-width="0.2" stroke-linejoin="round"/>
<path d="M111.756 290.129L77.5078 309.906V349.46L111.756 329.683V290.129Z" fill="#FFA735" stroke="#1E2532" stroke-width="0.2" stroke-linejoin="round"/>
<path d="M43.25 290.127L77.5078 270.35L111.756 290.127L77.5078 309.904L43.25 290.127Z" fill="#FFDA54" stroke="#1E2532" stroke-width="0.2" stroke-linejoin="round"/>
<path d="M9 349.457L43.2482 369.234V329.679L9 309.902V349.457Z" fill="#FFDA54" stroke="#1E2532" stroke-width="0.2" stroke-linejoin="round"/>
<path d="M77.5078 309.902L43.25 329.679V369.234L77.5078 349.457V309.902Z" fill="#FFA735" stroke="#1E2532" stroke-width="0.2" stroke-linejoin="round"/>
<path d="M9 309.906L43.2482 290.129L77.506 309.906L43.2482 329.683L9 309.906Z" fill="#FFDA54" stroke="#1E2532" stroke-width="0.2" stroke-linejoin="round"/>
<path d="M43.2109 448.332L77.4688 468.109V428.555L43.2109 408.787V448.332Z" fill="#FFA735" stroke="#1E2532" stroke-width="0.2" stroke-linejoin="round"/>
<path d="M111.721 408.787L77.4727 428.555V468.109L111.721 448.332V408.787Z" fill="#FFDA54" stroke="#1E2532" stroke-width="0.2" stroke-linejoin="round"/>
<path d="M43.2109 408.789L77.4688 389.012L111.717 408.789L77.4688 428.556L43.2109 408.789Z" fill="#FFDA54" stroke="#1E2532" stroke-width="0.2" stroke-linejoin="round"/>
<path d="M282.758 230.806L317.006 250.574V211.029L282.758 191.252V230.806Z" fill="#FFDA54" stroke="#1E2532" stroke-width="0.2" stroke-linejoin="round"/>
<path d="M351.256 191.252L317.008 211.029V250.574L351.256 230.806V191.252Z" fill="#FFDA54" stroke="#1E2532" stroke-width="0.2" stroke-linejoin="round"/>
<path d="M282.758 191.252L317.006 171.475L351.254 191.252L317.006 211.029L282.758 191.252Z" fill="#FFDA54" stroke="#1E2532" stroke-width="0.2" stroke-linejoin="round"/>
<path d="M317.004 250.574L351.252 270.351V230.806L317.004 211.029V250.574Z" fill="#FFDA54" stroke="#1E2532" stroke-width="0.2" stroke-linejoin="round"/>
<path d="M385.512 211.029L351.254 230.806V270.351L385.512 250.574V211.029Z" fill="#FFDA54" stroke="#1E2532" stroke-width="0.2" stroke-linejoin="round"/>
<path d="M317.004 211.029L351.252 191.252L385.51 211.029L351.252 230.806L317.004 211.029Z" fill="#FFDA54" stroke="#1E2532" stroke-width="0.2" stroke-linejoin="round"/>
<path d="M351.105 270.351L385.354 290.128V250.574L351.105 230.807V270.351Z" fill="#FFDA54" stroke="#1E2532" stroke-width="0.2" stroke-linejoin="round"/>
<path d="M419.613 230.807L385.355 250.574V290.128L419.613 270.351V230.807Z" fill="#FFDA54" stroke="#1E2532" stroke-width="0.2" stroke-linejoin="round"/>
<path d="M351.105 230.806L385.354 211.029L419.611 230.806L385.354 250.574L351.105 230.806Z" fill="#FFDA54" stroke="#1E2532" stroke-width="0.2" stroke-linejoin="round"/>
<path d="M385.352 290.128L419.609 309.906V270.351L385.352 250.574V290.128Z" fill="#FFDA54" stroke="#1E2532" stroke-width="0.2" stroke-linejoin="round"/>
<path d="M453.858 250.574L419.609 270.351V309.906L453.858 290.128V250.574Z" fill="#FFDA54" stroke="#1E2532" stroke-width="0.2" stroke-linejoin="round"/>
<path d="M385.352 250.574L419.609 230.807L453.858 250.574L419.609 270.351L385.352 250.574Z" fill="#FFDA54" stroke="#1E2532" stroke-width="0.2" stroke-linejoin="round"/>
<path d="M419.758 309.904L454.016 329.681V290.127L419.758 270.35V309.904Z" fill="#FFDA54" stroke="#1E2532" stroke-width="0.2" stroke-linejoin="round"/>
<path d="M488.268 270.35L454.02 290.127V329.681L488.268 309.904V270.35Z" fill="#FFDA54" stroke="#1E2532" stroke-width="0.2" stroke-linejoin="round"/>
<path d="M419.758 270.349L454.016 250.572L488.264 270.349L454.016 290.127L419.758 270.349Z" fill="#FFDA54" stroke="#1E2532" stroke-width="0.2" stroke-linejoin="round"/>
<path d="M454.012 329.681L488.26 349.458V309.904L454.012 290.127V329.681Z" fill="#FFDA54" stroke="#1E2532" stroke-width="0.2" stroke-linejoin="round"/>
<path d="M522.52 290.127L488.262 309.904V349.458L522.52 329.681V290.127Z" fill="#FFA735" stroke="#1E2532" stroke-width="0.2" stroke-linejoin="round"/>
<path d="M454.012 290.127L488.26 270.35L522.518 290.127L488.26 309.904L454.012 290.127Z" fill="#FFDA54" stroke="#1E2532" stroke-width="0.2" stroke-linejoin="round"/>
<path d="M248.648 250.576L282.906 270.353V230.808L248.648 211.031V250.576Z" fill="#FFDA54" stroke="#1E2532" stroke-width="0.2" stroke-linejoin="round"/>
<path d="M317.154 211.031L282.906 230.808V270.353L317.154 250.576V211.031Z" fill="#FFDA54" stroke="#1E2532" stroke-width="0.2" stroke-linejoin="round"/>
<path d="M248.648 211.031L282.906 191.254L317.154 211.031L282.906 230.808L248.648 211.031Z" fill="#FFDA54" stroke="#1E2532" stroke-width="0.2" stroke-linejoin="round"/>
<path d="M282.906 270.351L317.154 290.128V250.574L282.906 230.807V270.351Z" fill="#FFDA54" stroke="#1E2532" stroke-width="0.2" stroke-linejoin="round"/>
<path d="M351.404 230.807L317.156 250.574V290.128L351.404 270.351V230.807Z" fill="#FFDA54" stroke="#1E2532" stroke-width="0.2" stroke-linejoin="round"/>
<path d="M282.906 230.806L317.154 211.029L351.403 230.806L317.154 250.574L282.906 230.806Z" fill="#FFDA54" stroke="#1E2532" stroke-width="0.2" stroke-linejoin="round"/>
<path d="M317.004 290.127L351.252 309.904V270.349L317.004 250.572V290.127Z" fill="#FFDA54" stroke="#1E2532" stroke-width="0.2" stroke-linejoin="round"/>
<path d="M385.512 250.572L351.254 270.349V309.904L385.512 290.127V250.572Z" fill="#FFDA54" stroke="#1E2532" stroke-width="0.2" stroke-linejoin="round"/>
<path d="M317.004 250.572L351.252 230.805L385.51 250.572L351.252 270.349L317.004 250.572Z" fill="#FFDA54" stroke="#1E2532" stroke-width="0.2" stroke-linejoin="round"/>
<path d="M351.25 309.906L385.508 329.683V290.129L351.25 270.352V309.906Z" fill="#FFDA54" stroke="#1E2532" stroke-width="0.2" stroke-linejoin="round"/>
<path d="M419.76 270.352L385.512 290.129V329.683L419.76 309.906V270.352Z" fill="#FFDA54" stroke="#1E2532" stroke-width="0.2" stroke-linejoin="round"/>
<path d="M351.25 270.351L385.508 250.574L419.756 270.351L385.508 290.128L351.25 270.351Z" fill="#FFDA54" stroke="#1E2532" stroke-width="0.2" stroke-linejoin="round"/>
<path d="M385.66 329.683L419.908 349.46V309.906L385.66 290.129V329.683Z" fill="#FFDA54" stroke="#1E2532" stroke-width="0.2" stroke-linejoin="round"/>
<path d="M454.168 290.129L419.91 309.906V349.46L454.168 329.683V290.129Z" fill="#FFDA54" stroke="#1E2532" stroke-width="0.2" stroke-linejoin="round"/>
<path d="M385.66 290.127L419.908 270.35L454.166 290.127L419.908 309.904L385.66 290.127Z" fill="#FFDA54" stroke="#1E2532" stroke-width="0.2" stroke-linejoin="round"/>
<path d="M419.91 349.455L454.168 369.232V329.678L419.91 309.9V349.455Z" fill="#FFDA54" stroke="#1E2532" stroke-width="0.2" stroke-linejoin="round"/>
<path d="M488.426 309.9L454.168 329.678V369.232L488.426 349.455V309.9Z" fill="#FFA735" stroke="#1E2532" stroke-width="0.2" stroke-linejoin="round"/>
<path d="M419.91 309.9L454.168 290.123L488.426 309.9L454.168 329.677L419.91 309.9Z" fill="#FFDA54" stroke="#1E2532" stroke-width="0.2" stroke-linejoin="round"/>
<path d="M214.391 270.353L248.648 290.13V250.576L214.391 230.809V270.353Z" fill="#FFDA54" stroke="#1E2532" stroke-width="0.2" stroke-linejoin="round"/>
<path d="M282.906 230.809L248.648 250.576V290.13L282.906 270.353V230.809Z" fill="#FFDA54" stroke="#1E2532" stroke-width="0.2" stroke-linejoin="round"/>
<path d="M214.391 230.806L248.648 211.029L282.906 230.806L248.648 250.574L214.391 230.806Z" fill="#FFDA54" stroke="#1E2532" stroke-width="0.2" stroke-linejoin="round"/>
<path d="M248.648 290.128L282.906 309.906V270.351L248.648 250.574V290.128Z" fill="#FFDA54" stroke="#1E2532" stroke-width="0.2" stroke-linejoin="round"/>
<path d="M317.154 250.574L282.906 270.351V309.906L317.154 290.128V250.574Z" fill="#FFDA54" stroke="#1E2532" stroke-width="0.2" stroke-linejoin="round"/>
<path d="M248.648 250.574L282.906 230.807L317.154 250.574L282.906 270.351L248.648 250.574Z" fill="#FFDA54" stroke="#1E2532" stroke-width="0.2" stroke-linejoin="round"/>
<path d="M282.758 309.902L317.006 329.679V290.125L282.758 270.348V309.902Z" fill="#FFDA54" stroke="#1E2532" stroke-width="0.2" stroke-linejoin="round"/>
<path d="M351.256 270.348L317.008 290.125V329.679L351.256 309.902V270.348Z" fill="#FFDA54" stroke="#1E2532" stroke-width="0.2" stroke-linejoin="round"/>
<path d="M282.758 270.349L317.006 250.572L351.254 270.349L317.006 290.127L282.758 270.349Z" fill="#FFDA54" stroke="#1E2532" stroke-width="0.2" stroke-linejoin="round"/>
<path d="M317.004 329.681L351.252 349.458V309.904L317.004 290.127V329.681Z" fill="#FFDA54" stroke="#1E2532" stroke-width="0.2" stroke-linejoin="round"/>
<path d="M385.512 290.127L351.254 309.904V349.458L385.512 329.681V290.127Z" fill="#FFDA54" stroke="#1E2532" stroke-width="0.2" stroke-linejoin="round"/>
<path d="M317.004 290.127L351.252 270.35L385.51 290.127L351.252 309.904L317.004 290.127Z" fill="#FFDA54" stroke="#1E2532" stroke-width="0.2" stroke-linejoin="round"/>
<path d="M351.398 349.455L385.656 369.232V329.678L351.398 309.9V349.455Z" fill="#FFDA54" stroke="#1E2532" stroke-width="0.2" stroke-linejoin="round"/>
<path d="M419.904 309.9L385.656 329.678V369.232L419.904 349.455V309.9Z" fill="#FFDA54" stroke="#1E2532" stroke-width="0.2" stroke-linejoin="round"/>
<path d="M351.398 309.9L385.656 290.123L419.904 309.9L385.656 329.677L351.398 309.9Z" fill="#FFDA54" stroke="#1E2532" stroke-width="0.2" stroke-linejoin="round"/>
<path d="M385.66 369.236L419.908 389.013V349.459L385.66 329.682V369.236Z" fill="#FFDA54" stroke="#1E2532" stroke-width="0.2" stroke-linejoin="round"/>
<path d="M454.168 329.682L419.91 349.459V389.013L454.168 369.236V329.682Z" fill="#FFA735" stroke="#1E2532" stroke-width="0.2" stroke-linejoin="round"/>
<path d="M385.66 329.681L419.908 309.904L454.166 329.681L419.908 349.459L385.66 329.681Z" fill="#FFDA54" stroke="#1E2532" stroke-width="0.2" stroke-linejoin="round"/>
<path d="M180.141 290.127L214.389 309.904V270.349L180.141 250.572V290.127Z" fill="#FFDA54" stroke="#1E2532" stroke-width="0.2" stroke-linejoin="round"/>
<path d="M248.648 250.572L214.391 270.349V309.904L248.648 290.127V250.572Z" fill="#FFDA54" stroke="#1E2532" stroke-width="0.2" stroke-linejoin="round"/>
<path d="M180.141 250.572L214.389 230.805L248.647 250.572L214.389 270.349L180.141 250.572Z" fill="#FFDA54" stroke="#1E2532" stroke-width="0.2" stroke-linejoin="round"/>
<path d="M214.391 309.904L248.648 329.681V290.127L214.391 270.35V309.904Z" fill="#FFDA54" stroke="#1E2532" stroke-width="0.2" stroke-linejoin="round"/>
<path d="M282.906 270.35L248.648 290.127V329.681L282.906 309.904V270.35Z" fill="#FFDA54" stroke="#1E2532" stroke-width="0.2" stroke-linejoin="round"/>
<path d="M214.391 270.349L248.648 250.572L282.906 270.349L248.648 290.127L214.391 270.349Z" fill="#FFDA54" stroke="#1E2532" stroke-width="0.2" stroke-linejoin="round"/>
<path d="M248.496 329.683L282.754 349.46V309.906L248.496 290.129V329.683Z" fill="#FFDA54" stroke="#1E2532" stroke-width="0.2" stroke-linejoin="round"/>
<path d="M317.006 290.129L282.758 309.906V349.46L317.006 329.683V290.129Z" fill="#FFDA54" stroke="#1E2532" stroke-width="0.2" stroke-linejoin="round"/>
<path d="M248.496 290.127L282.754 270.35L317.002 290.127L282.754 309.904L248.496 290.127Z" fill="#FFDA54" stroke="#1E2532" stroke-width="0.2" stroke-linejoin="round"/>
<path d="M282.758 349.455L317.006 369.232V329.678L282.758 309.9V349.455Z" fill="#FFDA54" stroke="#1E2532" stroke-width="0.2" stroke-linejoin="round"/>
<path d="M351.256 309.9L317.008 329.678V369.232L351.256 349.455V309.9Z" fill="#FFDA54" stroke="#1E2532" stroke-width="0.2" stroke-linejoin="round"/>
<path d="M282.758 309.904L317.006 290.127L351.254 309.904L317.006 329.681L282.758 309.904Z" fill="#FFDA54" stroke="#1E2532" stroke-width="0.2" stroke-linejoin="round"/>
<path d="M317.148 369.236L351.397 389.013V349.459L317.148 329.682V369.236Z" fill="#FFDA54" stroke="#1E2532" stroke-width="0.2" stroke-linejoin="round"/>
<path d="M385.656 329.682L351.398 349.459V389.013L385.656 369.236V329.682Z" fill="#FFDA54" stroke="#1E2532" stroke-width="0.2" stroke-linejoin="round"/>
<path d="M317.148 329.681L351.397 309.904L385.654 329.681L351.397 349.459L317.148 329.681Z" fill="#FFDA54" stroke="#1E2532" stroke-width="0.2" stroke-linejoin="round"/>
<path d="M351.398 389.011L385.656 408.788V369.234L351.398 349.457V389.011Z" fill="#FFDA54" stroke="#1E2532" stroke-width="0.2" stroke-linejoin="round"/>
<path d="M419.904 349.457L385.656 369.234V408.788L419.904 389.011V349.457Z" fill="#FFA735" stroke="#1E2532" stroke-width="0.2" stroke-linejoin="round"/>
<path d="M351.398 349.457L385.656 329.68L419.904 349.457L385.656 369.234L351.398 349.457Z" fill="#FFDA54" stroke="#1E2532" stroke-width="0.2" stroke-linejoin="round"/>
<path d="M145.742 309.902L179.99 329.679V290.125L145.742 270.348V309.902Z" fill="#FFDA54" stroke="#1E2532" stroke-width="0.2" stroke-linejoin="round"/>
<path d="M214.25 270.348L179.992 290.125V329.679L214.25 309.902V270.348Z" fill="#FFDA54" stroke="#1E2532" stroke-width="0.2" stroke-linejoin="round"/>
<path d="M145.742 270.349L179.99 250.572L214.248 270.349L179.99 290.127L145.742 270.349Z" fill="#FFDA54" stroke="#1E2532" stroke-width="0.2" stroke-linejoin="round"/>
<path d="M179.992 329.681L214.25 349.458V309.904L179.992 290.127V329.681Z" fill="#FFDA54" stroke="#1E2532" stroke-width="0.2" stroke-linejoin="round"/>
<path d="M248.502 290.127L214.254 309.904V349.458L248.502 329.681V290.127Z" fill="#FFDA54" stroke="#1E2532" stroke-width="0.2" stroke-linejoin="round"/>
<path d="M179.992 290.127L214.25 270.35L248.498 290.127L214.25 309.904L179.992 290.127Z" fill="#FFDA54" stroke="#1E2532" stroke-width="0.2" stroke-linejoin="round"/>
<path d="M214.078 349.457L248.336 369.234V329.679L214.078 309.902V349.457Z" fill="#FFDA54" stroke="#1E2532" stroke-width="0.2" stroke-linejoin="round"/>
<path d="M282.584 309.902L248.336 329.679V369.234L282.584 349.457V309.902Z" fill="#FFDA54" stroke="#1E2532" stroke-width="0.2" stroke-linejoin="round"/>
<path d="M214.078 309.904L248.336 290.127L282.584 309.904L248.336 329.681L214.078 309.904Z" fill="#FFDA54" stroke="#1E2532" stroke-width="0.2" stroke-linejoin="round"/>
<path d="M248.34 369.236L282.588 389.013V349.459L248.34 329.682V369.236Z" fill="#FFDA54" stroke="#1E2532" stroke-width="0.2" stroke-linejoin="round"/>
<path d="M316.848 329.682L282.59 349.459V389.013L316.848 369.236V329.682Z" fill="#FFDA54" stroke="#1E2532" stroke-width="0.2" stroke-linejoin="round"/>
<path d="M248.34 329.681L282.588 309.904L316.846 329.681L282.588 349.459L248.34 329.681Z" fill="#FFDA54" stroke="#1E2532" stroke-width="0.2" stroke-linejoin="round"/>
<path d="M282.758 389.011L317.006 408.788V369.234L282.758 349.457V389.011Z" fill="#FFDA54" stroke="#1E2532" stroke-width="0.2" stroke-linejoin="round"/>
<path d="M351.256 349.457L317.008 369.234V408.788L351.256 389.011V349.457Z" fill="#FFDA54" stroke="#1E2532" stroke-width="0.2" stroke-linejoin="round"/>
<path d="M282.758 349.457L317.006 329.68L351.254 349.457L317.006 369.234L282.758 349.457Z" fill="#FFDA54" stroke="#1E2532" stroke-width="0.2" stroke-linejoin="round"/>
<path d="M317.004 408.789L351.252 428.556V389.011L317.004 369.234V408.789Z" fill="#FFDA54" stroke="#1E2532" stroke-width="0.2" stroke-linejoin="round"/>
<path d="M385.512 369.234L351.254 389.011V428.556L385.512 408.789V369.234Z" fill="#FFA735" stroke="#1E2532" stroke-width="0.2" stroke-linejoin="round"/>
<path d="M317.004 369.234L351.252 349.457L385.51 369.234L351.252 389.011L317.004 369.234Z" fill="#FFDA54" stroke="#1E2532" stroke-width="0.2" stroke-linejoin="round"/>
<path d="M111.637 329.683L145.885 349.46V309.906L111.637 290.129V329.683Z" fill="#FFA735" stroke="#1E2532" stroke-width="0.2" stroke-linejoin="round"/>
<path d="M180.145 290.129L145.887 309.906V349.46L180.145 329.683V290.129Z" fill="#FFDA54" stroke="#1E2532" stroke-width="0.2" stroke-linejoin="round"/>
<path d="M111.637 290.127L145.885 270.35L180.143 290.127L145.885 309.904L111.637 290.127Z" fill="#FFDA54" stroke="#1E2532" stroke-width="0.2" stroke-linejoin="round"/>
<path d="M145.891 349.455L180.148 369.232V329.678L145.891 309.9V349.455Z" fill="#FFA735" stroke="#1E2532" stroke-width="0.2" stroke-linejoin="round"/>
<path d="M214.397 309.9L180.148 329.678V369.232L214.397 349.455V309.9Z" fill="#FFDA54" stroke="#1E2532" stroke-width="0.2" stroke-linejoin="round"/>
<path d="M145.891 309.9L180.148 290.123L214.397 309.9L180.148 329.677L145.891 309.9Z" fill="#FFDA54" stroke="#1E2532" stroke-width="0.2" stroke-linejoin="round"/>
<path d="M179.992 369.236L214.25 389.013V349.459L179.992 329.682V369.236Z" fill="#FFA735" stroke="#1E2532" stroke-width="0.2" stroke-linejoin="round"/>
<path d="M248.502 329.682L214.254 349.459V389.013L248.502 369.236V329.682Z" fill="#FFDA54" stroke="#1E2532" stroke-width="0.2" stroke-linejoin="round"/>
<path d="M179.992 329.681L214.25 309.904L248.498 329.681L214.25 349.459L179.992 329.681Z" fill="#FFDA54" stroke="#1E2532" stroke-width="0.2" stroke-linejoin="round"/>
<path d="M214.25 389.011L248.498 408.788V369.234L214.25 349.457V389.011Z" fill="#FFA735" stroke="#1E2532" stroke-width="0.2" stroke-linejoin="round"/>
<path d="M282.758 349.457L248.5 369.234V408.788L282.758 389.011V349.457Z" fill="#FFDA54" stroke="#1E2532" stroke-width="0.2" stroke-linejoin="round"/>
<path d="M214.25 349.459L248.498 329.682L282.756 349.459L248.498 369.236L214.25 349.459Z" fill="#FFDA54" stroke="#1E2532" stroke-width="0.2" stroke-linejoin="round"/>
<path d="M248.648 408.791L282.906 428.558V389.013L248.648 369.236V408.791Z" fill="#FFA735" stroke="#1E2532" stroke-width="0.2" stroke-linejoin="round"/>
<path d="M317.154 369.236L282.906 389.013V428.558L317.154 408.791V369.236Z" fill="#FFDA54" stroke="#1E2532" stroke-width="0.2" stroke-linejoin="round"/>
<path d="M248.648 369.234L282.906 349.457L317.154 369.234L282.906 389.011L248.648 369.234Z" fill="#FFDA54" stroke="#1E2532" stroke-width="0.2" stroke-linejoin="round"/>
<path d="M282.906 428.556L317.154 448.333V408.789L282.906 389.012V428.556Z" fill="#FFA735" stroke="#1E2532" stroke-width="0.2" stroke-linejoin="round"/>
<path d="M351.404 389.012L317.156 408.789V448.333L351.404 428.556V389.012Z" fill="#FFA735" stroke="#1E2532" stroke-width="0.2" stroke-linejoin="round"/>
<path d="M282.906 389.011L317.154 369.234L351.403 389.011L317.154 408.789L282.906 389.011Z" fill="#FFDA54" stroke="#1E2532" stroke-width="0.2" stroke-linejoin="round"/>
<path d="M111.715 408.791L145.973 428.558V389.013L111.715 369.236V408.791Z" fill="#FFA735" stroke="#1E2532" stroke-width="0.2" stroke-linejoin="round"/>
<path d="M180.221 369.236L145.973 389.013V428.558L180.221 408.791V369.236Z" fill="#FFDA54" stroke="#1E2532" stroke-width="0.2" stroke-linejoin="round"/>
<path d="M111.715 369.234L145.973 349.457L180.221 369.234L145.973 389.011L111.715 369.234Z" fill="#FFDA54" stroke="#1E2532" stroke-width="0.2" stroke-linejoin="round"/>
<path d="M145.82 428.556L180.068 448.333V408.789L145.82 389.012V428.556Z" fill="#FFA735" stroke="#1E2532" stroke-width="0.2" stroke-linejoin="round"/>
<path d="M214.318 389.012L180.07 408.789V448.333L214.318 428.556V389.012Z" fill="#FFDA54" stroke="#1E2532" stroke-width="0.2" stroke-linejoin="round"/>
<path d="M145.82 389.011L180.068 369.234L214.317 389.011L180.068 408.789L145.82 389.011Z" fill="#FFDA54" stroke="#1E2532" stroke-width="0.2" stroke-linejoin="round"/>
<path d="M163.93 388.906L183.273 400.078V377.734L163.93 366.572V388.906Z" fill="#F9B8C4" stroke="#1E2532" stroke-width="0.2" stroke-linejoin="round"/>
<path d="M202.626 366.572L183.273 377.734V400.078L202.626 388.906V366.572Z" fill="#ED889B" stroke="#1E2532" stroke-width="0.2" stroke-linejoin="round"/>
<path d="M163.93 366.572L183.273 355.4L202.625 366.572L183.273 377.734L163.93 366.572Z" fill="#F9B8C4" stroke="#1E2532" stroke-width="0.2" stroke-linejoin="round"/>
<path d="M180.066 448.332L214.315 468.109V428.555L180.066 408.787V448.332Z" fill="#FFA735" stroke="#1E2532" stroke-width="0.2" stroke-linejoin="round"/>
<path d="M248.574 408.787L214.316 428.555V468.109L248.574 448.332V408.787Z" fill="#FFDA54" stroke="#1E2532" stroke-width="0.2" stroke-linejoin="round"/>
<path d="M180.066 408.789L214.315 389.012L248.572 408.789L214.315 428.556L180.066 408.789Z" fill="#FFDA54" stroke="#1E2532" stroke-width="0.2" stroke-linejoin="round"/>
<path d="M214.48 468.113L248.729 487.89V448.336L214.48 428.559V468.113Z" fill="#FFA735" stroke="#1E2532" stroke-width="0.2" stroke-linejoin="round"/>
<path d="M282.988 428.559L248.73 448.336V487.89L282.988 468.113V428.559Z" fill="#FFDA54" stroke="#1E2532" stroke-width="0.2" stroke-linejoin="round"/>
<path d="M214.48 428.557L248.729 408.789L282.986 428.557L248.729 448.334L214.48 428.557Z" fill="#FFDA54" stroke="#1E2532" stroke-width="0.2" stroke-linejoin="round"/>
<path d="M248.727 487.89L282.984 507.667V468.113L248.727 448.336V487.89Z" fill="#FFA735" stroke="#1E2532" stroke-width="0.2" stroke-linejoin="round"/>
<path d="M317.233 448.336L282.984 468.113V507.667L317.233 487.89V448.336Z" fill="#FFA735" stroke="#1E2532" stroke-width="0.2" stroke-linejoin="round"/>
<path d="M248.727 448.336L282.984 428.559L317.233 448.336L282.984 468.113L248.727 448.336Z" fill="#FFDA54" stroke="#1E2532" stroke-width="0.2" stroke-linejoin="round"/>
<path d="M77.4648 468.115L111.713 487.892V448.338L77.4648 428.561V468.115Z" fill="#FFA735" stroke="#1E2532" stroke-width="0.2" stroke-linejoin="round"/>
<path d="M145.973 428.561L111.715 448.338V487.892L145.973 468.115V428.561Z" fill="#FFDA54" stroke="#1E2532" stroke-width="0.2" stroke-linejoin="round"/>
<path d="M77.4688 428.558L111.717 408.791L145.975 428.558L111.717 448.336L77.4688 428.558Z" fill="#FFDA54" stroke="#1E2532" stroke-width="0.2" stroke-linejoin="round"/>
<path d="M111.559 487.89L145.816 507.667V468.113L111.559 448.336V487.89Z" fill="#FFA735" stroke="#1E2532" stroke-width="0.2" stroke-linejoin="round"/>
<path d="M180.065 448.336L145.816 468.113V507.667L180.065 487.89V448.336Z" fill="#FFDA54" stroke="#1E2532" stroke-width="0.2" stroke-linejoin="round"/>
<path d="M111.559 448.336L145.816 428.559L180.065 448.336L145.816 468.113L111.559 448.336Z" fill="#FFDA54" stroke="#1E2532" stroke-width="0.2" stroke-linejoin="round"/>
<path d="M145.82 507.668L180.068 527.445V487.89L145.82 468.113V507.668Z" fill="#FFA735" stroke="#1E2532" stroke-width="0.2" stroke-linejoin="round"/>
<path d="M214.318 468.113L180.07 487.89V527.445L214.318 507.668V468.113Z" fill="#FFDA54" stroke="#1E2532" stroke-width="0.2" stroke-linejoin="round"/>
<path d="M145.82 468.113L180.068 448.336L214.317 468.113L180.068 487.89L145.82 468.113Z" fill="#FFDA54" stroke="#1E2532" stroke-width="0.2" stroke-linejoin="round"/>
<path d="M180.219 527.441L214.477 547.218V507.664L180.219 487.887V527.441Z" fill="#FFA735" stroke="#1E2532" stroke-width="0.2" stroke-linejoin="round"/>
<path d="M248.729 487.887L214.48 507.664V547.218L248.729 527.441V487.887Z" fill="#FFDA54" stroke="#1E2532" stroke-width="0.2" stroke-linejoin="round"/>
<path d="M180.219 487.89L214.477 468.113L248.725 487.89L214.477 507.668L180.219 487.89Z" fill="#FFDA54" stroke="#1E2532" stroke-width="0.2" stroke-linejoin="round"/>
<path d="M214.48 547.222L248.729 566.999V527.445L214.48 507.668V547.222Z" fill="#FFA735" stroke="#1E2532" stroke-width="0.2" stroke-linejoin="round"/>
<path d="M282.988 507.668L248.73 527.445V566.999L282.988 547.222V507.668Z" fill="#FFA735" stroke="#1E2532" stroke-width="0.2" stroke-linejoin="round"/>
<path d="M214.48 507.668L248.729 487.891L282.986 507.668L248.729 527.445L214.48 507.668Z" fill="#FFDA54" stroke="#1E2532" stroke-width="0.2" stroke-linejoin="round"/>
<path d="M488.426 389.011L522.674 408.788V369.234L488.426 349.457V389.011Z" fill="#FFDA54" stroke="#1E2532" stroke-width="0.2" stroke-linejoin="round"/>
<path d="M556.934 349.457L522.676 369.234V408.788L556.934 389.011V349.457Z" fill="#FFA735" stroke="#1E2532" stroke-width="0.2" stroke-linejoin="round"/>
<path d="M488.426 349.459L522.674 329.682L556.932 349.459L522.674 369.236L488.426 349.459Z" fill="#FFDA54" stroke="#1E2532" stroke-width="0.2" stroke-linejoin="round"/>
<path d="M454.32 408.789L488.578 428.556V389.011L454.32 369.234V408.789Z" fill="#FFDA54" stroke="#1E2532" stroke-width="0.2" stroke-linejoin="round"/>
<path d="M522.826 369.234L488.578 389.011V428.556L522.826 408.789V369.234Z" fill="#FFA735" stroke="#1E2532" stroke-width="0.2" stroke-linejoin="round"/>
<path d="M454.32 369.234L488.578 349.457L522.826 369.234L488.578 389.011L454.32 369.234Z" fill="#FFDA54" stroke="#1E2532" stroke-width="0.2" stroke-linejoin="round"/>
<path d="M420.074 428.556L454.322 448.333V408.789L420.074 389.012V428.556Z" fill="#FFDA54" stroke="#1E2532" stroke-width="0.2" stroke-linejoin="round"/>
<path d="M488.582 389.012L454.324 408.789V448.333L488.582 428.556V389.012Z" fill="#FFA735" stroke="#1E2532" stroke-width="0.2" stroke-linejoin="round"/>
<path d="M420.074 389.011L454.322 369.234L488.58 389.011L454.322 408.789L420.074 389.011Z" fill="#FFDA54" stroke="#1E2532" stroke-width="0.2" stroke-linejoin="round"/>
<path d="M385.812 448.332L420.07 468.109V428.555L385.812 408.787V448.332Z" fill="#FFDA54" stroke="#1E2532" stroke-width="0.2" stroke-linejoin="round"/>
<path d="M454.318 408.787L420.07 428.555V468.109L454.318 448.332V408.787Z" fill="#FFA735" stroke="#1E2532" stroke-width="0.2" stroke-linejoin="round"/>
<path d="M385.812 408.789L420.07 389.012L454.318 408.789L420.07 428.556L385.812 408.789Z" fill="#FFDA54" stroke="#1E2532" stroke-width="0.2" stroke-linejoin="round"/>
<path d="M351.398 468.113L385.656 487.89V448.336L351.398 428.559V468.113Z" fill="#FFDA54" stroke="#1E2532" stroke-width="0.2" stroke-linejoin="round"/>
<path d="M419.904 428.559L385.656 448.336V487.89L419.904 468.113V428.559Z" fill="#FFA735" stroke="#1E2532" stroke-width="0.2" stroke-linejoin="round"/>
<path d="M351.398 428.56L385.656 408.793L419.904 428.56L385.656 448.338L351.398 428.56Z" fill="#FFDA54" stroke="#1E2532" stroke-width="0.2" stroke-linejoin="round"/>
<path d="M522.828 448.332L557.086 468.109V428.555L522.828 408.787V448.332Z" fill="#FFDA54" stroke="#1E2532" stroke-width="0.2" stroke-linejoin="round"/>
<path d="M591.338 408.787L557.09 428.555V468.109L591.338 448.332V408.787Z" fill="#FFA735" stroke="#1E2532" stroke-width="0.2" stroke-linejoin="round"/>
<path d="M522.828 408.791L557.086 389.014L591.334 408.791L557.086 428.558L522.828 408.791Z" fill="#FFDA54" stroke="#1E2532" stroke-width="0.2" stroke-linejoin="round"/>
<path d="M488.727 468.113L522.984 487.89V448.336L488.727 428.559V468.113Z" fill="#FFDA54" stroke="#1E2532" stroke-width="0.2" stroke-linejoin="round"/>
<path d="M557.233 428.559L522.984 448.336V487.89L557.233 468.113V428.559Z" fill="#FFA735" stroke="#1E2532" stroke-width="0.2" stroke-linejoin="round"/>
<path d="M488.727 428.557L522.984 408.789L557.233 428.557L522.984 448.334L488.727 428.557Z" fill="#FFDA54" stroke="#1E2532" stroke-width="0.2" stroke-linejoin="round"/>
<path d="M454.48 487.89L488.729 507.667V468.113L454.48 448.336V487.89Z" fill="#FFDA54" stroke="#1E2532" stroke-width="0.2" stroke-linejoin="round"/>
<path d="M522.988 448.336L488.73 468.113V507.667L522.988 487.89V448.336Z" fill="#FFA735" stroke="#1E2532" stroke-width="0.2" stroke-linejoin="round"/>
<path d="M454.48 448.336L488.729 428.559L522.986 448.336L488.729 468.113L454.48 448.336Z" fill="#FFDA54" stroke="#1E2532" stroke-width="0.2" stroke-linejoin="round"/>
<path d="M459.812 444.958L482.793 458.223V431.693L459.812 418.428V444.958Z" fill="#ED889B" stroke="#1E2532" stroke-width="0.2" stroke-linejoin="round"/>
<path d="M505.763 418.428L482.793 431.693V458.223L505.763 444.958V418.428Z" fill="#F9B8C4" stroke="#1E2532" stroke-width="0.2" stroke-linejoin="round"/>
<path d="M459.812 418.429L482.793 405.164L505.763 418.429L482.793 431.694L459.812 418.429Z" fill="#F9B8C4" stroke="#1E2532" stroke-width="0.2" stroke-linejoin="round"/>
<path d="M462.426 364.18L477.049 372.621V355.738L462.426 347.297V364.18Z" fill="#E2E2E2" stroke="#1E2532" stroke-width="0.2" stroke-linejoin="round"/>
<path d="M491.672 347.297L477.055 355.738V372.621L491.672 364.18V347.297Z" fill="white" stroke="#1E2532" stroke-width="0.2" stroke-linejoin="round"/>
<path d="M462.426 347.297L477.049 338.855L491.667 347.297L477.049 355.738L462.426 347.297Z" fill="white" stroke="#1E2532" stroke-width="0.2" stroke-linejoin="round"/>
<path d="M420.227 507.668L454.475 527.445V487.89L420.227 468.113V507.668Z" fill="#FFDA54" stroke="#1E2532" stroke-width="0.2" stroke-linejoin="round"/>
<path d="M488.725 468.113L454.477 487.89V527.445L488.725 507.668V468.113Z" fill="#FFA735" stroke="#1E2532" stroke-width="0.2" stroke-linejoin="round"/>
<path d="M420.227 468.113L454.475 448.336L488.723 468.113L454.475 487.89L420.227 468.113Z" fill="#FFDA54" stroke="#1E2532" stroke-width="0.2" stroke-linejoin="round"/>
<path d="M385.812 527.445L420.07 547.222V507.668L385.812 487.891V527.445Z" fill="#FFA735" stroke="#1E2532" stroke-width="0.2" stroke-linejoin="round"/>
<path d="M454.318 487.891L420.07 507.668V547.222L454.318 527.445V487.891Z" fill="#FFA735" stroke="#1E2532" stroke-width="0.2" stroke-linejoin="round"/>
<path d="M385.812 487.89L420.07 468.113L454.318 487.89L420.07 507.668L385.812 487.89Z" fill="#FFDA54" stroke="#1E2532" stroke-width="0.2" stroke-linejoin="round"/>
<path d="M317.305 487.888L351.563 507.665V468.111L317.305 448.334V487.888Z" fill="#FFA735" stroke="#1E2532" stroke-width="0.2" stroke-linejoin="round"/>
<path d="M385.815 448.334L351.566 468.111V507.665L385.815 487.888V448.334Z" fill="#FFA735" stroke="#1E2532" stroke-width="0.2" stroke-linejoin="round"/>
<path d="M317.305 448.334L351.563 428.557L385.811 448.334L351.563 468.111L317.305 448.334Z" fill="#FFDA54" stroke="#1E2532" stroke-width="0.2" stroke-linejoin="round"/>
<path d="M287.781 200.419L462.697 307.206C466.479 309.396 472.865 303.964 472.865 301.34V157.662C472.864 157.062 472.706 156.473 472.406 155.953C472.107 155.434 471.676 155.002 471.158 154.7L291.196 50.8076C288.919 49.4956 281.027 52.9107 281.027 56.6732L286.083 197.438C286.077 198.041 286.232 198.634 286.53 199.157C286.828 199.681 287.26 200.116 287.781 200.419V200.419Z" fill="#E2E2E2" stroke="#1E2532" stroke-width="0.2" stroke-linejoin="round"/>
<path d="M282.735 203.311L462.697 307.204C463.215 307.504 463.803 307.663 464.402 307.663C465.001 307.664 465.589 307.506 466.107 307.207C466.626 306.907 467.056 306.477 467.355 305.958C467.654 305.439 467.811 304.851 467.81 304.252V160.574C467.811 159.973 467.653 159.384 467.354 158.864C467.054 158.344 466.622 157.912 466.103 157.612L286.15 53.7193C285.631 53.4198 285.043 53.262 284.444 53.2617C283.845 53.2615 283.256 53.4188 282.737 53.7179C282.218 54.017 281.787 54.4473 281.487 54.9657C281.187 55.4841 281.028 56.0723 281.027 56.6714V200.35C281.027 200.95 281.184 201.54 281.484 202.06C281.784 202.58 282.215 203.011 282.735 203.311V203.311Z" fill="white" stroke="#1E2532" stroke-width="0.2" stroke-linejoin="round"/>
<path d="M291.672 192.585L458.263 288.769V164.55L291.672 68.375V192.585Z" fill="#1BB5FF" stroke="#1E2532" stroke-width="0.2" stroke-linejoin="round"/>
<path d="M282.911 205.397L462.699 303.183C464.976 304.495 465.15 313.892 462.873 315.204L345.542 382.948C344.399 383.606 343.103 383.953 341.784 383.953C340.465 383.953 339.169 383.606 338.026 382.948L159.772 280.03C157.495 278.718 156.569 269.08 159.608 267.999L279.496 205.388C280.015 205.089 280.605 204.932 281.205 204.934C281.804 204.935 282.393 205.095 282.911 205.397Z" fill="#E2E2E2" stroke="#1E2532" stroke-width="0.2" stroke-linejoin="round"/>
<path d="M282.736 199.284L462.698 303.186C463.217 303.484 463.648 303.914 463.948 304.433C464.248 304.951 464.406 305.539 464.406 306.138C464.406 306.737 464.248 307.325 463.948 307.843C463.648 308.361 463.217 308.792 462.698 309.09L345.676 376.622C344.44 377.337 343.037 377.714 341.609 377.714C340.181 377.714 338.779 377.337 337.543 376.622L159.597 273.916C159.078 273.616 158.647 273.185 158.348 272.666C158.048 272.147 157.891 271.558 157.891 270.959C157.891 270.36 158.048 269.771 158.348 269.252C158.647 268.733 159.078 268.302 159.597 268.002L279.321 199.274C279.842 198.978 280.431 198.823 281.03 198.824C281.629 198.826 282.217 198.984 282.736 199.284Z" fill="white" stroke="#1E2532" stroke-width="0.2" stroke-linejoin="round"/>
<path d="M277.904 211.753L280.393 210.316C280.588 210.202 280.809 210.143 281.035 210.143C281.26 210.143 281.482 210.202 281.676 210.316L289.211 214.667C289.405 214.778 289.567 214.939 289.679 215.133C289.792 215.327 289.851 215.547 289.851 215.772C289.851 215.996 289.792 216.216 289.679 216.41C289.567 216.604 289.405 216.765 289.211 216.876L286.722 218.314C286.527 218.427 286.306 218.487 286.08 218.487C285.855 218.487 285.634 218.427 285.439 218.314L277.904 213.924C277.719 213.81 277.565 213.651 277.459 213.461C277.353 213.271 277.297 213.057 277.297 212.839C277.297 212.621 277.353 212.407 277.459 212.217C277.565 212.027 277.719 211.867 277.904 211.753V211.753Z" fill="#1E2532" stroke="#1E2532" stroke-width="0.2" stroke-linejoin="round"/>
<path d="M293.055 220.496L295.544 219.058C295.737 218.945 295.956 218.885 296.18 218.885C296.404 218.885 296.624 218.945 296.817 219.058L304.361 223.409C304.556 223.522 304.717 223.684 304.829 223.879C304.941 224.073 305 224.294 305 224.519C305 224.743 304.941 224.964 304.829 225.159C304.717 225.354 304.556 225.515 304.361 225.628L301.872 227.066C301.676 227.175 301.455 227.232 301.231 227.232C301.006 227.232 300.785 227.175 300.589 227.066L293.055 222.715C292.858 222.604 292.694 222.443 292.58 222.248C292.466 222.053 292.406 221.831 292.406 221.605C292.406 221.38 292.466 221.158 292.58 220.963C292.694 220.768 292.858 220.607 293.055 220.496Z" fill="#1E2532" stroke="#1E2532" stroke-width="0.2" stroke-linejoin="round"/>
<path d="M308.199 229.237L310.688 227.799C310.883 227.69 311.102 227.633 311.325 227.633C311.548 227.633 311.767 227.69 311.962 227.799L319.506 232.15C319.7 232.263 319.861 232.425 319.973 232.619C320.085 232.814 320.144 233.035 320.144 233.259C320.144 233.484 320.085 233.705 319.973 233.9C319.861 234.094 319.7 234.256 319.506 234.369L317.017 235.806C316.822 235.92 316.601 235.98 316.375 235.98C316.15 235.98 315.928 235.92 315.734 235.806L308.199 231.455C308.002 231.345 307.839 231.183 307.725 230.988C307.611 230.794 307.551 230.572 307.551 230.346C307.551 230.12 307.611 229.898 307.725 229.703C307.839 229.509 308.002 229.347 308.199 229.237V229.237Z" fill="#1E2532" stroke="#1E2532" stroke-width="0.2" stroke-linejoin="round"/>
<path d="M323.331 237.984L325.82 236.546C326.015 236.433 326.236 236.373 326.462 236.373C326.687 236.373 326.909 236.433 327.103 236.546L334.638 240.897C334.832 241.009 334.994 241.17 335.106 241.364C335.219 241.558 335.278 241.778 335.278 242.002C335.278 242.226 335.219 242.446 335.106 242.64C334.994 242.834 334.832 242.995 334.638 243.107L332.149 244.544C331.956 244.658 331.736 244.718 331.512 244.718C331.288 244.718 331.068 244.658 330.875 244.544L323.331 240.193C323.137 240.082 322.975 239.921 322.863 239.727C322.751 239.533 322.691 239.313 322.691 239.089C322.691 238.864 322.751 238.644 322.863 238.45C322.975 238.256 323.137 238.095 323.331 237.984V237.984Z" fill="#1E2532" stroke="#1E2532" stroke-width="0.2" stroke-linejoin="round"/>
<path d="M338.478 246.728L340.967 245.291C341.162 245.177 341.384 245.117 341.609 245.117C341.834 245.117 342.056 245.177 342.25 245.291L349.785 249.642C349.982 249.752 350.146 249.914 350.259 250.109C350.373 250.303 350.433 250.525 350.433 250.751C350.433 250.977 350.373 251.199 350.259 251.394C350.146 251.588 349.982 251.75 349.785 251.86L347.296 253.298C347.102 253.407 346.882 253.464 346.659 253.464C346.436 253.464 346.217 253.407 346.023 253.298L338.478 248.947C338.284 248.834 338.123 248.672 338.011 248.478C337.899 248.283 337.84 248.062 337.84 247.838C337.84 247.613 337.899 247.392 338.011 247.197C338.123 247.003 338.284 246.841 338.478 246.728Z" fill="#1E2532" stroke="#1E2532" stroke-width="0.2" stroke-linejoin="round"/>
<path d="M353.625 255.467L356.114 254.029C356.31 253.92 356.531 253.863 356.756 253.863C356.98 253.863 357.201 253.92 357.397 254.029L364.932 258.38C365.126 258.493 365.287 258.655 365.399 258.85C365.511 259.045 365.57 259.265 365.57 259.49C365.57 259.714 365.511 259.935 365.399 260.13C365.287 260.325 365.126 260.486 364.932 260.599L362.462 262.037C362.267 262.15 362.046 262.21 361.821 262.21C361.595 262.21 361.374 262.15 361.179 262.037L353.644 257.686C353.449 257.575 353.286 257.414 353.173 257.22C353.059 257.027 352.998 256.807 352.996 256.582C352.994 256.357 353.051 256.136 353.162 255.94C353.272 255.745 353.432 255.581 353.625 255.467Z" fill="#1E2532" stroke="#1E2532" stroke-width="0.2" stroke-linejoin="round"/>
<path d="M368.773 264.218L371.262 262.781C371.456 262.667 371.678 262.607 371.903 262.607C372.129 262.607 372.35 262.667 372.545 262.781L380.079 267.132C380.274 267.243 380.435 267.404 380.548 267.598C380.66 267.792 380.719 268.012 380.719 268.236C380.719 268.461 380.66 268.681 380.548 268.875C380.435 269.069 380.274 269.23 380.079 269.341L377.59 270.778C377.396 270.892 377.174 270.952 376.949 270.952C376.723 270.952 376.502 270.892 376.307 270.778L368.773 266.428C368.578 266.316 368.417 266.155 368.304 265.961C368.192 265.767 368.133 265.547 368.133 265.323C368.133 265.099 368.192 264.879 368.304 264.685C368.417 264.491 368.578 264.33 368.773 264.218V264.218Z" fill="#1E2532" stroke="#1E2532" stroke-width="0.2" stroke-linejoin="round"/>
<path d="M383.918 272.959L386.407 271.521C386.6 271.408 386.82 271.348 387.044 271.348C387.268 271.348 387.487 271.408 387.68 271.521L395.225 275.872C395.419 275.985 395.58 276.147 395.692 276.342C395.804 276.536 395.863 276.757 395.863 276.982C395.863 277.206 395.804 277.427 395.692 277.622C395.58 277.816 395.419 277.978 395.225 278.091L392.736 279.529C392.539 279.638 392.319 279.695 392.094 279.695C391.87 279.695 391.649 279.638 391.452 279.529L383.918 275.178C383.721 275.067 383.557 274.906 383.443 274.711C383.33 274.516 383.27 274.294 383.27 274.068C383.27 273.842 383.33 273.621 383.443 273.426C383.557 273.231 383.721 273.07 383.918 272.959Z" fill="#1E2532" stroke="#1E2532" stroke-width="0.2" stroke-linejoin="round"/>
<path d="M399.062 281.699L401.542 280.262C401.738 280.153 401.959 280.096 402.183 280.096C402.408 280.096 402.629 280.153 402.825 280.262L410.359 284.613C410.556 284.724 410.72 284.885 410.834 285.08C410.948 285.275 411.008 285.496 411.008 285.722C411.008 285.948 410.948 286.17 410.834 286.365C410.72 286.56 410.556 286.721 410.359 286.832L407.87 288.269C407.677 288.383 407.458 288.443 407.234 288.443C407.01 288.443 406.79 288.383 406.597 288.269L399.062 283.918C398.866 283.807 398.702 283.646 398.588 283.451C398.474 283.256 398.414 283.035 398.414 282.809C398.414 282.583 398.474 282.361 398.588 282.166C398.702 281.971 398.866 281.81 399.062 281.699V281.699Z" fill="#1E2532" stroke="#1E2532" stroke-width="0.2" stroke-linejoin="round"/>
<path d="M414.202 290.451L416.691 289.013C416.886 288.9 417.107 288.84 417.333 288.84C417.558 288.84 417.78 288.9 417.974 289.013L425.509 293.364C425.703 293.476 425.865 293.637 425.977 293.831C426.09 294.025 426.149 294.245 426.149 294.469C426.149 294.693 426.09 294.913 425.977 295.107C425.865 295.301 425.703 295.462 425.509 295.573L423.02 297.011C422.827 297.125 422.607 297.185 422.383 297.185C422.159 297.185 421.94 297.125 421.747 297.011L414.202 292.66C414.008 292.548 413.846 292.388 413.734 292.194C413.622 292 413.562 291.779 413.562 291.555C413.563 291.331 413.622 291.111 413.734 290.917C413.846 290.723 414.008 290.562 414.202 290.451V290.451Z" fill="#1E2532" stroke="#1E2532" stroke-width="0.2" stroke-linejoin="round"/>
<path d="M429.346 299.189L431.835 297.752C432.029 297.638 432.251 297.578 432.476 297.578C432.702 297.578 432.923 297.638 433.118 297.752L440.652 302.103C440.846 302.215 441.008 302.377 441.12 302.572C441.232 302.767 441.291 302.987 441.291 303.212C441.291 303.437 441.232 303.657 441.12 303.852C441.008 304.047 440.846 304.209 440.652 304.321L438.163 305.759C437.967 305.868 437.746 305.925 437.522 305.925C437.297 305.925 437.076 305.868 436.88 305.759L429.346 301.408C429.151 301.295 428.99 301.133 428.878 300.938C428.766 300.744 428.707 300.523 428.707 300.298C428.707 300.074 428.766 299.853 428.878 299.658C428.99 299.464 429.151 299.302 429.346 299.189V299.189Z" fill="#1E2532" stroke="#1E2532" stroke-width="0.2" stroke-linejoin="round"/>
<path d="M262.76 220.505L270.294 216.154C270.489 216.04 270.71 215.98 270.936 215.98C271.161 215.98 271.383 216.04 271.577 216.154L279.112 220.505C279.309 220.616 279.472 220.777 279.586 220.972C279.7 221.167 279.76 221.388 279.76 221.614C279.76 221.84 279.7 222.062 279.586 222.257C279.472 222.452 279.309 222.613 279.112 222.724L271.577 227.075C271.383 227.188 271.161 227.248 270.936 227.248C270.71 227.248 270.489 227.188 270.294 227.075L262.76 222.724C262.565 222.611 262.404 222.449 262.292 222.254C262.18 222.06 262.121 221.839 262.121 221.614C262.121 221.39 262.18 221.169 262.292 220.974C262.404 220.78 262.565 220.618 262.76 220.505Z" fill="#1E2532" stroke="#1E2532" stroke-width="0.2" stroke-linejoin="round"/>
<path d="M277.904 229.244L285.439 224.893C285.635 224.784 285.856 224.727 286.08 224.727C286.305 224.727 286.526 224.784 286.722 224.893L294.256 229.244C294.453 229.355 294.617 229.516 294.731 229.711C294.845 229.906 294.905 230.127 294.905 230.353C294.905 230.579 294.845 230.801 294.731 230.996C294.617 231.191 294.453 231.352 294.256 231.463L286.722 235.814C286.527 235.927 286.306 235.987 286.08 235.987C285.855 235.987 285.633 235.927 285.439 235.814L277.904 231.463C277.71 231.35 277.549 231.188 277.437 230.993C277.325 230.798 277.266 230.578 277.266 230.353C277.266 230.129 277.325 229.908 277.437 229.713C277.549 229.518 277.71 229.357 277.904 229.244Z" fill="#1E2532" stroke="#1E2532" stroke-width="0.2" stroke-linejoin="round"/>
<path d="M293.05 238.044L300.585 233.693C300.779 233.579 301.001 233.52 301.226 233.52C301.452 233.52 301.673 233.579 301.868 233.693L309.402 238.044C309.597 238.155 309.758 238.316 309.871 238.51C309.983 238.704 310.042 238.924 310.042 239.149C310.042 239.373 309.983 239.593 309.871 239.787C309.758 239.981 309.597 240.142 309.402 240.253L301.868 244.604C301.673 244.718 301.452 244.778 301.226 244.778C301.001 244.778 300.779 244.718 300.585 244.604L293.05 240.253C292.856 240.142 292.694 239.981 292.582 239.787C292.469 239.593 292.41 239.373 292.41 239.149C292.41 238.924 292.469 238.704 292.582 238.51C292.694 238.316 292.856 238.155 293.05 238.044V238.044Z" fill="#1E2532" stroke="#1E2532" stroke-width="0.2" stroke-linejoin="round"/>
<path d="M308.199 246.729L315.734 242.378C315.928 242.265 316.15 242.205 316.375 242.205C316.601 242.205 316.822 242.265 317.017 242.378L324.551 246.729C324.746 246.842 324.907 247.004 325.019 247.199C325.131 247.394 325.19 247.614 325.19 247.839C325.19 248.064 325.131 248.284 325.019 248.479C324.907 248.674 324.746 248.835 324.551 248.948L317.017 253.299C316.822 253.413 316.601 253.473 316.375 253.473C316.15 253.473 315.928 253.413 315.734 253.299L308.199 248.948C308.002 248.838 307.839 248.676 307.725 248.481C307.611 248.286 307.551 248.065 307.551 247.839C307.551 247.613 307.611 247.391 307.725 247.196C307.839 247.001 308.002 246.84 308.199 246.729V246.729Z" fill="#1E2532" stroke="#1E2532" stroke-width="0.2" stroke-linejoin="round"/>
<path d="M323.33 255.476L330.874 251.125C331.069 251.016 331.288 250.959 331.511 250.959C331.734 250.959 331.953 251.016 332.148 251.125L339.692 255.476C339.886 255.589 340.047 255.751 340.159 255.946C340.271 256.14 340.33 256.361 340.33 256.586C340.33 256.81 340.271 257.031 340.159 257.226C340.047 257.42 339.886 257.582 339.692 257.695L332.148 262.046C331.955 262.16 331.735 262.22 331.511 262.22C331.287 262.22 331.067 262.16 330.874 262.046L323.33 257.695C323.136 257.582 322.974 257.42 322.862 257.226C322.75 257.031 322.691 256.81 322.691 256.586C322.691 256.361 322.75 256.14 322.862 255.946C322.974 255.751 323.136 255.589 323.33 255.476V255.476Z" fill="#1E2532" stroke="#1E2532" stroke-width="0.2" stroke-linejoin="round"/>
<path d="M338.48 264.23L346.024 259.879C346.217 259.765 346.437 259.705 346.661 259.705C346.885 259.705 347.104 259.765 347.297 259.879L354.832 264.23C355.026 264.341 355.188 264.502 355.3 264.696C355.413 264.89 355.472 265.11 355.472 265.334C355.472 265.558 355.413 265.779 355.3 265.973C355.188 266.167 355.026 266.327 354.832 266.439L347.297 270.79C347.104 270.904 346.885 270.964 346.661 270.964C346.437 270.964 346.217 270.904 346.024 270.79L338.48 266.439C338.285 266.327 338.124 266.167 338.011 265.973C337.899 265.779 337.84 265.558 337.84 265.334C337.84 265.11 337.899 264.89 338.011 264.696C338.124 264.502 338.285 264.341 338.48 264.23Z" fill="#1E2532" stroke="#1E2532" stroke-width="0.2" stroke-linejoin="round"/>
<path d="M353.629 272.968L361.163 268.617C361.358 268.503 361.579 268.443 361.805 268.443C362.03 268.443 362.252 268.503 362.446 268.617L369.981 272.968C370.178 273.079 370.341 273.24 370.455 273.435C370.569 273.63 370.629 273.851 370.629 274.077C370.629 274.303 370.569 274.525 370.455 274.72C370.341 274.915 370.178 275.076 369.981 275.187L362.466 279.528C362.271 279.642 362.049 279.701 361.824 279.701C361.599 279.701 361.377 279.642 361.182 279.528L353.648 275.177C353.455 275.065 353.294 274.905 353.182 274.712C353.07 274.52 353.01 274.301 353.008 274.078C353.006 273.855 353.062 273.635 353.171 273.44C353.28 273.246 353.438 273.083 353.629 272.968Z" fill="#1E2532" stroke="#1E2532" stroke-width="0.2" stroke-linejoin="round"/>
<path d="M368.773 281.707L376.308 277.356C376.504 277.247 376.725 277.189 376.949 277.189C377.174 277.189 377.395 277.247 377.591 277.356L385.126 281.707C385.32 281.819 385.481 281.981 385.593 282.176C385.705 282.371 385.764 282.591 385.764 282.816C385.764 283.041 385.705 283.261 385.593 283.456C385.481 283.651 385.32 283.813 385.126 283.925L377.591 288.276C377.396 288.39 377.175 288.45 376.949 288.45C376.724 288.45 376.503 288.39 376.308 288.276L368.773 283.925C368.577 283.815 368.413 283.653 368.299 283.459C368.185 283.264 368.125 283.042 368.125 282.816C368.125 282.59 368.185 282.368 368.299 282.174C368.413 281.979 368.577 281.817 368.773 281.707V281.707Z" fill="#1E2532" stroke="#1E2532" stroke-width="0.2" stroke-linejoin="round"/>
<path d="M383.917 290.46L391.452 286.109C391.646 285.995 391.868 285.936 392.093 285.936C392.319 285.936 392.54 285.995 392.735 286.109L400.269 290.46C400.464 290.571 400.625 290.732 400.738 290.926C400.85 291.12 400.909 291.34 400.909 291.565C400.909 291.789 400.85 292.009 400.738 292.203C400.625 292.397 400.464 292.558 400.269 292.669L392.735 297.02C392.54 297.134 392.319 297.194 392.093 297.194C391.868 297.194 391.646 297.134 391.452 297.02L383.917 292.669C383.723 292.558 383.561 292.397 383.449 292.203C383.337 292.009 383.277 291.789 383.277 291.565C383.277 291.34 383.337 291.12 383.449 290.926C383.561 290.732 383.723 290.571 383.917 290.46V290.46Z" fill="#1E2532" stroke="#1E2532" stroke-width="0.2" stroke-linejoin="round"/>
<path d="M399.062 299.2L406.597 294.849C406.79 294.736 407.01 294.676 407.234 294.676C407.458 294.676 407.677 294.736 407.87 294.849L415.415 299.2C415.609 299.313 415.77 299.475 415.882 299.67C415.994 299.865 416.053 300.085 416.053 300.31C416.053 300.534 415.994 300.755 415.882 300.95C415.77 301.145 415.609 301.306 415.415 301.419L407.87 305.77C407.677 305.884 407.458 305.944 407.234 305.944C407.01 305.944 406.79 305.884 406.597 305.77L399.062 301.419C398.866 301.308 398.702 301.147 398.588 300.952C398.474 300.757 398.414 300.536 398.414 300.31C398.414 300.084 398.474 299.862 398.588 299.667C398.702 299.472 398.866 299.311 399.062 299.2Z" fill="#1E2532" stroke="#1E2532" stroke-width="0.2" stroke-linejoin="round"/>
<path d="M414.205 307.939L421.749 303.588C421.944 303.479 422.163 303.422 422.386 303.422C422.609 303.422 422.828 303.479 423.023 303.588L430.557 307.939C430.754 308.05 430.918 308.211 431.032 308.406C431.146 308.601 431.206 308.823 431.206 309.049C431.206 309.274 431.146 309.496 431.032 309.691C430.918 309.886 430.754 310.047 430.557 310.158L423.023 314.509C422.83 314.623 422.61 314.683 422.386 314.683C422.162 314.683 421.942 314.623 421.749 314.509L414.205 310.158C414.011 310.045 413.849 309.883 413.737 309.689C413.625 309.494 413.566 309.273 413.566 309.049C413.566 308.824 413.625 308.603 413.737 308.409C413.849 308.214 414.011 308.052 414.205 307.939V307.939Z" fill="#1E2532" stroke="#1E2532" stroke-width="0.2" stroke-linejoin="round"/>
<path d="M247.658 229.244L255.202 224.893C255.397 224.784 255.616 224.727 255.839 224.727C256.062 224.727 256.281 224.784 256.476 224.893L264.02 229.244C264.214 229.357 264.375 229.518 264.487 229.713C264.6 229.908 264.659 230.129 264.659 230.353C264.659 230.578 264.6 230.799 264.487 230.993C264.375 231.188 264.214 231.35 264.02 231.463L256.476 235.814C256.283 235.927 256.063 235.987 255.839 235.987C255.615 235.987 255.395 235.927 255.202 235.814L247.658 231.463C247.464 231.35 247.303 231.188 247.191 230.993C247.079 230.799 247.02 230.578 247.02 230.353C247.02 230.129 247.079 229.908 247.191 229.713C247.303 229.518 247.464 229.357 247.658 229.244Z" fill="#1E2532" stroke="#1E2532" stroke-width="0.2" stroke-linejoin="round"/>
<path d="M262.753 238.044L270.288 233.693C270.482 233.579 270.704 233.52 270.929 233.52C271.155 233.52 271.376 233.579 271.571 233.693L279.105 238.044C279.3 238.155 279.461 238.316 279.574 238.51C279.686 238.704 279.745 238.924 279.745 239.149C279.745 239.373 279.686 239.593 279.574 239.787C279.461 239.981 279.3 240.142 279.105 240.253L271.571 244.604C271.376 244.718 271.155 244.778 270.929 244.778C270.704 244.778 270.482 244.718 270.288 244.604L262.753 240.253C262.559 240.142 262.397 239.981 262.285 239.787C262.172 239.593 262.113 239.373 262.113 239.149C262.113 238.924 262.172 238.704 262.285 238.51C262.397 238.316 262.559 238.155 262.753 238.044V238.044Z" fill="#1E2532" stroke="#1E2532" stroke-width="0.2" stroke-linejoin="round"/>
<path d="M277.904 246.729L285.439 242.378C285.633 242.265 285.855 242.205 286.08 242.205C286.306 242.205 286.527 242.265 286.722 242.378L294.256 246.729C294.453 246.84 294.617 247.001 294.731 247.196C294.845 247.391 294.905 247.613 294.905 247.839C294.905 248.065 294.845 248.286 294.731 248.481C294.617 248.676 294.453 248.838 294.256 248.948L286.722 253.299C286.527 253.413 286.306 253.473 286.08 253.473C285.855 253.473 285.633 253.413 285.439 253.299L277.904 248.948C277.71 248.835 277.549 248.674 277.437 248.479C277.325 248.284 277.266 248.064 277.266 247.839C277.266 247.614 277.325 247.394 277.437 247.199C277.549 247.004 277.71 246.842 277.904 246.729Z" fill="#1E2532" stroke="#1E2532" stroke-width="0.2" stroke-linejoin="round"/>
<path d="M293.055 255.476L300.589 251.125C300.785 251.016 301.006 250.959 301.231 250.959C301.455 250.959 301.676 251.016 301.872 251.125L309.407 255.476C309.601 255.589 309.762 255.751 309.874 255.946C309.986 256.14 310.045 256.361 310.045 256.586C310.045 256.81 309.986 257.031 309.874 257.226C309.762 257.42 309.601 257.582 309.407 257.695L301.872 262.046C301.678 262.16 301.456 262.219 301.231 262.219C301.005 262.219 300.784 262.16 300.589 262.046L293.055 257.695C292.858 257.584 292.694 257.423 292.58 257.228C292.466 257.033 292.406 256.811 292.406 256.586C292.406 256.36 292.466 256.138 292.58 255.943C292.694 255.748 292.858 255.587 293.055 255.476V255.476Z" fill="#1E2532" stroke="#1E2532" stroke-width="0.2" stroke-linejoin="round"/>
<path d="M308.195 264.229L315.729 259.878C315.924 259.765 316.145 259.705 316.371 259.705C316.596 259.705 316.817 259.765 317.012 259.878L324.547 264.229C324.741 264.341 324.903 264.502 325.015 264.696C325.127 264.89 325.187 265.11 325.187 265.334C325.187 265.558 325.127 265.778 325.015 265.972C324.903 266.166 324.741 266.327 324.547 266.439L317.012 270.79C316.817 270.903 316.596 270.963 316.371 270.963C316.145 270.963 315.924 270.903 315.729 270.79L308.195 266.439C308 266.327 307.839 266.166 307.726 265.972C307.614 265.778 307.555 265.558 307.555 265.334C307.555 265.11 307.614 264.89 307.726 264.696C307.839 264.502 308 264.341 308.195 264.229Z" fill="#1E2532" stroke="#1E2532" stroke-width="0.2" stroke-linejoin="round"/>
<path d="M323.333 272.968L330.878 268.617C331.071 268.503 331.29 268.443 331.514 268.443C331.738 268.443 331.958 268.503 332.151 268.617L339.695 272.968C339.89 273.081 340.051 273.243 340.163 273.437C340.275 273.632 340.334 273.853 340.334 274.077C340.334 274.302 340.275 274.523 340.163 274.717C340.051 274.912 339.89 275.074 339.695 275.187L332.151 279.528C331.958 279.642 331.738 279.702 331.514 279.702C331.29 279.702 331.071 279.642 330.878 279.528L323.333 275.177C323.141 275.064 322.982 274.902 322.872 274.709C322.761 274.515 322.703 274.296 322.703 274.073C322.703 273.85 322.761 273.63 322.872 273.437C322.982 273.243 323.141 273.081 323.333 272.968V272.968Z" fill="#1E2532" stroke="#1E2532" stroke-width="0.2" stroke-linejoin="round"/>
<path d="M338.478 281.707L346.023 277.356C346.217 277.247 346.436 277.189 346.659 277.189C346.882 277.189 347.102 277.247 347.296 277.356L354.831 281.707C355.027 281.818 355.191 281.979 355.305 282.174C355.419 282.369 355.479 282.59 355.479 282.816C355.479 283.042 355.419 283.264 355.305 283.459C355.191 283.654 355.027 283.815 354.831 283.926L347.296 288.277C347.103 288.39 346.883 288.45 346.659 288.45C346.435 288.45 346.216 288.39 346.023 288.277L338.478 283.926C338.284 283.813 338.123 283.651 338.011 283.456C337.899 283.261 337.84 283.041 337.84 282.816C337.84 282.591 337.899 282.371 338.011 282.176C338.123 281.981 338.284 281.82 338.478 281.707Z" fill="#1E2532" stroke="#1E2532" stroke-width="0.2" stroke-linejoin="round"/>
<path d="M353.626 290.46L361.161 286.109C361.356 285.995 361.577 285.936 361.802 285.936C362.028 285.936 362.249 285.995 362.444 286.109L369.979 290.46C370.173 290.571 370.335 290.732 370.447 290.926C370.559 291.12 370.618 291.34 370.618 291.565C370.618 291.789 370.559 292.009 370.447 292.203C370.335 292.397 370.173 292.558 369.979 292.669L362.463 297.02C362.269 297.134 362.047 297.194 361.822 297.194C361.596 297.194 361.375 297.134 361.18 297.02L353.646 292.669C353.45 292.559 353.287 292.4 353.173 292.207C353.059 292.014 352.998 291.794 352.996 291.57C352.994 291.346 353.051 291.125 353.162 290.93C353.273 290.735 353.433 290.573 353.626 290.46V290.46Z" fill="#1E2532" stroke="#1E2532" stroke-width="0.2" stroke-linejoin="round"/>
<path d="M368.773 299.2L376.308 294.849C376.503 294.736 376.724 294.676 376.949 294.676C377.175 294.676 377.396 294.736 377.591 294.849L385.126 299.2C385.32 299.313 385.481 299.475 385.593 299.67C385.705 299.864 385.764 300.085 385.764 300.31C385.764 300.534 385.705 300.755 385.593 300.95C385.481 301.144 385.32 301.306 385.126 301.419L377.591 305.77C377.396 305.884 377.175 305.943 376.949 305.943C376.724 305.943 376.503 305.884 376.308 305.77L368.773 301.419C368.577 301.308 368.413 301.147 368.299 300.952C368.185 300.757 368.125 300.535 368.125 300.31C368.125 300.084 368.185 299.862 368.299 299.667C368.413 299.472 368.577 299.311 368.773 299.2Z" fill="#1E2532" stroke="#1E2532" stroke-width="0.2" stroke-linejoin="round"/>
<path d="M383.918 307.939L391.452 303.588C391.649 303.479 391.87 303.422 392.094 303.422C392.319 303.422 392.539 303.479 392.736 303.588L400.27 307.939C400.464 308.052 400.626 308.214 400.738 308.408C400.85 308.603 400.909 308.824 400.909 309.048C400.909 309.273 400.85 309.494 400.738 309.688C400.626 309.883 400.464 310.045 400.27 310.158L392.736 314.509C392.541 314.622 392.319 314.682 392.094 314.682C391.869 314.682 391.647 314.622 391.452 314.509L383.918 310.158C383.721 310.047 383.557 309.886 383.443 309.691C383.33 309.496 383.27 309.274 383.27 309.048C383.27 308.823 383.33 308.601 383.443 308.406C383.557 308.211 383.721 308.05 383.918 307.939Z" fill="#1E2532" stroke="#1E2532" stroke-width="0.2" stroke-linejoin="round"/>
<path d="M399.066 316.693L406.6 312.342C406.793 312.228 407.013 312.168 407.237 312.168C407.461 312.168 407.681 312.228 407.874 312.342L415.418 316.693C415.612 316.804 415.774 316.965 415.886 317.159C415.999 317.353 416.058 317.573 416.058 317.797C416.058 318.021 415.999 318.242 415.886 318.435C415.774 318.629 415.612 318.79 415.418 318.902L407.874 323.253C407.681 323.366 407.461 323.426 407.237 323.426C407.013 323.426 406.793 323.366 406.6 323.253L399.066 318.902C398.871 318.79 398.71 318.629 398.597 318.435C398.485 318.242 398.426 318.021 398.426 317.797C398.426 317.573 398.485 317.353 398.597 317.159C398.71 316.965 398.871 316.804 399.066 316.693V316.693Z" fill="#1E2532" stroke="#1E2532" stroke-width="0.2" stroke-linejoin="round"/>
<path d="M232.476 238.044L240.01 233.693C240.203 233.579 240.423 233.52 240.647 233.52C240.871 233.52 241.091 233.579 241.284 233.693L248.828 238.044C249.022 238.156 249.184 238.317 249.296 238.511C249.409 238.704 249.468 238.925 249.468 239.149C249.468 239.373 249.409 239.593 249.296 239.787C249.184 239.981 249.022 240.142 248.828 240.253L241.284 244.604C241.091 244.718 240.871 244.778 240.647 244.778C240.423 244.778 240.203 244.718 240.01 244.604L232.476 240.253C232.281 240.142 232.12 239.981 232.007 239.787C231.895 239.593 231.836 239.373 231.836 239.149C231.836 238.925 231.895 238.704 232.007 238.511C232.12 238.317 232.281 238.156 232.476 238.044Z" fill="#1E2532" stroke="#1E2532" stroke-width="0.2" stroke-linejoin="round"/>
<path d="M247.659 246.73L255.203 242.379C255.396 242.265 255.616 242.205 255.84 242.205C256.064 242.205 256.283 242.265 256.476 242.379L264.021 246.73C264.215 246.843 264.376 247.004 264.488 247.199C264.6 247.394 264.659 247.615 264.659 247.839C264.659 248.064 264.6 248.284 264.488 248.479C264.376 248.674 264.215 248.836 264.021 248.949L256.476 253.3C256.283 253.413 256.064 253.473 255.84 253.473C255.616 253.473 255.396 253.413 255.203 253.3L247.659 248.958C247.462 248.846 247.299 248.684 247.185 248.488C247.072 248.292 247.012 248.07 247.012 247.844C247.012 247.618 247.072 247.395 247.185 247.2C247.299 247.004 247.462 246.842 247.659 246.73Z" fill="#1E2532" stroke="#1E2532" stroke-width="0.2" stroke-linejoin="round"/>
<path d="M262.76 255.476L270.294 251.125C270.49 251.016 270.711 250.959 270.936 250.959C271.16 250.959 271.381 251.016 271.577 251.125L279.112 255.476C279.309 255.587 279.472 255.748 279.586 255.943C279.7 256.138 279.76 256.36 279.76 256.586C279.76 256.811 279.7 257.033 279.586 257.228C279.472 257.423 279.309 257.584 279.112 257.695L271.577 262.046C271.383 262.16 271.161 262.219 270.936 262.219C270.71 262.219 270.489 262.16 270.294 262.046L262.76 257.695C262.565 257.582 262.404 257.42 262.292 257.226C262.18 257.031 262.121 256.81 262.121 256.586C262.121 256.361 262.18 256.14 262.292 255.946C262.404 255.751 262.565 255.589 262.76 255.476Z" fill="#1E2532" stroke="#1E2532" stroke-width="0.2" stroke-linejoin="round"/>
<path d="M277.905 264.229L285.44 259.878C285.635 259.765 285.856 259.705 286.082 259.705C286.307 259.705 286.528 259.765 286.723 259.878L294.258 264.229C294.452 264.341 294.614 264.502 294.726 264.696C294.838 264.89 294.898 265.11 294.898 265.334C294.898 265.558 294.838 265.778 294.726 265.972C294.614 266.166 294.452 266.327 294.258 266.439L286.723 270.79C286.528 270.903 286.307 270.963 286.082 270.963C285.856 270.963 285.635 270.903 285.44 270.79L277.905 266.439C277.711 266.327 277.549 266.166 277.437 265.972C277.325 265.778 277.266 265.558 277.266 265.334C277.266 265.11 277.325 264.89 277.437 264.696C277.549 264.502 277.711 264.341 277.905 264.229V264.229Z" fill="#1E2532" stroke="#1E2532" stroke-width="0.2" stroke-linejoin="round"/>
<path d="M217.328 246.729L224.863 242.378C225.057 242.265 225.279 242.205 225.504 242.205C225.73 242.205 225.951 242.265 226.146 242.378L233.68 246.729C233.875 246.842 234.036 247.004 234.148 247.199C234.26 247.394 234.319 247.614 234.319 247.839C234.319 248.064 234.26 248.284 234.148 248.479C234.036 248.674 233.875 248.835 233.68 248.948L226.146 253.299C225.951 253.413 225.73 253.473 225.504 253.473C225.279 253.473 225.057 253.413 224.863 253.299L217.328 248.948C217.131 248.838 216.968 248.676 216.854 248.481C216.74 248.286 216.68 248.065 216.68 247.839C216.68 247.613 216.74 247.391 216.854 247.196C216.968 247.001 217.131 246.84 217.328 246.729Z" fill="#1E2532" stroke="#1E2532" stroke-width="0.2" stroke-linejoin="round"/>
<path d="M232.473 255.476L240.007 251.125C240.202 251.016 240.421 250.959 240.644 250.959C240.867 250.959 241.086 251.016 241.281 251.125L248.825 255.476C249.019 255.589 249.18 255.751 249.292 255.946C249.404 256.14 249.463 256.361 249.463 256.586C249.463 256.81 249.404 257.031 249.292 257.226C249.18 257.42 249.019 257.582 248.825 257.695L241.281 262.046C241.088 262.16 240.868 262.22 240.644 262.22C240.42 262.22 240.2 262.16 240.007 262.046L232.473 257.695C232.276 257.584 232.112 257.423 231.998 257.228C231.884 257.033 231.824 256.811 231.824 256.586C231.824 256.36 231.884 256.138 231.998 255.943C232.112 255.748 232.276 255.587 232.473 255.476V255.476Z" fill="#1E2532" stroke="#1E2532" stroke-width="0.2" stroke-linejoin="round"/>
<path d="M247.659 264.23L255.204 259.879C255.397 259.765 255.616 259.705 255.84 259.705C256.064 259.705 256.284 259.765 256.477 259.879L264.021 264.23C264.216 264.341 264.377 264.502 264.49 264.696C264.602 264.89 264.661 265.11 264.661 265.334C264.661 265.558 264.602 265.779 264.49 265.973C264.377 266.167 264.216 266.327 264.021 266.439L256.477 270.79C256.284 270.904 256.064 270.964 255.84 270.964C255.616 270.964 255.397 270.904 255.204 270.79L247.659 266.439C247.465 266.327 247.303 266.167 247.191 265.973C247.079 265.779 247.02 265.558 247.02 265.334C247.02 265.11 247.079 264.89 247.191 264.696C247.303 264.502 247.465 264.341 247.659 264.23Z" fill="#1E2532" stroke="#1E2532" stroke-width="0.2" stroke-linejoin="round"/>
<path d="M261.486 273.741L270.728 268.396C270.794 268.363 270.867 268.346 270.941 268.346C271.014 268.346 271.087 268.363 271.153 268.396L280.395 273.741C280.459 273.778 280.512 273.832 280.549 273.896C280.586 273.96 280.606 274.033 280.606 274.107C280.606 274.181 280.586 274.254 280.549 274.319C280.512 274.383 280.459 274.436 280.395 274.474L271.153 279.809C271.089 279.847 271.015 279.867 270.941 279.867C270.866 279.867 270.793 279.847 270.728 279.809L261.486 274.474C261.42 274.439 261.364 274.386 261.325 274.321C261.286 274.257 261.266 274.183 261.266 274.107C261.266 274.032 261.286 273.958 261.325 273.893C261.364 273.829 261.42 273.776 261.486 273.741Z" fill="#1E2532" stroke="#1E2532" stroke-width="0.2" stroke-linejoin="round"/>
<path d="M293.05 272.968L300.585 268.617C300.779 268.503 301.001 268.443 301.226 268.443C301.452 268.443 301.673 268.503 301.868 268.617L309.402 272.968C309.597 273.081 309.758 273.242 309.87 273.437C309.982 273.632 310.041 273.853 310.041 274.077C310.041 274.302 309.982 274.523 309.87 274.717C309.758 274.912 309.597 275.074 309.402 275.187L301.868 279.528C301.673 279.642 301.452 279.701 301.226 279.701C301.001 279.701 300.779 279.642 300.585 279.528L293.05 275.177C292.856 275.065 292.694 274.905 292.582 274.711C292.469 274.517 292.41 274.296 292.41 274.072C292.41 273.848 292.469 273.628 292.582 273.434C292.694 273.24 292.856 273.079 293.05 272.968Z" fill="#1E2532" stroke="#1E2532" stroke-width="0.2" stroke-linejoin="round"/>
<path d="M308.199 281.707L315.734 277.356C315.93 277.247 316.151 277.189 316.375 277.189C316.6 277.189 316.821 277.247 317.017 277.356L324.551 281.707C324.746 281.819 324.907 281.981 325.019 282.176C325.131 282.371 325.19 282.591 325.19 282.816C325.19 283.041 325.131 283.261 325.019 283.456C324.907 283.651 324.746 283.813 324.551 283.925L317.017 288.276C316.822 288.39 316.601 288.45 316.375 288.45C316.15 288.45 315.928 288.39 315.734 288.276L308.199 283.925C308.002 283.815 307.839 283.653 307.725 283.459C307.611 283.264 307.551 283.042 307.551 282.816C307.551 282.59 307.611 282.368 307.725 282.174C307.839 281.979 308.002 281.817 308.199 281.707V281.707Z" fill="#1E2532" stroke="#1E2532" stroke-width="0.2" stroke-linejoin="round"/>
<path d="M323.331 290.458L330.875 286.107C331.068 285.994 331.288 285.934 331.512 285.934C331.736 285.934 331.956 285.994 332.149 286.107L339.693 290.458C339.888 290.57 340.049 290.731 340.161 290.925C340.274 291.119 340.333 291.339 340.333 291.563C340.333 291.787 340.274 292.007 340.161 292.201C340.049 292.395 339.888 292.556 339.693 292.667L332.149 297.018C331.956 297.132 331.736 297.192 331.512 297.192C331.288 297.192 331.068 297.132 330.875 297.018L323.331 292.667C323.137 292.556 322.975 292.395 322.863 292.201C322.751 292.007 322.691 291.787 322.691 291.563C322.691 291.339 322.751 291.119 322.863 290.925C322.975 290.731 323.137 290.57 323.331 290.458V290.458Z" fill="#1E2532" stroke="#1E2532" stroke-width="0.2" stroke-linejoin="round"/>
<path d="M338.478 299.2L346.023 294.849C346.216 294.736 346.435 294.676 346.659 294.676C346.883 294.676 347.103 294.736 347.296 294.849L354.831 299.2C355.027 299.311 355.191 299.472 355.305 299.667C355.419 299.862 355.479 300.084 355.479 300.31C355.479 300.536 355.419 300.757 355.305 300.952C355.191 301.147 355.027 301.308 354.831 301.419L347.296 305.77C347.103 305.884 346.883 305.944 346.659 305.944C346.435 305.944 346.216 305.884 346.023 305.77L338.478 301.419C338.284 301.306 338.123 301.145 338.011 300.95C337.899 300.755 337.84 300.534 337.84 300.31C337.84 300.085 337.899 299.865 338.011 299.67C338.123 299.475 338.284 299.313 338.478 299.2V299.2Z" fill="#1E2532" stroke="#1E2532" stroke-width="0.2" stroke-linejoin="round"/>
<path d="M353.625 307.939L361.16 303.588C361.356 303.479 361.577 303.422 361.801 303.422C362.026 303.422 362.246 303.479 362.443 303.588L369.977 307.939C370.174 308.05 370.338 308.211 370.452 308.406C370.566 308.601 370.626 308.823 370.626 309.048C370.626 309.274 370.566 309.496 370.452 309.691C370.338 309.886 370.174 310.047 369.977 310.158L362.462 314.509C362.267 314.622 362.046 314.682 361.821 314.682C361.595 314.682 361.374 314.622 361.179 314.509L353.644 310.158C353.449 310.047 353.286 309.886 353.173 309.693C353.059 309.499 352.998 309.279 352.996 309.054C352.994 308.829 353.051 308.608 353.162 308.412C353.272 308.217 353.432 308.054 353.625 307.939V307.939Z" fill="#1E2532" stroke="#1E2532" stroke-width="0.2" stroke-linejoin="round"/>
<path d="M368.773 316.692L376.307 312.341C376.502 312.228 376.723 312.168 376.949 312.168C377.174 312.168 377.396 312.228 377.59 312.341L385.125 316.692C385.319 316.804 385.481 316.965 385.593 317.159C385.706 317.353 385.765 317.573 385.765 317.797C385.765 318.021 385.706 318.241 385.593 318.435C385.481 318.629 385.319 318.79 385.125 318.902L377.59 323.253C377.396 323.366 377.174 323.426 376.949 323.426C376.723 323.426 376.502 323.366 376.307 323.253L368.773 318.902C368.578 318.79 368.417 318.629 368.304 318.435C368.192 318.241 368.133 318.021 368.133 317.797C368.133 317.573 368.192 317.353 368.304 317.159C368.417 316.965 368.578 316.804 368.773 316.692V316.692Z" fill="#1E2532" stroke="#1E2532" stroke-width="0.2" stroke-linejoin="round"/>
<path d="M383.918 325.431L391.452 321.08C391.647 320.966 391.869 320.906 392.094 320.906C392.319 320.906 392.541 320.966 392.736 321.08L400.27 325.431C400.464 325.543 400.626 325.705 400.738 325.9C400.85 326.095 400.909 326.315 400.909 326.54C400.909 326.765 400.85 326.985 400.738 327.18C400.626 327.375 400.464 327.537 400.27 327.65L392.736 332C392.541 332.114 392.319 332.174 392.094 332.174C391.869 332.174 391.647 332.114 391.452 332L383.918 327.65C383.721 327.539 383.557 327.378 383.443 327.183C383.33 326.988 383.27 326.766 383.27 326.54C383.27 326.314 383.33 326.093 383.443 325.898C383.557 325.703 383.721 325.541 383.918 325.431Z" fill="#1E2532" stroke="#1E2532" stroke-width="0.2" stroke-linejoin="round"/>
<path d="M323.331 307.853L330.875 303.502C331.068 303.388 331.288 303.328 331.512 303.328C331.736 303.328 331.956 303.388 332.149 303.502L339.693 307.853C339.888 307.964 340.049 308.125 340.161 308.319C340.274 308.513 340.333 308.733 340.333 308.957C340.333 309.182 340.274 309.402 340.161 309.596C340.049 309.79 339.888 309.951 339.693 310.062L332.149 314.413C331.956 314.527 331.736 314.587 331.512 314.587C331.288 314.587 331.068 314.527 330.875 314.413L323.331 310.062C323.137 309.951 322.975 309.79 322.863 309.596C322.751 309.402 322.691 309.182 322.691 308.957C322.691 308.733 322.751 308.513 322.863 308.319C322.975 308.125 323.137 307.964 323.331 307.853V307.853Z" fill="#1E2532" stroke="#1E2532" stroke-width="0.2" stroke-linejoin="round"/>
<path d="M338.478 316.595L346.023 312.244C346.216 312.13 346.435 312.07 346.659 312.07C346.883 312.07 347.103 312.13 347.296 312.244L354.831 316.595C355.027 316.706 355.191 316.867 355.305 317.062C355.419 317.257 355.479 317.479 355.479 317.704C355.479 317.93 355.419 318.152 355.305 318.347C355.191 318.542 355.027 318.703 354.831 318.814L347.296 323.165C347.102 323.274 346.882 323.331 346.659 323.331C346.436 323.331 346.217 323.274 346.023 323.165L338.478 318.814C338.284 318.701 338.123 318.539 338.011 318.344C337.899 318.15 337.84 317.929 337.84 317.704C337.84 317.48 337.899 317.259 338.011 317.064C338.123 316.87 338.284 316.708 338.478 316.595V316.595Z" fill="#1E2532" stroke="#1E2532" stroke-width="0.2" stroke-linejoin="round"/>
<path d="M353.625 325.333L361.16 320.983C361.356 320.874 361.577 320.816 361.801 320.816C362.026 320.816 362.246 320.874 362.443 320.983L369.977 325.333C370.174 325.444 370.338 325.606 370.452 325.8C370.566 325.995 370.626 326.217 370.626 326.443C370.626 326.669 370.566 326.89 370.452 327.085C370.338 327.28 370.174 327.442 369.977 327.552L362.462 331.903C362.267 332.017 362.046 332.077 361.821 332.077C361.595 332.077 361.374 332.017 361.179 331.903L353.644 327.552C353.449 327.441 353.286 327.281 353.173 327.087C353.059 326.893 352.998 326.673 352.996 326.448C352.994 326.224 353.051 326.003 353.162 325.807C353.272 325.611 353.432 325.448 353.625 325.333V325.333Z" fill="#1E2532" stroke="#1E2532" stroke-width="0.2" stroke-linejoin="round"/>
<path d="M368.773 334.083L376.307 329.732C376.502 329.618 376.723 329.559 376.949 329.559C377.174 329.559 377.396 329.618 377.59 329.732L385.125 334.083C385.319 334.195 385.481 334.355 385.593 334.549C385.706 334.743 385.765 334.963 385.765 335.188C385.765 335.412 385.706 335.632 385.593 335.826C385.481 336.02 385.319 336.181 385.125 336.292L377.59 340.643C377.396 340.757 377.174 340.817 376.949 340.817C376.723 340.817 376.502 340.757 376.307 340.643L368.773 336.292C368.578 336.181 368.417 336.02 368.304 335.826C368.192 335.632 368.133 335.412 368.133 335.188C368.133 334.963 368.192 334.743 368.304 334.549C368.417 334.355 368.578 334.195 368.773 334.083Z" fill="#1E2532" stroke="#1E2532" stroke-width="0.2" stroke-linejoin="round"/>
<path d="M286.3 277.115L325.854 299.94C325.921 299.976 325.976 300.028 326.015 300.093C326.054 300.158 326.075 300.231 326.075 300.307C326.075 300.382 326.054 300.456 326.015 300.521C325.976 300.585 325.921 300.638 325.854 300.673L316.612 306.009C316.548 306.047 316.474 306.067 316.399 306.067C316.325 306.067 316.251 306.047 316.187 306.009L277.935 283.926C277.741 283.813 277.58 283.651 277.468 283.456C277.356 283.262 277.297 283.041 277.297 282.816C277.297 282.592 277.356 282.371 277.468 282.176C277.58 281.982 277.741 281.82 277.935 281.707L285.894 277.115C285.957 277.082 286.026 277.064 286.097 277.064C286.168 277.064 286.237 277.082 286.3 277.115V277.115Z" fill="#1E2532" stroke="#1E2532" stroke-width="0.2" stroke-linejoin="round"/>
<path d="M261.906 286.351L308.117 313.036C308.441 313.223 308.711 313.492 308.899 313.816C309.086 314.14 309.185 314.508 309.185 314.883C309.185 315.258 309.086 315.626 308.899 315.95C308.711 316.274 308.441 316.544 308.117 316.731L282.069 331.752C281.745 331.939 281.377 332.037 281.003 332.037C280.629 332.037 280.261 331.939 279.937 331.752L233.716 305.163C233.392 304.976 233.122 304.707 232.935 304.383C232.747 304.058 232.648 303.691 232.648 303.316C232.648 302.941 232.747 302.573 232.935 302.249C233.122 301.925 233.392 301.655 233.716 301.468L259.764 286.351C260.089 286.162 260.459 286.063 260.835 286.062C261.211 286.062 261.581 286.162 261.906 286.351V286.351Z" fill="#E2E2E2" stroke="#1E2532" stroke-width="0.2" stroke-linejoin="round"/>
<path d="M388.797 145.235L439.638 174.746C440.609 175.314 441.414 176.125 441.975 177.1C442.535 178.074 442.83 179.179 442.831 180.303V265.567C442.831 265.905 442.742 266.238 442.572 266.531C442.403 266.824 442.159 267.067 441.866 267.236C441.573 267.405 441.24 267.494 440.902 267.494C440.563 267.494 440.23 267.405 439.937 267.236L387.542 237.165C386.89 236.79 386.348 236.249 385.974 235.596C385.599 234.944 385.405 234.203 385.41 233.451L385.941 146.894C385.947 146.562 386.038 146.237 386.206 145.951C386.374 145.664 386.614 145.426 386.901 145.259C387.188 145.092 387.513 145.002 387.845 144.998C388.178 144.994 388.505 145.075 388.797 145.235Z" fill="white" stroke="#1E2532" stroke-width="0.2" stroke-miterlimit="10"/>
<path d="M394.374 161.454L435.086 184.984C435.269 185.093 435.421 185.246 435.527 185.43C435.633 185.615 435.691 185.823 435.694 186.035V187.685C435.694 187.898 435.637 188.108 435.531 188.292C435.424 188.477 435.27 188.63 435.086 188.737C434.901 188.844 434.691 188.9 434.478 188.9C434.265 188.9 434.055 188.843 433.871 188.737L393.159 165.236C392.974 165.129 392.821 164.976 392.714 164.791C392.607 164.607 392.551 164.397 392.551 164.184V162.505C392.551 162.292 392.607 162.083 392.714 161.898C392.821 161.713 392.974 161.56 393.159 161.454C393.344 161.347 393.553 161.291 393.767 161.291C393.98 161.291 394.189 161.347 394.374 161.454V161.454Z" fill="#FFDA54" stroke="#1E2532" stroke-width="0.2" stroke-linejoin="round"/>
<path d="M394.374 171.637L435.086 195.138C435.269 195.247 435.421 195.401 435.527 195.585C435.633 195.769 435.691 195.977 435.694 196.19V197.84C435.694 198.053 435.637 198.262 435.531 198.447C435.424 198.632 435.27 198.785 435.086 198.892C434.901 198.998 434.691 199.054 434.478 199.054C434.265 199.054 434.055 198.998 433.871 198.891L393.159 175.39C392.974 175.284 392.821 175.13 392.714 174.946C392.607 174.761 392.551 174.552 392.551 174.339V172.689C392.551 172.476 392.607 172.266 392.714 172.082C392.821 171.897 392.974 171.744 393.159 171.637C393.344 171.531 393.553 171.475 393.767 171.475C393.98 171.475 394.189 171.531 394.374 171.637V171.637Z" fill="#FFDA54" stroke="#1E2532" stroke-width="0.2" stroke-linejoin="round"/>
<path d="M394.378 181.827L435.09 205.337C435.274 205.445 435.427 205.598 435.533 205.782C435.64 205.967 435.697 206.176 435.698 206.389V208.029C435.7 208.246 435.645 208.459 435.538 208.647C435.431 208.835 435.275 208.992 435.088 209.101C434.901 209.21 434.688 209.267 434.471 209.267C434.255 209.267 434.042 209.209 433.855 209.1L393.143 185.589C392.958 185.483 392.804 185.33 392.697 185.145C392.59 184.961 392.535 184.751 392.535 184.538V182.888C392.532 182.671 392.586 182.457 392.693 182.268C392.8 182.079 392.956 181.923 393.144 181.815C393.332 181.706 393.546 181.65 393.763 181.652C393.98 181.655 394.192 181.715 394.378 181.827V181.827Z" fill="#FFDA54" stroke="#1E2532" stroke-width="0.2" stroke-linejoin="round"/>
<path d="M394.374 192.014L435.086 215.525C435.27 215.632 435.423 215.786 435.529 215.97C435.636 216.155 435.693 216.364 435.694 216.577V218.226C435.694 218.44 435.637 218.649 435.531 218.834C435.424 219.018 435.27 219.172 435.086 219.278C434.901 219.385 434.691 219.441 434.478 219.441C434.265 219.441 434.055 219.385 433.871 219.278L393.159 195.767C392.973 195.661 392.819 195.508 392.713 195.324C392.606 195.139 392.55 194.929 392.551 194.716V193.066C392.551 192.853 392.607 192.643 392.714 192.459C392.821 192.274 392.974 192.121 393.159 192.014C393.344 191.908 393.553 191.852 393.767 191.852C393.98 191.852 394.189 191.908 394.374 192.014V192.014Z" fill="#FFDA54" stroke="#1E2532" stroke-width="0.2" stroke-linejoin="round"/>
<path d="M394.374 202.2L435.086 225.711C435.27 225.818 435.423 225.972 435.529 226.156C435.636 226.34 435.693 226.549 435.694 226.762V228.393C435.694 228.606 435.637 228.815 435.531 229C435.424 229.185 435.27 229.338 435.086 229.445C434.901 229.551 434.691 229.607 434.478 229.607C434.265 229.607 434.055 229.551 433.871 229.444L393.159 205.934C392.973 205.828 392.819 205.675 392.713 205.49C392.606 205.305 392.55 205.095 392.551 204.882V203.232C392.554 203.021 392.613 202.814 392.721 202.632C392.829 202.45 392.983 202.299 393.167 202.195C393.351 202.091 393.56 202.036 393.771 202.037C393.983 202.038 394.191 202.094 394.374 202.2V202.2Z" fill="#FFDA54" stroke="#1E2532" stroke-width="0.2" stroke-linejoin="round"/>
<path d="M394.374 212.399L435.086 235.9C435.27 236.008 435.423 236.161 435.529 236.345C435.636 236.53 435.693 236.739 435.694 236.952V238.601C435.694 238.815 435.637 239.024 435.531 239.209C435.424 239.393 435.27 239.547 435.086 239.653C434.901 239.76 434.691 239.816 434.478 239.816C434.265 239.816 434.055 239.76 433.871 239.653L393.159 216.152C392.974 216.043 392.821 215.888 392.714 215.702C392.607 215.516 392.551 215.305 392.551 215.091V213.451C392.551 213.237 392.607 213.028 392.714 212.843C392.821 212.659 392.974 212.505 393.159 212.399C393.344 212.292 393.553 212.236 393.767 212.236C393.98 212.236 394.189 212.292 394.374 212.399V212.399Z" fill="#FFDA54" stroke="#1E2532" stroke-width="0.2" stroke-linejoin="round"/>
<path d="M394.374 222.606L435.086 246.107C435.269 246.216 435.421 246.37 435.527 246.554C435.633 246.738 435.691 246.946 435.694 247.159V248.808C435.694 249.022 435.637 249.231 435.531 249.416C435.424 249.601 435.27 249.754 435.086 249.86C434.901 249.967 434.691 250.023 434.478 250.023C434.265 250.023 434.055 249.967 433.871 249.86L393.159 226.359C392.974 226.252 392.821 226.099 392.714 225.915C392.607 225.73 392.551 225.521 392.551 225.307V223.658C392.551 223.445 392.607 223.235 392.714 223.05C392.821 222.866 392.974 222.712 393.159 222.606C393.344 222.499 393.553 222.443 393.767 222.443C393.98 222.443 394.189 222.5 394.374 222.606V222.606Z" fill="#FFDA54" stroke="#1E2532" stroke-width="0.2" stroke-linejoin="round"/>
<path d="M305.848 97.5L328.693 110.688V137.054L305.848 123.866V97.5Z" fill="#F9B8C4" stroke="#1E2532" stroke-width="0.2" stroke-linejoin="round"/>
<path d="M340.109 117.275V143.642L362.945 156.83L362.829 130.068L340.109 117.275Z" fill="#F9B8C4" stroke="#1E2532" stroke-width="0.2" stroke-linejoin="round"/>
<path d="M305.85 137.053L302.57 138.982L359.654 211.174L362.944 209.254L362.78 169.873L305.85 137.053Z" fill="#1A49BA" stroke="#1E2532" stroke-width="0.2" stroke-linejoin="round"/>
<path d="M302.567 138.982C302.249 139.31 302.567 178.537 302.567 178.537L359.651 211.174L359.496 171.803L302.567 138.982Z" fill="#5A85ED" stroke="#1E2532" stroke-width="0.2" stroke-linejoin="round"/>
<path d="M232.957 439.471V508.218C232.957 508.218 232.957 516.37 247.959 516.901C247.959 516.901 261.388 517.286 262.96 508.218V439.471H232.957Z" fill="white" stroke="#1E2532" stroke-width="0.2" stroke-linejoin="round"/>
<path d="M247.959 448.135C256.246 448.135 262.96 444.276 262.96 439.452C262.96 434.628 256.207 430.77 247.959 430.77C239.71 430.77 232.957 434.628 232.957 439.452C232.957 444.276 239.672 448.135 247.959 448.135Z" fill="#F2F2F2" stroke="#1E2532" stroke-width="0.2" stroke-linejoin="round"/>
<path d="M247.957 444.38C258.98 444.38 267.917 435.443 267.917 424.419C267.917 413.396 258.98 404.459 247.957 404.459C236.933 404.459 227.996 413.396 227.996 424.419C227.996 435.443 236.933 444.38 247.957 444.38Z" fill="#31E7B6" stroke="#1E2532" stroke-width="0.2" stroke-linejoin="round"/>
<path d="M29.3945 241.695V310.462C29.3945 310.462 29.3945 318.614 44.3962 319.144C44.3962 319.144 57.835 319.521 59.3979 310.462V241.695H29.3945Z" fill="white" stroke="#1E2532" stroke-width="0.2" stroke-linejoin="round"/>
<path d="M44.3962 250.359C52.6833 250.359 59.3979 246.5 59.3979 241.677C59.3979 236.853 52.6447 232.994 44.3962 232.994C36.1477 232.994 29.3945 236.853 29.3945 241.677C29.3945 246.5 36.1091 250.359 44.3962 250.359Z" fill="#F2F2F2" stroke="#1E2532" stroke-width="0.2" stroke-linejoin="round"/>
<path d="M44.394 246.608C55.4179 246.608 64.3544 237.672 64.3544 226.648C64.3544 215.624 55.4179 206.688 44.394 206.688C33.3702 206.688 24.4336 215.624 24.4336 226.648C24.4336 237.672 33.3702 246.608 44.394 246.608Z" fill="#F9B8C4" stroke="#1E2532" stroke-width="0.2" stroke-linejoin="round"/>
<path d="M359.499 171.803L362.78 169.873L305.85 137.053L302.57 138.982L359.499 171.803Z" fill="#1A49BA" stroke="#1E2532" stroke-width="0.2" stroke-linejoin="round"/>
<path d="M158.531 174.184V234.316L162.361 236.381L191.294 159.549L187.464 157.484L158.531 174.184Z" fill="#39B14A" stroke="#1E2532" stroke-width="0.2" stroke-linejoin="round"/>
<path d="M162.363 176.248V236.381L202.863 212.995V166.225L191.296 159.549L162.363 176.248Z" fill="#17CE31" stroke="#1E2532" stroke-width="0.2" stroke-linejoin="round"/>
<path d="M187.022 193.158L186.998 193.215L187.038 193.262L193.646 200.956L188.972 203.66L184.472 198.045L184.416 197.975L184.34 198.023L184.234 198.091L184.207 198.108L184.195 198.137L179.713 209.007L175.14 211.638L181.649 196.439L181.674 196.382L181.633 196.335L175.576 189.268L180.259 186.564L184.19 191.542L184.246 191.613L184.322 191.564L184.428 191.497L184.455 191.479L184.467 191.45L188.409 181.863L192.973 179.223L187.022 193.158Z" fill="white" stroke="#1E2532" stroke-width="0.2"/>
<path d="M158.531 174.184L162.361 176.249L191.294 159.549L187.464 157.484L158.531 174.184Z" fill="#39B14A" stroke="#1E2532" stroke-width="0.2" stroke-linejoin="round"/>
<path d="M67.8477 126.914V187.037L71.6777 189.092L100.601 112.279L96.7705 110.215L67.8477 126.914Z" fill="#00298C" stroke="#1E2532" stroke-width="0.2" stroke-linejoin="round"/>
<path d="M71.6758 128.979V189.092L112.166 165.716V118.955L100.599 112.279L71.6758 128.979Z" fill="#1A49BA" stroke="#1E2532" stroke-width="0.2" stroke-linejoin="round"/>
<path d="M100.584 157.421L96.7052 159.653L92.7686 147.547L92.7318 147.434L92.6267 147.49L92.4627 147.577L92.4224 147.598L92.4121 147.642L88.5244 164.386L84.6439 166.62L78.266 148.183L82.3804 145.807L86.4136 158.346L86.4514 158.464L86.5584 158.402L86.6935 158.325L86.7315 158.304L86.7413 158.261L90.7159 141.006L94.4493 138.842L98.4825 151.381L98.5202 151.498L98.6273 151.437L98.7624 151.36L98.8004 151.338L98.8102 151.296L102.785 134.031L106.838 131.69L100.584 157.421Z" fill="white" stroke="#1E2532" stroke-width="0.2"/>
<path d="M67.8477 126.914L71.6777 128.979L100.601 112.279L96.7705 110.215L67.8477 126.914Z" fill="#00298C" stroke="#1E2532" stroke-width="0.2" stroke-linejoin="round"/>
<path d="M197.125 51.2013V113.147L201.08 115.269L230.881 36.1224L226.935 34L197.125 51.2013Z" fill="#FFA735" stroke="#1E2532" stroke-width="0.2" stroke-linejoin="round"/>
<path d="M201.082 53.332V115.268L242.807 91.1786V42.9996L230.883 36.1211L201.082 53.332Z" fill="#FFC67C" stroke="#1E2532" stroke-width="0.2" stroke-linejoin="round"/>
<mask id="path-281-inside-1" fill="white">
<path d="M225.236 61.0589C229.519 58.5795 232.385 60.2099 232.404 64.6477C232.299 67.0604 231.591 69.4085 230.346 71.4777C229.1 73.547 227.357 75.2717 225.275 76.4947L221.136 78.8583V86.4122L216.843 88.8915L216.766 65.9308L225.236 61.0589ZM225.12 71.9797C225.957 71.4865 226.657 70.7905 227.154 69.956C227.651 69.1214 227.931 68.1751 227.966 67.2043C227.966 65.4002 226.818 64.7442 225.072 65.7378L221.068 68.0436V74.2854L225.072 71.9797"/>
</mask>
<path d="M225.236 61.0589C229.519 58.5795 232.385 60.2099 232.404 64.6477C232.299 67.0604 231.591 69.4085 230.346 71.4777C229.1 73.547 227.357 75.2717 225.275 76.4947L221.136 78.8583V86.4122L216.843 88.8915L216.766 65.9308L225.236 61.0589ZM225.12 71.9797C225.957 71.4865 226.657 70.7905 227.154 69.956C227.651 69.1214 227.931 68.1751 227.966 67.2043C227.966 65.4002 226.818 64.7442 225.072 65.7378L221.068 68.0436V74.2854L225.072 71.9797" fill="white"/>
<path d="M225.236 61.0589L225.336 61.2322L225.336 61.2319L225.236 61.0589ZM232.404 64.6477L232.604 64.6564L232.604 64.6468L232.404 64.6477ZM225.275 76.4947L225.374 76.6683L225.376 76.6671L225.275 76.4947ZM221.136 78.8583L221.037 78.6846L220.936 78.7422V78.8583H221.136ZM221.136 86.4122L221.236 86.5853L221.336 86.5276V86.4122H221.136ZM216.843 88.8915L216.643 88.8922L216.644 89.2373L216.943 89.0647L216.843 88.8915ZM216.766 65.9308L216.666 65.7574L216.565 65.8153L216.566 65.9315L216.766 65.9308ZM227.966 67.2043L228.166 67.2116V67.2043H227.966ZM225.072 65.7378L224.973 65.564L224.972 65.5645L225.072 65.7378ZM221.068 68.0436L220.969 67.8703L220.868 67.928V68.0436H221.068ZM221.068 74.2854H220.868V74.6314L221.168 74.4587L221.068 74.2854ZM225.336 61.2319C227.454 60.006 229.162 59.8311 230.327 60.4368C231.486 61.0396 232.195 62.4637 232.204 64.6485L232.604 64.6468C232.594 62.3939 231.861 60.7839 230.511 60.0819C229.167 59.3828 227.301 59.6323 225.136 60.8858L225.336 61.2319ZM232.204 64.6389C232.1 67.0184 231.402 69.3339 230.174 71.3746L230.517 71.5809C231.78 69.483 232.497 67.1025 232.604 64.6564L232.204 64.6389ZM230.174 71.3746C228.946 73.4153 227.227 75.1161 225.173 76.3222L225.376 76.6671C227.487 75.4273 229.255 73.6787 230.517 71.5809L230.174 71.3746ZM225.175 76.321L221.037 78.6846L221.235 79.0319L225.374 76.6683L225.175 76.321ZM220.936 78.8583V86.4122H221.336V78.8583H220.936ZM221.036 86.239L216.743 88.7183L216.943 89.0647L221.236 86.5853L221.036 86.239ZM217.043 88.8909L216.966 65.9301L216.566 65.9315L216.643 88.8922L217.043 88.8909ZM216.865 66.1042L225.336 61.2322L225.136 60.8855L216.666 65.7574L216.865 66.1042ZM225.222 72.152C226.088 71.6418 226.811 70.9217 227.326 70.0584L226.982 69.8536C226.502 70.6593 225.827 71.3312 225.019 71.8074L225.222 72.152ZM227.326 70.0584C227.84 69.195 228.129 68.216 228.166 67.2116L227.766 67.1969C227.732 68.1343 227.462 69.0479 226.982 69.8536L227.326 70.0584ZM228.166 67.2043C228.166 66.2691 227.868 65.5604 227.267 65.2448C226.672 64.9324 225.869 65.0541 224.973 65.564L225.171 65.9117C226.021 65.4279 226.665 65.3808 227.081 65.599C227.491 65.814 227.766 66.3353 227.766 67.2043H228.166ZM224.972 65.5645L220.969 67.8703L221.168 68.2169L225.172 65.9111L224.972 65.5645ZM220.868 68.0436V74.2854H221.268V68.0436H220.868ZM221.168 74.4587L225.172 72.153L224.972 71.8064L220.969 74.1121L221.168 74.4587Z" fill="#1E2532" mask="url(#path-281-inside-1)"/>
<path d="M197.125 51.2013L201.08 53.3333L230.881 36.1224L226.935 34L197.125 51.2013Z" fill="#FFA735" stroke="#1E2532" stroke-width="0.2" stroke-linejoin="round"/>
</svg>
