<svg width="600" height="600" viewBox="0 0 600 600" fill="none" xmlns="http://www.w3.org/2000/svg">
<path d="M264.539 289.527L300.039 310.027V269.027L264.539 248.527V289.527Z" fill="#31E7B6" stroke="#1E2532" stroke-width="0.2" stroke-linejoin="round"/>
<path d="M335.539 248.527L300.039 269.027V310.027L335.539 289.527V248.527Z" fill="#31E7B6" stroke="#1E2532" stroke-width="0.2" stroke-linejoin="round"/>
<path d="M264.539 248.527L300.039 228.037L335.539 248.527L300.039 269.027L264.539 248.527Z" fill="#31E7B6" stroke="#1E2532" stroke-width="0.2" stroke-linejoin="round"/>
<path d="M300.039 310.029L335.539 330.529V289.529L300.039 269.029V310.029Z" fill="#31E7B6" stroke="#1E2532" stroke-width="0.2" stroke-linejoin="round"/>
<path d="M371.049 269.029L335.539 289.529V330.529L371.049 310.029V269.029Z" fill="#31E7B6" stroke="#1E2532" stroke-width="0.2" stroke-linejoin="round"/>
<path d="M300.039 269.029L335.539 248.529L371.049 269.029L335.539 289.529L300.039 269.029Z" fill="#31E7B6" stroke="#1E2532" stroke-width="0.2" stroke-linejoin="round"/>
<path d="M335.539 330.529L371.049 351.029V310.029L335.539 289.529V330.529Z" fill="#31E7B6" stroke="#1E2532" stroke-width="0.2" stroke-linejoin="round"/>
<path d="M406.551 289.529L371.051 310.029V351.029L406.551 330.529V289.529Z" fill="#31E7B6" stroke="#1E2532" stroke-width="0.2" stroke-linejoin="round"/>
<path d="M335.539 289.529L371.049 269.029L406.549 289.529L371.049 310.029L335.539 289.529Z" fill="#31E7B6" stroke="#1E2532" stroke-width="0.2" stroke-linejoin="round"/>
<path d="M371.047 351.029L406.547 371.529V330.529L371.047 310.029V351.029Z" fill="#31E7B6" stroke="#1E2532" stroke-width="0.2" stroke-linejoin="round"/>
<path d="M442.057 310.029L406.547 330.529V371.529L442.057 351.029V310.029Z" fill="#31E7B6" stroke="#1E2532" stroke-width="0.2" stroke-linejoin="round"/>
<path d="M371.047 310.029L406.547 289.529L442.057 310.029L406.547 330.529L371.047 310.029Z" fill="#31E7B6" stroke="#1E2532" stroke-width="0.2" stroke-linejoin="round"/>
<path d="M406.547 371.529L442.057 392.029V351.029L406.547 330.529V371.529Z" fill="#31E7B6" stroke="#1E2532" stroke-width="0.2" stroke-linejoin="round"/>
<path d="M477.559 330.529L442.059 351.029V392.029L477.559 371.529V330.529Z" fill="#31E7B6" stroke="#1E2532" stroke-width="0.2" stroke-linejoin="round"/>
<path d="M406.547 330.529L442.057 310.029L477.557 330.529L442.057 351.029L406.547 330.529Z" fill="#31E7B6" stroke="#1E2532" stroke-width="0.2" stroke-linejoin="round"/>
<path d="M229.031 310.029L264.541 330.529V289.529L229.031 269.029V310.029Z" fill="#31E7B6" stroke="#1E2532" stroke-width="0.2" stroke-linejoin="round"/>
<path d="M300.043 269.029L264.543 289.529V330.529L300.043 310.029V269.029Z" fill="#31E7B6" stroke="#1E2532" stroke-width="0.2" stroke-linejoin="round"/>
<path d="M229.031 269.029L264.541 248.529L300.041 269.029L264.541 289.529L229.031 269.029Z" fill="#31E7B6" stroke="#1E2532" stroke-width="0.2" stroke-linejoin="round"/>
<path d="M264.539 330.529L300.039 351.029V310.029L264.539 289.529V330.529Z" fill="#31E7B6" stroke="#1E2532" stroke-width="0.2" stroke-linejoin="round"/>
<path d="M335.539 289.529L300.039 310.029V351.029L335.539 330.529V289.529Z" fill="#31E7B6" stroke="#1E2532" stroke-width="0.2" stroke-linejoin="round"/>
<path d="M264.539 289.529L300.039 269.029L335.539 289.529L300.039 310.029L264.539 289.529Z" fill="#31E7B6" stroke="#1E2532" stroke-width="0.2" stroke-linejoin="round"/>
<path d="M300.039 351.029L335.539 371.529V330.529L300.039 310.029V351.029Z" fill="#31E7B6" stroke="#1E2532" stroke-width="0.2" stroke-linejoin="round"/>
<path d="M371.049 310.029L335.539 330.529V371.529L371.049 351.029V310.029Z" fill="#31E7B6" stroke="#1E2532" stroke-width="0.2" stroke-linejoin="round"/>
<path d="M300.039 310.029L335.539 289.529L371.049 310.029L335.539 330.529L300.039 310.029Z" fill="#31E7B6" stroke="#1E2532" stroke-width="0.2" stroke-linejoin="round"/>
<path d="M335.539 371.529L371.049 392.029V351.029L335.539 330.529V371.529Z" fill="#31E7B6" stroke="#1E2532" stroke-width="0.2" stroke-linejoin="round"/>
<path d="M406.551 330.529L371.051 351.029V392.029L406.551 371.529V330.529Z" fill="#31E7B6" stroke="#1E2532" stroke-width="0.2" stroke-linejoin="round"/>
<path d="M335.539 330.529L371.049 310.029L406.549 330.529L371.049 351.029L335.539 330.529Z" fill="#31E7B6" stroke="#1E2532" stroke-width="0.2" stroke-linejoin="round"/>
<path d="M371.047 392.029L406.547 412.519V371.529L371.047 351.029V392.029Z" fill="#31E7B6" stroke="#1E2532" stroke-width="0.2" stroke-linejoin="round"/>
<path d="M442.057 351.029L406.547 371.529V412.519L442.057 392.029V351.029Z" fill="#31E7B6" stroke="#1E2532" stroke-width="0.2" stroke-linejoin="round"/>
<path d="M371.047 351.029L406.547 330.529L442.057 351.029L406.547 371.529L371.047 351.029Z" fill="#31E7B6" stroke="#1E2532" stroke-width="0.2" stroke-linejoin="round"/>
<path d="M193.531 330.529L229.031 351.029V310.029L193.531 289.529V330.529Z" fill="#31E7B6" stroke="#1E2532" stroke-width="0.2" stroke-linejoin="round"/>
<path d="M264.541 289.529L229.031 310.029V351.029L264.541 330.529V289.529Z" fill="#31E7B6" stroke="#1E2532" stroke-width="0.2" stroke-linejoin="round"/>
<path d="M193.531 289.529L229.031 269.029L264.541 289.529L229.031 310.029L193.531 289.529Z" fill="#31E7B6" stroke="#1E2532" stroke-width="0.2" stroke-linejoin="round"/>
<path d="M229.031 351.029L264.541 371.529V330.529L229.031 310.029V351.029Z" fill="#31E7B6" stroke="#1E2532" stroke-width="0.2" stroke-linejoin="round"/>
<path d="M300.043 310.029L264.543 330.529V371.529L300.043 351.029V310.029Z" fill="#31E7B6" stroke="#1E2532" stroke-width="0.2" stroke-linejoin="round"/>
<path d="M229.031 310.029L264.541 289.529L300.041 310.029L264.541 330.529L229.031 310.029Z" fill="#31E7B6" stroke="#1E2532" stroke-width="0.2" stroke-linejoin="round"/>
<path d="M264.539 371.529L300.039 392.029V351.029L264.539 330.529V371.529Z" fill="#31E7B6" stroke="#1E2532" stroke-width="0.2" stroke-linejoin="round"/>
<path d="M335.539 330.529L300.039 351.029V392.029L335.539 371.529V330.529Z" fill="#31E7B6" stroke="#1E2532" stroke-width="0.2" stroke-linejoin="round"/>
<path d="M264.539 330.529L300.039 310.029L335.539 330.529L300.039 351.029L264.539 330.529Z" fill="#31E7B6" stroke="#1E2532" stroke-width="0.2" stroke-linejoin="round"/>
<path d="M300.039 392.029L335.539 412.519V371.529L300.039 351.029V392.029Z" fill="#31E7B6" stroke="#1E2532" stroke-width="0.2" stroke-linejoin="round"/>
<path d="M371.049 351.029L335.539 371.529V412.519L371.049 392.029V351.029Z" fill="#31E7B6" stroke="#1E2532" stroke-width="0.2" stroke-linejoin="round"/>
<path d="M300.039 351.029L335.539 330.529L371.049 351.029L335.539 371.529L300.039 351.029Z" fill="#31E7B6" stroke="#1E2532" stroke-width="0.2" stroke-linejoin="round"/>
<path d="M335.539 412.519L371.049 433.019V392.029L335.539 371.529V412.519Z" fill="#31E7B6" stroke="#1E2532" stroke-width="0.2" stroke-linejoin="round"/>
<path d="M406.551 371.529L371.051 392.029V433.019L406.551 412.519V371.529Z" fill="#06A77C" stroke="#1E2532" stroke-width="0.2" stroke-linejoin="round"/>
<path d="M335.539 371.529L371.049 351.029L406.549 371.529L371.049 392.029L335.539 371.529Z" fill="#31E7B6" stroke="#1E2532" stroke-width="0.2" stroke-linejoin="round"/>
<path d="M158.02 351.029L193.53 371.529V330.529L158.02 310.029V351.029Z" fill="#31E7B6" stroke="#1E2532" stroke-width="0.2" stroke-linejoin="round"/>
<path d="M229.031 310.029L193.531 330.529V371.529L229.031 351.029V310.029Z" fill="#31E7B6" stroke="#1E2532" stroke-width="0.2" stroke-linejoin="round"/>
<path d="M158.02 310.029L193.53 289.529L229.03 310.029L193.53 330.529L158.02 310.029Z" fill="#31E7B6" stroke="#1E2532" stroke-width="0.2" stroke-linejoin="round"/>
<path d="M158.02 310.709L193.53 331.209V290.209L158.02 269.709V310.709Z" fill="#31E7B6" stroke="#1E2532" stroke-width="0.2" stroke-linejoin="round"/>
<path d="M229.031 269.709L193.531 290.209V331.209L229.031 310.709V269.709Z" fill="#31E7B6" stroke="#1E2532" stroke-width="0.2" stroke-linejoin="round"/>
<path d="M158.02 269.709L193.53 249.209L229.03 269.709L193.53 290.209L158.02 269.709Z" fill="#31E7B6" stroke="#1E2532" stroke-width="0.2" stroke-linejoin="round"/>
<path d="M193.531 371.529L229.031 392.029V351.029L193.531 330.529V371.529Z" fill="#31E7B6" stroke="#1E2532" stroke-width="0.2" stroke-linejoin="round"/>
<path d="M264.541 330.529L229.031 351.029V392.029L264.541 371.529V330.529Z" fill="#31E7B6" stroke="#1E2532" stroke-width="0.2" stroke-linejoin="round"/>
<path d="M193.531 330.529L229.031 310.029L264.541 330.529L229.031 351.029L193.531 330.529Z" fill="#31E7B6" stroke="#1E2532" stroke-width="0.2" stroke-linejoin="round"/>
<path d="M229.031 392.029L264.541 412.519V371.529L229.031 351.029V392.029Z" fill="#31E7B6" stroke="#1E2532" stroke-width="0.2" stroke-linejoin="round"/>
<path d="M300.043 351.029L264.543 371.529V412.519L300.043 392.029V351.029Z" fill="#31E7B6" stroke="#1E2532" stroke-width="0.2" stroke-linejoin="round"/>
<path d="M229.031 351.029L264.541 330.529L300.041 351.029L264.541 371.529L229.031 351.029Z" fill="#31E7B6" stroke="#1E2532" stroke-width="0.2" stroke-linejoin="round"/>
<path d="M264.539 412.519L300.039 433.019V392.029L264.539 371.529V412.519Z" fill="#31E7B6" stroke="#1E2532" stroke-width="0.2" stroke-linejoin="round"/>
<path d="M335.539 371.529L300.039 392.029V433.019L335.539 412.519V371.529Z" fill="#31E7B6" stroke="#1E2532" stroke-width="0.2" stroke-linejoin="round"/>
<path d="M264.539 371.529L300.039 351.029L335.539 371.529L300.039 392.029L264.539 371.529Z" fill="#31E7B6" stroke="#1E2532" stroke-width="0.2" stroke-linejoin="round"/>
<path d="M300.039 433.019L335.539 453.519V412.519L300.039 392.029V433.019Z" fill="#31E7B6" stroke="#1E2532" stroke-width="0.2" stroke-linejoin="round"/>
<path d="M371.049 392.029L335.539 412.519V453.519L371.049 433.019V392.029Z" fill="#31E7B6" stroke="#1E2532" stroke-width="0.2" stroke-linejoin="round"/>
<path d="M300.039 392.029L335.539 371.529L371.049 392.029L335.539 412.519L300.039 392.029Z" fill="#31E7B6" stroke="#1E2532" stroke-width="0.2" stroke-linejoin="round"/>
<path d="M122.52 371.529L158.02 392.029V351.029L122.52 330.529V371.529Z" fill="#31E7B6" stroke="#1E2532" stroke-width="0.2" stroke-linejoin="round"/>
<path d="M193.53 330.529L158.02 351.029V392.029L193.53 371.529V330.529Z" fill="#31E7B6" stroke="#1E2532" stroke-width="0.2" stroke-linejoin="round"/>
<path d="M122.52 330.529L158.02 310.029L193.53 330.529L158.02 351.029L122.52 330.529Z" fill="#31E7B6" stroke="#1E2532" stroke-width="0.2" stroke-linejoin="round"/>
<path d="M122.52 331.209L158.02 351.709V310.709L122.52 290.209V331.209Z" fill="#31E7B6" stroke="#1E2532" stroke-width="0.2" stroke-linejoin="round"/>
<path d="M193.53 290.209L158.02 310.709V351.709L193.53 331.209V290.209Z" fill="#31E7B6" stroke="#1E2532" stroke-width="0.2" stroke-linejoin="round"/>
<path d="M122.52 290.209L158.02 269.709L193.53 290.209L158.02 310.709L122.52 290.209Z" fill="#31E7B6" stroke="#1E2532" stroke-width="0.2" stroke-linejoin="round"/>
<path d="M158.02 392.029L193.53 412.519V371.529L158.02 351.029V392.029Z" fill="#31E7B6" stroke="#1E2532" stroke-width="0.2" stroke-linejoin="round"/>
<path d="M229.031 351.029L193.531 371.529V412.519L229.031 392.029V351.029Z" fill="#31E7B6" stroke="#1E2532" stroke-width="0.2" stroke-linejoin="round"/>
<path d="M158.02 351.029L193.53 330.529L229.03 351.029L193.53 371.529L158.02 351.029Z" fill="#31E7B6" stroke="#1E2532" stroke-width="0.2" stroke-linejoin="round"/>
<path d="M193.531 412.519L229.031 433.019V392.029L193.531 371.529V412.519Z" fill="#31E7B6" stroke="#1E2532" stroke-width="0.2" stroke-linejoin="round"/>
<path d="M264.541 371.529L229.031 392.029V433.019L264.541 412.519V371.529Z" fill="#31E7B6" stroke="#1E2532" stroke-width="0.2" stroke-linejoin="round"/>
<path d="M193.531 371.529L229.031 351.029L264.541 371.529L229.031 392.029L193.531 371.529Z" fill="#31E7B6" stroke="#1E2532" stroke-width="0.2" stroke-linejoin="round"/>
<path d="M229.031 433.019L264.541 453.519V412.519L229.031 392.029V433.019Z" fill="#31E7B6" stroke="#1E2532" stroke-width="0.2" stroke-linejoin="round"/>
<path d="M300.043 392.029L264.543 412.519V453.519L300.043 433.019V392.029Z" fill="#31E7B6" stroke="#1E2532" stroke-width="0.2" stroke-linejoin="round"/>
<path d="M229.031 392.029L264.541 371.529L300.041 392.029L264.541 412.519L229.031 392.029Z" fill="#31E7B6" stroke="#1E2532" stroke-width="0.2" stroke-linejoin="round"/>
<path d="M264.539 453.52L300.039 474.02V433.02L264.539 412.52V453.52Z" fill="#31E7B6" stroke="#1E2532" stroke-width="0.2" stroke-linejoin="round"/>
<path d="M335.539 412.52L300.039 433.02V474.02L335.539 453.52V412.52Z" fill="#31E7B6" stroke="#1E2532" stroke-width="0.2" stroke-linejoin="round"/>
<path d="M264.539 412.519L300.039 392.029L335.539 412.519L300.039 433.019L264.539 412.519Z" fill="#31E7B6" stroke="#1E2532" stroke-width="0.2" stroke-linejoin="round"/>
<path d="M442.059 392.029L477.559 412.519V371.529L442.059 351.029V392.029Z" fill="#31E7B6" stroke="#1E2532" stroke-width="0.2" stroke-linejoin="round"/>
<path d="M513.069 351.029L477.559 371.529V412.519L513.069 392.029V351.029Z" fill="#31E7B6" stroke="#1E2532" stroke-width="0.2" stroke-linejoin="round"/>
<path d="M442.059 351.029L477.559 330.529L513.069 351.029L477.559 371.529L442.059 351.029Z" fill="#31E7B6" stroke="#1E2532" stroke-width="0.2" stroke-linejoin="round"/>
<path d="M406.547 412.519L442.057 433.019V392.029L406.547 371.529V412.519Z" fill="#06A77C" stroke="#1E2532" stroke-width="0.2" stroke-linejoin="round"/>
<path d="M477.559 371.529L442.059 392.029V433.019L477.559 412.519V371.529Z" fill="#31E7B6" stroke="#1E2532" stroke-width="0.2" stroke-linejoin="round"/>
<path d="M406.547 371.529L442.057 351.029L477.557 371.529L442.057 392.029L406.547 371.529Z" fill="#31E7B6" stroke="#1E2532" stroke-width="0.2" stroke-linejoin="round"/>
<path d="M371.047 443.488L406.547 463.988V422.988L371.047 402.498V443.488Z" fill="#31E7B6" stroke="#1E2532" stroke-width="0.2" stroke-linejoin="round"/>
<path d="M442.057 402.498L406.547 422.988V463.988L442.057 443.488V402.498Z" fill="#E2E2E2" stroke="#1E2532" stroke-width="0.2" stroke-linejoin="round"/>
<path d="M371.047 402.498L406.547 381.998L442.057 402.498L406.547 422.988L371.047 402.498Z" fill="white" stroke="#1E2532" stroke-width="0.2" stroke-linejoin="round"/>
<path d="M335.539 453.52L371.049 474.02V433.02L335.539 412.52V453.52Z" fill="#31E7B6" stroke="#1E2532" stroke-width="0.2" stroke-linejoin="round"/>
<path d="M406.551 412.52L371.051 433.02V474.02L406.551 453.52V412.52Z" fill="#06A77C" stroke="#1E2532" stroke-width="0.2" stroke-linejoin="round"/>
<path d="M335.539 412.519L371.049 392.029L406.549 412.519L371.049 433.019L335.539 412.519Z" fill="#31E7B6" stroke="#1E2532" stroke-width="0.2" stroke-linejoin="round"/>
<path d="M300.039 474.018L335.539 494.518V453.518L300.039 433.018V474.018Z" fill="#31E7B6" stroke="#1E2532" stroke-width="0.2" stroke-linejoin="round"/>
<path d="M371.049 433.018L335.539 453.518V494.518L371.049 474.018V433.018Z" fill="#06A77C" stroke="#1E2532" stroke-width="0.2" stroke-linejoin="round"/>
<path d="M300.039 433.018L335.539 412.518L371.049 433.018L335.539 453.518L300.039 433.018Z" fill="#31E7B6" stroke="#1E2532" stroke-width="0.2" stroke-linejoin="round"/>
<path d="M477.559 453.52L513.069 474.02V433.02L477.559 412.52V453.52Z" fill="#31E7B6" stroke="#1E2532" stroke-width="0.2" stroke-linejoin="round"/>
<path d="M548.57 412.52L513.07 433.02V474.02L548.57 453.52V412.52Z" fill="#31E7B6" stroke="#1E2532" stroke-width="0.2" stroke-linejoin="round"/>
<path d="M477.559 412.519L513.069 392.029L548.569 412.519L513.069 433.019L477.559 412.519Z" fill="#31E7B6" stroke="#1E2532" stroke-width="0.2" stroke-linejoin="round"/>
<path d="M442.059 474.018L477.559 494.518V453.518L442.059 433.018V474.018Z" fill="#06A77C" stroke="#1E2532" stroke-width="0.2" stroke-linejoin="round"/>
<path d="M513.069 433.018L477.559 453.518V494.518L513.069 474.018V433.018Z" fill="#31E7B6" stroke="#1E2532" stroke-width="0.2" stroke-linejoin="round"/>
<path d="M442.059 433.018L477.559 412.518L513.069 433.018L477.559 453.518L442.059 433.018Z" fill="#31E7B6" stroke="#1E2532" stroke-width="0.2" stroke-linejoin="round"/>
<path d="M406.547 503.498L442.057 523.998V482.998L406.547 462.498V503.498Z" fill="#31E7B6" stroke="#1E2532" stroke-width="0.2" stroke-linejoin="round"/>
<path d="M477.559 462.498L442.059 482.998V523.998L477.559 503.498V462.498Z" fill="#31E7B6" stroke="#1E2532" stroke-width="0.2" stroke-linejoin="round"/>
<path d="M406.547 462.498L442.057 441.998L477.557 462.498L442.057 482.998L406.547 462.498Z" fill="#31E7B6" stroke="#1E2532" stroke-width="0.2" stroke-linejoin="round"/>
<path d="M371.047 515.018L406.547 535.518V494.518L371.047 474.018V515.018Z" fill="#31E7B6" stroke="#1E2532" stroke-width="0.2" stroke-linejoin="round"/>
<path d="M442.057 474.018L406.547 494.518V535.518L442.057 515.018V474.018Z" fill="#31E7B6" stroke="#1E2532" stroke-width="0.2" stroke-linejoin="round"/>
<path d="M371.047 474.018L406.547 453.518L442.057 474.018L406.547 494.518L371.047 474.018Z" fill="#31E7B6" stroke="#1E2532" stroke-width="0.2" stroke-linejoin="round"/>
<path d="M335.539 535.518L371.049 556.018V515.018L335.539 494.518V535.518Z" fill="#06A77C" stroke="#1E2532" stroke-width="0.2" stroke-linejoin="round"/>
<path d="M406.551 494.518L371.051 515.018V556.018L406.551 535.518V494.518Z" fill="#31E7B6" stroke="#1E2532" stroke-width="0.2" stroke-linejoin="round"/>
<path d="M335.539 494.518L371.049 474.018L406.549 494.518L371.049 515.018L335.539 494.518Z" fill="#31E7B6" stroke="#1E2532" stroke-width="0.2" stroke-linejoin="round"/>
<path d="M513.07 474.018L548.57 494.518V453.518L513.07 433.018V474.018Z" fill="#31E7B6" stroke="#1E2532" stroke-width="0.2" stroke-linejoin="round"/>
<path d="M584.08 433.018L548.57 453.518V494.518L584.08 474.018V433.018Z" fill="#06A77C" stroke="#1E2532" stroke-width="0.2" stroke-linejoin="round"/>
<path d="M513.07 433.018L548.57 412.518L584.08 433.018L548.57 453.518L513.07 433.018Z" fill="#06A77C" stroke="#1E2532" stroke-width="0.2" stroke-linejoin="round"/>
<path d="M477.559 494.518L513.069 515.018V474.018L477.559 453.518V494.518Z" fill="#31E7B6" stroke="#1E2532" stroke-width="0.2" stroke-linejoin="round"/>
<path d="M548.57 453.518L513.07 474.018V515.018L548.57 494.518V453.518Z" fill="#06A77C" stroke="#1E2532" stroke-width="0.2" stroke-linejoin="round"/>
<path d="M477.559 453.518L513.069 433.018L548.569 453.518L513.069 474.018L477.559 453.518Z" fill="#31E7B6" stroke="#1E2532" stroke-width="0.2" stroke-linejoin="round"/>
<path d="M477.559 412.519L513.069 433.019V392.029L477.559 371.529V412.519Z" fill="#31E7B6" stroke="#1E2532" stroke-width="0.2" stroke-linejoin="round"/>
<path d="M548.57 371.529L513.07 392.029V433.019L548.57 412.519V371.529Z" fill="#31E7B6" stroke="#1E2532" stroke-width="0.2" stroke-linejoin="round"/>
<path d="M477.559 371.529L513.069 351.029L548.569 371.529L513.069 392.029L477.559 371.529Z" fill="#31E7B6" stroke="#1E2532" stroke-width="0.2" stroke-linejoin="round"/>
<path d="M477.559 371.699L513.069 392.199V351.209L477.559 330.709V371.699Z" fill="#31E7B6" stroke="#1E2532" stroke-width="0.2" stroke-linejoin="round"/>
<path d="M548.57 330.709L513.07 351.209V392.199L548.57 371.699V330.709Z" fill="#31E7B6" stroke="#1E2532" stroke-width="0.2" stroke-linejoin="round"/>
<path d="M477.559 330.709L513.069 310.209L548.569 330.709L513.069 351.209L477.559 330.709Z" fill="#31E7B6" stroke="#1E2532" stroke-width="0.2" stroke-linejoin="round"/>
<path d="M442.059 433.019L477.559 453.519V412.519L442.059 392.029V433.019Z" fill="#06A77C" stroke="#1E2532" stroke-width="0.2" stroke-linejoin="round"/>
<path d="M513.069 392.029L477.559 412.519V453.519L513.069 433.019V392.029Z" fill="#31E7B6" stroke="#1E2532" stroke-width="0.2" stroke-linejoin="round"/>
<path d="M442.059 392.029L477.559 371.529L513.069 392.029L477.559 412.519L442.059 392.029Z" fill="#31E7B6" stroke="#1E2532" stroke-width="0.2" stroke-linejoin="round"/>
<path d="M442.059 392.199L477.559 412.699V371.699L442.059 351.209V392.199Z" fill="#06A77C" stroke="#1E2532" stroke-width="0.2" stroke-linejoin="round"/>
<path d="M513.069 351.209L477.559 371.699V412.699L513.069 392.199V351.209Z" fill="#31E7B6" stroke="#1E2532" stroke-width="0.2" stroke-linejoin="round"/>
<path d="M442.059 351.209L477.559 330.709L513.069 351.209L477.559 371.699L442.059 351.209Z" fill="#31E7B6" stroke="#1E2532" stroke-width="0.2" stroke-linejoin="round"/>
<path d="M513.07 392.199L548.57 412.699V371.699L513.07 351.209V392.199Z" fill="#31E7B6" stroke="#1E2532" stroke-width="0.2" stroke-linejoin="round"/>
<path d="M584.08 351.209L548.57 371.699V412.699L584.08 392.199V351.209Z" fill="#06A77C" stroke="#1E2532" stroke-width="0.2" stroke-linejoin="round"/>
<path d="M513.07 351.209L548.57 330.709L584.08 351.209L548.57 371.699L513.07 351.209Z" fill="#31E7B6" stroke="#1E2532" stroke-width="0.2" stroke-linejoin="round"/>
<path d="M477.559 453.52L513.069 474.02V433.02L477.559 412.52V453.52Z" fill="#06A77C" stroke="#1E2532" stroke-width="0.2" stroke-linejoin="round"/>
<path d="M548.57 412.52L513.07 433.02V474.02L548.57 453.52V412.52Z" fill="#06A77C" stroke="#1E2532" stroke-width="0.2" stroke-linejoin="round"/>
<path d="M477.559 412.519L513.069 392.029L548.569 412.519L513.069 433.019L477.559 412.519Z" fill="#31E7B6" stroke="#1E2532" stroke-width="0.2" stroke-linejoin="round"/>
<path d="M477.559 412.699L513.069 433.199V392.199L477.559 371.699V412.699Z" fill="#06A77C" stroke="#1E2532" stroke-width="0.2" stroke-linejoin="round"/>
<path d="M548.57 371.699L513.07 392.199V433.199L548.57 412.699V371.699Z" fill="#06A77C" stroke="#1E2532" stroke-width="0.2" stroke-linejoin="round"/>
<path d="M477.559 371.699L513.069 351.209L548.569 371.699L513.069 392.199L477.559 371.699Z" fill="#31E7B6" stroke="#1E2532" stroke-width="0.2" stroke-linejoin="round"/>
<path d="M442.059 515.018L477.559 535.518V494.518L442.059 474.018V515.018Z" fill="#31E7B6" stroke="#1E2532" stroke-width="0.2" stroke-linejoin="round"/>
<path d="M513.069 474.018L477.559 494.518V535.518L513.069 515.018V474.018Z" fill="#06A77C" stroke="#1E2532" stroke-width="0.2" stroke-linejoin="round"/>
<path d="M442.059 474.018L477.559 453.518L513.069 474.018L477.559 494.518L442.059 474.018Z" fill="#31E7B6" stroke="#1E2532" stroke-width="0.2" stroke-linejoin="round"/>
<path d="M406.547 535.518L442.057 556.018V515.018L406.547 494.518V535.518Z" fill="#31E7B6" stroke="#1E2532" stroke-width="0.2" stroke-linejoin="round"/>
<path d="M477.559 494.518L442.059 515.018V556.018L477.559 535.518V494.518Z" fill="#06A77C" stroke="#1E2532" stroke-width="0.2" stroke-linejoin="round"/>
<path d="M406.547 494.518L442.057 474.018L477.557 494.518L442.057 515.018L406.547 494.518Z" fill="#31E7B6" stroke="#1E2532" stroke-width="0.2" stroke-linejoin="round"/>
<path d="M371.047 556.018L406.547 576.508V535.518L371.047 515.018V556.018Z" fill="#06A77C" stroke="#1E2532" stroke-width="0.2" stroke-linejoin="round"/>
<path d="M442.057 515.018L406.547 535.518V576.508L442.057 556.018V515.018Z" fill="#06A77C" stroke="#1E2532" stroke-width="0.2" stroke-linejoin="round"/>
<path d="M371.047 515.018L406.547 494.518L442.057 515.018L406.547 535.518L371.047 515.018Z" fill="#31E7B6" stroke="#1E2532" stroke-width="0.2" stroke-linejoin="round"/>
<path d="M87.0078 392.029L122.518 412.519V371.529L87.0078 351.029V392.029Z" fill="#06A77C" stroke="#1E2532" stroke-width="0.2" stroke-linejoin="round"/>
<path d="M158.02 351.029L122.52 371.529V412.519L158.02 392.029V351.029Z" fill="#31E7B6" stroke="#1E2532" stroke-width="0.2" stroke-linejoin="round"/>
<path d="M87.0078 351.029L122.518 330.529L158.018 351.029L122.518 371.529L87.0078 351.029Z" fill="#31E7B6" stroke="#1E2532" stroke-width="0.2" stroke-linejoin="round"/>
<path d="M87.0078 351.709L122.518 372.199V331.209L87.0078 310.709V351.709Z" fill="#06A77C" stroke="#1E2532" stroke-width="0.2" stroke-linejoin="round"/>
<path d="M158.02 310.709L122.52 331.209V372.199L158.02 351.709V310.709Z" fill="#06A77C" stroke="#1E2532" stroke-width="0.2" stroke-linejoin="round"/>
<path d="M87.0078 310.709L122.518 290.209L158.018 310.709L122.518 331.209L87.0078 310.709Z" fill="#31E7B6" stroke="#1E2532" stroke-width="0.2" stroke-linejoin="round"/>
<path d="M122.52 412.519L158.02 433.019V392.029L122.52 371.529V412.519Z" fill="#06A77C" stroke="#1E2532" stroke-width="0.2" stroke-linejoin="round"/>
<path d="M193.53 371.529L158.02 392.029V433.019L193.53 412.519V371.529Z" fill="#31E7B6" stroke="#1E2532" stroke-width="0.2" stroke-linejoin="round"/>
<path d="M122.52 371.529L158.02 351.029L193.53 371.529L158.02 392.029L122.52 371.529Z" fill="#06A77C" stroke="#1E2532" stroke-width="0.2" stroke-linejoin="round"/>
<path d="M131 367.488L166.5 387.988V346.998L131 326.498V367.488Z" fill="#E2E2E2" stroke="#1E2532" stroke-width="0.2" stroke-linejoin="round"/>
<path d="M202.01 326.498L166.5 346.998V387.988L202.01 367.488V326.498Z" fill="white" stroke="#1E2532" stroke-width="0.2" stroke-linejoin="round"/>
<path d="M131 326.498L166.5 305.998L202.01 326.498L166.5 346.998L131 326.498Z" fill="white" stroke="#1E2532" stroke-width="0.2" stroke-linejoin="round"/>
<path d="M158.02 433.019L193.53 453.519V412.519L158.02 392.029V433.019Z" fill="#06A77C" stroke="#1E2532" stroke-width="0.2" stroke-linejoin="round"/>
<path d="M229.031 392.029L193.531 412.519V453.519L229.031 433.019V392.029Z" fill="#31E7B6" stroke="#1E2532" stroke-width="0.2" stroke-linejoin="round"/>
<path d="M158.02 392.029L193.53 371.529L229.03 392.029L193.53 412.519L158.02 392.029Z" fill="#31E7B6" stroke="#1E2532" stroke-width="0.2" stroke-linejoin="round"/>
<path d="M193.531 453.52L229.031 474.02V433.02L193.531 412.52V453.52Z" fill="#06A77C" stroke="#1E2532" stroke-width="0.2" stroke-linejoin="round"/>
<path d="M264.541 412.52L229.031 433.02V474.02L264.541 453.52V412.52Z" fill="#31E7B6" stroke="#1E2532" stroke-width="0.2" stroke-linejoin="round"/>
<path d="M193.531 412.519L229.031 392.029L264.541 412.519L229.031 433.019L193.531 412.519Z" fill="#31E7B6" stroke="#1E2532" stroke-width="0.2" stroke-linejoin="round"/>
<path d="M229.031 474.018L264.541 494.518V453.518L229.031 433.018V474.018Z" fill="#06A77C" stroke="#1E2532" stroke-width="0.2" stroke-linejoin="round"/>
<path d="M300.043 433.018L264.543 453.518V494.518L300.043 474.018V433.018Z" fill="#31E7B6" stroke="#1E2532" stroke-width="0.2" stroke-linejoin="round"/>
<path d="M229.031 433.018L264.541 412.518L300.041 433.018L264.541 453.518L229.031 433.018Z" fill="#31E7B6" stroke="#1E2532" stroke-width="0.2" stroke-linejoin="round"/>
<path d="M264.539 494.518L300.039 515.018V474.018L264.539 453.518V494.518Z" fill="#06A77C" stroke="#1E2532" stroke-width="0.2" stroke-linejoin="round"/>
<path d="M335.539 453.518L300.039 474.018V515.018L335.539 494.518V453.518Z" fill="#06A77C" stroke="#1E2532" stroke-width="0.2" stroke-linejoin="round"/>
<path d="M264.539 453.518L300.039 433.018L335.539 453.518L300.039 474.018L264.539 453.518Z" fill="#31E7B6" stroke="#1E2532" stroke-width="0.2" stroke-linejoin="round"/>
<path d="M51.5 453.52L87.01 474.02V433.02L51.5 412.52V453.52Z" fill="#31E7B6" stroke="#1E2532" stroke-width="0.2" stroke-linejoin="round"/>
<path d="M122.522 412.52L87.0117 433.02V474.02L122.522 453.52V412.52Z" fill="#31E7B6" stroke="#1E2532" stroke-width="0.2" stroke-linejoin="round"/>
<path d="M51.5 412.519L87.01 392.029L122.52 412.519L87.01 433.019L51.5 412.519Z" fill="#31E7B6" stroke="#1E2532" stroke-width="0.2" stroke-linejoin="round"/>
<path d="M87.0078 474.018L122.518 494.518V453.518L87.0078 433.018V474.018Z" fill="#06A77C" stroke="#1E2532" stroke-width="0.2" stroke-linejoin="round"/>
<path d="M158.02 433.018L122.52 453.518V494.518L158.02 474.018V433.018Z" fill="#31E7B6" stroke="#1E2532" stroke-width="0.2" stroke-linejoin="round"/>
<path d="M87.0078 433.018L122.518 412.518L158.018 433.018L122.518 453.518L87.0078 433.018Z" fill="#31E7B6" stroke="#1E2532" stroke-width="0.2" stroke-linejoin="round"/>
<path d="M122.52 494.518L158.02 515.018V474.018L122.52 453.518V494.518Z" fill="#06A77C" stroke="#1E2532" stroke-width="0.2" stroke-linejoin="round"/>
<path d="M193.53 453.518L158.02 474.018V515.018L193.53 494.518V453.518Z" fill="#31E7B6" stroke="#1E2532" stroke-width="0.2" stroke-linejoin="round"/>
<path d="M122.52 453.518L158.02 433.018L193.53 453.518L158.02 474.018L122.52 453.518Z" fill="#31E7B6" stroke="#1E2532" stroke-width="0.2" stroke-linejoin="round"/>
<path d="M158.02 515.018L193.53 535.518V494.518L158.02 474.018V515.018Z" fill="#31E7B6" stroke="#1E2532" stroke-width="0.2" stroke-linejoin="round"/>
<path d="M229.031 474.018L193.531 494.518V535.518L229.031 515.018V474.018Z" fill="#31E7B6" stroke="#1E2532" stroke-width="0.2" stroke-linejoin="round"/>
<path d="M158.02 474.018L193.53 453.518L229.03 474.018L193.53 494.518L158.02 474.018Z" fill="#31E7B6" stroke="#1E2532" stroke-width="0.2" stroke-linejoin="round"/>
<path d="M193.531 535.518L229.031 556.018V515.018L193.531 494.518V535.518Z" fill="#31E7B6" stroke="#1E2532" stroke-width="0.2" stroke-linejoin="round"/>
<path d="M264.541 494.518L229.031 515.018V556.018L264.541 535.518V494.518Z" fill="#31E7B6" stroke="#1E2532" stroke-width="0.2" stroke-linejoin="round"/>
<path d="M193.531 494.518L229.031 474.018L264.541 494.518L229.031 515.018L193.531 494.518Z" fill="#31E7B6" stroke="#1E2532" stroke-width="0.2" stroke-linejoin="round"/>
<path d="M229.031 556.018L264.541 576.508V535.518L229.031 515.018V556.018Z" fill="#06A77C" stroke="#1E2532" stroke-width="0.2" stroke-linejoin="round"/>
<path d="M300.043 515.018L264.543 535.518V576.508L300.043 556.018V515.018Z" fill="#06A77C" stroke="#1E2532" stroke-width="0.2" stroke-linejoin="round"/>
<path d="M229.031 515.018L264.541 494.518L300.041 515.018L264.541 535.518L229.031 515.018Z" fill="#31E7B6" stroke="#1E2532" stroke-width="0.2" stroke-linejoin="round"/>
<path d="M16 474.018L51.5 494.518V453.518L16 433.018V474.018Z" fill="#06A77C" stroke="#1E2532" stroke-width="0.2" stroke-linejoin="round"/>
<path d="M87.01 433.018L51.5 453.518V494.518L87.01 474.018V433.018Z" fill="#06A77C" stroke="#1E2532" stroke-width="0.2" stroke-linejoin="round"/>
<path d="M16 433.018L51.5 412.518L87.01 433.018L51.5 453.518L16 433.018Z" fill="#31E7B6" stroke="#1E2532" stroke-width="0.2" stroke-linejoin="round"/>
<path d="M148.87 489.399L81.08 450.399C74.83 446.799 65.8399 450.689 60.9999 459.089C56.1599 467.489 57.31 477.209 63.54 480.789L131.33 519.789L148.87 489.399Z" fill="#FFDA54" stroke="#1E2532" stroke-width="0.2" stroke-linejoin="round"/>
<path d="M151.438 511.095C156.274 502.695 155.123 492.966 148.867 489.364C142.611 485.762 133.62 489.652 128.784 498.052C123.948 506.452 125.099 516.181 131.354 519.783C137.61 523.384 146.602 519.495 151.438 511.095Z" fill="#FFDA54" stroke="#1E2532" stroke-width="0.2" stroke-linejoin="round"/>
<path d="M122.52 535.518L158.02 556.018V515.018L122.52 494.518V535.518Z" fill="#06A77C" stroke="#1E2532" stroke-width="0.2" stroke-linejoin="round"/>
<path d="M193.53 494.518L158.02 515.018V556.018L193.53 535.518V494.518Z" fill="#31E7B6" stroke="#1E2532" stroke-width="0.2" stroke-linejoin="round"/>
<path d="M122.52 494.518L158.02 474.018L193.53 494.518L158.02 515.018L122.52 494.518Z" fill="#31E7B6" stroke="#1E2532" stroke-width="0.2" stroke-linejoin="round"/>
<path d="M158.02 556.018L193.53 576.508V535.518L158.02 515.018V556.018Z" fill="#06A77C" stroke="#1E2532" stroke-width="0.2" stroke-linejoin="round"/>
<path d="M229.031 515.018L193.531 535.518V576.508L229.031 556.018V515.018Z" fill="#06A77C" stroke="#1E2532" stroke-width="0.2" stroke-linejoin="round"/>
<path d="M158.02 515.018L193.53 494.518L229.03 515.018L193.53 535.518L158.02 515.018Z" fill="#31E7B6" stroke="#1E2532" stroke-width="0.2" stroke-linejoin="round"/>
<path d="M199.977 360.696L305.957 421.876V391.286L199.977 330.096V360.696Z" fill="#444C5B" stroke="#1E2532" stroke-width="0.2" stroke-linejoin="round"/>
<path d="M411.937 330.096L305.957 391.286V421.876L411.937 360.696V330.096Z" fill="#1E2532" stroke="#1E2532" stroke-width="0.2" stroke-linejoin="round"/>
<path d="M199.977 330.096L305.957 268.906L411.937 330.096L305.957 391.286L199.977 330.096Z" fill="#696F79" stroke="#1E2532" stroke-width="0.2" stroke-linejoin="round"/>
<path d="M226.465 330.098L305.955 375.988V314.798L226.465 268.908V330.098Z" fill="#F9B8C4" stroke="#1E2532" stroke-width="0.2" stroke-linejoin="round"/>
<path d="M385.433 268.908V330.098L305.953 375.988V314.798L385.433 268.908Z" fill="#ED889B" stroke="#1E2532" stroke-width="0.2" stroke-linejoin="round"/>
<path d="M226.465 268.908L305.955 223.018L385.435 268.908L305.955 314.798L226.465 268.908Z" fill="#F9B8C4" stroke="#1E2532" stroke-width="0.2" stroke-linejoin="round"/>
<path d="M252.456 95.5964L259.826 91.3164L259.796 102.106L252.426 106.396L252.456 95.5964Z" fill="#31E7B6" stroke="#1E2532" stroke-width="0.2" stroke-linejoin="round"/>
<path d="M224.824 47.4773L232.204 43.1973C235.754 76.1973 256.204 89.2573 259.414 91.0873L259.824 91.3173L252.454 95.5973C252.312 95.5304 252.175 95.4535 252.044 95.3673C248.864 93.5373 228.384 80.5073 224.824 47.4773Z" fill="#FFA735" stroke="#1E2532" stroke-width="0.2" stroke-linejoin="round"/>
<path d="M252.695 52.8874L260.065 48.6074L260.155 59.3274L252.775 63.6174L252.695 52.8874Z" fill="#31E7B6" stroke="#1E2532" stroke-width="0.2" stroke-linejoin="round"/>
<path d="M215.695 31.6669L223.075 27.377C223.535 27.647 232.295 32.7369 241.525 38.0669C250.755 43.3969 260.005 48.7069 260.065 48.6069L252.695 52.8869C252.635 52.9869 243.385 47.6869 234.155 42.3569C224.925 37.0269 216.155 31.9369 215.695 31.6669Z" fill="#FFA735" stroke="#1E2532" stroke-width="0.2" stroke-linejoin="round"/>
<path d="M252.697 52.886L252.777 63.616L224.827 47.476C228.387 80.476 248.827 93.536 252.047 95.366C252.178 95.4523 252.315 95.5291 252.457 95.596V106.396C215.117 84.836 215.697 34.326 215.727 31.666C216.187 31.936 224.947 37.026 234.187 42.356C243.427 47.686 252.637 52.986 252.697 52.886Z" fill="#FFD954" stroke="#1E2532" stroke-width="0.2" stroke-linejoin="round"/>
<path d="M344.534 252.478V268.568C344.534 274.418 340.674 280.258 332.994 284.728C317.534 293.728 292.384 293.728 276.824 284.728C268.994 280.208 265.074 274.268 265.094 268.348L265.144 252.258C265.144 258.178 269.034 264.118 276.864 268.638C292.434 277.638 317.574 277.638 333.034 268.638C340.694 264.208 344.534 258.328 344.534 252.478Z" fill="#FFA735" stroke="#1E2532" stroke-width="0.2" stroke-linejoin="round"/>
<path d="M342.817 240.338L326.277 215.928H284.027L266.837 240.348C265.7 243.229 265.116 246.3 265.117 249.398V256.578C265.117 256.578 270.927 265.218 276.837 268.638C292.407 277.638 317.547 277.638 333.007 268.638C338.887 265.208 344.537 256.578 344.537 256.578V249.418C344.544 246.31 343.96 243.228 342.817 240.338V240.338Z" fill="#FFD954" stroke="#1E2532" stroke-width="0.2" stroke-linejoin="round"/>
<path d="M326.273 180.206L326.183 213.846C326.183 217.116 324.183 220.396 320.053 222.896C311.853 227.896 298.503 227.896 290.253 222.896C286.093 220.356 284.023 217.036 284.023 213.716L284.113 180.086C284.113 183.406 286.183 186.726 290.343 189.266C298.593 194.266 311.943 194.266 320.143 189.266C324.223 186.766 326.263 183.496 326.273 180.206Z" fill="#FFA735" stroke="#1E2532" stroke-width="0.2" stroke-linejoin="round"/>
<path d="M326.251 180.2C326.273 173.081 316.854 167.28 305.212 167.243C293.57 167.207 284.114 172.948 284.091 180.067C284.069 187.186 293.489 192.987 305.131 193.023C316.773 193.06 326.229 187.319 326.251 180.2Z" fill="#31E7B6" stroke="#1E2532" stroke-width="0.2" stroke-miterlimit="10"/>
<path d="M232.999 65.998C232.999 65.998 224.533 191.798 304.803 196.398C385.073 200.998 377.5 65.998 377.5 65.998H232.999Z" fill="#FFD954" stroke="#1E2532" stroke-width="0.2" stroke-linejoin="round"/>
<path d="M377.525 64.8607C377.525 41.7421 345.164 23.0007 305.245 23.0007C265.326 23.0007 232.965 41.7421 232.965 64.8607C232.965 87.9793 265.326 106.721 305.245 106.721C345.164 106.721 377.525 87.9793 377.525 64.8607Z" fill="#FFD954" stroke="#1E2532" stroke-width="0.2" stroke-linejoin="round"/>
<path d="M369.881 64.9266C369.936 45.2165 341.196 29.1579 305.688 29.0588C270.18 28.9596 241.35 44.8574 241.295 64.5675C241.24 84.2776 269.98 100.336 305.489 100.435C340.997 100.535 369.826 84.6367 369.881 64.9266Z" fill="#FFA735" stroke="#1E2532" stroke-width="0.2" stroke-linejoin="round"/>
<path d="M389.154 158.457C388.157 160.034 386.957 161.473 385.584 162.737C384.711 163.535 383.755 164.239 382.734 164.837L375.004 169.327C380.554 166.097 383.824 159.667 385.744 153.057C387.572 146.258 388.49 139.247 388.474 132.207L396.204 127.717C396.224 129.337 396.324 147.407 389.154 158.457Z" fill="#FFA735" stroke="#1E2532" stroke-width="0.2" stroke-linejoin="round"/>
<path d="M377.136 152.208L369.406 156.698C361.776 161.128 352.236 156.138 350.116 154.918L349.676 154.658L357.416 150.158L357.846 150.418C359.976 151.608 369.536 156.598 377.136 152.208Z" fill="#FFA735" stroke="#1E2532" stroke-width="0.2" stroke-linejoin="round"/>
<path d="M349.685 109.688C349.745 109.858 359.445 115.497 369.125 121.087C378.805 126.677 387.995 131.947 388.475 132.227C388.475 135.037 388.805 188.537 349.645 165.927V154.617L350.085 154.878C353.415 156.798 374.905 167.937 378.805 137.707L349.535 120.787L349.685 109.688Z" fill="#FFD954" stroke="#1E2532" stroke-width="0.2" stroke-linejoin="round"/>
<path d="M349.684 109.688L357.414 105.188C357.474 105.368 367.174 110.997 376.854 116.587C386.534 122.177 395.724 127.447 396.204 127.727L388.474 132.227C387.994 131.947 378.804 126.677 369.124 121.087C359.444 115.497 349.744 109.858 349.684 109.688Z" fill="#FFA735" stroke="#1E2532" stroke-width="0.2" stroke-linejoin="round"/>
<path d="M232.727 318.416V287.816L297.787 325.416V355.976L232.727 318.416Z" fill="#1A49BA" stroke="#1E2532" stroke-width="0.2" stroke-miterlimit="10"/>
<path d="M370.781 244.209C370.781 244.209 353.301 161.509 372.951 124.089L380.541 118.709L387.641 122.799L379.101 127.729C379.101 127.729 365.101 176.789 376.981 240.949L370.781 244.209Z" fill="#1A49BA" stroke="#1E2532" stroke-width="0.2" stroke-linejoin="round"/>
<path d="M369.961 309.029C371.436 308.48 372.864 307.811 374.231 307.029L379.871 310.309C378.505 311.092 377.077 311.76 375.601 312.309L369.961 309.029Z" fill="#31E7B6" stroke="#1E2532" stroke-width="0.2" stroke-linejoin="round"/>
<path d="M398.47 265.01C398.47 257.34 395.74 251.95 391.37 249.41L397.01 252.69C401.38 255.22 404.08 260.62 404.11 268.28C404.11 283.71 393.29 302.52 379.87 310.28L374.23 307C387.65 299.21 398.54 280.44 398.47 265.01Z" fill="#31E7B6" stroke="#1E2532" stroke-width="0.2" stroke-linejoin="round"/>
<path d="M362.281 306.21C365.691 306.89 369.801 306.06 374.221 303.51L379.861 306.79C375.441 309.34 371.331 310.17 367.921 309.49L362.281 306.21Z" fill="#31E7B6" stroke="#1E2532" stroke-width="0.2" stroke-linejoin="round"/>
<path d="M395.469 266.739C395.469 260.009 393.079 255.279 389.249 253.059L394.889 256.329C398.719 258.559 401.089 263.329 401.109 270.009C401.109 283.539 391.639 300.009 379.859 306.829L374.219 303.549C385.999 296.749 395.539 280.269 395.469 266.739Z" fill="#31E7B6" stroke="#1E2532" stroke-width="0.2" stroke-linejoin="round"/>
<path d="M356.922 308.689C360.392 310.689 364.922 310.919 369.922 309.029L375.562 312.299C370.562 314.189 365.992 313.979 362.562 311.959L356.922 308.689Z" fill="#31E7B6" stroke="#1E2532" stroke-width="0.2" stroke-linejoin="round"/>
<path d="M359.039 305.039C360.046 305.617 361.14 306.025 362.279 306.249L367.919 309.529C366.778 309.308 365.682 308.896 364.679 308.309L359.039 305.039Z" fill="#31E7B6" stroke="#1E2532" stroke-width="0.2" stroke-linejoin="round"/>
<path d="M389.252 253.06L394.892 256.33C391.012 254.08 385.642 254.4 379.722 257.82L374.082 254.55C380.012 251.12 385.382 250.8 389.252 253.06Z" fill="#31E7B6" stroke="#1E2532" stroke-width="0.2" stroke-linejoin="round"/>
<path d="M391.37 249.409L397.01 252.689C392.59 250.119 386.46 250.479 379.71 254.379L374.07 251.099C380.83 247.209 386.95 246.839 391.37 249.409Z" fill="#31E7B6" stroke="#1E2532" stroke-width="0.2" stroke-linejoin="round"/>
<path d="M393.482 245.79L399.122 249.07C395.072 246.72 389.752 246.55 383.812 248.95L378.172 245.67C384.112 243.28 389.432 243.44 393.482 245.79Z" fill="#FFA735" stroke="#1E2532" stroke-width="0.2" stroke-linejoin="round"/>
<path d="M377.03 243.62C377.03 242 376.53 240.85 375.77 240.41L381.41 243.69C382.16 244.13 382.66 245.28 382.67 246.9C382.664 247.826 382.523 248.746 382.25 249.63L376.61 246.36C376.882 245.472 377.024 244.549 377.03 243.62V243.62Z" fill="#FFA735" stroke="#1E2532" stroke-width="0.2" stroke-linejoin="round"/>
<path d="M364.68 308.309L359.04 305.039C355.22 302.809 352.84 298.039 352.82 291.359C352.82 277.819 362.3 261.359 374.08 254.549L379.72 257.819C367.94 264.619 358.42 281.099 358.46 294.639C358.48 301.359 360.85 306.089 364.68 308.309Z" fill="#31E7B6" stroke="#1E2532" stroke-width="0.2" stroke-linejoin="round"/>
<path d="M394.842 291.035C403.183 276.681 403.205 261.128 394.891 256.297C386.578 251.466 373.076 259.186 364.735 273.541C356.394 287.895 356.372 303.447 364.686 308.278C373 313.109 386.501 305.389 394.842 291.035Z" fill="#FFD954" stroke="#1E2532" stroke-width="0.2" stroke-linejoin="round"/>
<path d="M362.539 311.96L356.899 308.69C352.539 306.15 349.829 300.76 349.809 293.09C349.809 277.65 360.619 258.86 374.049 251.09L379.689 254.37C366.249 262.13 355.399 280.92 355.449 296.37C355.539 304.03 358.199 309.43 362.539 311.96Z" fill="#31E7B6" stroke="#1E2532" stroke-width="0.2" stroke-linejoin="round"/>
<path d="M360.46 315.58L354.82 312.3C349.92 309.46 346.88 303.4 346.82 294.8C346.82 279.09 356.82 260.27 369.91 250.42C370.42 250.03 370.91 249.66 371.47 249.3C372.31 248.73 373.16 248.19 374.02 247.69C374.88 247.19 375.73 246.75 376.57 246.36C377.09 246.11 377.57 245.88 378.13 245.67L383.77 248.95C383.25 249.16 382.77 249.39 382.21 249.63C381.37 250.03 380.52 250.47 379.66 250.97C378.8 251.47 377.95 251.97 377.11 252.58C376.58 252.94 376.06 253.31 375.55 253.7C362.44 263.55 352.41 282.37 352.46 298.08C352.54 306.68 355.54 312.73 360.46 315.58Z" fill="#FFA735" stroke="#1E2532" stroke-width="0.2" stroke-linejoin="round"/>
<path d="M383.809 248.949C396.929 243.649 407.029 250.859 407.069 266.569C407.119 283.879 394.939 304.979 379.879 313.679C364.819 322.379 352.539 315.389 352.539 298.079C352.489 282.369 362.539 263.549 375.629 253.699C376.139 253.309 376.629 252.939 377.189 252.579C378.029 251.999 378.879 251.469 379.739 250.969C380.599 250.469 381.449 250.029 382.289 249.629C382.769 249.389 383.289 249.209 383.809 248.949ZM379.869 310.269C393.289 302.519 404.149 283.709 404.109 268.269C404.069 252.829 393.109 246.619 379.709 254.369C366.309 262.119 355.419 280.919 355.469 296.369C355.519 311.819 366.469 318.029 379.869 310.269Z" fill="#FFD954" stroke="#1E2532" stroke-width="0.2" stroke-linejoin="round"/>
<path d="M379.709 254.379C393.129 246.629 404.059 252.849 404.109 268.279C404.159 283.709 393.289 302.519 379.869 310.279C366.449 318.039 355.509 311.799 355.469 296.379C355.429 280.959 366.269 262.139 379.709 254.379ZM379.859 306.829C391.639 300.029 401.149 283.539 401.109 270.009C401.069 256.479 391.499 251.009 379.719 257.819C367.939 264.629 358.419 281.099 358.459 294.639C358.499 308.179 368.079 313.639 379.859 306.829Z" fill="#FFA735" stroke="#1E2532" stroke-width="0.2" stroke-linejoin="round"/>
<path d="M376.612 237.99C376.209 237.777 375.755 237.679 375.301 237.705C374.846 237.732 374.407 237.882 374.032 238.14C371.582 239.56 369.602 243.92 369.622 247.9C369.612 248.751 369.723 249.599 369.952 250.42L375.592 253.7C375.36 252.88 375.245 252.031 375.252 251.18C375.252 247.18 377.252 242.83 379.672 241.42C380.046 241.159 380.485 241.007 380.94 240.98C381.396 240.954 381.85 241.054 382.252 241.27L376.612 237.99Z" fill="#FFA735" stroke="#1E2532" stroke-width="0.2" stroke-linejoin="round"/>
<path d="M379.67 241.419C382.12 240.009 384.12 242.079 384.13 246.049C384.127 247.025 384.02 247.997 383.81 248.949C383.29 249.159 382.81 249.389 382.25 249.629C382.523 248.745 382.664 247.825 382.67 246.899C382.67 244.229 381.32 242.839 379.67 243.789C378.02 244.739 376.67 247.669 376.67 250.329C376.648 251.101 376.795 251.869 377.1 252.579C376.57 252.939 376.05 253.309 375.54 253.699C375.307 252.879 375.193 252.031 375.199 251.179C375.239 247.209 377.22 242.829 379.67 241.419Z" fill="#FFD954" stroke="#1E2532" stroke-width="0.2" stroke-linejoin="round"/>
<path d="M382.809 268.969L382.879 293.579L378.289 296.209V278.279L374.539 280.419V277.079C376.58 275.607 378.125 273.549 378.969 271.179L382.809 268.969Z" fill="white"/>
<path d="M378.539 250.377C383.169 227.237 384.149 176.687 384.679 163.537C387.607 160.797 389.968 157.508 391.629 153.857C392.629 176.587 388.319 232.027 384.859 242.757C382.859 248.847 378.539 250.377 378.539 250.377Z" fill="#1A49BA" stroke="#1E2532" stroke-width="0.2" stroke-linejoin="round"/>
<path d="M250.77 308.668L248.03 316.588L246.31 315.598L244.66 308.468L244.59 308.428L242.89 313.628L241.19 312.638L238.5 301.588L240.33 302.648L242.02 309.998L242.08 310.038L243.81 304.658L245.46 305.608L247.15 312.958L247.21 312.998L248.94 307.618L250.77 308.668Z" fill="white"/>
<path d="M253.78 310.409L253.75 319.899L251.98 318.879L252.01 309.389L253.78 310.409Z" fill="white"/>
<path d="M263.269 315.889L263.249 325.379L261.659 324.459L257.659 316.249L257.649 322.149L255.879 321.129L255.909 311.639L257.489 312.559L261.489 320.759L261.499 314.869L263.269 315.889Z" fill="white"/>
<path d="M272.769 321.377L272.749 330.867L271.159 329.947L267.159 321.727L267.149 327.627L265.379 326.607L265.409 317.127L266.999 318.037L270.989 326.247L271.009 320.357L272.769 321.377Z" fill="white"/>
<path d="M281.039 326.147L281.029 328.037L276.669 325.527L276.659 327.357L280.079 329.327L280.069 331.157L276.659 329.187L276.649 331.217L281.129 333.797L281.119 335.697L274.879 332.097L274.909 322.607L281.039 326.147Z" fill="white"/>
<path d="M287.86 336.059L289.56 340.579L287.62 339.449L286.15 335.449L284.5 334.499V337.619L282.73 336.619V327.139L286.38 329.249C287.238 329.741 287.954 330.446 288.46 331.295C288.967 332.145 289.246 333.11 289.27 334.099C289.28 336.269 287.93 336.069 287.86 336.059ZM286.33 333.679C286.99 334.059 287.46 333.789 287.46 333.049C287.447 332.658 287.338 332.277 287.143 331.939C286.948 331.6 286.672 331.315 286.34 331.109L284.52 330.109V332.679L286.34 333.729" fill="white"/>
<path d="M513.8 376.598C530.258 376.598 543.6 363.256 543.6 346.798C543.6 330.34 530.258 316.998 513.8 316.998C497.342 316.998 484 330.34 484 346.798C484 363.256 497.342 376.598 513.8 376.598Z" fill="#FE595A" stroke="#1E2532" stroke-width="0.2" stroke-linejoin="round"/>
<path d="M69.2578 402.279L87.0078 412.519V392.029L69.2578 381.779V402.279Z" fill="white" stroke="#1E2532" stroke-width="0.2" stroke-linejoin="round"/>
<path d="M104.758 381.779L87.0078 392.029V412.519L104.758 402.279V381.779Z" fill="#E2E2E2" stroke="#1E2532" stroke-width="0.2" stroke-linejoin="round"/>
<path d="M69.2578 381.779L87.0078 371.529L104.758 381.779L87.0078 392.029L69.2578 381.779Z" fill="white" stroke="#1E2532" stroke-width="0.2" stroke-linejoin="round"/>
<path d="M212.469 492.023L234.95 504.998V479.049L212.469 466.074V492.023Z" fill="#1BB5FF" stroke="#1E2532" stroke-width="0.2" stroke-linejoin="round"/>
<path d="M257.417 466.074L234.949 479.049V504.998L257.417 492.023V466.074Z" fill="#0099FF" stroke="#1E2532" stroke-width="0.2" stroke-linejoin="round"/>
<path d="M212.469 466.074L234.95 453.1L257.418 466.074L234.95 479.049L212.469 466.074Z" fill="#1BB5FF" stroke="#1E2532" stroke-width="0.2" stroke-linejoin="round"/>
<path d="M224 459.266L234.948 465.585V452.948L224 446.629V459.266Z" fill="white" stroke="#1E2532" stroke-width="0.2" stroke-linejoin="round"/>
<path d="M245.891 446.629L234.949 452.948V465.585L245.891 459.266V446.629Z" fill="#E2E2E2" stroke="#1E2532" stroke-width="0.2" stroke-linejoin="round"/>
<path d="M224 446.627L234.948 440.309L245.891 446.627L234.948 452.946L224 446.627Z" fill="white" stroke="#1E2532" stroke-width="0.2" stroke-linejoin="round"/>
<path d="M389.551 455.738V512.738C389.551 517.998 396.931 522.258 406.041 522.258C415.151 522.258 422.541 517.998 422.541 512.738V455.738H389.551Z" fill="#1BB5FF" stroke="black" stroke-width="0.2" stroke-linejoin="round"/>
<path d="M406.039 465.269C415.152 465.269 422.539 461.002 422.539 455.739C422.539 450.476 415.152 446.209 406.039 446.209C396.926 446.209 389.539 450.476 389.539 455.739C389.539 461.002 396.926 465.269 406.039 465.269Z" fill="#0099FF" stroke="black" stroke-width="0.2" stroke-linejoin="round"/>
<path d="M158.02 392.699L193.53 413.199V372.199L158.02 351.709V392.699Z" fill="#06A77C" stroke="#1E2532" stroke-width="0.2" stroke-linejoin="round"/>
<path d="M229.031 351.709L193.531 372.199V413.199L229.031 392.699V351.709Z" fill="#31E7B6" stroke="#1E2532" stroke-width="0.2" stroke-linejoin="round"/>
<path d="M158.02 351.709L193.53 331.209L229.03 351.709L193.53 372.199L158.02 351.709Z" fill="#31E7B6" stroke="#1E2532" stroke-width="0.2" stroke-linejoin="round"/>
<path d="M193.531 413.199L229.031 433.699V392.699L193.531 372.199V413.199Z" fill="#06A77C" stroke="#1E2532" stroke-width="0.2" stroke-linejoin="round"/>
<path d="M264.541 372.199L229.031 392.699V433.699L264.541 413.199V372.199Z" fill="#06A77C" stroke="#1E2532" stroke-width="0.2" stroke-linejoin="round"/>
<path d="M193.531 372.199L229.031 351.709L264.541 372.199L229.031 392.699L193.531 372.199Z" fill="#31E7B6" stroke="#1E2532" stroke-width="0.2" stroke-linejoin="round"/>
</svg>
