<svg width="600" height="600" viewBox="0 0 600 600" fill="none" xmlns="http://www.w3.org/2000/svg">
<path d="M69.5117 398.039L105.012 418.539V377.539L69.5117 357.049V398.039Z" fill="#B8C2F9" stroke="#1E2532" stroke-width="0.2" stroke-linejoin="round"/>
<path d="M140.522 357.049L105.012 377.539V418.539L140.522 398.039V357.049Z" fill="#B8C2F9" stroke="#1E2532" stroke-width="0.2" stroke-linejoin="round"/>
<path d="M69.5117 357.049L105.012 336.549L140.522 357.049L105.012 377.539L69.5117 357.049Z" fill="#B8C2F9" stroke="#1E2532" stroke-width="0.2" stroke-linejoin="round"/>
<path d="M34 418.539L69.51 439.039V398.039L34 377.539V418.539Z" fill="#6E80E3" stroke="#1E2532" stroke-width="0.2" stroke-linejoin="round"/>
<path d="M105.012 377.539L69.5117 398.039V439.039L105.012 418.539V377.539Z" fill="#6E80E3" stroke="#1E2532" stroke-width="0.2" stroke-linejoin="round"/>
<path d="M34 377.539L69.51 357.049L105.01 377.539L69.51 398.039L34 377.539Z" fill="#B8C2F9" stroke="#1E2532" stroke-width="0.2" stroke-linejoin="round"/>
<path d="M69.5117 480.039L105.012 500.539V459.539L69.5117 439.039V480.039Z" fill="#6E80E3" stroke="#1E2532" stroke-width="0.2" stroke-linejoin="round"/>
<path d="M140.522 439.039L105.012 459.539V500.539L140.522 480.039V439.039Z" fill="#B8C2F9" stroke="#1E2532" stroke-width="0.2" stroke-linejoin="round"/>
<path d="M69.5117 439.039L105.012 418.539L140.522 439.039L105.012 459.539L69.5117 439.039Z" fill="#B8C2F9" stroke="#1E2532" stroke-width="0.2" stroke-linejoin="round"/>
<path d="M105.012 500.539L140.522 521.039V480.039L105.012 459.539V500.539Z" fill="#6E80E3" stroke="#1E2532" stroke-width="0.2" stroke-linejoin="round"/>
<path d="M176.023 459.539L140.523 480.039V521.039L176.023 500.539V459.539Z" fill="#B8C2F9" stroke="#1E2532" stroke-width="0.2" stroke-linejoin="round"/>
<path d="M105.012 459.539L140.522 439.039L176.022 459.539L140.522 480.039L105.012 459.539Z" fill="#B8C2F9" stroke="#1E2532" stroke-width="0.2" stroke-linejoin="round"/>
<path d="M140.52 521.039L176.02 541.529V500.539L140.52 480.039V521.039Z" fill="#6E80E3" stroke="#1E2532" stroke-width="0.2" stroke-linejoin="round"/>
<path d="M211.53 480.039L176.02 500.539V541.529L211.53 521.039V480.039Z" fill="#B8C2F9" stroke="#1E2532" stroke-width="0.2" stroke-linejoin="round"/>
<path d="M140.52 480.039L176.02 459.539L211.53 480.039L176.02 500.539L140.52 480.039Z" fill="#B8C2F9" stroke="#1E2532" stroke-width="0.2" stroke-linejoin="round"/>
<path d="M176.18 541.529L211.68 562.029V521.039L176.18 500.539V541.529Z" fill="#6E80E3" stroke="#1E2532" stroke-width="0.2" stroke-linejoin="round"/>
<path d="M247.19 500.539L211.68 521.039V562.029L247.19 541.529V500.539Z" fill="#B8C2F9" stroke="#1E2532" stroke-width="0.2" stroke-linejoin="round"/>
<path d="M176.18 500.539L211.68 480.039L247.19 500.539L211.68 521.039L176.18 500.539Z" fill="#B8C2F9" stroke="#1E2532" stroke-width="0.2" stroke-linejoin="round"/>
<path d="M211.531 562.029L247.031 582.529V541.529L211.531 521.039V562.029Z" fill="#6E80E3" stroke="#1E2532" stroke-width="0.2" stroke-linejoin="round"/>
<path d="M282.541 521.039L247.031 541.529V582.529L282.541 562.029V521.039Z" fill="#B8C2F9" stroke="#1E2532" stroke-width="0.2" stroke-linejoin="round"/>
<path d="M211.531 521.039L247.031 500.539L282.541 521.039L247.031 541.529L211.531 521.039Z" fill="#B8C2F9" stroke="#1E2532" stroke-width="0.2" stroke-linejoin="round"/>
<path d="M282.539 234.049L318.039 254.549V213.549L282.539 193.049V234.049Z" fill="#B8C2F9" stroke="#1E2532" stroke-width="0.2" stroke-linejoin="round"/>
<path d="M353.539 193.049L318.039 213.549V254.549L353.539 234.049V193.049Z" fill="#B8C2F9" stroke="#1E2532" stroke-width="0.2" stroke-linejoin="round"/>
<path d="M282.539 193.049L318.039 172.559L353.539 193.049L318.039 213.549L282.539 193.049Z" fill="#B8C2F9" stroke="#1E2532" stroke-width="0.2" stroke-linejoin="round"/>
<path d="M318.039 254.549L353.539 275.049V234.049L318.039 213.549V254.549Z" fill="#B8C2F9" stroke="#1E2532" stroke-width="0.2" stroke-linejoin="round"/>
<path d="M389.049 213.549L353.539 234.049V275.049L389.049 254.549V213.549Z" fill="#B8C2F9" stroke="#1E2532" stroke-width="0.2" stroke-linejoin="round"/>
<path d="M318.039 213.549L353.539 193.049L389.049 213.549L353.539 234.049L318.039 213.549Z" fill="#B8C2F9" stroke="#1E2532" stroke-width="0.2" stroke-linejoin="round"/>
<path d="M353.539 275.049L389.049 295.549V254.549L353.539 234.049V275.049Z" fill="#B8C2F9" stroke="#1E2532" stroke-width="0.2" stroke-linejoin="round"/>
<path d="M424.551 234.049L389.051 254.549V295.549L424.551 275.049V234.049Z" fill="#B8C2F9" stroke="#1E2532" stroke-width="0.2" stroke-linejoin="round"/>
<path d="M353.539 234.049L389.049 213.549L424.549 234.049L389.049 254.549L353.539 234.049Z" fill="#B8C2F9" stroke="#1E2532" stroke-width="0.2" stroke-linejoin="round"/>
<path d="M389.051 295.549L424.551 316.049V275.049L389.051 254.549V295.549Z" fill="#B8C2F9" stroke="#1E2532" stroke-width="0.2" stroke-linejoin="round"/>
<path d="M460.061 254.549L424.551 275.049V316.049L460.061 295.549V254.549Z" fill="#B8C2F9" stroke="#1E2532" stroke-width="0.2" stroke-linejoin="round"/>
<path d="M389.051 254.549L424.551 234.049L460.061 254.549L424.551 275.049L389.051 254.549Z" fill="#B8C2F9" stroke="#1E2532" stroke-width="0.2" stroke-linejoin="round"/>
<path d="M424.551 316.049L460.061 336.549V295.549L424.551 275.049V316.049Z" fill="#B8C2F9" stroke="#1E2532" stroke-width="0.2" stroke-linejoin="round"/>
<path d="M495.562 275.049L460.062 295.549V336.549L495.562 316.049V275.049Z" fill="#B8C2F9" stroke="#1E2532" stroke-width="0.2" stroke-linejoin="round"/>
<path d="M424.551 275.049L460.061 254.549L495.561 275.049L460.061 295.549L424.551 275.049Z" fill="#B8C2F9" stroke="#1E2532" stroke-width="0.2" stroke-linejoin="round"/>
<path d="M460.059 336.549L495.559 357.049V316.049L460.059 295.549V336.549Z" fill="#B8C2F9" stroke="#1E2532" stroke-width="0.2" stroke-linejoin="round"/>
<path d="M531.069 295.549L495.559 316.049V357.049L531.069 336.549V295.549Z" fill="#6E80E3" stroke="#1E2532" stroke-width="0.2" stroke-linejoin="round"/>
<path d="M460.059 295.549L495.559 275.049L531.069 295.549L495.559 316.049L460.059 295.549Z" fill="#B8C2F9" stroke="#1E2532" stroke-width="0.2" stroke-linejoin="round"/>
<path d="M247.031 254.549L282.541 275.049V234.049L247.031 213.549V254.549Z" fill="#B8C2F9" stroke="#1E2532" stroke-width="0.2" stroke-linejoin="round"/>
<path d="M318.043 213.549L282.543 234.049V275.049L318.043 254.549V213.549Z" fill="#B8C2F9" stroke="#1E2532" stroke-width="0.2" stroke-linejoin="round"/>
<path d="M247.031 213.549L282.541 193.049L318.041 213.549L282.541 234.049L247.031 213.549Z" fill="#B8C2F9" stroke="#1E2532" stroke-width="0.2" stroke-linejoin="round"/>
<path d="M282.539 275.049L318.039 295.549V254.549L282.539 234.049V275.049Z" fill="#B8C2F9" stroke="#1E2532" stroke-width="0.2" stroke-linejoin="round"/>
<path d="M353.539 234.049L318.039 254.549V295.549L353.539 275.049V234.049Z" fill="#B8C2F9" stroke="#1E2532" stroke-width="0.2" stroke-linejoin="round"/>
<path d="M282.539 234.049L318.039 213.549L353.539 234.049L318.039 254.549L282.539 234.049Z" fill="#B8C2F9" stroke="#1E2532" stroke-width="0.2" stroke-linejoin="round"/>
<path d="M318.039 295.549L353.539 316.049V275.049L318.039 254.549V295.549Z" fill="#B8C2F9" stroke="#1E2532" stroke-width="0.2" stroke-linejoin="round"/>
<path d="M389.049 254.549L353.539 275.049V316.049L389.049 295.549V254.549Z" fill="#B8C2F9" stroke="#1E2532" stroke-width="0.2" stroke-linejoin="round"/>
<path d="M318.039 254.549L353.539 234.049L389.049 254.549L353.539 275.049L318.039 254.549Z" fill="#B8C2F9" stroke="#1E2532" stroke-width="0.2" stroke-linejoin="round"/>
<path d="M353.539 316.049L389.049 336.549V295.549L353.539 275.049V316.049Z" fill="#B8C2F9" stroke="#1E2532" stroke-width="0.2" stroke-linejoin="round"/>
<path d="M424.551 275.049L389.051 295.549V336.549L424.551 316.049V275.049Z" fill="#B8C2F9" stroke="#1E2532" stroke-width="0.2" stroke-linejoin="round"/>
<path d="M353.539 275.049L389.049 254.549L424.549 275.049L389.049 295.549L353.539 275.049Z" fill="#B8C2F9" stroke="#1E2532" stroke-width="0.2" stroke-linejoin="round"/>
<path d="M389.051 336.549L424.551 357.049V316.049L389.051 295.549V336.549Z" fill="#B8C2F9" stroke="#1E2532" stroke-width="0.2" stroke-linejoin="round"/>
<path d="M460.061 295.549L424.551 316.049V357.049L460.061 336.549V295.549Z" fill="#B8C2F9" stroke="#1E2532" stroke-width="0.2" stroke-linejoin="round"/>
<path d="M389.051 295.549L424.551 275.049L460.061 295.549L424.551 316.049L389.051 295.549Z" fill="#B8C2F9" stroke="#1E2532" stroke-width="0.2" stroke-linejoin="round"/>
<path d="M424.551 357.049L460.061 377.539V336.549L424.551 316.049V357.049Z" fill="#B8C2F9" stroke="#1E2532" stroke-width="0.2" stroke-linejoin="round"/>
<path d="M495.562 316.049L460.062 336.549V377.539L495.562 357.049V316.049Z" fill="#6E80E3" stroke="#1E2532" stroke-width="0.2" stroke-linejoin="round"/>
<path d="M424.551 316.049L460.061 295.549L495.561 316.049L460.061 336.549L424.551 316.049Z" fill="#B8C2F9" stroke="#1E2532" stroke-width="0.2" stroke-linejoin="round"/>
<path d="M211.531 275.049L247.031 295.549V254.549L211.531 234.049V275.049Z" fill="#B8C2F9" stroke="#1E2532" stroke-width="0.2" stroke-linejoin="round"/>
<path d="M282.541 234.049L247.031 254.549V295.549L282.541 275.049V234.049Z" fill="#B8C2F9" stroke="#1E2532" stroke-width="0.2" stroke-linejoin="round"/>
<path d="M211.531 234.049L247.031 213.549L282.541 234.049L247.031 254.549L211.531 234.049Z" fill="#B8C2F9" stroke="#1E2532" stroke-width="0.2" stroke-linejoin="round"/>
<path d="M247.031 295.549L282.541 316.049V275.049L247.031 254.549V295.549Z" fill="#B8C2F9" stroke="#1E2532" stroke-width="0.2" stroke-linejoin="round"/>
<path d="M318.043 254.549L282.543 275.049V316.049L318.043 295.549V254.549Z" fill="#B8C2F9" stroke="#1E2532" stroke-width="0.2" stroke-linejoin="round"/>
<path d="M247.031 254.549L282.541 234.049L318.041 254.549L282.541 275.049L247.031 254.549Z" fill="#B8C2F9" stroke="#1E2532" stroke-width="0.2" stroke-linejoin="round"/>
<path d="M282.539 316.049L318.039 336.549V295.549L282.539 275.049V316.049Z" fill="#B8C2F9" stroke="#1E2532" stroke-width="0.2" stroke-linejoin="round"/>
<path d="M353.539 275.049L318.039 295.549V336.549L353.539 316.049V275.049Z" fill="#B8C2F9" stroke="#1E2532" stroke-width="0.2" stroke-linejoin="round"/>
<path d="M282.539 275.049L318.039 254.549L353.539 275.049L318.039 295.549L282.539 275.049Z" fill="#B8C2F9" stroke="#1E2532" stroke-width="0.2" stroke-linejoin="round"/>
<path d="M318.039 336.549L353.539 357.049V316.049L318.039 295.549V336.549Z" fill="#B8C2F9" stroke="#1E2532" stroke-width="0.2" stroke-linejoin="round"/>
<path d="M389.049 295.549L353.539 316.049V357.049L389.049 336.549V295.549Z" fill="#B8C2F9" stroke="#1E2532" stroke-width="0.2" stroke-linejoin="round"/>
<path d="M318.039 295.549L353.539 275.049L389.049 295.549L353.539 316.049L318.039 295.549Z" fill="#B8C2F9" stroke="#1E2532" stroke-width="0.2" stroke-linejoin="round"/>
<path d="M353.539 357.049L389.049 377.539V336.549L353.539 316.049V357.049Z" fill="#B8C2F9" stroke="#1E2532" stroke-width="0.2" stroke-linejoin="round"/>
<path d="M424.551 316.049L389.051 336.549V377.539L424.551 357.049V316.049Z" fill="#B8C2F9" stroke="#1E2532" stroke-width="0.2" stroke-linejoin="round"/>
<path d="M353.539 316.049L389.049 295.549L424.549 316.049L389.049 336.549L353.539 316.049Z" fill="#B8C2F9" stroke="#1E2532" stroke-width="0.2" stroke-linejoin="round"/>
<path d="M389.051 377.539L424.551 398.039V357.049L389.051 336.549V377.539Z" fill="#B8C2F9" stroke="#1E2532" stroke-width="0.2" stroke-linejoin="round"/>
<path d="M460.061 336.549L424.551 357.049V398.039L460.061 377.539V336.549Z" fill="#6E80E3" stroke="#1E2532" stroke-width="0.2" stroke-linejoin="round"/>
<path d="M389.051 336.549L424.551 316.049L460.061 336.549L424.551 357.049L389.051 336.549Z" fill="#B8C2F9" stroke="#1E2532" stroke-width="0.2" stroke-linejoin="round"/>
<path d="M176.02 295.549L211.53 316.049V275.049L176.02 254.549V295.549Z" fill="#B8C2F9" stroke="#1E2532" stroke-width="0.2" stroke-linejoin="round"/>
<path d="M247.031 254.549L211.531 275.049V316.049L247.031 295.549V254.549Z" fill="#B8C2F9" stroke="#1E2532" stroke-width="0.2" stroke-linejoin="round"/>
<path d="M176.02 254.549L211.53 234.049L247.03 254.549L211.53 275.049L176.02 254.549Z" fill="#B8C2F9" stroke="#1E2532" stroke-width="0.2" stroke-linejoin="round"/>
<path d="M211.531 316.049L247.031 336.549V295.549L211.531 275.049V316.049Z" fill="#B8C2F9" stroke="#1E2532" stroke-width="0.2" stroke-linejoin="round"/>
<path d="M282.541 275.049L247.031 295.549V336.549L282.541 316.049V275.049Z" fill="#B8C2F9" stroke="#1E2532" stroke-width="0.2" stroke-linejoin="round"/>
<path d="M211.531 275.049L247.031 254.549L282.541 275.049L247.031 295.549L211.531 275.049Z" fill="#B8C2F9" stroke="#1E2532" stroke-width="0.2" stroke-linejoin="round"/>
<path d="M247.031 336.549L282.541 357.049V316.049L247.031 295.549V336.549Z" fill="#B8C2F9" stroke="#1E2532" stroke-width="0.2" stroke-linejoin="round"/>
<path d="M318.043 295.549L282.543 316.049V357.049L318.043 336.549V295.549Z" fill="#B8C2F9" stroke="#1E2532" stroke-width="0.2" stroke-linejoin="round"/>
<path d="M247.031 295.549L282.541 275.049L318.041 295.549L282.541 316.049L247.031 295.549Z" fill="#B8C2F9" stroke="#1E2532" stroke-width="0.2" stroke-linejoin="round"/>
<path d="M282.539 357.049L318.039 377.539V336.549L282.539 316.049V357.049Z" fill="#B8C2F9" stroke="#1E2532" stroke-width="0.2" stroke-linejoin="round"/>
<path d="M353.539 316.049L318.039 336.549V377.539L353.539 357.049V316.049Z" fill="#B8C2F9" stroke="#1E2532" stroke-width="0.2" stroke-linejoin="round"/>
<path d="M282.539 316.049L318.039 295.549L353.539 316.049L318.039 336.549L282.539 316.049Z" fill="#B8C2F9" stroke="#1E2532" stroke-width="0.2" stroke-linejoin="round"/>
<path d="M318.039 377.539L353.539 398.039V357.049L318.039 336.549V377.539Z" fill="#B8C2F9" stroke="#1E2532" stroke-width="0.2" stroke-linejoin="round"/>
<path d="M389.049 336.549L353.539 357.049V398.039L389.049 377.539V336.549Z" fill="#B8C2F9" stroke="#1E2532" stroke-width="0.2" stroke-linejoin="round"/>
<path d="M318.039 336.549L353.539 316.049L389.049 336.549L353.539 357.049L318.039 336.549Z" fill="#B8C2F9" stroke="#1E2532" stroke-width="0.2" stroke-linejoin="round"/>
<path d="M353.539 398.039L389.049 418.539V377.539L353.539 357.049V398.039Z" fill="#B8C2F9" stroke="#1E2532" stroke-width="0.2" stroke-linejoin="round"/>
<path d="M424.551 357.049L389.051 377.539V418.539L424.551 398.039V357.049Z" fill="#6E80E3" stroke="#1E2532" stroke-width="0.2" stroke-linejoin="round"/>
<path d="M353.539 357.049L389.049 336.549L424.549 357.049L389.049 377.539L353.539 357.049Z" fill="#B8C2F9" stroke="#1E2532" stroke-width="0.2" stroke-linejoin="round"/>
<path d="M140.52 316.049L176.02 336.549V295.549L140.52 275.049V316.049Z" fill="#B8C2F9" stroke="#1E2532" stroke-width="0.2" stroke-linejoin="round"/>
<path d="M211.53 275.049L176.02 295.549V336.549L211.53 316.049V275.049Z" fill="#B8C2F9" stroke="#1E2532" stroke-width="0.2" stroke-linejoin="round"/>
<path d="M140.52 275.049L176.02 254.549L211.53 275.049L176.02 295.549L140.52 275.049Z" fill="#B8C2F9" stroke="#1E2532" stroke-width="0.2" stroke-linejoin="round"/>
<path d="M176.02 336.549L211.53 357.049V316.049L176.02 295.549V336.549Z" fill="#B8C2F9" stroke="#1E2532" stroke-width="0.2" stroke-linejoin="round"/>
<path d="M247.031 295.549L211.531 316.049V357.049L247.031 336.549V295.549Z" fill="#B8C2F9" stroke="#1E2532" stroke-width="0.2" stroke-linejoin="round"/>
<path d="M176.02 295.549L211.53 275.049L247.03 295.549L211.53 316.049L176.02 295.549Z" fill="#B8C2F9" stroke="#1E2532" stroke-width="0.2" stroke-linejoin="round"/>
<path d="M211.531 357.049L247.031 377.539V336.549L211.531 316.049V357.049Z" fill="#B8C2F9" stroke="#1E2532" stroke-width="0.2" stroke-linejoin="round"/>
<path d="M282.541 316.049L247.031 336.549V377.539L282.541 357.049V316.049Z" fill="#B8C2F9" stroke="#1E2532" stroke-width="0.2" stroke-linejoin="round"/>
<path d="M211.531 316.049L247.031 295.549L282.541 316.049L247.031 336.549L211.531 316.049Z" fill="#B8C2F9" stroke="#1E2532" stroke-width="0.2" stroke-linejoin="round"/>
<path d="M247.031 377.539L282.541 398.039V357.049L247.031 336.549V377.539Z" fill="#B8C2F9" stroke="#1E2532" stroke-width="0.2" stroke-linejoin="round"/>
<path d="M318.043 336.549L282.543 357.049V398.039L318.043 377.539V336.549Z" fill="#B8C2F9" stroke="#1E2532" stroke-width="0.2" stroke-linejoin="round"/>
<path d="M247.031 336.549L282.541 316.049L318.041 336.549L282.541 357.049L247.031 336.549Z" fill="#B8C2F9" stroke="#1E2532" stroke-width="0.2" stroke-linejoin="round"/>
<path d="M282.539 398.039L318.039 418.539V377.539L282.539 357.049V398.039Z" fill="#B8C2F9" stroke="#1E2532" stroke-width="0.2" stroke-linejoin="round"/>
<path d="M353.539 357.049L318.039 377.539V418.539L353.539 398.039V357.049Z" fill="#B8C2F9" stroke="#1E2532" stroke-width="0.2" stroke-linejoin="round"/>
<path d="M282.539 357.049L318.039 336.549L353.539 357.049L318.039 377.539L282.539 357.049Z" fill="#B8C2F9" stroke="#1E2532" stroke-width="0.2" stroke-linejoin="round"/>
<path d="M318.039 418.539L353.539 439.039V398.039L318.039 377.539V418.539Z" fill="#B8C2F9" stroke="#1E2532" stroke-width="0.2" stroke-linejoin="round"/>
<path d="M389.049 377.539L353.539 398.039V439.039L389.049 418.539V377.539Z" fill="#6E80E3" stroke="#1E2532" stroke-width="0.2" stroke-linejoin="round"/>
<path d="M318.039 377.539L353.539 357.049L389.049 377.539L353.539 398.039L318.039 377.539Z" fill="#B8C2F9" stroke="#1E2532" stroke-width="0.2" stroke-linejoin="round"/>
<path d="M105.012 336.549L140.522 357.049V316.049L105.012 295.549V336.549Z" fill="#6E80E3" stroke="#1E2532" stroke-width="0.2" stroke-linejoin="round"/>
<path d="M176.023 295.549L140.523 316.049V357.049L176.023 336.549V295.549Z" fill="#B8C2F9" stroke="#1E2532" stroke-width="0.2" stroke-linejoin="round"/>
<path d="M105.012 295.549L140.522 275.049L176.022 295.549L140.522 316.049L105.012 295.549Z" fill="#B8C2F9" stroke="#1E2532" stroke-width="0.2" stroke-linejoin="round"/>
<path d="M140.52 357.049L176.02 377.539V336.549L140.52 316.049V357.049Z" fill="#6E80E3" stroke="#1E2532" stroke-width="0.2" stroke-linejoin="round"/>
<path d="M211.53 316.049L176.02 336.549V377.539L211.53 357.049V316.049Z" fill="#B8C2F9" stroke="#1E2532" stroke-width="0.2" stroke-linejoin="round"/>
<path d="M140.52 316.049L176.02 295.549L211.53 316.049L176.02 336.549L140.52 316.049Z" fill="#B8C2F9" stroke="#1E2532" stroke-width="0.2" stroke-linejoin="round"/>
<path d="M176.02 377.539L211.53 398.039V357.049L176.02 336.549V377.539Z" fill="#6E80E3" stroke="#1E2532" stroke-width="0.2" stroke-linejoin="round"/>
<path d="M247.031 336.549L211.531 357.049V398.039L247.031 377.539V336.549Z" fill="#B8C2F9" stroke="#1E2532" stroke-width="0.2" stroke-linejoin="round"/>
<path d="M176.02 336.549L211.53 316.049L247.03 336.549L211.53 357.049L176.02 336.549Z" fill="#B8C2F9" stroke="#1E2532" stroke-width="0.2" stroke-linejoin="round"/>
<path d="M211.531 398.039L247.031 418.539V377.539L211.531 357.049V398.039Z" fill="#6E80E3" stroke="#1E2532" stroke-width="0.2" stroke-linejoin="round"/>
<path d="M282.541 357.049L247.031 377.539V418.539L282.541 398.039V357.049Z" fill="#B8C2F9" stroke="#1E2532" stroke-width="0.2" stroke-linejoin="round"/>
<path d="M211.531 357.049L247.031 336.549L282.541 357.049L247.031 377.539L211.531 357.049Z" fill="#B8C2F9" stroke="#1E2532" stroke-width="0.2" stroke-linejoin="round"/>
<path d="M247.031 418.539L282.541 439.039V398.039L247.031 377.539V418.539Z" fill="#6E80E3" stroke="#1E2532" stroke-width="0.2" stroke-linejoin="round"/>
<path d="M318.043 377.539L282.543 398.039V439.039L318.043 418.539V377.539Z" fill="#B8C2F9" stroke="#1E2532" stroke-width="0.2" stroke-linejoin="round"/>
<path d="M247.031 377.539L282.541 357.049L318.041 377.539L282.541 398.039L247.031 377.539Z" fill="#B8C2F9" stroke="#1E2532" stroke-width="0.2" stroke-linejoin="round"/>
<path d="M105.012 418.539L140.522 439.039V398.039L105.012 377.539V418.539Z" fill="#6E80E3" stroke="#1E2532" stroke-width="0.2" stroke-linejoin="round"/>
<path d="M176.023 377.539L140.523 398.039V439.039L176.023 418.539V377.539Z" fill="#B8C2F9" stroke="#1E2532" stroke-width="0.2" stroke-linejoin="round"/>
<path d="M105.012 377.539L140.522 357.049L176.022 377.539L140.522 398.039L105.012 377.539Z" fill="#B8C2F9" stroke="#1E2532" stroke-width="0.2" stroke-linejoin="round"/>
<path d="M140.52 439.039L176.02 459.539V418.539L140.52 398.039V439.039Z" fill="#6E80E3" stroke="#1E2532" stroke-width="0.2" stroke-linejoin="round"/>
<path d="M211.53 398.039L176.02 418.539V459.539L211.53 439.039V398.039Z" fill="#B8C2F9" stroke="#1E2532" stroke-width="0.2" stroke-linejoin="round"/>
<path d="M140.52 398.039L176.02 377.539L211.53 398.039L176.02 418.539L140.52 398.039Z" fill="#B8C2F9" stroke="#1E2532" stroke-width="0.2" stroke-linejoin="round"/>
<path d="M176.02 459.539L211.53 480.039V439.039L176.02 418.539V459.539Z" fill="#6E80E3" stroke="#1E2532" stroke-width="0.2" stroke-linejoin="round"/>
<path d="M247.031 418.539L211.531 439.039V480.039L247.031 459.539V418.539Z" fill="#B8C2F9" stroke="#1E2532" stroke-width="0.2" stroke-linejoin="round"/>
<path d="M176.02 418.539L211.53 398.039L247.03 418.539L211.53 439.039L176.02 418.539Z" fill="#B8C2F9" stroke="#1E2532" stroke-width="0.2" stroke-linejoin="round"/>
<path d="M211.531 480.039L247.031 500.539V459.539L211.531 439.039V480.039Z" fill="#6E80E3" stroke="#1E2532" stroke-width="0.2" stroke-linejoin="round"/>
<path d="M282.541 439.039L247.031 459.539V500.539L282.541 480.039V439.039Z" fill="#B8C2F9" stroke="#1E2532" stroke-width="0.2" stroke-linejoin="round"/>
<path d="M211.531 439.039L247.031 418.539L282.541 439.039L247.031 459.539L211.531 439.039Z" fill="#B8C2F9" stroke="#1E2532" stroke-width="0.2" stroke-linejoin="round"/>
<path d="M247.031 500.539L282.541 521.039V480.039L247.031 459.539V500.539Z" fill="#6E80E3" stroke="#1E2532" stroke-width="0.2" stroke-linejoin="round"/>
<path d="M318.043 459.539L282.543 480.039V521.039L318.043 500.539V459.539Z" fill="#6E80E3" stroke="#1E2532" stroke-width="0.2" stroke-linejoin="round"/>
<path d="M247.031 459.539L282.541 439.039L318.041 459.539L282.541 480.039L247.031 459.539Z" fill="#B8C2F9" stroke="#1E2532" stroke-width="0.2" stroke-linejoin="round"/>
<path d="M282.539 439.039L318.039 459.539V418.539L282.539 398.039V439.039Z" fill="#6E80E3" stroke="#1E2532" stroke-width="0.2" stroke-linejoin="round"/>
<path d="M353.539 398.039L318.039 418.539V459.539L353.539 439.039V398.039Z" fill="#6E80E3" stroke="#1E2532" stroke-width="0.2" stroke-linejoin="round"/>
<path d="M282.539 398.039L318.039 377.539L353.539 398.039L318.039 418.539L282.539 398.039Z" fill="#B8C2F9" stroke="#1E2532" stroke-width="0.2" stroke-linejoin="round"/>
<path d="M495.559 398.039L531.069 418.539V377.539L495.559 357.049V398.039Z" fill="#B8C2F9" stroke="#1E2532" stroke-width="0.2" stroke-linejoin="round"/>
<path d="M566.57 357.049L531.07 377.539V418.539L566.57 398.039V357.049Z" fill="#6E80E3" stroke="#1E2532" stroke-width="0.2" stroke-linejoin="round"/>
<path d="M495.559 357.049L531.069 336.549L566.569 357.049L531.069 377.539L495.559 357.049Z" fill="#B8C2F9" stroke="#1E2532" stroke-width="0.2" stroke-linejoin="round"/>
<path d="M460.219 459.539L495.719 480.039V439.039L460.219 418.539V459.539Z" fill="#B8C2F9" stroke="#1E2532" stroke-width="0.2" stroke-linejoin="round"/>
<path d="M531.229 418.539L495.719 439.039V480.039L531.229 459.539V418.539Z" fill="#6E80E3" stroke="#1E2532" stroke-width="0.2" stroke-linejoin="round"/>
<path d="M460.219 418.539L495.719 398.039L531.229 418.539L495.719 439.039L460.219 418.539Z" fill="#B8C2F9" stroke="#1E2532" stroke-width="0.2" stroke-linejoin="round"/>
<path d="M460.059 418.539L495.559 439.039V398.039L460.059 377.539V418.539Z" fill="#B8C2F9" stroke="#1E2532" stroke-width="0.2" stroke-linejoin="round"/>
<path d="M531.069 377.539L495.559 398.039V439.039L531.069 418.539V377.539Z" fill="#6E80E3" stroke="#1E2532" stroke-width="0.2" stroke-linejoin="round"/>
<path d="M460.059 377.539L495.559 357.049L531.069 377.539L495.559 398.039L460.059 377.539Z" fill="#B8C2F9" stroke="#1E2532" stroke-width="0.2" stroke-linejoin="round"/>
<path d="M424.551 480.039L460.061 500.539V459.539L424.551 439.039V480.039Z" fill="#B8C2F9" stroke="#1E2532" stroke-width="0.2" stroke-linejoin="round"/>
<path d="M495.562 439.039L460.062 459.539V500.539L495.562 480.039V439.039Z" fill="#6E80E3" stroke="#1E2532" stroke-width="0.2" stroke-linejoin="round"/>
<path d="M424.551 439.039L460.061 418.539L495.561 439.039L460.061 459.539L424.551 439.039Z" fill="#B8C2F9" stroke="#1E2532" stroke-width="0.2" stroke-linejoin="round"/>
<path d="M389.051 500.539L424.551 521.039V480.039L389.051 459.539V500.539Z" fill="#B8C2F9" stroke="#1E2532" stroke-width="0.2" stroke-linejoin="round"/>
<path d="M460.061 459.539L424.551 480.039V521.039L460.061 500.539V459.539Z" fill="#6E80E3" stroke="#1E2532" stroke-width="0.2" stroke-linejoin="round"/>
<path d="M389.051 459.539L424.551 439.039L460.061 459.539L424.551 480.039L389.051 459.539Z" fill="#B8C2F9" stroke="#1E2532" stroke-width="0.2" stroke-linejoin="round"/>
<path d="M353.699 521.039L389.209 541.529V500.539L353.699 480.039V521.039Z" fill="#B8C2F9" stroke="#1E2532" stroke-width="0.2" stroke-linejoin="round"/>
<path d="M424.711 480.039L389.211 500.539V541.529L424.711 521.039V480.039Z" fill="#6E80E3" stroke="#1E2532" stroke-width="0.2" stroke-linejoin="round"/>
<path d="M353.699 480.039L389.209 459.539L424.709 480.039L389.209 500.539L353.699 480.039Z" fill="#B8C2F9" stroke="#1E2532" stroke-width="0.2" stroke-linejoin="round"/>
<path d="M318.039 541.529L353.539 562.029V521.039L318.039 500.539V541.529Z" fill="#6E80E3" stroke="#1E2532" stroke-width="0.2" stroke-linejoin="round"/>
<path d="M389.049 500.539L353.539 521.039V562.029L389.049 541.529V500.539Z" fill="#6E80E3" stroke="#1E2532" stroke-width="0.2" stroke-linejoin="round"/>
<path d="M318.039 500.539L353.539 480.039L389.049 500.539L353.539 521.039L318.039 500.539Z" fill="#B8C2F9" stroke="#1E2532" stroke-width="0.2" stroke-linejoin="round"/>
<path d="M424.551 439.039L460.061 459.539V418.539L424.551 398.039V439.039Z" fill="#B8C2F9" stroke="#1E2532" stroke-width="0.2" stroke-linejoin="round"/>
<path d="M495.562 398.039L460.062 418.539V459.539L495.562 439.039V398.039Z" fill="#6E80E3" stroke="#1E2532" stroke-width="0.2" stroke-linejoin="round"/>
<path d="M424.551 398.039L460.061 377.539L495.561 398.039L460.061 418.539L424.551 398.039Z" fill="#B8C2F9" stroke="#1E2532" stroke-width="0.2" stroke-linejoin="round"/>
<path d="M389.051 459.539L424.551 480.039V439.039L389.051 418.539V459.539Z" fill="#B8C2F9" stroke="#1E2532" stroke-width="0.2" stroke-linejoin="round"/>
<path d="M460.061 418.539L424.551 439.039V480.039L460.061 459.539V418.539Z" fill="#6E80E3" stroke="#1E2532" stroke-width="0.2" stroke-linejoin="round"/>
<path d="M389.051 418.539L424.551 398.039L460.061 418.539L424.551 439.039L389.051 418.539Z" fill="#B8C2F9" stroke="#1E2532" stroke-width="0.2" stroke-linejoin="round"/>
<path d="M353.539 480.039L389.049 500.539V459.539L353.539 439.039V480.039Z" fill="#B8C2F9" stroke="#1E2532" stroke-width="0.2" stroke-linejoin="round"/>
<path d="M424.551 439.039L389.051 459.539V500.539L424.551 480.039V439.039Z" fill="#6E80E3" stroke="#1E2532" stroke-width="0.2" stroke-linejoin="round"/>
<path d="M353.539 439.039L389.049 418.539L424.549 439.039L389.049 459.539L353.539 439.039Z" fill="#B8C2F9" stroke="#1E2532" stroke-width="0.2" stroke-linejoin="round"/>
<path d="M318.039 500.539L353.539 521.039V480.039L318.039 459.539V500.539Z" fill="#6E80E3" stroke="#1E2532" stroke-width="0.2" stroke-linejoin="round"/>
<path d="M389.049 459.539L353.539 480.039V521.039L389.049 500.539V459.539Z" fill="#6E80E3" stroke="#1E2532" stroke-width="0.2" stroke-linejoin="round"/>
<path d="M318.039 459.539L353.539 439.039L389.049 459.539L353.539 480.039L318.039 459.539Z" fill="#B8C2F9" stroke="#1E2532" stroke-width="0.2" stroke-linejoin="round"/>
<path d="M87.2617 428.789L105.012 439.039V418.539L87.2617 408.289V428.789Z" fill="#E2E2E2" stroke="#1E2532" stroke-width="0.2" stroke-linejoin="round"/>
<path d="M122.762 408.289L105.012 418.539V439.039L122.762 428.789V408.289Z" fill="white" stroke="#1E2532" stroke-width="0.2" stroke-linejoin="round"/>
<path d="M87.2617 408.289L105.012 398.039L122.762 408.289L105.012 418.539L87.2617 408.289Z" fill="white" stroke="#1E2532" stroke-width="0.2" stroke-linejoin="round"/>
<path d="M95.25 403.68L105.01 409.31V398.04L95.25 392.41V403.68Z" fill="#F2BE00" stroke="#1E2532" stroke-width="0.2" stroke-linejoin="round"/>
<path d="M114.772 392.41L105.012 398.04V409.31L114.772 403.68V392.41Z" fill="#FFDA54" stroke="#1E2532" stroke-width="0.2" stroke-linejoin="round"/>
<path d="M95.25 392.41L105.01 386.77L114.77 392.41L105.01 398.04L95.25 392.41Z" fill="#FFDA54" stroke="#1E2532" stroke-width="0.2" stroke-linejoin="round"/>
<path d="M485.039 362.83L505.589 374.7V350.97L485.039 339.1V362.83Z" fill="#1A49BA" stroke="#1E2532" stroke-width="0.2" stroke-linejoin="round"/>
<path d="M526.15 339.1L505.59 350.97V374.7L526.15 362.83V339.1Z" fill="#5A84EC" stroke="#1E2532" stroke-width="0.2" stroke-linejoin="round"/>
<path d="M485.039 339.1L505.589 327.23L526.149 339.1L505.589 350.97L485.039 339.1Z" fill="#5A84EC" stroke="#1E2532" stroke-width="0.2" stroke-linejoin="round"/>
<path d="M347.869 78.6503L365.659 68.3203L365.569 97.7603L347.789 108.1L347.869 78.6503Z" fill="#FFD954" stroke="#1E2532" stroke-width="0.2" stroke-linejoin="round"/>
<path d="M376.651 69.9207C370.241 66.2207 365.231 57.5307 365.251 49.6407C365.251 45.6407 366.561 42.9507 368.661 41.7207L350.881 52.0607C348.771 53.2807 347.481 55.9907 347.461 59.9807C347.461 67.8607 352.461 76.5507 358.861 80.2507C362.031 82.0807 364.861 82.3007 366.931 81.1107L384.721 70.7707C382.661 71.9707 379.821 71.7507 376.651 69.9207Z" fill="#FFD954" stroke="#1E2532" stroke-width="0.2" stroke-linejoin="round"/>
<path d="M347.969 41.8398L365.759 31.5098L366.219 31.7698L348.429 42.1098L347.969 41.8398Z" fill="white" stroke="#1E2532" stroke-width="0.2" stroke-linejoin="round"/>
<path d="M347.999 34.4706L365.779 24.1406L365.759 31.5106L347.969 41.8406L347.999 34.4706Z" fill="#FFD954" stroke="#1E2532" stroke-width="0.2" stroke-linejoin="round"/>
<path d="M335.641 27.34L353.421 17L365.781 24.14L348.001 34.47L335.641 27.34Z" fill="#FFD954" stroke="#1E2532" stroke-width="0.2" stroke-linejoin="round"/>
<path d="M380.429 31.549C374.239 27.979 370.229 28.979 368.089 30.219L350.309 40.549C352.449 39.309 356.459 38.309 362.639 41.879C373.169 47.959 382.749 64.549 382.699 80.319C382.699 88.689 379.959 94.159 375.839 96.559L393.629 86.229C397.749 83.839 400.469 78.359 400.489 69.999C400.529 54.229 390.959 37.629 380.429 31.549Z" fill="#FFD954" stroke="#1E2532" stroke-width="0.2" stroke-linejoin="round"/>
<path d="M362.64 41.8799C373.17 47.9599 382.75 64.5499 382.7 80.3199C382.65 96.0899 373.02 101.6 362.49 95.5199C352.88 89.9699 348.56 79.4699 348.33 78.9199L347.87 78.6499L347.79 108.1L335.43 100.96L335.64 27.3398L348.04 34.4698V41.8398L348.5 42.1099C348.66 41.8199 353.04 36.3299 362.64 41.8799ZM358.86 80.2299C365.28 83.9299 370.33 81.0599 370.35 73.1699C370.37 65.2799 365.35 56.5899 358.94 52.8899C352.53 49.1899 347.49 52.0699 347.46 59.9599C347.43 67.8499 352.46 76.5299 358.86 80.2299" fill="#6E80E3"/>
<path d="M358.86 80.2299C365.28 83.9299 370.33 81.0599 370.35 73.1699C370.37 65.2799 365.35 56.5899 358.94 52.8899C352.53 49.1899 347.49 52.0699 347.46 59.9599C347.43 67.8499 352.46 76.5299 358.86 80.2299M362.64 41.8799C373.17 47.9599 382.75 64.5499 382.7 80.3199C382.65 96.0899 373.02 101.6 362.49 95.5199C352.88 89.9699 348.56 79.4699 348.33 78.9199L347.87 78.6499L347.79 108.1L335.43 100.96L335.64 27.3398L348.04 34.4698V41.8398L348.5 42.1099C348.66 41.8199 353.04 36.3299 362.64 41.8799Z" stroke="#1E2532" stroke-width="0.2" stroke-linejoin="round"/>
<path d="M407.541 85.9101C405.481 87.1001 404.221 89.9101 404.211 94.3201L404.141 118.51L421.921 108.17L421.991 83.9901C421.991 79.5901 423.271 76.7701 425.321 75.5801L407.541 85.9101Z" fill="#FFD954" stroke="#1E2532" stroke-width="0.2" stroke-linejoin="round"/>
<path d="M404.262 74.34L422.052 64L422.512 64.27L404.722 74.61L404.262 74.34Z" fill="white" stroke="#1E2532" stroke-width="0.2" stroke-linejoin="round"/>
<path d="M404.292 66.9706L422.072 56.6406L422.052 64.0006L404.262 74.3406L404.292 66.9706Z" fill="#FFD954" stroke="#1E2532" stroke-width="0.2" stroke-linejoin="round"/>
<path d="M391.93 59.84L409.71 49.5L422.07 56.64L404.29 66.97L391.93 59.84Z" fill="#FFD954" stroke="#1E2532" stroke-width="0.2" stroke-linejoin="round"/>
<path d="M418.93 74.3799V89.6299C417.672 88.5061 416.29 87.5297 414.81 86.7198C408.81 83.2798 404.27 85.9099 404.25 94.3199L404.18 118.51L391.82 111.38L391.97 59.8398L404.33 66.9698V74.3398L404.79 74.6099C405.02 74.3199 409.39 68.8299 418.08 73.8499L418.93 74.3799Z" fill="#6E80E3" stroke="#1E2532" stroke-width="0.2" stroke-linejoin="round"/>
<path d="M418.931 74.3808L436.721 64.0508L436.671 79.2908L418.891 89.6308L418.931 74.3808Z" fill="#FFD954" stroke="#1E2532" stroke-width="0.2" stroke-linejoin="round"/>
<path d="M435.801 63.5207C430.401 60.4007 426.671 61.3307 424.561 62.5207L406.781 72.8506C408.891 71.6306 412.621 70.6906 418.011 73.8506L418.931 74.3806L436.721 64.0507L435.801 63.5207Z" fill="#FFD954" stroke="#1E2532" stroke-width="0.2" stroke-linejoin="round"/>
<path d="M426.707 79.9199L444.497 69.5898L456.847 76.7198L439.067 87.0499L426.707 79.9199Z" fill="#FFD954" stroke="#1E2532" stroke-width="0.2" stroke-linejoin="round"/>
<path d="M439.068 87.0507L456.848 76.7207L456.698 128.261L438.918 138.591L439.068 87.0507Z" fill="#FFD954" stroke="#1E2532" stroke-width="0.2" stroke-linejoin="round"/>
<path d="M426.559 131.46L426.709 79.9199L439.069 87.0499L438.919 138.59L426.559 131.46Z" fill="#6E80E3" stroke="#1E2532" stroke-width="0.2" stroke-linejoin="round"/>
<path d="M427.848 60.4096L445.628 50.0697C446.938 49.3097 448.758 49.3996 450.778 50.5596C454.628 52.7896 457.778 58.3196 457.778 62.5596C457.852 63.3847 457.706 64.2147 457.355 64.9649C457.003 65.7151 456.459 66.3586 455.778 66.8297L438.038 77.1197C439.288 76.3997 440.038 74.9096 440.038 72.8496C440.038 68.6496 436.858 63.1197 433.038 60.8997C430.978 59.7297 429.148 59.6496 427.848 60.4096Z" fill="#FFD954" stroke="#1E2532" stroke-width="0.2" stroke-linejoin="round"/>
<path d="M432.859 76.6297C429.019 74.4097 425.859 68.8697 425.859 64.6297C425.859 60.3897 429.089 58.6297 433.019 60.8697C436.949 63.1097 440.019 68.6197 440.019 72.8197C440.019 77.0197 436.799 78.8997 432.859 76.6297Z" fill="#6E80E3" stroke="#1E2532" stroke-width="0.2" stroke-linejoin="round"/>
<path d="M466.092 118.44C464.332 119.44 463.262 121.78 463.252 125.25L463.172 152.59L480.962 142.23L481.042 114.89C481.042 111.42 482.112 109.1 483.882 108.08L466.092 118.44Z" fill="#F2BE00" stroke="#1E2532" stroke-width="0.2" stroke-linejoin="round"/>
<path d="M463.301 108.42L481.081 98.0898L481.541 98.3599L463.761 108.69L463.301 108.42Z" fill="white" stroke="#1E2532" stroke-width="0.2" stroke-linejoin="round"/>
<path d="M463.321 101.061L481.111 90.7207L481.081 98.0907L463.301 108.421L463.321 101.061Z" fill="#FFD954" stroke="#1E2532" stroke-width="0.2" stroke-linejoin="round"/>
<path d="M450.961 93.9199L468.751 83.5898L481.111 90.7198L463.321 101.06L450.961 93.9199Z" fill="#FFD954" stroke="#1E2532" stroke-width="0.2" stroke-linejoin="round"/>
<path d="M477.04 107.94C486.19 113.22 493.5 125.86 493.46 139.01L493.37 170.01L481.04 162.9L481.12 133.97C481.175 131.006 480.444 128.08 479 125.491C477.556 122.902 475.451 120.741 472.9 119.23C467.4 116.06 463.27 118.41 463.25 125.23L463.18 152.57L450.82 145.44L450.96 93.9004L463.32 101.04V108.4L463.78 108.67C464.04 108.4 468.36 102.92 477.04 107.94Z" fill="#6E80E3" stroke="#1E2532" stroke-width="0.2" stroke-linejoin="round"/>
<path d="M494.829 97.5989C489.439 94.4789 485.699 95.4189 483.599 96.5989L465.809 106.939C467.919 105.709 471.649 104.779 477.049 107.939C486.199 113.219 493.509 125.859 493.469 139.009L493.379 170.009L511.169 159.679L511.249 128.679C511.289 115.529 503.979 102.879 494.829 97.5989Z" fill="#FFD954" stroke="#1E2532" stroke-width="0.2" stroke-linejoin="round"/>
<path d="M531.399 178.289L549.179 167.959L549.149 181.099L531.359 191.429L531.399 178.289Z" fill="#F2BE00" stroke="#1E2532" stroke-width="0.2" stroke-linejoin="round"/>
<path d="M544.149 166.099C542.286 164.993 540.754 163.407 539.711 161.508C538.668 159.609 538.153 157.465 538.219 155.299L538.269 137.949L520.489 148.279L520.439 165.639C520.373 167.804 520.887 169.947 521.928 171.846C522.969 173.745 524.499 175.331 526.359 176.439C527.894 177.367 529.59 177.995 531.359 178.289L549.139 167.959C547.374 167.659 545.681 167.028 544.149 166.099Z" fill="#FFD954" stroke="#1E2532" stroke-width="0.2" stroke-linejoin="round"/>
<path d="M522.291 115.56L518.171 113.23L500.391 123.56L504.501 125.94C506.061 126.84 507.301 127.06 508.151 126.56L525.941 116.22C525.041 116.67 523.851 116.45 522.291 115.56Z" fill="#FFD954" stroke="#1E2532" stroke-width="0.2" stroke-linejoin="round"/>
<path d="M520.531 135.141L538.311 124.811L548.371 130.611L530.591 140.951L520.531 135.141Z" fill="#FFD954" stroke="#1E2532" stroke-width="0.2" stroke-linejoin="round"/>
<path d="M530.591 140.949L548.371 130.609L548.331 143.759L530.551 154.089L530.591 140.949Z" fill="#FFD954" stroke="#1E2532" stroke-width="0.2" stroke-linejoin="round"/>
<path d="M520.571 119.36L538.351 109.02L538.311 124.81L520.531 135.14L520.571 119.36Z" fill="#FFD954" stroke="#1E2532" stroke-width="0.2" stroke-linejoin="round"/>
<path d="M520.57 119.36V135.14L530.63 140.95V154.09L520.57 148.28L520.52 165.64C520.453 167.804 520.967 169.947 522.008 171.846C523.049 173.745 524.579 175.331 526.44 176.44C527.974 177.367 529.671 177.995 531.44 178.29V191.43C528.524 190.881 525.731 189.807 523.2 188.26C514.05 182.98 508.11 172.7 508.15 160.6L508.2 141.15L500.43 136.66V123.51L504.54 125.89C507.75 127.74 509.54 126.7 509.6 122.48V113.02L520.57 119.36Z" fill="#6E80E3" stroke="#1E2532" stroke-width="0.2" stroke-linejoin="round"/>
<path d="M509.582 113.02L527.372 102.68L538.352 109.02L520.572 119.36L509.582 113.02Z" fill="#FFD954" stroke="#1E2532" stroke-width="0.2" stroke-linejoin="round"/>
<path d="M170.556 143.022L152.026 132.252L151.996 122.162L170.536 132.932L170.556 143.022Z" fill="#6E80E3" stroke="#1E2532" stroke-width="0.2" stroke-linejoin="round"/>
<path d="M170.536 132.931L151.996 122.161L169.526 102.711L188.056 113.481L170.536 132.931Z" fill="#6E80E3" stroke="#1E2532" stroke-width="0.2" stroke-linejoin="round"/>
<path d="M170.448 104.222L151.918 93.4418L180.998 92.5918L199.538 103.362L170.448 104.222Z" fill="#6E80E3" stroke="#1E2532" stroke-width="0.2" stroke-linejoin="round"/>
<path d="M170.478 114.311L151.938 103.531L151.918 93.4414L170.448 104.221L170.478 114.311Z" fill="#6E80E3" stroke="#1E2532" stroke-width="0.2" stroke-linejoin="round"/>
<path d="M170.449 104.221L199.539 103.361L199.559 110.351L170.559 143.021L170.539 132.931L188.059 113.481L170.479 114.311L170.449 104.221Z" fill="#FFD954" stroke="#1E2532" stroke-width="0.2" stroke-linejoin="round"/>
<path d="M125.02 185.251L106.48 174.481L126.54 91.3809L145.08 102.161L125.02 185.251Z" fill="#6E80E3" stroke="#1E2532" stroke-width="0.2" stroke-linejoin="round"/>
<path d="M145.079 102.162L126.539 91.3817L134.979 86.5117L153.519 97.2817L145.079 102.162Z" fill="#6E80E3" stroke="#1E2532" stroke-width="0.2" stroke-linejoin="round"/>
<path d="M153.52 97.2812L133.47 180.371L125.02 185.251L145.08 102.161L153.52 97.2812Z" fill="#FFD954" stroke="#1E2532" stroke-width="0.2" stroke-linejoin="round"/>
<path d="M90.4775 169.832L71.9375 159.052L89.5275 158.232L108.068 169.002L90.4775 169.832Z" fill="#6E80E3" stroke="#1E2532" stroke-width="0.2" stroke-linejoin="round"/>
<path d="M79.0092 179.951L60.4692 169.171L60.4492 162.191L78.9892 172.961L79.0092 179.951Z" fill="#6E80E3" stroke="#1E2532" stroke-width="0.2" stroke-linejoin="round"/>
<path d="M78.9892 172.962L60.4492 162.192L89.4392 129.512L107.979 140.292L78.9892 172.962Z" fill="#6E80E3" stroke="#1E2532" stroke-width="0.2" stroke-linejoin="round"/>
<path d="M107.978 140.291L108.008 150.371L90.4783 169.831L108.068 169.001L108.088 179.091L79.0083 179.951L78.9883 172.961L107.978 140.291Z" fill="#FFD954" stroke="#1E2532" stroke-width="0.2" stroke-linejoin="round"/>
<path d="M166.75 448.691V481.281C166.75 484.281 170.97 486.721 176.18 486.721C181.39 486.721 185.61 484.291 185.61 481.281V448.691H166.75Z" fill="#FFDA54" stroke="#1E2532" stroke-width="0.2" stroke-linejoin="round"/>
<path d="M176.18 454.142C181.388 454.142 185.61 451.702 185.61 448.692C185.61 445.682 181.388 443.242 176.18 443.242C170.972 443.242 166.75 445.682 166.75 448.692C166.75 451.702 170.972 454.142 176.18 454.142Z" fill="#5A84EC" stroke="#1E2532" stroke-width="0.2" stroke-linejoin="round"/>
<path d="M202.25 470.43V503.02C202.25 506.02 206.48 508.46 211.69 508.46C216.9 508.46 221.12 506.02 221.12 503.02V470.43H202.25Z" fill="#FFDA54" stroke="#1E2532" stroke-width="0.2" stroke-linejoin="round"/>
<path d="M211.692 475.88C216.9 475.88 221.122 473.44 221.122 470.43C221.122 467.421 216.9 464.98 211.692 464.98C206.484 464.98 202.262 467.421 202.262 470.43C202.262 473.44 206.484 475.88 211.692 475.88Z" fill="#5A84EC" stroke="#1E2532" stroke-width="0.2" stroke-linejoin="round"/>
<path d="M237.758 489.5V522.09C237.758 525.09 241.978 527.53 247.188 527.53C252.398 527.53 256.618 525.1 256.618 522.09V489.5H237.758Z" fill="#FFDA54" stroke="#1E2532" stroke-width="0.2" stroke-linejoin="round"/>
<path d="M247.188 494.951C252.396 494.951 256.618 492.511 256.618 489.501C256.618 486.491 252.396 484.051 247.188 484.051C241.98 484.051 237.758 486.491 237.758 489.501C237.758 492.511 241.98 494.951 247.188 494.951Z" fill="#5A84EC" stroke="#1E2532" stroke-width="0.2" stroke-linejoin="round"/>
<path d="M357.013 174.977C359.616 174.975 362.182 175.59 364.501 176.77C366.556 177.959 367.564 179.511 367.565 181.044C367.567 182.578 366.561 184.135 364.501 185.334C362.182 186.514 359.617 187.129 357.014 187.129C354.412 187.129 351.846 186.514 349.527 185.334C347.462 184.14 346.454 182.591 346.455 181.061C346.457 179.531 347.467 177.979 349.527 176.78C351.845 175.596 354.41 174.979 357.013 174.977Z" fill="white" stroke="#1E2532" stroke-width="0.2"/>
<path d="M362.039 204.353L361.929 245.113L321.699 221.893L321.819 181.133L362.039 204.353Z" fill="#1A49BA" stroke="#1E2532" stroke-width="0.2" stroke-linejoin="round"/>
<path d="M217.509 219.902C211.689 216.542 209.149 212.672 209.169 208.602L209.039 249.352C209.039 253.432 211.569 257.352 217.379 260.662L231.209 268.662L231.319 227.902L217.509 219.902Z" fill="#1A49BA" stroke="#1E2532" stroke-width="0.2" stroke-linejoin="round"/>
<path d="M417.329 218.812L379.629 240.712C368.579 247.142 350.629 247.252 339.409 240.792L299.199 217.582C285.549 209.702 262.489 209.772 249.419 217.372L231.329 227.882L231.219 268.642L249.299 258.132C262.369 250.532 285.439 250.462 299.079 258.332L339.289 281.552C350.479 288.012 368.459 287.902 379.519 281.472L417.219 259.562C422.489 256.502 424.899 252.562 424.909 248.412L425.029 207.652C425.039 211.772 422.599 215.742 417.329 218.812Z" fill="#1A49BA" stroke="#1E2532" stroke-width="0.2" stroke-linejoin="round"/>
<path d="M417.829 195.232C426.959 202.582 428.059 212.582 417.329 218.822L379.629 240.722C368.579 247.152 350.629 247.262 339.409 240.802L299.199 217.592C285.549 209.712 262.489 209.782 249.419 217.382L231.329 227.892L217.509 219.892C205.809 213.142 207.379 204.342 216.239 195.892C228.129 184.502 237.679 179.142 256.459 172.522C272.819 166.712 289.989 168.592 301.689 175.342L316.779 184.062L357.039 207.282L362.039 204.352L321.819 181.132L336.899 172.372C348.329 165.732 357.629 163.892 377.619 172.002C385.006 175.027 392.179 178.549 399.089 182.542C405.646 186.296 411.91 190.538 417.829 195.232V195.232ZM349.459 185.462C351.793 186.65 354.375 187.269 356.994 187.269C359.614 187.269 362.195 186.65 364.529 185.462C368.709 183.042 368.699 179.122 364.529 176.722C362.193 175.529 359.608 174.907 356.984 174.907C354.361 174.907 351.776 175.529 349.439 176.722C345.279 179.142 345.269 183.042 349.439 185.452" fill="#5A84EC"/>
<path d="M349.459 185.462C351.793 186.65 354.375 187.269 356.994 187.269C359.614 187.269 362.195 186.65 364.529 185.462C368.709 183.042 368.699 179.122 364.529 176.722C362.193 175.529 359.608 174.907 356.984 174.907C354.361 174.907 351.776 175.529 349.439 176.722C345.279 179.142 345.269 183.042 349.439 185.452M417.829 195.232C426.959 202.582 428.059 212.582 417.329 218.822L379.629 240.722C368.579 247.152 350.629 247.262 339.409 240.802L299.199 217.592C285.549 209.712 262.489 209.782 249.419 217.382L231.329 227.892L217.509 219.892C205.809 213.142 207.379 204.342 216.239 195.892C228.129 184.502 237.679 179.142 256.459 172.522C272.819 166.712 289.989 168.592 301.689 175.342L316.779 184.062L357.039 207.282L362.039 204.352L321.819 181.132L336.899 172.372C348.329 165.732 357.629 163.892 377.619 172.002C385.006 175.027 392.179 178.549 399.089 182.542C405.646 186.296 411.91 190.538 417.829 195.232V195.232Z" stroke="#1E2532" stroke-width="0.2" stroke-linejoin="round"/>
<path d="M417.339 305.402C405.459 316.972 393.739 323.992 377.129 328.772C361.019 333.432 348.609 335.592 336.919 328.842L316.799 317.232L276.589 294.013L276.479 334.772L276.589 294.013L271.589 296.943L271.469 337.702L276.469 334.772L316.679 357.982L336.789 369.602C348.489 376.352 360.889 374.192 376.999 369.532C393.609 364.752 405.329 357.732 417.219 346.162C421.819 341.692 424.849 337.262 424.859 333.062L424.979 292.312C424.979 296.503 421.939 300.932 417.339 305.402Z" fill="#F2BE00" stroke="#1E2532" stroke-width="0.2" stroke-linejoin="round"/>
<path d="M417.337 305.401C405.457 316.971 393.737 323.991 377.127 328.771C361.017 333.431 348.607 335.591 336.917 328.841L316.797 317.231L276.587 294.011L271.587 296.941L311.797 320.151L296.707 328.921C285.287 335.561 269.527 333.161 256.507 328.991C248.426 326.518 240.632 323.189 233.257 319.061C226.972 315.485 221.245 311.007 216.257 305.771C208.697 297.841 205.507 288.711 216.257 282.481L253.957 260.571C264.807 254.271 283.177 254.141 294.187 260.491L334.397 283.711C347.787 291.441 371.047 291.541 384.677 283.621L402.257 273.401L417.337 282.111C429.037 288.871 425.907 297.071 417.337 305.401ZM284.117 315.831C281.783 314.643 279.201 314.024 276.582 314.024C273.963 314.024 271.381 314.643 269.047 315.831C264.877 318.261 264.877 322.171 269.047 324.571C271.384 325.762 273.97 326.382 276.592 326.382C279.215 326.382 281.801 325.762 284.137 324.571C288.297 322.151 288.307 318.241 284.137 315.831" fill="#FFD954"/>
<path d="M284.117 315.831C281.783 314.643 279.201 314.024 276.582 314.024C273.963 314.024 271.381 314.643 269.047 315.831C264.877 318.261 264.877 322.171 269.047 324.571C271.384 325.762 273.97 326.382 276.592 326.382C279.215 326.382 281.801 325.762 284.137 324.571C288.297 322.151 288.307 318.241 284.137 315.831M417.337 305.401C405.457 316.971 393.737 323.991 377.127 328.771C361.017 333.431 348.607 335.591 336.917 328.841L316.797 317.231L276.587 294.011L271.587 296.941L311.797 320.151L296.707 328.921C285.287 335.561 269.527 333.161 256.507 328.991C248.426 326.518 240.632 323.189 233.257 319.061C226.972 315.485 221.245 311.007 216.257 305.771C208.697 297.841 205.507 288.711 216.257 282.481L253.957 260.571C264.807 254.271 283.177 254.141 294.187 260.491L334.397 283.711C347.787 291.441 371.047 291.541 384.677 283.621L402.257 273.401L417.337 282.111C429.037 288.871 425.907 297.071 417.337 305.401Z" stroke="#1E2532" stroke-width="0.2" stroke-linejoin="round"/>
<path d="M296.68 328.922C285.26 335.562 269.5 333.162 256.48 328.992C248.399 326.519 240.605 323.19 233.23 319.062C226.945 315.485 221.218 311.008 216.23 305.772C212.11 301.462 209.3 296.772 209.31 292.432L209.23 333.232C209.23 337.602 212.04 342.232 216.15 346.582C221.14 351.815 226.867 356.293 233.15 359.872C240.523 364 248.318 367.326 256.4 369.792C269.4 373.972 285.18 376.372 296.61 369.732L311.69 360.962L311.81 320.202L296.68 328.922Z" fill="#F2BE00" stroke="#1E2532" stroke-width="0.2" stroke-linejoin="round"/>
<path d="M284.12 315.832C288.3 318.242 288.29 322.152 284.12 324.572C281.783 325.763 279.198 326.383 276.575 326.383C273.952 326.383 271.367 325.763 269.03 324.572C264.87 322.172 264.87 318.262 269.03 315.832C271.367 314.641 273.952 314.02 276.575 314.02C279.198 314.02 281.784 314.641 284.12 315.832V315.832Z" fill="white" stroke="#1E2532" stroke-width="0.2" stroke-linejoin="round"/>
<path d="M389.049 449.482C400.476 449.482 409.739 440.218 409.739 428.792C409.739 417.365 400.476 408.102 389.049 408.102C377.623 408.102 368.359 417.365 368.359 428.792C368.359 440.218 377.623 449.482 389.049 449.482Z" fill="white" stroke="#1E2532" stroke-width="0.2" stroke-linejoin="round"/>
</svg>
