<svg width="600" height="600" viewBox="0 0 600 600" fill="none" xmlns="http://www.w3.org/2000/svg">
<path d="M22 445.439L56.7994 465.534V425.345L22 405.25V445.439Z" fill="#ED889B" stroke="#1E2532" stroke-width="0.2" stroke-linejoin="round"/>
<path d="M91.6041 405.25L56.8047 425.345V465.534L91.6041 445.439V405.25Z" fill="#F9B8C4" stroke="#1E2532" stroke-width="0.2" stroke-linejoin="round"/>
<path d="M22 405.249L56.7994 385.154L91.5989 405.249L56.7994 425.344L22 405.249Z" fill="#F9B8C4" stroke="#1E2532" stroke-width="0.2" stroke-linejoin="round"/>
<path d="M265.566 304.775L300.366 324.87V284.69L265.566 264.596V304.775Z" fill="#F9B8C4" stroke="#1E2532" stroke-width="0.2" stroke-linejoin="round"/>
<path d="M335.161 264.596L300.371 284.69V324.87L335.161 304.775V264.596Z" fill="#F9B8C4" stroke="#1E2532" stroke-width="0.2" stroke-linejoin="round"/>
<path d="M265.566 264.595L300.366 244.5L335.156 264.595L300.366 284.69L265.566 264.595Z" fill="#F9B8C4" stroke="#1E2532" stroke-width="0.2" stroke-linejoin="round"/>
<path d="M300.367 324.873L335.157 344.968V304.778L300.367 284.693V324.873Z" fill="#F9B8C4" stroke="#1E2532" stroke-width="0.2" stroke-linejoin="round"/>
<path d="M369.956 284.693L335.156 304.778V344.968L369.956 324.873V284.693Z" fill="#F9B8C4" stroke="#1E2532" stroke-width="0.2" stroke-linejoin="round"/>
<path d="M300.367 284.692L335.157 264.598L369.956 284.692L335.157 304.777L300.367 284.692Z" fill="#F9B8C4" stroke="#1E2532" stroke-width="0.2" stroke-linejoin="round"/>
<path d="M335.152 344.967L369.952 365.062V324.872L335.152 304.777V344.967Z" fill="#F9B8C4" stroke="#1E2532" stroke-width="0.2" stroke-linejoin="round"/>
<path d="M404.747 304.777L369.957 324.872V365.062L404.747 344.967V304.777Z" fill="#F9B8C4" stroke="#1E2532" stroke-width="0.2" stroke-linejoin="round"/>
<path d="M335.152 304.776L369.952 284.691L404.741 304.776L369.952 324.871L335.152 304.776Z" fill="#F9B8C4" stroke="#1E2532" stroke-width="0.2" stroke-linejoin="round"/>
<path d="M369.949 365.063L404.739 385.157V344.968L369.949 324.873V365.063Z" fill="#F9B8C4" stroke="#1E2532" stroke-width="0.2" stroke-linejoin="round"/>
<path d="M439.538 324.873L404.738 344.968V385.157L439.538 365.063V324.873Z" fill="#F9B8C4" stroke="#1E2532" stroke-width="0.2" stroke-linejoin="round"/>
<path d="M369.949 324.872L404.739 304.777L439.538 324.872L404.739 344.967L369.949 324.872Z" fill="#F9B8C4" stroke="#1E2532" stroke-width="0.2" stroke-linejoin="round"/>
<path d="M404.738 385.154L439.538 405.249V365.06L404.738 344.965V385.154Z" fill="#F9B8C4" stroke="#1E2532" stroke-width="0.2" stroke-linejoin="round"/>
<path d="M474.333 344.965L439.543 365.06V405.249L474.333 385.154V344.965Z" fill="#F9B8C4" stroke="#1E2532" stroke-width="0.2" stroke-linejoin="round"/>
<path d="M404.738 344.964L439.538 324.869L474.327 344.964L439.538 365.059L404.738 344.964Z" fill="#F9B8C4" stroke="#1E2532" stroke-width="0.2" stroke-linejoin="round"/>
<path d="M439.551 405.254L474.34 425.349V385.159L439.551 365.064V405.254Z" fill="#F9B8C4" stroke="#1E2532" stroke-width="0.2" stroke-linejoin="round"/>
<path d="M509.139 365.064L474.34 385.159V425.349L509.139 405.254V365.064Z" fill="#F9B8C4" stroke="#1E2532" stroke-width="0.2" stroke-linejoin="round"/>
<path d="M439.551 365.064L474.34 344.969L509.14 365.064L474.34 385.158L439.551 365.064Z" fill="#F9B8C4" stroke="#1E2532" stroke-width="0.2" stroke-linejoin="round"/>
<path d="M230.77 324.871L265.569 344.966V304.776L230.77 284.691V324.871Z" fill="#F9B8C4" stroke="#1E2532" stroke-width="0.2" stroke-linejoin="round"/>
<path d="M300.374 284.691L265.574 304.776V344.966L300.374 324.871V284.691Z" fill="#F9B8C4" stroke="#1E2532" stroke-width="0.2" stroke-linejoin="round"/>
<path d="M230.77 284.69L265.569 264.596L300.368 284.69L265.569 304.775L230.77 284.69Z" fill="#F9B8C4" stroke="#1E2532" stroke-width="0.2" stroke-linejoin="round"/>
<path d="M265.566 344.967L300.366 365.062V324.872L265.566 304.777V344.967Z" fill="#F9B8C4" stroke="#1E2532" stroke-width="0.2" stroke-linejoin="round"/>
<path d="M335.161 304.777L300.371 324.872V365.062L335.161 344.967V304.777Z" fill="#F9B8C4" stroke="#1E2532" stroke-width="0.2" stroke-linejoin="round"/>
<path d="M265.566 304.776L300.366 284.691L335.156 304.776L300.366 324.871L265.566 304.776Z" fill="#F9B8C4" stroke="#1E2532" stroke-width="0.2" stroke-linejoin="round"/>
<path d="M300.367 365.061L335.157 385.155V344.966L300.367 324.871V365.061Z" fill="#F9B8C4" stroke="#1E2532" stroke-width="0.2" stroke-linejoin="round"/>
<path d="M369.956 324.871L335.156 344.966V385.155L369.956 365.061V324.871Z" fill="#F9B8C4" stroke="#1E2532" stroke-width="0.2" stroke-linejoin="round"/>
<path d="M300.367 324.87L335.157 304.775L369.956 324.87L335.157 344.965L300.367 324.87Z" fill="#F9B8C4" stroke="#1E2532" stroke-width="0.2" stroke-linejoin="round"/>
<path d="M335.152 385.154L369.952 405.249V365.06L335.152 344.965V385.154Z" fill="#F9B8C4" stroke="#1E2532" stroke-width="0.2" stroke-linejoin="round"/>
<path d="M404.747 344.965L369.957 365.06V405.249L404.747 385.154V344.965Z" fill="#F9B8C4" stroke="#1E2532" stroke-width="0.2" stroke-linejoin="round"/>
<path d="M335.152 344.966L369.952 324.871L404.741 344.966L369.952 365.061L335.152 344.966Z" fill="#F9B8C4" stroke="#1E2532" stroke-width="0.2" stroke-linejoin="round"/>
<path d="M369.949 405.252L404.739 425.347V385.157L369.949 365.062V405.252Z" fill="#F9B8C4" stroke="#1E2532" stroke-width="0.2" stroke-linejoin="round"/>
<path d="M439.538 365.062L404.738 385.157V425.347L439.538 405.252V365.062Z" fill="#F9B8C4" stroke="#1E2532" stroke-width="0.2" stroke-linejoin="round"/>
<path d="M369.949 365.062L404.739 344.967L439.538 365.062L404.739 385.156L369.949 365.062Z" fill="#F9B8C4" stroke="#1E2532" stroke-width="0.2" stroke-linejoin="round"/>
<path d="M404.738 425.346L439.538 445.44V405.251L404.738 385.156V425.346Z" fill="#F9B8C4" stroke="#1E2532" stroke-width="0.2" stroke-linejoin="round"/>
<path d="M474.333 385.156L439.543 405.251V445.44L474.333 425.346V385.156Z" fill="#F9B8C4" stroke="#1E2532" stroke-width="0.2" stroke-linejoin="round"/>
<path d="M404.738 385.155L439.538 365.061L474.327 385.155L439.538 405.25L404.738 385.155Z" fill="#F9B8C4" stroke="#1E2532" stroke-width="0.2" stroke-linejoin="round"/>
<path d="M195.98 344.965L230.77 365.06V324.87L195.98 304.775V344.965Z" fill="#F9B8C4" stroke="#1E2532" stroke-width="0.2" stroke-linejoin="round"/>
<path d="M265.569 304.775L230.77 324.87V365.06L265.569 344.965V304.775Z" fill="#F9B8C4" stroke="#1E2532" stroke-width="0.2" stroke-linejoin="round"/>
<path d="M195.98 304.776L230.77 284.691L265.57 304.776L230.77 324.871L195.98 304.776Z" fill="#F9B8C4" stroke="#1E2532" stroke-width="0.2" stroke-linejoin="round"/>
<path d="M230.77 365.061L265.569 385.155V344.966L230.77 324.871V365.061Z" fill="#F9B8C4" stroke="#1E2532" stroke-width="0.2" stroke-linejoin="round"/>
<path d="M300.374 324.873L265.574 344.968V385.157L300.374 365.063V324.873Z" fill="#F9B8C4" stroke="#1E2532" stroke-width="0.2" stroke-linejoin="round"/>
<path d="M230.77 324.872L265.569 304.777L300.368 324.872L265.569 344.967L230.77 324.872Z" fill="#F9B8C4" stroke="#1E2532" stroke-width="0.2" stroke-linejoin="round"/>
<path d="M265.566 385.154L300.366 405.249V365.06L265.566 344.965V385.154Z" fill="#F9B8C4" stroke="#1E2532" stroke-width="0.2" stroke-linejoin="round"/>
<path d="M335.161 344.965L300.371 365.06V405.249L335.161 385.154V344.965Z" fill="#F9B8C4" stroke="#1E2532" stroke-width="0.2" stroke-linejoin="round"/>
<path d="M265.566 344.966L300.366 324.871L335.156 344.966L300.366 365.061L265.566 344.966Z" fill="#F9B8C4" stroke="#1E2532" stroke-width="0.2" stroke-linejoin="round"/>
<path d="M300.367 405.254L335.157 425.349V385.159L300.367 365.064V405.254Z" fill="#F9B8C4" stroke="#1E2532" stroke-width="0.2" stroke-linejoin="round"/>
<path d="M369.956 365.064L335.156 385.159V425.349L369.956 405.254V365.064Z" fill="#F9B8C4" stroke="#1E2532" stroke-width="0.2" stroke-linejoin="round"/>
<path d="M300.367 365.064L335.157 344.969L369.956 365.064L335.157 385.158L300.367 365.064Z" fill="#F9B8C4" stroke="#1E2532" stroke-width="0.2" stroke-linejoin="round"/>
<path d="M335.152 425.344L369.952 445.439V405.249L335.152 385.154V425.344Z" fill="#F9B8C4" stroke="#1E2532" stroke-width="0.2" stroke-linejoin="round"/>
<path d="M404.747 385.154L369.957 405.249V445.439L404.747 425.344V385.154Z" fill="#F9B8C4" stroke="#1E2532" stroke-width="0.2" stroke-linejoin="round"/>
<path d="M335.152 385.153L369.952 365.059L404.741 385.153L369.952 405.248L335.152 385.153Z" fill="#F9B8C4" stroke="#1E2532" stroke-width="0.2" stroke-linejoin="round"/>
<path d="M369.949 445.439L404.739 465.534V425.345L369.949 405.25V445.439Z" fill="#F9B8C4" stroke="#1E2532" stroke-width="0.2" stroke-linejoin="round"/>
<path d="M439.538 405.25L404.738 425.345V465.534L439.538 445.439V405.25Z" fill="#F9B8C4" stroke="#1E2532" stroke-width="0.2" stroke-linejoin="round"/>
<path d="M369.949 405.249L404.739 385.154L439.538 405.249L404.739 425.344L369.949 405.249Z" fill="#F9B8C4" stroke="#1E2532" stroke-width="0.2" stroke-linejoin="round"/>
<path d="M161.188 365.061L195.977 385.155V344.966L161.188 324.871V365.061Z" fill="#F9B8C4" stroke="#1E2532" stroke-width="0.2" stroke-linejoin="round"/>
<path d="M230.766 324.871L195.977 344.966V385.155L230.766 365.061V324.871Z" fill="#F9B8C4" stroke="#1E2532" stroke-width="0.2" stroke-linejoin="round"/>
<path d="M161.188 324.87L195.977 304.775L230.767 324.87L195.977 344.965L161.188 324.87Z" fill="#F9B8C4" stroke="#1E2532" stroke-width="0.2" stroke-linejoin="round"/>
<path d="M195.98 385.154L230.77 405.249V365.06L195.98 344.965V385.154Z" fill="#F9B8C4" stroke="#1E2532" stroke-width="0.2" stroke-linejoin="round"/>
<path d="M265.569 344.965L230.77 365.06V405.249L265.569 385.154V344.965Z" fill="#F9B8C4" stroke="#1E2532" stroke-width="0.2" stroke-linejoin="round"/>
<path d="M195.98 344.964L230.77 324.869L265.57 344.964L230.77 365.059L195.98 344.964Z" fill="#F9B8C4" stroke="#1E2532" stroke-width="0.2" stroke-linejoin="round"/>
<path d="M230.77 405.25L265.569 425.345V385.155L230.77 365.061V405.25Z" fill="#F9B8C4" stroke="#1E2532" stroke-width="0.2" stroke-linejoin="round"/>
<path d="M300.374 365.061L265.574 385.155V425.345L300.374 405.25V365.061Z" fill="#F9B8C4" stroke="#1E2532" stroke-width="0.2" stroke-linejoin="round"/>
<path d="M230.77 365.06L265.569 344.965L300.368 365.06L265.569 385.154L230.77 365.06Z" fill="#F9B8C4" stroke="#1E2532" stroke-width="0.2" stroke-linejoin="round"/>
<path d="M265.566 425.344L300.366 445.439V405.249L265.566 385.154V425.344Z" fill="#F9B8C4" stroke="#1E2532" stroke-width="0.2" stroke-linejoin="round"/>
<path d="M335.161 385.154L300.371 405.249V445.439L335.161 425.344V385.154Z" fill="#F9B8C4" stroke="#1E2532" stroke-width="0.2" stroke-linejoin="round"/>
<path d="M265.566 385.153L300.366 365.059L335.156 385.153L300.366 405.248L265.566 385.153Z" fill="#F9B8C4" stroke="#1E2532" stroke-width="0.2" stroke-linejoin="round"/>
<path d="M300.367 445.441L335.157 465.536V425.347L300.367 405.252V445.441Z" fill="#F9B8C4" stroke="#1E2532" stroke-width="0.2" stroke-linejoin="round"/>
<path d="M369.956 405.252L335.156 425.347V465.536L369.956 445.441V405.252Z" fill="#F9B8C4" stroke="#1E2532" stroke-width="0.2" stroke-linejoin="round"/>
<path d="M300.367 405.251L335.157 385.156L369.956 405.251L335.157 425.346L300.367 405.251Z" fill="#F9B8C4" stroke="#1E2532" stroke-width="0.2" stroke-linejoin="round"/>
<path d="M335.152 465.533L369.952 485.618V445.439L335.152 425.344V465.533Z" fill="#F9B8C4" stroke="#1E2532" stroke-width="0.2" stroke-linejoin="round"/>
<path d="M404.747 425.344L369.957 445.439V485.618L404.747 465.533V425.344Z" fill="#ED889B" stroke="#1E2532" stroke-width="0.2" stroke-linejoin="round"/>
<path d="M335.152 425.343L369.952 405.248L404.741 425.343L369.952 445.438L335.152 425.343Z" fill="#F9B8C4" stroke="#1E2532" stroke-width="0.2" stroke-linejoin="round"/>
<path d="M126.387 385.154L161.186 405.249V365.06L126.387 344.965V385.154Z" fill="#F9B8C4" stroke="#1E2532" stroke-width="0.2" stroke-linejoin="round"/>
<path d="M195.981 344.965L161.191 365.06V405.249L195.981 385.154V344.965Z" fill="#F9B8C4" stroke="#1E2532" stroke-width="0.2" stroke-linejoin="round"/>
<path d="M126.387 344.968L161.186 324.873L195.976 344.968L161.186 365.063L126.387 344.968Z" fill="#F9B8C4" stroke="#1E2532" stroke-width="0.2" stroke-linejoin="round"/>
<path d="M161.188 405.252L195.977 425.347V385.157L161.188 365.062V405.252Z" fill="#F9B8C4" stroke="#1E2532" stroke-width="0.2" stroke-linejoin="round"/>
<path d="M230.766 365.062L195.977 385.157V425.347L230.766 405.252V365.062Z" fill="#F9B8C4" stroke="#1E2532" stroke-width="0.2" stroke-linejoin="round"/>
<path d="M161.188 365.062L195.977 344.967L230.767 365.062L195.977 385.156L161.188 365.062Z" fill="#F9B8C4" stroke="#1E2532" stroke-width="0.2" stroke-linejoin="round"/>
<path d="M195.98 425.346L230.77 445.44V405.251L195.98 385.156V425.346Z" fill="#F9B8C4" stroke="#1E2532" stroke-width="0.2" stroke-linejoin="round"/>
<path d="M265.569 385.156L230.77 405.251V445.44L265.569 425.346V385.156Z" fill="#F9B8C4" stroke="#1E2532" stroke-width="0.2" stroke-linejoin="round"/>
<path d="M195.98 385.155L230.77 365.061L265.57 385.155L230.77 405.25L195.98 385.155Z" fill="#F9B8C4" stroke="#1E2532" stroke-width="0.2" stroke-linejoin="round"/>
<path d="M230.77 445.439L265.569 465.534V425.345L230.77 405.25V445.439Z" fill="#F9B8C4" stroke="#1E2532" stroke-width="0.2" stroke-linejoin="round"/>
<path d="M300.374 405.25L265.574 425.345V465.534L300.374 445.439V405.25Z" fill="#F9B8C4" stroke="#1E2532" stroke-width="0.2" stroke-linejoin="round"/>
<path d="M230.77 405.249L265.569 385.154L300.368 405.249L265.569 425.344L230.77 405.249Z" fill="#F9B8C4" stroke="#1E2532" stroke-width="0.2" stroke-linejoin="round"/>
<path d="M265.566 465.533L300.366 485.618V445.439L265.566 425.344V465.533Z" fill="#F9B8C4" stroke="#1E2532" stroke-width="0.2" stroke-linejoin="round"/>
<path d="M335.161 425.344L300.371 445.439V485.618L335.161 465.533V425.344Z" fill="#F9B8C4" stroke="#1E2532" stroke-width="0.2" stroke-linejoin="round"/>
<path d="M265.566 425.343L300.366 405.248L335.156 425.343L300.366 445.438L265.566 425.343Z" fill="#F9B8C4" stroke="#1E2532" stroke-width="0.2" stroke-linejoin="round"/>
<path d="M91.6016 405.252L126.391 425.347V385.157L91.6016 365.062V405.252Z" fill="#ED889B" stroke="#1E2532" stroke-width="0.2" stroke-linejoin="round"/>
<path d="M161.19 365.062L126.391 385.157V425.347L161.19 405.252V365.062Z" fill="#F9B8C4" stroke="#1E2532" stroke-width="0.2" stroke-linejoin="round"/>
<path d="M91.6016 365.062L126.391 344.967L161.191 365.062L126.391 385.156L91.6016 365.062Z" fill="#F9B8C4" stroke="#1E2532" stroke-width="0.2" stroke-linejoin="round"/>
<path d="M126.387 425.344L161.186 445.439V405.249L126.387 385.154V425.344Z" fill="#ED889B" stroke="#1E2532" stroke-width="0.2" stroke-linejoin="round"/>
<path d="M195.981 385.154L161.191 405.249V445.439L195.981 425.344V385.154Z" fill="#F9B8C4" stroke="#1E2532" stroke-width="0.2" stroke-linejoin="round"/>
<path d="M126.387 385.153L161.186 365.059L195.976 385.153L161.186 405.248L126.387 385.153Z" fill="#F9B8C4" stroke="#1E2532" stroke-width="0.2" stroke-linejoin="round"/>
<path d="M161.188 445.441L195.977 465.536V425.347L161.188 405.252V445.441Z" fill="#ED889B" stroke="#1E2532" stroke-width="0.2" stroke-linejoin="round"/>
<path d="M230.766 405.252L195.977 425.347V465.536L230.766 445.441V405.252Z" fill="#F9B8C4" stroke="#1E2532" stroke-width="0.2" stroke-linejoin="round"/>
<path d="M161.188 405.251L195.977 385.156L230.767 405.251L195.977 425.346L161.188 405.251Z" fill="#F9B8C4" stroke="#1E2532" stroke-width="0.2" stroke-linejoin="round"/>
<path d="M195.98 465.535L230.77 485.62V445.44L195.98 425.346V465.535Z" fill="#ED889B" stroke="#1E2532" stroke-width="0.2" stroke-linejoin="round"/>
<path d="M265.569 425.346L230.77 445.44V485.62L265.569 465.535V425.346Z" fill="#F9B8C4" stroke="#1E2532" stroke-width="0.2" stroke-linejoin="round"/>
<path d="M195.98 425.345L230.77 405.25L265.57 425.345L230.77 445.44L195.98 425.345Z" fill="#F9B8C4" stroke="#1E2532" stroke-width="0.2" stroke-linejoin="round"/>
<path d="M230.77 485.619L265.569 505.714V465.534L230.77 445.439V485.619Z" fill="#ED889B" stroke="#1E2532" stroke-width="0.2" stroke-linejoin="round"/>
<path d="M300.374 445.439L265.574 465.534V505.714L300.374 485.619V445.439Z" fill="#F9B8C4" stroke="#1E2532" stroke-width="0.2" stroke-linejoin="round"/>
<path d="M230.77 445.438L265.569 425.344L300.368 445.438L265.569 465.533L230.77 445.438Z" fill="#F9B8C4" stroke="#1E2532" stroke-width="0.2" stroke-linejoin="round"/>
<path d="M56.8008 465.535L91.6002 485.62V445.44L56.8008 425.346V465.535Z" fill="#ED889B" stroke="#1E2532" stroke-width="0.2" stroke-linejoin="round"/>
<path d="M126.395 425.346L91.6055 445.44V485.62L126.395 465.535V425.346Z" fill="#F9B8C4" stroke="#1E2532" stroke-width="0.2" stroke-linejoin="round"/>
<path d="M56.8008 425.347L91.6002 405.252L126.39 425.347L91.6002 445.441L56.8008 425.347Z" fill="#F9B8C4" stroke="#1E2532" stroke-width="0.2" stroke-linejoin="round"/>
<path d="M91.6016 485.619L126.391 505.714V465.534L91.6016 445.439V485.619Z" fill="#ED889B" stroke="#1E2532" stroke-width="0.2" stroke-linejoin="round"/>
<path d="M161.19 445.439L126.391 465.534V505.714L161.19 485.619V445.439Z" fill="#F9B8C4" stroke="#1E2532" stroke-width="0.2" stroke-linejoin="round"/>
<path d="M91.6016 445.438L126.391 425.344L161.191 445.438L126.391 465.533L91.6016 445.438Z" fill="#F9B8C4" stroke="#1E2532" stroke-width="0.2" stroke-linejoin="round"/>
<path d="M126.387 505.715L161.186 525.81V485.62L126.387 465.535V505.715Z" fill="#ED889B" stroke="#1E2532" stroke-width="0.2" stroke-linejoin="round"/>
<path d="M195.981 465.535L161.191 485.62V525.81L195.981 505.715V465.535Z" fill="#F9B8C4" stroke="#1E2532" stroke-width="0.2" stroke-linejoin="round"/>
<path d="M126.387 465.534L161.186 445.439L195.976 465.534L161.186 485.619L126.387 465.534Z" fill="#F9B8C4" stroke="#1E2532" stroke-width="0.2" stroke-linejoin="round"/>
<path d="M161.188 525.807L195.977 545.902V505.712L161.188 485.617V525.807Z" fill="#ED889B" stroke="#1E2532" stroke-width="0.2" stroke-linejoin="round"/>
<path d="M230.766 485.617L195.977 505.712V545.902L230.766 525.807V485.617Z" fill="#F9B8C4" stroke="#1E2532" stroke-width="0.2" stroke-linejoin="round"/>
<path d="M161.188 485.618L195.977 465.533L230.767 485.618L195.977 505.713L161.188 485.618Z" fill="#F9B8C4" stroke="#1E2532" stroke-width="0.2" stroke-linejoin="round"/>
<path d="M160.926 472.467L184.122 485.867V459.077L160.926 445.678V472.467Z" fill="white" stroke="#1E2532" stroke-width="0.2" stroke-linejoin="round"/>
<path d="M207.321 445.678L184.125 459.077V485.867L207.321 472.467V445.678Z" fill="#E2E2E2" stroke="#1E2532" stroke-width="0.2" stroke-linejoin="round"/>
<path d="M160.926 445.677L184.122 432.277L207.318 445.677L184.122 459.077L160.926 445.677Z" fill="white" stroke="#1E2532" stroke-width="0.2" stroke-linejoin="round"/>
<path d="M195.98 545.906L230.77 566.001V525.812L195.98 505.717V545.906Z" fill="#ED889B" stroke="#1E2532" stroke-width="0.2" stroke-linejoin="round"/>
<path d="M265.569 505.717L230.77 525.812V566.001L265.569 545.906V505.717Z" fill="#ED889B" stroke="#1E2532" stroke-width="0.2" stroke-linejoin="round"/>
<path d="M195.98 505.716L230.77 485.621L265.57 505.716L230.77 525.811L195.98 505.716Z" fill="#F9B8C4" stroke="#1E2532" stroke-width="0.2" stroke-linejoin="round"/>
<path d="M300.367 485.621L335.157 505.716V465.536L300.367 445.441V485.621Z" fill="#F9B8C4" stroke="#1E2532" stroke-width="0.2" stroke-linejoin="round"/>
<path d="M369.956 445.441L335.156 465.536V505.716L369.956 485.621V445.441Z" fill="#ED889B" stroke="#1E2532" stroke-width="0.2" stroke-linejoin="round"/>
<path d="M300.367 445.44L335.157 425.346L369.956 445.44L335.157 465.535L300.367 445.44Z" fill="#F9B8C4" stroke="#1E2532" stroke-width="0.2" stroke-linejoin="round"/>
<path d="M369.949 525.807L404.739 545.902V505.712L369.949 485.617V525.807Z" fill="#F9B8C4" stroke="#1E2532" stroke-width="0.2" stroke-linejoin="round"/>
<path d="M439.538 485.617L404.738 505.712V545.902L439.538 525.807V485.617Z" fill="#ED889B" stroke="#1E2532" stroke-width="0.2" stroke-linejoin="round"/>
<path d="M369.949 485.618L404.739 465.533L439.538 485.618L404.739 505.713L369.949 485.618Z" fill="#F9B8C4" stroke="#1E2532" stroke-width="0.2" stroke-linejoin="round"/>
<path d="M335.152 545.904L369.952 565.999V525.81L335.152 505.715V545.904Z" fill="#ED889B" stroke="#1E2532" stroke-width="0.2" stroke-linejoin="round"/>
<path d="M404.747 505.715L369.957 525.81V565.999L404.747 545.904V505.715Z" fill="#ED889B" stroke="#1E2532" stroke-width="0.2" stroke-linejoin="round"/>
<path d="M335.152 505.714L369.952 485.619L404.741 505.714L369.952 525.809L335.152 505.714Z" fill="#F9B8C4" stroke="#1E2532" stroke-width="0.2" stroke-linejoin="round"/>
<path d="M335.152 505.713L369.952 525.808V485.618L335.152 465.523V505.713Z" fill="#ED889B" stroke="#1E2532" stroke-width="0.2" stroke-linejoin="round"/>
<path d="M404.747 465.523L369.957 485.618V525.808L404.747 505.713V465.523Z" fill="#ED889B" stroke="#1E2532" stroke-width="0.2" stroke-linejoin="round"/>
<path d="M335.152 465.522L369.952 445.428L404.741 465.522L369.952 485.617L335.152 465.522Z" fill="#F9B8C4" stroke="#1E2532" stroke-width="0.2" stroke-linejoin="round"/>
<path d="M474.332 425.344L509.131 445.439V405.249L474.332 385.154V425.344Z" fill="#F9B8C4" stroke="#1E2532" stroke-width="0.2" stroke-linejoin="round"/>
<path d="M543.926 385.154L509.137 405.249V445.439L543.926 425.344V385.154Z" fill="#ED889B" stroke="#1E2532" stroke-width="0.2" stroke-linejoin="round"/>
<path d="M474.332 385.153L509.131 365.059L543.921 385.153L509.131 405.248L474.332 385.153Z" fill="#F9B8C4" stroke="#1E2532" stroke-width="0.2" stroke-linejoin="round"/>
<path d="M439.551 445.441L474.34 465.536V425.347L439.551 405.252V445.441Z" fill="#F9B8C4" stroke="#1E2532" stroke-width="0.2" stroke-linejoin="round"/>
<path d="M509.139 405.252L474.34 425.347V465.536L509.139 445.441V405.252Z" fill="#ED889B" stroke="#1E2532" stroke-width="0.2" stroke-linejoin="round"/>
<path d="M439.551 405.251L474.34 385.156L509.14 405.251L474.34 425.346L439.551 405.251Z" fill="#F9B8C4" stroke="#1E2532" stroke-width="0.2" stroke-linejoin="round"/>
<path d="M509.129 485.621L543.919 505.716V465.536L509.129 445.441V485.621Z" fill="#F9B8C4" stroke="#1E2532" stroke-width="0.2" stroke-linejoin="round"/>
<path d="M578.717 445.441L543.918 465.536V505.716L578.717 485.621V445.441Z" fill="#ED889B" stroke="#1E2532" stroke-width="0.2" stroke-linejoin="round"/>
<path d="M509.129 445.44L543.919 425.346L578.718 445.44L543.919 465.535L509.129 445.44Z" fill="#F9B8C4" stroke="#1E2532" stroke-width="0.2" stroke-linejoin="round"/>
<path d="M474.332 505.715L509.131 525.81V485.62L474.332 465.535V505.715Z" fill="#F9B8C4" stroke="#1E2532" stroke-width="0.2" stroke-linejoin="round"/>
<path d="M543.926 465.535L509.137 485.62V525.81L543.926 505.715V465.535Z" fill="#ED889B" stroke="#1E2532" stroke-width="0.2" stroke-linejoin="round"/>
<path d="M474.332 465.534L509.131 445.439L543.921 465.534L509.131 485.619L474.332 465.534Z" fill="#F9B8C4" stroke="#1E2532" stroke-width="0.2" stroke-linejoin="round"/>
<path d="M404.738 465.535L439.538 485.62V445.44L404.738 425.346V465.535Z" fill="#ED889B" stroke="#1E2532" stroke-width="0.2" stroke-linejoin="round"/>
<path d="M474.333 425.346L439.543 445.44V485.62L474.333 465.535V425.346Z" fill="#ED889B" stroke="#1E2532" stroke-width="0.2" stroke-linejoin="round"/>
<path d="M404.738 425.345L439.538 405.25L474.327 425.345L439.538 445.44L404.738 425.345Z" fill="#F9B8C4" stroke="#1E2532" stroke-width="0.2" stroke-linejoin="round"/>
<path d="M439.551 525.807L474.34 545.902V505.712L439.551 485.617V525.807Z" fill="#ED889B" stroke="#1E2532" stroke-width="0.2" stroke-linejoin="round"/>
<path d="M509.139 485.617L474.34 505.712V545.902L509.139 525.807V485.617Z" fill="#ED889B" stroke="#1E2532" stroke-width="0.2" stroke-linejoin="round"/>
<path d="M439.551 485.618L474.34 465.533L509.14 485.618L474.34 505.713L439.551 485.618Z" fill="#F9B8C4" stroke="#1E2532" stroke-width="0.2" stroke-linejoin="round"/>
<path d="M265.566 505.715L300.366 525.81V485.62L265.566 465.535V505.715Z" fill="#ED889B" stroke="#1E2532" stroke-width="0.2" stroke-linejoin="round"/>
<path d="M335.161 465.535L300.371 485.62V525.81L335.161 505.715V465.535Z" fill="#ED889B" stroke="#1E2532" stroke-width="0.2" stroke-linejoin="round"/>
<path d="M265.566 465.534L300.366 445.439L335.156 465.534L300.366 485.619L265.566 465.534Z" fill="#F9B8C4" stroke="#1E2532" stroke-width="0.2" stroke-linejoin="round"/>
<path d="M520.73 438.733L543.927 452.133V425.343L520.73 411.943V438.733Z" fill="#E2E2E2" stroke="#1E2532" stroke-width="0.2" stroke-linejoin="round"/>
<path d="M567.126 411.943L543.93 425.343V452.133L567.126 438.733V411.943Z" fill="white" stroke="#1E2532" stroke-width="0.2" stroke-linejoin="round"/>
<path d="M520.73 411.945L543.927 398.555L567.123 411.945L543.927 425.344L520.73 411.945Z" fill="white" stroke="#1E2532" stroke-width="0.2" stroke-linejoin="round"/>
<path d="M504.754 447.979L520.728 457.193V438.745L504.754 429.531V447.979Z" fill="#0099FF" stroke="#1E2532" stroke-width="0.2" stroke-linejoin="round"/>
<path d="M536.7 429.531L520.727 438.745V457.193L536.7 447.979V429.531Z" fill="#1BB5FF" stroke="#1E2532" stroke-width="0.2" stroke-linejoin="round"/>
<path d="M504.754 429.529L520.728 420.305L536.702 429.529L520.728 438.743L504.754 429.529Z" fill="#1BB5FF" stroke="#1E2532" stroke-width="0.2" stroke-linejoin="round"/>
<path d="M378.497 309.197L378.429 336.32C378.429 333.007 376.253 329.694 371.883 327.174C368.788 325.469 365.406 324.346 361.906 323.861L361.985 296.738C365.485 297.223 368.866 298.346 371.961 300.051C376.332 302.571 378.507 305.884 378.497 309.197Z" fill="#1A49BA" stroke="#1E2532" stroke-width="0.2" stroke-linejoin="round"/>
<path d="M312.585 329.093C312.223 328.931 311.911 328.676 311.68 328.354C311.45 328.032 311.309 327.654 311.272 327.26L311.203 354.383C311.236 354.777 311.374 355.155 311.604 355.478C311.833 355.801 312.145 356.055 312.507 356.216L335.046 369.233L335.125 342.11L312.585 329.093Z" fill="#ED889B" stroke="#1E2532" stroke-width="0.2" stroke-linejoin="round"/>
<path d="M378.723 345.542L378.654 372.665C378.654 369.352 376.479 366.039 372.108 363.52C371.843 363.363 371.569 363.216 371.295 363.069C362.778 358.609 349.49 358.697 341.189 363.255C338.566 364.546 336.424 366.641 335.074 369.234L335.153 342.111C336.502 339.518 338.645 337.423 341.268 336.132C349.568 331.574 362.827 331.486 371.373 335.946C371.647 336.093 371.922 336.24 372.186 336.397C376.538 338.965 378.723 342.229 378.723 345.542Z" fill="#ED889B" stroke="#1E2532" stroke-width="0.2" stroke-linejoin="round"/>
<path d="M462.924 329.092L391.12 370.831C390.15 371.324 389.077 371.581 387.989 371.581C386.901 371.581 385.828 371.324 384.858 370.831L362.406 357.862L362.328 385.034L384.78 397.993C385.749 398.49 386.822 398.749 387.911 398.749C389 398.749 390.073 398.49 391.042 397.993L462.846 356.265C463.199 356.103 463.504 355.851 463.729 355.535C463.954 355.218 464.092 354.848 464.129 354.461L464.208 327.338C464.163 327.716 464.021 328.076 463.796 328.384C463.571 328.691 463.271 328.935 462.924 329.092V329.092Z" fill="#1A49BA" stroke="#1E2532" stroke-width="0.2" stroke-linejoin="round"/>
<path d="M378.511 345.443L378.432 372.557C378.432 375.752 376.414 378.928 372.415 381.379C369.216 383.225 365.688 384.431 362.027 384.927L362.106 357.804C365.766 357.315 369.296 356.113 372.494 354.265C376.492 351.776 378.501 348.6 378.511 345.443Z" fill="#37C99E" stroke="#1E2532" stroke-width="0.2" stroke-linejoin="round"/>
<path d="M239.848 372.291L239.926 345.178C239.926 348.481 242.102 351.794 246.472 354.323C249.567 356.03 252.948 357.154 256.449 357.637L256.37 384.76C252.87 384.277 249.488 383.153 246.394 381.446C242.053 378.917 239.838 375.604 239.848 372.291Z" fill="#29B98E" stroke="#1E2532" stroke-width="0.2" stroke-linejoin="round"/>
<path d="M384.721 374.458L362.455 387.397L362.387 414.52L384.642 401.581C384.999 401.421 385.307 401.168 385.535 400.85C385.762 400.531 385.901 400.157 385.936 399.768L386.014 372.645C385.979 373.034 385.84 373.408 385.613 373.727C385.386 374.045 385.078 374.298 384.721 374.458V374.458Z" fill="#29B98E" stroke="#1E2532" stroke-width="0.2" stroke-linejoin="round"/>
<path d="M234.099 374.28C233.736 374.119 233.424 373.865 233.193 373.542C232.962 373.22 232.821 372.842 232.785 372.447L232.707 399.57C232.744 399.965 232.885 400.343 233.115 400.665C233.346 400.987 233.658 401.242 234.02 401.403L256.815 414.568L256.893 387.445L234.099 374.28Z" fill="#29B98E" stroke="#1E2532" stroke-width="0.2" stroke-linejoin="round"/>
<path d="M373.03 408.335C364.485 413.844 349.834 414.01 340.857 408.835C338.452 407.582 336.468 405.649 335.154 403.277L312.898 416.216C311.926 416.708 310.852 416.965 309.762 416.965C308.673 416.965 307.598 416.708 306.626 416.216L284.028 403.159C282.776 405.651 280.774 407.687 278.305 408.982C269.681 414 255.637 413.991 246.945 408.982C246.69 408.835 246.435 408.688 246.19 408.531C242.358 406.09 240.448 402.973 240.457 399.846L240.379 426.969C240.379 430.086 242.28 433.213 246.112 435.654L246.866 436.105C255.559 441.123 269.602 441.133 278.226 436.105C280.675 434.787 282.67 432.761 283.949 430.292L306.548 443.339C307.518 443.832 308.591 444.089 309.679 444.089C310.767 444.089 311.84 443.832 312.81 443.339L335.154 430.37C336.457 432.752 338.434 434.696 340.838 435.958C349.805 441.133 364.455 440.967 373.001 435.458C376.725 433.066 378.587 430.008 378.597 426.939L378.665 399.816C378.606 402.885 376.754 405.943 373.03 408.335Z" fill="#29B98E" stroke="#1E2532" stroke-width="0.2" stroke-linejoin="round"/>
<path d="M371.999 336.267C372.264 336.414 372.519 336.571 372.764 336.728C380.525 341.629 380.388 349.393 372.489 354.215C369.292 356.067 365.763 357.272 362.102 357.764L384.7 370.821C386.435 371.801 386.444 373.448 384.7 374.457L362.435 387.396C365.83 387.896 369.107 389.005 372.107 390.67L372.636 390.984C380.476 395.807 380.604 403.443 373.009 408.334C364.463 413.843 349.812 414.01 340.836 408.834C338.437 407.579 336.461 405.646 335.152 403.276L312.896 416.215C311.924 416.708 310.85 416.964 309.76 416.964C308.671 416.964 307.596 416.708 306.624 416.215L284.026 403.158C282.774 405.65 280.772 407.687 278.303 408.981C269.679 414 255.635 413.99 246.943 408.981C246.688 408.834 246.433 408.687 246.188 408.53C238.427 403.629 238.574 395.865 246.473 391.043C249.67 389.191 253.199 387.982 256.86 387.485L234.066 374.32C232.321 373.34 232.312 371.693 234.066 370.683L256.449 357.676C252.948 357.193 249.567 356.07 246.473 354.362C237.525 349.197 237.741 340.718 247.168 335.738C255.645 331.268 268.963 331.366 277.323 335.944L277.734 336.179C280.196 337.471 282.204 339.486 283.487 341.953L305.86 328.945C306.831 328.445 307.908 328.184 309.001 328.184C310.093 328.184 311.17 328.445 312.142 328.945L334.936 342.11C336.185 339.621 338.183 337.588 340.65 336.297C349.273 331.249 363.317 331.249 371.999 336.267Z" fill="#31E7B6" stroke="#1E2532" stroke-width="0.2" stroke-linejoin="round"/>
<path d="M462.905 325.457C464.639 326.438 464.649 328.094 462.905 329.094L391.101 370.832C390.131 371.326 389.058 371.583 387.97 371.583C386.881 371.583 385.809 371.326 384.839 370.832L362.387 357.864C365.849 357.38 369.191 356.26 372.246 354.56C380.87 349.542 380.83 341.416 372.148 336.397C371.883 336.24 371.609 336.093 371.334 335.946C362.818 331.486 349.53 331.574 341.229 336.132C338.606 337.423 336.463 339.518 335.114 342.112L312.574 329.094C310.84 328.114 310.83 326.467 312.574 325.457L334.938 312.499C336.222 314.968 338.233 316.984 340.7 318.272L341.111 318.508C349.471 323.085 362.789 323.183 371.256 318.704C380.683 313.744 380.909 305.265 371.962 300.079C368.867 298.374 365.485 297.25 361.985 296.766L384.368 283.758C385.337 283.261 386.41 283.002 387.499 283.002C388.588 283.002 389.661 283.261 390.63 283.758L462.905 325.457Z" fill="#769AF0" stroke="#1E2532" stroke-width="0.2" stroke-linejoin="round"/>
<path d="M240.207 297.044L240.285 269.921C240.285 266.657 242.441 263.393 246.724 260.903C249.781 259.206 253.122 258.083 256.583 257.59L256.504 284.713C253.065 285.212 249.744 286.331 246.704 288.016C242.363 290.516 240.217 293.77 240.207 297.044Z" fill="#FFA735" stroke="#1E2532" stroke-width="0.2" stroke-linejoin="round"/>
<path d="M306.424 289.999L284.041 303.007L283.973 330.13L306.346 317.122C306.7 316.962 307.006 316.711 307.232 316.394C307.457 316.077 307.595 315.706 307.63 315.318L307.708 288.195C307.673 288.583 307.536 288.954 307.31 289.271C307.084 289.588 306.779 289.839 306.424 289.999V289.999Z" fill="#FFA735" stroke="#1E2532" stroke-width="0.2" stroke-linejoin="round"/>
<path d="M240.41 333.381L240.479 306.258C240.479 302.798 242.909 299.337 247.721 296.799C256.198 292.329 269.516 292.427 277.865 297.005L278.287 297.24C280.752 298.522 282.761 300.535 284.039 303.004L283.971 330.126C282.69 327.655 280.677 325.638 278.208 324.353L277.797 324.127C269.437 319.54 256.129 319.452 247.652 323.922C242.831 326.46 240.42 329.921 240.41 333.381Z" fill="#FFA735" stroke="#1E2532" stroke-width="0.2" stroke-linejoin="round"/>
<path d="M234.668 331.733C233.698 332.227 232.625 332.484 231.537 332.484C230.449 332.484 229.376 332.227 228.406 331.733L156.142 289.995C155.778 289.836 155.464 289.582 155.233 289.259C155.002 288.937 154.862 288.558 154.828 288.162L154.75 315.285C154.784 315.681 154.924 316.06 155.155 316.382C155.386 316.705 155.7 316.959 156.063 317.118L228.328 358.856C229.298 359.35 230.37 359.607 231.459 359.607C232.547 359.607 233.62 359.35 234.59 358.856L256.973 345.839L257.051 318.726L234.668 331.733Z" fill="#FFA735" stroke="#1E2532" stroke-width="0.2" stroke-linejoin="round"/>
<path d="M306.406 286.361C308.14 287.341 308.15 288.997 306.406 289.997L284.042 303.005C282.765 300.537 280.755 298.524 278.29 297.241L277.869 297.006C269.519 292.428 256.201 292.33 247.724 296.8C238.306 301.77 238.081 310.239 247.028 315.424C250.122 317.133 253.504 318.26 257.005 318.747L234.671 331.736C233.701 332.229 232.628 332.486 231.54 332.486C230.451 332.486 229.378 332.229 228.408 331.736L156.144 289.997C154.4 289.017 154.39 287.37 156.144 286.37L227.948 244.632C228.92 244.14 229.994 243.883 231.084 243.883C232.173 243.883 233.248 244.14 234.22 244.632L256.662 257.591C253.201 258.084 249.859 259.207 246.803 260.904C238.179 265.913 238.218 274.049 246.911 279.068C247.175 279.215 247.44 279.372 247.724 279.519C256.24 283.979 269.519 283.881 277.82 279.323C280.405 278.031 282.52 275.96 283.866 273.402L306.406 286.361Z" fill="#FFDA54" stroke="#1E2532" stroke-width="0.2" stroke-linejoin="round"/>
<path d="M381.093 174.777L381.014 201.9C381.014 205.086 378.996 208.262 374.997 210.722C371.8 212.574 368.271 213.779 364.609 214.271L364.688 187.148C368.349 186.656 371.878 185.451 375.076 183.599C379.074 181.159 381.083 177.983 381.093 174.777Z" fill="#6E80E3" stroke="#1E2532" stroke-width="0.2" stroke-linejoin="round"/>
<path d="M242.43 201.674L242.508 174.561C242.508 177.864 244.684 181.187 249.054 183.706C252.149 185.413 255.53 186.536 259.031 187.019L258.952 214.142C255.452 213.659 252.07 212.536 248.976 210.829C244.635 208.3 242.42 204.987 242.43 201.674Z" fill="#6E80E3" stroke="#1E2532" stroke-width="0.2" stroke-linejoin="round"/>
<path d="M387.303 203.839L365.037 216.778L364.969 243.901L387.224 230.962C387.581 230.802 387.89 230.549 388.117 230.231C388.344 229.912 388.483 229.538 388.518 229.148L388.596 202.025C388.561 202.415 388.423 202.789 388.195 203.108C387.968 203.426 387.66 203.679 387.303 203.839V203.839Z" fill="#6E80E3" stroke="#1E2532" stroke-width="0.2" stroke-linejoin="round"/>
<path d="M236.681 203.665C236.318 203.504 236.006 203.25 235.775 202.927C235.544 202.605 235.403 202.227 235.367 201.832L235.289 228.955C235.325 229.35 235.465 229.728 235.696 230.05C235.927 230.373 236.24 230.627 236.602 230.788L259.397 243.953L259.475 216.83L236.681 203.665Z" fill="#6E80E3" stroke="#1E2532" stroke-width="0.2" stroke-linejoin="round"/>
<path d="M375.612 237.717C367.067 243.226 352.416 243.393 343.439 238.217C341.027 236.952 339.042 235.001 337.736 232.61L315.48 245.55C314.508 246.042 313.434 246.299 312.344 246.299C311.255 246.299 310.18 246.042 309.208 245.55L286.61 232.503C285.354 234.989 283.353 237.022 280.887 238.315C272.263 243.334 258.219 243.324 249.527 238.315C249.272 238.168 249.017 238.021 248.772 237.864C244.941 235.424 243.03 232.307 243.039 229.189L242.961 256.303C242.961 259.43 244.862 262.547 248.694 264.988L249.448 265.438C258.141 270.457 272.184 270.467 280.808 265.438C283.257 264.121 285.252 262.095 286.531 259.626L309.13 272.673C310.1 273.166 311.173 273.423 312.261 273.423C313.349 273.423 314.422 273.166 315.392 272.673L337.736 259.753C339.039 262.135 341.016 264.079 343.42 265.34C352.387 270.516 367.037 270.349 375.583 264.84C379.307 262.449 381.169 259.39 381.179 256.322L381.247 229.209C381.189 232.267 379.336 235.326 375.612 237.717Z" fill="#6E80E3" stroke="#1E2532" stroke-width="0.2" stroke-linejoin="round"/>
<path d="M374.581 165.65C374.846 165.797 375.101 165.954 375.346 166.111C383.107 171.012 382.97 178.776 375.071 183.598C371.874 185.45 368.345 186.655 364.684 187.147L387.282 200.204C389.017 201.184 389.026 202.831 387.282 203.84L365.017 216.779C368.412 217.279 371.689 218.388 374.689 220.053L375.218 220.367C383.058 225.19 383.186 232.826 375.591 237.717C367.045 243.226 352.394 243.393 343.418 238.217C341.013 236.948 339.035 234.998 337.734 232.61L315.478 245.549C314.506 246.042 313.432 246.298 312.342 246.298C311.253 246.298 310.178 246.042 309.206 245.549L286.608 232.502C285.352 234.989 283.351 237.021 280.885 238.315C272.261 243.334 258.217 243.324 249.525 238.315C249.27 238.168 249.015 238.021 248.77 237.864C241.009 232.963 241.156 225.199 249.055 220.377C252.252 218.525 255.781 217.316 259.442 216.818L236.648 203.654C234.904 202.674 234.894 201.027 236.648 200.027L259.031 187.01C255.53 186.527 252.149 185.404 249.055 183.696C240.107 178.531 240.323 170.052 249.75 165.072C258.227 160.602 271.545 160.7 279.905 165.288L280.316 165.513C282.778 166.805 284.786 168.82 286.069 171.287L308.442 158.279C309.413 157.779 310.49 157.518 311.583 157.518C312.675 157.518 313.752 157.779 314.724 158.279L337.518 171.444C338.767 168.955 340.765 166.922 343.232 165.631C351.855 160.632 365.899 160.632 374.581 165.65Z" fill="#B8C2F9" stroke="#1E2532" stroke-width="0.2" stroke-miterlimit="10"/>
<path d="M413.744 340.772C420.559 340.772 426.082 335.247 426.082 328.431C426.082 321.615 420.559 316.09 413.744 316.09C406.93 316.09 401.406 321.615 401.406 328.431C401.406 335.247 406.93 340.772 413.744 340.772Z" fill="white" stroke="#1E2532" stroke-width="0.2" stroke-linejoin="round"/>
<path d="M402.214 345.788C407.031 345.788 410.936 341.882 410.936 337.064C410.936 332.246 407.031 328.34 402.214 328.34C397.397 328.34 393.492 332.246 393.492 337.064C393.492 341.882 397.397 345.788 402.214 345.788Z" fill="#FFDA54" stroke="#1E2532" stroke-width="0.2" stroke-linejoin="round"/>
<path d="M334.316 141.97V85.8125L355.082 73.8145V129.982L334.316 141.97Z" fill="#ED889B" stroke="#1E2532" stroke-width="0.2" stroke-linejoin="round"/>
<path d="M306.621 125.986V69.8184L334.316 85.8157V141.973L306.621 125.986Z" fill="#F9B8C4" stroke="#1E2532" stroke-width="0.2" stroke-linejoin="round"/>
<path d="M355.082 73.8177L327.387 57.8301L306.621 69.8183L334.316 85.8157L355.082 73.8177Z" fill="#F9B8C4" stroke="#1E2532" stroke-width="0.2" stroke-linejoin="round"/>
<path d="M341.239 75.8429L337.828 77.8131V73.8726L341.239 71.9023V75.8429Z" fill="#37C99E" stroke="#1E2532" stroke-width="0.2" stroke-linejoin="round"/>
<path d="M334.414 71.9023V75.8429L337.825 77.8131V73.8726L334.414 71.9023Z" fill="#F9B8C4" stroke="#1E2532" stroke-width="0.2" stroke-linejoin="round"/>
<path d="M341.235 71.9039L337.824 69.9336L334.414 71.9039L337.824 73.8741L341.235 71.9039Z" fill="#37C99E" stroke="#1E2532" stroke-width="0.2" stroke-linejoin="round"/>
<path d="M348.11 130.346L344.699 132.316V87.4214L348.11 85.4512V130.346Z" fill="#F9B8C4" stroke="#1E2532" stroke-width="0.2" stroke-linejoin="round"/>
<path d="M341.285 85.4512V130.346L344.696 132.316V87.4214L341.285 85.4512Z" fill="#F9B8C4" stroke="#1E2532" stroke-width="0.2" stroke-linejoin="round"/>
<path d="M348.106 85.4527L344.696 83.4824L341.285 85.4527L344.696 87.423L348.106 85.4527Z" fill="#F9B8C4" stroke="#1E2532" stroke-width="0.2" stroke-linejoin="round"/>
<path d="M334.421 71.6788L331 73.6491V69.7086L334.421 67.7383V71.6788Z" fill="#F9B8C4" stroke="#1E2532" stroke-width="0.2" stroke-linejoin="round"/>
<path d="M327.586 67.7383V71.6788L330.997 73.6491V69.7086L327.586 67.7383Z" fill="#F9B8C4" stroke="#1E2532" stroke-width="0.2" stroke-linejoin="round"/>
<path d="M334.416 67.7379L330.996 65.7676L327.586 67.7379L330.996 69.7081L334.416 67.7379Z" fill="#F9B8C4" stroke="#1E2532" stroke-width="0.2" stroke-linejoin="round"/>
<path d="M327.583 67.7394L324.172 69.7096V65.7691L327.583 63.7988V67.7394Z" fill="#F9B8C4" stroke="#1E2532" stroke-width="0.2" stroke-linejoin="round"/>
<path d="M320.758 63.7988V67.7394L324.169 69.7096V65.7691L320.758 63.7988Z" fill="#F9B8C4" stroke="#1E2532" stroke-width="0.2" stroke-linejoin="round"/>
<path d="M327.579 63.8004L324.168 61.8301L320.758 63.8004L324.168 65.7706L327.579 63.8004Z" fill="#F9B8C4" stroke="#1E2532" stroke-width="0.2" stroke-linejoin="round"/>
<path d="M271.042 124.818L268.699 126.18V118.044L271.042 116.682V124.818Z" fill="#0099FF" stroke="#1E2532" stroke-width="0.2" stroke-linejoin="round"/>
<path d="M266.348 116.682L268.7 118.044V126.18L266.348 124.818V116.682Z" fill="#0099FF" stroke="#1E2532" stroke-width="0.2" stroke-linejoin="round"/>
<path d="M271.042 116.681L268.7 115.328L266.348 116.681" fill="#0099FF"/>
<path d="M271.042 116.681L268.7 115.328L266.348 116.681" stroke="#1E2532" stroke-width="0.2" stroke-linejoin="round"/>
<path d="M263.548 120.495L261.195 121.848V113.712L263.548 112.359V120.495Z" fill="#0099FF" stroke="#1E2532" stroke-width="0.2" stroke-linejoin="round"/>
<path d="M258.844 112.359L261.196 113.712V121.848L258.844 120.495V112.359Z" fill="#0099FF" stroke="#1E2532" stroke-width="0.2" stroke-linejoin="round"/>
<path d="M263.548 112.361L261.196 111.008L258.844 112.361" fill="#0099FF"/>
<path d="M263.548 112.361L261.196 111.008L258.844 112.361" stroke="#1E2532" stroke-width="0.2" stroke-linejoin="round"/>
<path d="M276.198 114.515L264.948 121.014L253.688 114.515L264.948 108.016L276.198 114.515Z" fill="white" stroke="#1E2532" stroke-width="0.2" stroke-linejoin="round"/>
<path d="M276.192 101.52L264.941 108.018V121.016L276.192 114.517V101.52Z" fill="white" stroke="#1E2532" stroke-width="0.2" stroke-linejoin="round"/>
<path d="M253.688 114.517V101.52L264.948 108.018V121.016L253.688 114.517Z" fill="white" stroke="#1E2532" stroke-width="0.2" stroke-linejoin="round"/>
<path d="M276.198 101.518L264.948 95.0195L253.688 101.518L264.948 108.017L276.198 101.518Z" fill="white" stroke="#1E2532" stroke-width="0.2" stroke-linejoin="round"/>
<path d="M266.411 43.5L249.418 53.3121L266.411 63.1242L283.404 53.3121L266.411 43.5Z" fill="#0099FF" stroke="#1E2532" stroke-width="0.2" stroke-linejoin="round"/>
<path d="M266.411 115.459L249.418 105.647V53.3125L266.411 63.1246V115.459Z" fill="#0099FF" stroke="#1E2532" stroke-width="0.2" stroke-linejoin="round"/>
<path d="M283.403 105.647L266.41 115.459V63.1246L283.403 53.3125V105.647Z" fill="#0F7FC9" stroke="#1E2532" stroke-width="0.2" stroke-linejoin="round"/>
<path d="M269.805 64.8984L280.251 70.9269V82.9935L269.805 76.9553V64.8984Z" fill="#0F7FC9" stroke="#1E2532" stroke-width="0.2" stroke-linejoin="round"/>
<path d="M290.701 76.9533L280.254 82.9916V70.9249L290.701 64.8965V76.9533Z" fill="#F9B8C4" stroke="#1E2532" stroke-width="0.2" stroke-linejoin="round"/>
<path d="M280.163 59.0059L290.698 64.8971L280.251 70.9255L269.805 64.8971L280.163 59.0059Z" fill="#0F7FC9" stroke="#1E2532" stroke-width="0.2" stroke-linejoin="round"/>
<path d="M341.089 209.835L327.242 217.833L313.395 209.835L327.242 201.836L341.089 209.835Z" fill="#F9B8C4" stroke="#1E2532" stroke-width="0.2" stroke-linejoin="round"/>
<path d="M341.089 193.848L327.242 201.837V217.834L341.089 209.835V193.848Z" fill="#0099FF" stroke="#1E2532" stroke-width="0.2" stroke-linejoin="round"/>
<path d="M313.395 209.835V193.848L327.242 201.837V217.834L313.395 209.835Z" fill="#0099FF" stroke="#1E2532" stroke-width="0.2" stroke-linejoin="round"/>
<path d="M341.089 193.848L327.242 185.85L313.395 193.848L327.242 201.837L341.089 193.848Z" fill="#F9B8C4" stroke="#1E2532" stroke-width="0.2" stroke-linejoin="round"/>
<path d="M341.089 193.846L327.242 201.835L313.395 193.846L327.242 185.848L341.089 193.846Z" fill="#F9B8C4" stroke="#1E2532" stroke-width="0.2" stroke-linejoin="round"/>
<path d="M341.089 177.846L327.242 185.844V201.832L341.089 193.843V177.846Z" fill="#0099FF" stroke="#1E2532" stroke-width="0.2" stroke-linejoin="round"/>
<path d="M313.395 193.843V177.846L327.242 185.844V201.832L313.395 193.843Z" fill="#0099FF" stroke="#1E2532" stroke-width="0.2" stroke-linejoin="round"/>
<path d="M341.089 177.846L327.242 169.857L313.395 177.846L327.242 185.845L341.089 177.846Z" fill="#F9B8C4" stroke="#1E2532" stroke-width="0.2" stroke-linejoin="round"/>
<path d="M306.478 189.848L292.63 197.847L278.793 189.848L292.63 181.85L306.478 189.848Z" fill="#F9B8C4" stroke="#1E2532" stroke-width="0.2" stroke-linejoin="round"/>
<path d="M306.476 173.859L292.629 181.848V197.846L306.476 189.847V173.859Z" fill="#0F7FC9" stroke="#1E2532" stroke-width="0.2" stroke-linejoin="round"/>
<path d="M278.793 189.847V173.859L292.63 181.848V197.846L278.793 189.847Z" fill="#0099FF" stroke="#1E2532" stroke-width="0.2" stroke-linejoin="round"/>
<path d="M306.478 173.858L292.63 165.859L278.793 173.858L292.63 181.847L306.478 173.858Z" fill="#F9B8C4" stroke="#1E2532" stroke-width="0.2" stroke-linejoin="round"/>
<path d="M306.478 173.862L292.63 181.851L278.793 173.862L292.63 165.863L306.478 173.862Z" fill="#F9B8C4" stroke="#1E2532" stroke-width="0.2" stroke-linejoin="round"/>
<path d="M306.476 157.861L292.629 165.86V181.848L306.476 173.859V157.861Z" fill="#0F7FC9" stroke="#1E2532" stroke-width="0.2" stroke-linejoin="round"/>
<path d="M278.793 173.859V157.861L292.63 165.86V181.848L278.793 173.859Z" fill="#0099FF" stroke="#1E2532" stroke-width="0.2" stroke-linejoin="round"/>
<path d="M306.478 157.862L292.63 149.873L278.793 157.862L292.63 165.861L306.478 157.862Z" fill="#F9B8C4" stroke="#1E2532" stroke-width="0.2" stroke-linejoin="round"/>
<path d="M327.235 161.863L299.55 177.85L271.855 161.863L299.55 145.875L327.235 161.863Z" fill="#F9B8C4" stroke="#1E2532" stroke-width="0.2" stroke-linejoin="round"/>
<path d="M299.551 177.848V145.872L327.235 129.885V161.86L299.551 177.848Z" fill="#F9B8C4" stroke="#1E2532" stroke-width="0.2" stroke-linejoin="round"/>
<path d="M271.855 161.86V129.885L299.55 145.872V177.848L271.855 161.86Z" fill="#0099FF" stroke="#1E2532" stroke-width="0.2" stroke-linejoin="round"/>
<path d="M327.235 129.886L299.55 113.889L271.855 129.886L299.55 145.874L327.235 129.886Z" fill="#F9B8C4" stroke="#1E2532" stroke-width="0.2" stroke-linejoin="round"/>
<path d="M327.235 129.884L299.55 145.872L271.855 129.884L299.55 113.887L327.235 129.884Z" fill="#F9B8C4" stroke="#1E2532" stroke-width="0.2" stroke-linejoin="round"/>
<path d="M299.551 145.875V113.89L327.235 97.9023V129.887L299.551 145.875Z" fill="#F9B8C4" stroke="#1E2532" stroke-width="0.2" stroke-linejoin="round"/>
<path d="M271.855 129.885V97.9004L299.55 113.888V145.873L271.855 129.885Z" fill="#0099FF" stroke="#1E2532" stroke-width="0.2" stroke-linejoin="round"/>
<path d="M327.235 97.8997L299.55 81.9121L271.855 97.8997L299.55 113.887L327.235 97.8997Z" fill="#F9B8C4" stroke="#1E2532" stroke-width="0.2" stroke-linejoin="round"/>
<path d="M354.928 177.845L327.243 193.842L299.559 177.845L327.243 161.857L354.928 177.845Z" fill="#F9B8C4" stroke="#1E2532" stroke-width="0.2" stroke-linejoin="round"/>
<path d="M327.242 193.846V161.861L354.927 145.873V177.848L327.242 193.846Z" fill="#0F7FC9" stroke="#1E2532" stroke-width="0.2" stroke-linejoin="round"/>
<path d="M299.559 177.846V145.871L327.243 161.859V193.844L299.559 177.846Z" fill="#0099FF" stroke="#1E2532" stroke-width="0.2" stroke-linejoin="round"/>
<path d="M354.928 145.872L327.243 129.885L299.559 145.872L327.243 161.86L354.928 145.872Z" fill="#F9B8C4" stroke="#1E2532" stroke-width="0.2" stroke-linejoin="round"/>
<path d="M354.928 145.876L327.243 161.864L299.559 145.876L327.243 129.889L354.928 145.876Z" fill="#F9B8C4" stroke="#1E2532" stroke-width="0.2" stroke-linejoin="round"/>
<path d="M327.242 161.865V129.89L354.927 113.893V145.878L327.242 161.865Z" fill="#0F7FC9" stroke="#1E2532" stroke-width="0.2" stroke-linejoin="round"/>
<path d="M299.559 145.876V113.891L327.243 129.888V161.863L299.559 145.876Z" fill="#0099FF" stroke="#1E2532" stroke-width="0.2" stroke-linejoin="round"/>
<path d="M354.928 113.89L327.243 97.9023L299.559 113.89L327.243 129.887L354.928 113.89Z" fill="#F9B8C4" stroke="#1E2532" stroke-width="0.2" stroke-linejoin="round"/>
<path d="M327.235 97.9017L299.55 113.889L271.855 97.9017L299.55 81.9141L327.235 97.9017Z" fill="#F9B8C4" stroke="#1E2532" stroke-width="0.2" stroke-linejoin="round"/>
<path d="M299.551 113.887V81.9114L327.235 65.9238V97.899L299.551 113.887Z" fill="#F9B8C4" stroke="#1E2532" stroke-width="0.2" stroke-linejoin="round"/>
<path d="M271.855 97.899V65.9238L299.55 81.9114V113.887L271.855 97.899Z" fill="#0099FF" stroke="#1E2532" stroke-width="0.2" stroke-linejoin="round"/>
<path d="M327.235 65.9251L299.55 49.9277L271.855 65.9251L299.55 81.9127L327.235 65.9251Z" fill="#0099FF" stroke="#1E2532" stroke-width="0.2" stroke-linejoin="round"/>
<path d="M354.928 113.886L327.243 129.883L299.559 113.886L327.243 97.8984L354.928 113.886Z" fill="#F9B8C4" stroke="#1E2532" stroke-width="0.2" stroke-linejoin="round"/>
<path d="M327.242 129.889V97.9036L354.927 81.916V113.891L327.242 129.889Z" fill="#0F7FC9" stroke="#1E2532" stroke-width="0.2" stroke-linejoin="round"/>
<path d="M299.559 113.889V81.9141L327.243 97.9017V129.887L299.559 113.889Z" fill="#0099FF" stroke="#1E2532" stroke-width="0.2" stroke-linejoin="round"/>
<path d="M354.928 81.9134L327.243 65.9258L299.559 81.9134L327.243 97.901L354.928 81.9134Z" fill="#0099FF" stroke="#1E2532" stroke-width="0.2" stroke-linejoin="round"/>
<path d="M316.863 87.914V63.9277L337.629 51.9297V75.916L316.863 87.914Z" fill="#0099FF" stroke="#1E2532" stroke-width="0.2" stroke-linejoin="round"/>
<path d="M289.168 71.9159V47.9395L316.863 63.927V87.9133L289.168 71.9159Z" fill="#0099FF" stroke="#1E2532" stroke-width="0.2" stroke-linejoin="round"/>
<path d="M337.628 51.927L309.934 35.9395L289.168 47.9375L316.862 63.9251L337.628 51.927Z" fill="#0099FF" stroke="#1E2532" stroke-width="0.2" stroke-linejoin="round"/>
<path d="M336.031 102.715L346.468 108.753V120.82L336.031 114.781V102.715Z" fill="#0099FF" stroke="#1E2532" stroke-width="0.2" stroke-linejoin="round"/>
<path d="M356.915 114.781L346.469 120.82V108.753L356.915 102.715V114.781Z" fill="#F9B8C4" stroke="#1E2532" stroke-width="0.2" stroke-linejoin="round"/>
<path d="M346.38 96.832L356.915 102.713L346.468 108.752L336.031 102.713L346.38 96.832Z" fill="#0099FF" stroke="#1E2532" stroke-width="0.2" stroke-linejoin="round"/>
<path d="M309.933 46.9863L306.473 48.9859V36.9977L309.933 34.998V46.9863Z" fill="white" stroke="#1E2532" stroke-width="0.2" stroke-linejoin="round"/>
<path d="M303.012 34.998L306.472 36.9977V48.9859L303.012 46.9863V34.998Z" fill="white" stroke="#1E2532" stroke-width="0.2" stroke-linejoin="round"/>
<path d="M303.012 34.9997L306.471 33L309.93 34.9997L306.471 36.9994L303.012 34.9997Z" fill="white" stroke="#1E2532" stroke-width="0.2" stroke-linejoin="round"/>
<path d="M323.784 54.9843L320.324 56.984V44.986L323.784 42.9863V54.9843Z" fill="white" stroke="#1E2532" stroke-width="0.2" stroke-linejoin="round"/>
<path d="M316.863 42.9863L320.324 44.986V56.984L316.863 54.9843V42.9863Z" fill="white" stroke="#1E2532" stroke-width="0.2" stroke-linejoin="round"/>
<path d="M316.863 42.988L320.323 40.9883L323.782 42.988L320.323 44.9876L316.863 42.988Z" fill="white" stroke="#1E2532" stroke-width="0.2" stroke-linejoin="round"/>
<path d="M360.673 176.726L358.32 178.078V169.943L360.673 168.59V176.726Z" fill="#0099FF" stroke="#1E2532" stroke-width="0.2" stroke-linejoin="round"/>
<path d="M355.977 168.59L358.319 169.943V178.078L355.977 176.726V168.59Z" fill="#0099FF" stroke="#1E2532" stroke-width="0.2" stroke-linejoin="round"/>
<path d="M360.671 168.589L358.319 167.236L355.977 168.589" fill="#0099FF"/>
<path d="M360.671 168.589L358.319 167.236L355.977 168.589" stroke="#1E2532" stroke-width="0.2" stroke-linejoin="round"/>
<path d="M353.163 172.402L350.82 173.754V165.618L353.163 164.266V172.402Z" fill="#0F7FC9" stroke="#1E2532" stroke-width="0.2" stroke-linejoin="round"/>
<path d="M348.469 164.266L350.821 165.618V173.754L348.469 172.402V164.266Z" fill="#0099FF" stroke="#1E2532" stroke-width="0.2" stroke-linejoin="round"/>
<path d="M353.163 164.265L350.821 162.902L348.469 164.265" fill="#0099FF"/>
<path d="M353.163 164.265L350.821 162.902L348.469 164.265" stroke="#1E2532" stroke-width="0.2" stroke-linejoin="round"/>
<path d="M365.823 166.421L354.563 172.92L343.312 166.421L354.563 159.922L365.823 166.421Z" fill="white" stroke="#1E2532" stroke-width="0.2" stroke-linejoin="round"/>
<path d="M365.823 153.424L354.562 159.923V172.921L365.823 166.422V153.424Z" fill="white" stroke="#1E2532" stroke-width="0.2" stroke-linejoin="round"/>
<path d="M343.312 166.422V153.424L354.563 159.923V172.921L343.312 166.422Z" fill="white" stroke="#1E2532" stroke-width="0.2" stroke-linejoin="round"/>
<path d="M365.823 153.425L354.563 146.916L343.312 153.425L354.563 159.924L365.823 153.425Z" fill="white" stroke="#1E2532" stroke-width="0.2" stroke-linejoin="round"/>
<path d="M354.917 94.3945L337.934 104.207L354.917 114.019L371.91 104.207L354.917 94.3945Z" fill="#0099FF" stroke="#1E2532" stroke-width="0.2" stroke-linejoin="round"/>
<path d="M354.917 166.354L337.934 156.542V104.207L354.917 114.019V166.354Z" fill="#0099FF" stroke="#1E2532" stroke-width="0.2" stroke-linejoin="round"/>
<path d="M371.907 156.542L354.914 166.354V114.019L371.907 104.207V156.542Z" fill="#0099FF" stroke="#1E2532" stroke-width="0.2" stroke-linejoin="round"/>
<path d="M331.7 72.8608L325.457 76.4289V69.2634L331.7 65.6953V72.8608Z" fill="white" stroke="#1E2532" stroke-width="0.2" stroke-linejoin="round"/>
<path d="M323.422 75.2514L325.461 76.4277V69.2622L323.422 68.0859V75.2514Z" fill="white" stroke="#1E2532" stroke-width="0.2" stroke-linejoin="round"/>
<path d="M331.703 65.6939L329.635 64.498L323.422 68.0857L325.46 69.262L331.703 65.6939Z" fill="white" stroke="#1E2532" stroke-width="0.2" stroke-linejoin="round"/>
<path d="M313.391 70.013L306.473 66.0234V74.0123L313.391 78.0117V70.013Z" fill="#FFDA54" stroke="#1E2532" stroke-width="0.2" stroke-linejoin="round"/>
<path d="M299.557 62.0248L292.629 58.0254V66.0241L299.557 70.0136V62.0248Z" fill="#FFDA54" stroke="#1E2532" stroke-width="0.2" stroke-linejoin="round"/>
<path d="M114.832 388.809V444.847C114.832 444.847 114.832 451.49 127.054 451.922C127.054 451.922 138.003 452.237 139.276 444.847V388.809H114.832Z" fill="#FFDA54" stroke="#1E2532" stroke-width="0.2" stroke-linejoin="round"/>
<path d="M127.054 395.868C133.806 395.868 139.276 392.723 139.276 388.792C139.276 384.861 133.774 381.717 127.054 381.717C120.334 381.717 114.832 384.861 114.832 388.792C114.832 392.723 120.302 395.868 127.054 395.868Z" fill="#FFA735" stroke="#1E2532" stroke-width="0.2" stroke-linejoin="round"/>
<path d="M218.555 449.666V505.782C218.555 505.782 218.555 512.434 230.794 512.867C230.794 512.867 241.757 513.182 243.033 505.782V449.666H218.555Z" fill="#FFDA54" stroke="#1E2532" stroke-width="0.2" stroke-linejoin="round"/>
<path d="M230.794 456.737C237.555 456.737 243.033 453.588 243.033 449.652C243.033 445.715 237.523 442.566 230.794 442.566C224.064 442.566 218.555 445.715 218.555 449.652C218.555 453.588 224.033 456.737 230.794 456.737Z" fill="#FFA735" stroke="#1E2532" stroke-width="0.2" stroke-linejoin="round"/>
</svg>
