<svg width="600" height="600" viewBox="0 0 600 600" fill="none" xmlns="http://www.w3.org/2000/svg">
<path d="M477.57 428.117L513.07 448.617V407.617L477.57 387.117V428.117Z" fill="#769AF0" stroke="#1E2532" stroke-width="0.2" stroke-linejoin="round"/>
<path d="M548.58 387.117L513.07 407.617V448.617L548.58 428.117V387.117Z" fill="#769AF0" stroke="#1E2532" stroke-width="0.2" stroke-linejoin="round"/>
<path d="M477.57 387.117L513.07 366.617L548.58 387.117L513.07 407.617L477.57 387.117Z" fill="#769AF0" stroke="#1E2532" stroke-width="0.2" stroke-linejoin="round"/>
<path d="M442.059 448.617L477.569 469.117V428.117L442.059 407.617V448.617Z" fill="#769AF0" stroke="#1E2532" stroke-width="0.2" stroke-linejoin="round"/>
<path d="M513.07 407.617L477.57 428.117V469.117L513.07 448.617V407.617Z" fill="#769AF0" stroke="#1E2532" stroke-width="0.2" stroke-linejoin="round"/>
<path d="M442.059 407.617L477.569 387.117L513.069 407.617L477.569 428.117L442.059 407.617Z" fill="#769AF0" stroke="#1E2532" stroke-width="0.2" stroke-linejoin="round"/>
<path d="M513.07 448.617L548.58 469.117V428.117L513.07 407.617V448.617Z" fill="#769AF0" stroke="#1E2532" stroke-width="0.2" stroke-linejoin="round"/>
<path d="M584.082 407.617L548.582 428.117V469.117L584.082 448.617V407.617Z" fill="#1A49BA" stroke="#1E2532" stroke-width="0.2" stroke-linejoin="round"/>
<path d="M513.07 407.617L548.58 387.117L584.08 407.617L548.58 428.117L513.07 407.617Z" fill="#769AF0" stroke="#1E2532" stroke-width="0.2" stroke-linejoin="round"/>
<path d="M477.57 469.117L513.07 489.617V448.617L477.57 428.117V469.117Z" fill="#1A49BA" stroke="#1E2532" stroke-width="0.2" stroke-linejoin="round"/>
<path d="M548.58 428.117L513.07 448.617V489.617L548.58 469.117V428.117Z" fill="#1A49BA" stroke="#1E2532" stroke-width="0.2" stroke-linejoin="round"/>
<path d="M477.57 428.117L513.07 407.617L548.58 428.117L513.07 448.617L477.57 428.117Z" fill="#769AF0" stroke="#1E2532" stroke-width="0.2" stroke-linejoin="round"/>
<path d="M406.559 469.117L442.059 489.617V448.617L406.559 428.117V469.117Z" fill="#769AF0" stroke="#1E2532" stroke-width="0.2" stroke-linejoin="round"/>
<path d="M477.569 428.117L442.059 448.617V489.617L477.569 469.117V428.117Z" fill="#1A49BA" stroke="#1E2532" stroke-width="0.2" stroke-linejoin="round"/>
<path d="M406.559 428.117L442.059 407.617L477.569 428.117L442.059 448.617L406.559 428.117Z" fill="#769AF0" stroke="#1E2532" stroke-width="0.2" stroke-linejoin="round"/>
<path d="M371.051 489.617L406.561 510.107V469.117L371.051 448.617V489.617Z" fill="#769AF0" stroke="#1E2532" stroke-width="0.2" stroke-linejoin="round"/>
<path d="M442.062 448.617L406.562 469.117V510.107L442.062 489.617V448.617Z" fill="#1A49BA" stroke="#1E2532" stroke-width="0.2" stroke-linejoin="round"/>
<path d="M371.051 448.617L406.561 428.117L442.061 448.617L406.561 469.117L371.051 448.617Z" fill="#769AF0" stroke="#1E2532" stroke-width="0.2" stroke-linejoin="round"/>
<path d="M335.551 510.107L371.051 530.607V489.617L335.551 469.117V510.107Z" fill="#769AF0" stroke="#1E2532" stroke-width="0.2" stroke-linejoin="round"/>
<path d="M406.561 469.117L371.051 489.617V530.607L406.561 510.107V469.117Z" fill="#1A49BA" stroke="#1E2532" stroke-width="0.2" stroke-linejoin="round"/>
<path d="M335.551 469.117L371.051 448.617L406.561 469.117L371.051 489.617L335.551 469.117Z" fill="#769AF0" stroke="#1E2532" stroke-width="0.2" stroke-linejoin="round"/>
<path d="M300.039 530.607L335.549 551.107V510.107L300.039 489.617V530.607Z" fill="#769AF0" stroke="#1E2532" stroke-width="0.2" stroke-linejoin="round"/>
<path d="M371.051 489.617L335.551 510.107V551.107L371.051 530.607V489.617Z" fill="#1A49BA" stroke="#1E2532" stroke-width="0.2" stroke-linejoin="round"/>
<path d="M300.039 489.617L335.549 469.117L371.049 489.617L335.549 510.107L300.039 489.617Z" fill="#769AF0" stroke="#1E2532" stroke-width="0.2" stroke-linejoin="round"/>
<path d="M264.539 264.127L300.039 284.627V243.627L264.539 223.127V264.127Z" fill="#769AF0" stroke="#1E2532" stroke-width="0.2" stroke-linejoin="round"/>
<path d="M335.549 223.127L300.039 243.627V284.627L335.549 264.127V223.127Z" fill="#769AF0" stroke="#1E2532" stroke-width="0.2" stroke-linejoin="round"/>
<path d="M264.539 223.127L300.039 202.627L335.549 223.127L300.039 243.627L264.539 223.127Z" fill="#769AF0" stroke="#1E2532" stroke-width="0.2" stroke-linejoin="round"/>
<path d="M300.039 284.627L335.549 305.127V264.127L300.039 243.627V284.627Z" fill="#769AF0" stroke="#1E2532" stroke-width="0.2" stroke-linejoin="round"/>
<path d="M371.051 243.627L335.551 264.127V305.127L371.051 284.627V243.627Z" fill="#769AF0" stroke="#1E2532" stroke-width="0.2" stroke-linejoin="round"/>
<path d="M300.039 243.627L335.549 223.127L371.049 243.627L335.549 264.127L300.039 243.627Z" fill="#769AF0" stroke="#1E2532" stroke-width="0.2" stroke-linejoin="round"/>
<path d="M335.551 305.127L371.051 325.627V284.627L335.551 264.127V305.127Z" fill="#769AF0" stroke="#1E2532" stroke-width="0.2" stroke-linejoin="round"/>
<path d="M406.561 264.127L371.051 284.627V325.627L406.561 305.127V264.127Z" fill="#769AF0" stroke="#1E2532" stroke-width="0.2" stroke-linejoin="round"/>
<path d="M335.551 264.127L371.051 243.627L406.561 264.127L371.051 284.627L335.551 264.127Z" fill="#769AF0" stroke="#1E2532" stroke-width="0.2" stroke-linejoin="round"/>
<path d="M371.051 325.627L406.561 346.117V305.127L371.051 284.627V325.627Z" fill="#769AF0" stroke="#1E2532" stroke-width="0.2" stroke-linejoin="round"/>
<path d="M442.062 284.627L406.562 305.127V346.117L442.062 325.627V284.627Z" fill="#769AF0" stroke="#1E2532" stroke-width="0.2" stroke-linejoin="round"/>
<path d="M371.051 284.627L406.561 264.127L442.061 284.627L406.561 305.127L371.051 284.627Z" fill="#769AF0" stroke="#1E2532" stroke-width="0.2" stroke-linejoin="round"/>
<path d="M406.559 346.117L442.059 366.617V325.627L406.559 305.127V346.117Z" fill="#769AF0" stroke="#1E2532" stroke-width="0.2" stroke-linejoin="round"/>
<path d="M477.569 305.127L442.059 325.627V366.617L477.569 346.117V305.127Z" fill="#769AF0" stroke="#1E2532" stroke-width="0.2" stroke-linejoin="round"/>
<path d="M406.559 305.127L442.059 284.627L477.569 305.127L442.059 325.627L406.559 305.127Z" fill="#769AF0" stroke="#1E2532" stroke-width="0.2" stroke-linejoin="round"/>
<path d="M442.059 366.617L477.569 387.117V346.117L442.059 325.627V366.617Z" fill="#769AF0" stroke="#1E2532" stroke-width="0.2" stroke-linejoin="round"/>
<path d="M513.07 325.627L477.57 346.117V387.117L513.07 366.617V325.627Z" fill="#1A49BA" stroke="#1E2532" stroke-width="0.2" stroke-linejoin="round"/>
<path d="M442.059 325.627L477.569 305.127L513.069 325.627L477.569 346.117L442.059 325.627Z" fill="#769AF0" stroke="#1E2532" stroke-width="0.2" stroke-linejoin="round"/>
<path d="M229.027 284.627L264.537 305.127V264.127L229.027 243.627V284.627Z" fill="#769AF0" stroke="#1E2532" stroke-width="0.2" stroke-linejoin="round"/>
<path d="M300.039 243.627L264.539 264.127V305.127L300.039 284.627V243.627Z" fill="#769AF0" stroke="#1E2532" stroke-width="0.2" stroke-linejoin="round"/>
<path d="M229.027 243.627L264.537 223.127L300.037 243.627L264.537 264.127L229.027 243.627Z" fill="#769AF0" stroke="#1E2532" stroke-width="0.2" stroke-linejoin="round"/>
<path d="M264.539 305.127L300.039 325.627V284.627L264.539 264.127V305.127Z" fill="#769AF0" stroke="#1E2532" stroke-width="0.2" stroke-linejoin="round"/>
<path d="M335.549 264.127L300.039 284.627V325.627L335.549 305.127V264.127Z" fill="#769AF0" stroke="#1E2532" stroke-width="0.2" stroke-linejoin="round"/>
<path d="M264.539 264.127L300.039 243.627L335.549 264.127L300.039 284.627L264.539 264.127Z" fill="#769AF0" stroke="#1E2532" stroke-width="0.2" stroke-linejoin="round"/>
<path d="M300.039 325.627L335.549 346.117V305.127L300.039 284.627V325.627Z" fill="#769AF0" stroke="#1E2532" stroke-width="0.2" stroke-linejoin="round"/>
<path d="M371.051 284.627L335.551 305.127V346.117L371.051 325.627V284.627Z" fill="#769AF0" stroke="#1E2532" stroke-width="0.2" stroke-linejoin="round"/>
<path d="M300.039 284.627L335.549 264.127L371.049 284.627L335.549 305.127L300.039 284.627Z" fill="#769AF0" stroke="#1E2532" stroke-width="0.2" stroke-linejoin="round"/>
<path d="M335.551 346.117L371.051 366.617V325.627L335.551 305.127V346.117Z" fill="#769AF0" stroke="#1E2532" stroke-width="0.2" stroke-linejoin="round"/>
<path d="M406.561 305.127L371.051 325.627V366.617L406.561 346.117V305.127Z" fill="#769AF0" stroke="#1E2532" stroke-width="0.2" stroke-linejoin="round"/>
<path d="M335.551 305.127L371.051 284.627L406.561 305.127L371.051 325.627L335.551 305.127Z" fill="#769AF0" stroke="#1E2532" stroke-width="0.2" stroke-linejoin="round"/>
<path d="M371.051 366.617L406.561 387.117V346.117L371.051 325.627V366.617Z" fill="#769AF0" stroke="#1E2532" stroke-width="0.2" stroke-linejoin="round"/>
<path d="M442.062 325.627L406.562 346.117V387.117L442.062 366.617V325.627Z" fill="#769AF0" stroke="#1E2532" stroke-width="0.2" stroke-linejoin="round"/>
<path d="M371.051 325.627L406.561 305.127L442.061 325.627L406.561 346.117L371.051 325.627Z" fill="#769AF0" stroke="#1E2532" stroke-width="0.2" stroke-linejoin="round"/>
<path d="M406.559 387.117L442.059 407.617V366.617L406.559 346.117V387.117Z" fill="#769AF0" stroke="#1E2532" stroke-width="0.2" stroke-linejoin="round"/>
<path d="M477.569 346.117L442.059 366.617V407.617L477.569 387.117V346.117Z" fill="#1A49BA" stroke="#1E2532" stroke-width="0.2" stroke-linejoin="round"/>
<path d="M406.559 346.117L442.059 325.627L477.569 346.117L442.059 366.617L406.559 346.117Z" fill="#769AF0" stroke="#1E2532" stroke-width="0.2" stroke-linejoin="round"/>
<path d="M193.52 305.127L229.03 325.627V284.627L193.52 264.127V305.127Z" fill="#769AF0" stroke="#1E2532" stroke-width="0.2" stroke-linejoin="round"/>
<path d="M264.541 264.127L229.031 284.627V325.627L264.541 305.127V264.127Z" fill="#769AF0" stroke="#1E2532" stroke-width="0.2" stroke-linejoin="round"/>
<path d="M193.52 264.127L229.03 243.627L264.54 264.127L229.03 284.627L193.52 264.127Z" fill="#769AF0" stroke="#1E2532" stroke-width="0.2" stroke-linejoin="round"/>
<path d="M229.027 325.627L264.537 346.117V305.127L229.027 284.627V325.627Z" fill="#769AF0" stroke="#1E2532" stroke-width="0.2" stroke-linejoin="round"/>
<path d="M300.039 284.627L264.539 305.127V346.117L300.039 325.627V284.627Z" fill="#769AF0" stroke="#1E2532" stroke-width="0.2" stroke-linejoin="round"/>
<path d="M229.027 284.627L264.537 264.127L300.037 284.627L264.537 305.127L229.027 284.627Z" fill="#769AF0" stroke="#1E2532" stroke-width="0.2" stroke-linejoin="round"/>
<path d="M264.539 346.117L300.039 366.617V325.627L264.539 305.127V346.117Z" fill="#769AF0" stroke="#1E2532" stroke-width="0.2" stroke-linejoin="round"/>
<path d="M335.549 305.127L300.039 325.627V366.617L335.549 346.117V305.127Z" fill="#769AF0" stroke="#1E2532" stroke-width="0.2" stroke-linejoin="round"/>
<path d="M264.539 305.127L300.039 284.627L335.549 305.127L300.039 325.627L264.539 305.127Z" fill="#769AF0" stroke="#1E2532" stroke-width="0.2" stroke-linejoin="round"/>
<path d="M300.039 366.617L335.549 387.117V346.117L300.039 325.627V366.617Z" fill="#769AF0" stroke="#1E2532" stroke-width="0.2" stroke-linejoin="round"/>
<path d="M371.051 325.627L335.551 346.117V387.117L371.051 366.617V325.627Z" fill="#769AF0" stroke="#1E2532" stroke-width="0.2" stroke-linejoin="round"/>
<path d="M300.039 325.627L335.549 305.127L371.049 325.627L335.549 346.117L300.039 325.627Z" fill="#769AF0" stroke="#1E2532" stroke-width="0.2" stroke-linejoin="round"/>
<path d="M335.551 387.117L371.051 407.617V366.617L335.551 346.117V387.117Z" fill="#769AF0" stroke="#1E2532" stroke-width="0.2" stroke-linejoin="round"/>
<path d="M406.561 346.117L371.051 366.617V407.617L406.561 387.117V346.117Z" fill="#769AF0" stroke="#1E2532" stroke-width="0.2" stroke-linejoin="round"/>
<path d="M335.551 346.117L371.051 325.627L406.561 346.117L371.051 366.617L335.551 346.117Z" fill="#769AF0" stroke="#1E2532" stroke-width="0.2" stroke-linejoin="round"/>
<path d="M371.051 407.617L406.561 428.117V387.117L371.051 366.617V407.617Z" fill="#769AF0" stroke="#1E2532" stroke-width="0.2" stroke-linejoin="round"/>
<path d="M442.062 366.617L406.562 387.117V428.117L442.062 407.617V366.617Z" fill="#1A49BA" stroke="#1E2532" stroke-width="0.2" stroke-linejoin="round"/>
<path d="M371.051 366.617L406.561 346.117L442.061 366.617L406.561 387.117L371.051 366.617Z" fill="#769AF0" stroke="#1E2532" stroke-width="0.2" stroke-linejoin="round"/>
<path d="M158.02 325.627L193.52 346.117V305.127L158.02 284.627V325.627Z" fill="#769AF0" stroke="#1E2532" stroke-width="0.2" stroke-linejoin="round"/>
<path d="M229.03 284.627L193.52 305.127V346.117L229.03 325.627V284.627Z" fill="#769AF0" stroke="#1E2532" stroke-width="0.2" stroke-linejoin="round"/>
<path d="M158.02 284.627L193.52 264.127L229.03 284.627L193.52 305.127L158.02 284.627Z" fill="#769AF0" stroke="#1E2532" stroke-width="0.2" stroke-linejoin="round"/>
<path d="M193.52 346.117L229.03 366.617V325.627L193.52 305.127V346.117Z" fill="#769AF0" stroke="#1E2532" stroke-width="0.2" stroke-linejoin="round"/>
<path d="M264.541 305.127L229.031 325.627V366.617L264.541 346.117V305.127Z" fill="#769AF0" stroke="#1E2532" stroke-width="0.2" stroke-linejoin="round"/>
<path d="M193.52 305.127L229.03 284.627L264.54 305.127L229.03 325.627L193.52 305.127Z" fill="#769AF0" stroke="#1E2532" stroke-width="0.2" stroke-linejoin="round"/>
<path d="M229.027 366.617L264.537 387.117V346.117L229.027 325.627V366.617Z" fill="#769AF0" stroke="#1E2532" stroke-width="0.2" stroke-linejoin="round"/>
<path d="M300.039 325.627L264.539 346.117V387.117L300.039 366.617V325.627Z" fill="#769AF0" stroke="#1E2532" stroke-width="0.2" stroke-linejoin="round"/>
<path d="M229.027 325.627L264.537 305.127L300.037 325.627L264.537 346.117L229.027 325.627Z" fill="#769AF0" stroke="#1E2532" stroke-width="0.2" stroke-linejoin="round"/>
<path d="M264.539 387.117L300.039 407.617V366.617L264.539 346.117V387.117Z" fill="#769AF0" stroke="#1E2532" stroke-width="0.2" stroke-linejoin="round"/>
<path d="M335.549 346.117L300.039 366.617V407.617L335.549 387.117V346.117Z" fill="#769AF0" stroke="#1E2532" stroke-width="0.2" stroke-linejoin="round"/>
<path d="M264.539 346.117L300.039 325.627L335.549 346.117L300.039 366.617L264.539 346.117Z" fill="#769AF0" stroke="#1E2532" stroke-width="0.2" stroke-linejoin="round"/>
<path d="M300.039 407.617L335.549 428.117V387.117L300.039 366.617V407.617Z" fill="#769AF0" stroke="#1E2532" stroke-width="0.2" stroke-linejoin="round"/>
<path d="M371.051 366.617L335.551 387.117V428.117L371.051 407.617V366.617Z" fill="#769AF0" stroke="#1E2532" stroke-width="0.2" stroke-linejoin="round"/>
<path d="M300.039 366.617L335.549 346.117L371.049 366.617L335.549 387.117L300.039 366.617Z" fill="#769AF0" stroke="#1E2532" stroke-width="0.2" stroke-linejoin="round"/>
<path d="M335.551 428.117L371.051 448.617V407.617L335.551 387.117V428.117Z" fill="#769AF0" stroke="#1E2532" stroke-width="0.2" stroke-linejoin="round"/>
<path d="M406.561 387.117L371.051 407.617V448.617L406.561 428.117V387.117Z" fill="#1A49BA" stroke="#1E2532" stroke-width="0.2" stroke-linejoin="round"/>
<path d="M335.551 387.117L371.051 366.617L406.561 387.117L371.051 407.617L335.551 387.117Z" fill="#769AF0" stroke="#1E2532" stroke-width="0.2" stroke-linejoin="round"/>
<path d="M122.508 346.117L158.018 366.617V325.627L122.508 305.127V346.117Z" fill="#769AF0" stroke="#1E2532" stroke-width="0.2" stroke-linejoin="round"/>
<path d="M193.52 305.127L158.02 325.627V366.617L193.52 346.117V305.127Z" fill="#769AF0" stroke="#1E2532" stroke-width="0.2" stroke-linejoin="round"/>
<path d="M122.508 305.127L158.018 284.627L193.518 305.127L158.018 325.627L122.508 305.127Z" fill="#769AF0" stroke="#1E2532" stroke-width="0.2" stroke-linejoin="round"/>
<path d="M158.02 366.617L193.52 387.117V346.117L158.02 325.627V366.617Z" fill="#769AF0" stroke="#1E2532" stroke-width="0.2" stroke-linejoin="round"/>
<path d="M229.03 325.627L193.52 346.117V387.117L229.03 366.617V325.627Z" fill="#769AF0" stroke="#1E2532" stroke-width="0.2" stroke-linejoin="round"/>
<path d="M158.02 325.627L193.52 305.127L229.03 325.627L193.52 346.117L158.02 325.627Z" fill="#769AF0" stroke="#1E2532" stroke-width="0.2" stroke-linejoin="round"/>
<path d="M193.52 387.117L229.03 407.617V366.617L193.52 346.117V387.117Z" fill="#769AF0" stroke="#1E2532" stroke-width="0.2" stroke-linejoin="round"/>
<path d="M264.541 346.117L229.031 366.617V407.617L264.541 387.117V346.117Z" fill="#769AF0" stroke="#1E2532" stroke-width="0.2" stroke-linejoin="round"/>
<path d="M193.52 346.117L229.03 325.627L264.54 346.117L229.03 366.617L193.52 346.117Z" fill="#769AF0" stroke="#1E2532" stroke-width="0.2" stroke-linejoin="round"/>
<path d="M229.027 407.617L264.537 428.117V387.117L229.027 366.617V407.617Z" fill="#769AF0" stroke="#1E2532" stroke-width="0.2" stroke-linejoin="round"/>
<path d="M300.039 366.617L264.539 387.117V428.117L300.039 407.617V366.617Z" fill="#769AF0" stroke="#1E2532" stroke-width="0.2" stroke-linejoin="round"/>
<path d="M229.027 366.617L264.537 346.117L300.037 366.617L264.537 387.117L229.027 366.617Z" fill="#769AF0" stroke="#1E2532" stroke-width="0.2" stroke-linejoin="round"/>
<path d="M264.539 428.117L300.039 448.617V407.617L264.539 387.117V428.117Z" fill="#769AF0" stroke="#1E2532" stroke-width="0.2" stroke-linejoin="round"/>
<path d="M335.549 387.117L300.039 407.617V448.617L335.549 428.117V387.117Z" fill="#769AF0" stroke="#1E2532" stroke-width="0.2" stroke-linejoin="round"/>
<path d="M264.539 387.117L300.039 366.617L335.549 387.117L300.039 407.617L264.539 387.117Z" fill="#769AF0" stroke="#1E2532" stroke-width="0.2" stroke-linejoin="round"/>
<path d="M311.871 455.398L347.381 475.898V434.898L311.871 414.398V455.398Z" fill="#E2E2E2" stroke="#1E2532" stroke-width="0.2" stroke-linejoin="round"/>
<path d="M382.883 414.398L347.383 434.898V475.898L382.883 455.398V414.398Z" fill="#E2E2E2" stroke="#1E2532" stroke-width="0.2" stroke-linejoin="round"/>
<path d="M311.871 414.398L347.381 393.898L382.881 414.398L347.381 434.898L311.871 414.398Z" fill="white" stroke="#1E2532" stroke-width="0.2" stroke-linejoin="round"/>
<path d="M87.0078 366.617L122.508 387.117V346.117L87.0078 325.627V366.617Z" fill="#769AF0" stroke="#1E2532" stroke-width="0.2" stroke-linejoin="round"/>
<path d="M158.018 325.627L122.508 346.117V387.117L158.018 366.617V325.627Z" fill="#769AF0" stroke="#1E2532" stroke-width="0.2" stroke-linejoin="round"/>
<path d="M87.0078 325.627L122.508 305.127L158.018 325.627L122.508 346.117L87.0078 325.627Z" fill="#769AF0" stroke="#1E2532" stroke-width="0.2" stroke-linejoin="round"/>
<path d="M122.508 387.117L158.018 407.617V366.617L122.508 346.117V387.117Z" fill="#769AF0" stroke="#1E2532" stroke-width="0.2" stroke-linejoin="round"/>
<path d="M193.52 346.117L158.02 366.617V407.617L193.52 387.117V346.117Z" fill="#769AF0" stroke="#1E2532" stroke-width="0.2" stroke-linejoin="round"/>
<path d="M122.508 346.117L158.018 325.627L193.518 346.117L158.018 366.617L122.508 346.117Z" fill="#769AF0" stroke="#1E2532" stroke-width="0.2" stroke-linejoin="round"/>
<path d="M158.02 407.617L193.52 428.117V387.117L158.02 366.617V407.617Z" fill="#1A49BA" stroke="#1E2532" stroke-width="0.2" stroke-linejoin="round"/>
<path d="M229.03 366.617L193.52 387.117V428.117L229.03 407.617V366.617Z" fill="#769AF0" stroke="#1E2532" stroke-width="0.2" stroke-linejoin="round"/>
<path d="M158.02 366.617L193.52 346.117L229.03 366.617L193.52 387.117L158.02 366.617Z" fill="#769AF0" stroke="#1E2532" stroke-width="0.2" stroke-linejoin="round"/>
<path d="M193.52 428.117L229.03 448.617V407.617L193.52 387.117V428.117Z" fill="#1A49BA" stroke="#1E2532" stroke-width="0.2" stroke-linejoin="round"/>
<path d="M264.541 387.117L229.031 407.617V448.617L264.541 428.117V387.117Z" fill="#769AF0" stroke="#1E2532" stroke-width="0.2" stroke-linejoin="round"/>
<path d="M193.52 387.117L229.03 366.617L264.54 387.117L229.03 407.617L193.52 387.117Z" fill="#769AF0" stroke="#1E2532" stroke-width="0.2" stroke-linejoin="round"/>
<path d="M229.027 448.617L264.537 469.117V428.117L229.027 407.617V448.617Z" fill="#1A49BA" stroke="#1E2532" stroke-width="0.2" stroke-linejoin="round"/>
<path d="M300.039 407.617L264.539 428.117V469.117L300.039 448.617V407.617Z" fill="#769AF0" stroke="#1E2532" stroke-width="0.2" stroke-linejoin="round"/>
<path d="M229.027 407.617L264.537 387.117L300.037 407.617L264.537 428.117L229.027 407.617Z" fill="#769AF0" stroke="#1E2532" stroke-width="0.2" stroke-linejoin="round"/>
<path d="M51.5078 428.117L87.0078 448.617V407.617L51.5078 387.117V428.117Z" fill="#769AF0" stroke="#1E2532" stroke-width="0.2" stroke-linejoin="round"/>
<path d="M122.508 387.117L87.0078 407.617V448.617L122.508 428.117V387.117Z" fill="#769AF0" stroke="#1E2532" stroke-width="0.2" stroke-linejoin="round"/>
<path d="M51.5078 387.117L87.0078 366.617L122.508 387.117L87.0078 407.617L51.5078 387.117Z" fill="#769AF0" stroke="#1E2532" stroke-width="0.2" stroke-linejoin="round"/>
<path d="M87.0078 448.617L122.508 469.117V428.117L87.0078 407.617V448.617Z" fill="#769AF0" stroke="#1E2532" stroke-width="0.2" stroke-linejoin="round"/>
<path d="M158.018 407.617L122.508 428.117V469.117L158.018 448.617V407.617Z" fill="#769AF0" stroke="#1E2532" stroke-width="0.2" stroke-linejoin="round"/>
<path d="M87.0078 407.617L122.508 387.117L158.018 407.617L122.508 428.117L87.0078 407.617Z" fill="#769AF0" stroke="#1E2532" stroke-width="0.2" stroke-linejoin="round"/>
<path d="M51.5078 387.117L87.0078 407.617V366.617L51.5078 346.117V387.117Z" fill="#1A49BA" stroke="#1E2532" stroke-width="0.2" stroke-linejoin="round"/>
<path d="M122.508 346.117L87.0078 366.617V407.617L122.508 387.117V346.117Z" fill="#769AF0" stroke="#1E2532" stroke-width="0.2" stroke-linejoin="round"/>
<path d="M51.5078 346.117L87.0078 325.627L122.508 346.117L87.0078 366.617L51.5078 346.117Z" fill="#769AF0" stroke="#1E2532" stroke-width="0.2" stroke-linejoin="round"/>
<path d="M87.0078 407.617L122.508 428.117V387.117L87.0078 366.617V407.617Z" fill="#1A49BA" stroke="#1E2532" stroke-width="0.2" stroke-linejoin="round"/>
<path d="M158.018 366.617L122.508 387.117V428.117L158.018 407.617V366.617Z" fill="#1A49BA" stroke="#1E2532" stroke-width="0.2" stroke-linejoin="round"/>
<path d="M87.0078 366.617L122.508 346.117L158.018 366.617L122.508 387.117L87.0078 366.617Z" fill="#769AF0" stroke="#1E2532" stroke-width="0.2" stroke-linejoin="round"/>
<path d="M122.508 305.017L158.018 325.517V284.527L122.508 264.027V305.017Z" fill="#769AF0" stroke="#1E2532" stroke-width="0.2" stroke-linejoin="round"/>
<path d="M193.52 264.027L158.02 284.527V325.517L193.52 305.017V264.027Z" fill="#1A49BA" stroke="#1E2532" stroke-width="0.2" stroke-linejoin="round"/>
<path d="M122.508 264.027L158.018 243.527L193.518 264.027L158.018 284.527L122.508 264.027Z" fill="#769AF0" stroke="#1E2532" stroke-width="0.2" stroke-linejoin="round"/>
<path d="M176.188 314.991L193.507 324.989V304.997L176.188 294.998V314.991Z" fill="#FFDA54" stroke="#1E2532" stroke-width="0.2" stroke-linejoin="round"/>
<path d="M210.823 294.998L193.508 304.997V324.989L210.823 314.991V294.998Z" fill="#FFA735" stroke="#1E2532" stroke-width="0.2" stroke-linejoin="round"/>
<path d="M176.188 294.999L193.507 285L210.822 294.999L193.507 304.997L176.188 294.999Z" fill="#FFDA54" stroke="#1E2532" stroke-width="0.2" stroke-linejoin="round"/>
<path d="M87.0078 325.517L122.508 346.017V305.017L87.0078 284.527V325.517Z" fill="#769AF0" stroke="#1E2532" stroke-width="0.2" stroke-linejoin="round"/>
<path d="M158.018 284.527L122.508 305.017V346.017L158.018 325.517V284.527Z" fill="#1A49BA" stroke="#1E2532" stroke-width="0.2" stroke-linejoin="round"/>
<path d="M87.0078 284.527L122.508 264.027L158.018 284.527L122.508 305.017L87.0078 284.527Z" fill="#769AF0" stroke="#1E2532" stroke-width="0.2" stroke-linejoin="round"/>
<path d="M51.5078 346.018L87.0078 366.518V325.518L51.5078 305.018V346.018Z" fill="#1A49BA" stroke="#1E2532" stroke-width="0.2" stroke-linejoin="round"/>
<path d="M122.508 305.018L87.0078 325.518V366.518L122.508 346.018V305.018Z" fill="#769AF0" stroke="#1E2532" stroke-width="0.2" stroke-linejoin="round"/>
<path d="M51.5078 305.017L87.0078 284.527L122.508 305.017L87.0078 325.517L51.5078 305.017Z" fill="#769AF0" stroke="#1E2532" stroke-width="0.2" stroke-linejoin="round"/>
<path d="M87.0078 366.518L122.508 387.018V346.018L87.0078 325.518V366.518Z" fill="#1A49BA" stroke="#1E2532" stroke-width="0.2" stroke-linejoin="round"/>
<path d="M158.018 325.518L122.508 346.018V387.018L158.018 366.518V325.518Z" fill="#1A49BA" stroke="#1E2532" stroke-width="0.2" stroke-linejoin="round"/>
<path d="M87.0078 325.518L122.508 305.018L158.018 325.518L122.508 346.018L87.0078 325.518Z" fill="#769AF0" stroke="#1E2532" stroke-width="0.2" stroke-linejoin="round"/>
<path d="M122.508 469.117L158.018 489.617V448.617L122.508 428.117V469.117Z" fill="#769AF0" stroke="#1E2532" stroke-width="0.2" stroke-linejoin="round"/>
<path d="M193.52 428.117L158.02 448.617V489.617L193.52 469.117V428.117Z" fill="#769AF0" stroke="#1E2532" stroke-width="0.2" stroke-linejoin="round"/>
<path d="M122.508 428.117L158.018 407.617L193.518 428.117L158.018 448.617L122.508 428.117Z" fill="#769AF0" stroke="#1E2532" stroke-width="0.2" stroke-linejoin="round"/>
<path d="M138.551 418.859L158.021 430.099V407.619L138.551 396.379V418.859Z" fill="white" stroke="#1E2532" stroke-width="0.2" stroke-linejoin="round"/>
<path d="M177.49 396.379L158.02 407.619V430.099L177.49 418.859V396.379Z" fill="#E2E2E2" stroke="#1E2532" stroke-width="0.2" stroke-linejoin="round"/>
<path d="M138.551 396.379L158.021 385.139L177.491 396.379L158.021 407.619L138.551 396.379Z" fill="white" stroke="#1E2532" stroke-width="0.2" stroke-linejoin="round"/>
<path d="M158.02 489.617L193.52 510.107V469.117L158.02 448.617V489.617Z" fill="#769AF0" stroke="#1E2532" stroke-width="0.2" stroke-linejoin="round"/>
<path d="M229.03 448.617L193.52 469.117V510.107L229.03 489.617V448.617Z" fill="#769AF0" stroke="#1E2532" stroke-width="0.2" stroke-linejoin="round"/>
<path d="M158.02 448.617L193.52 428.117L229.03 448.617L193.52 469.117L158.02 448.617Z" fill="#769AF0" stroke="#1E2532" stroke-width="0.2" stroke-linejoin="round"/>
<path d="M193.52 510.107L229.03 530.607V489.617L193.52 469.117V510.107Z" fill="#769AF0" stroke="#1E2532" stroke-width="0.2" stroke-linejoin="round"/>
<path d="M264.541 469.117L229.031 489.617V530.607L264.541 510.107V469.117Z" fill="#769AF0" stroke="#1E2532" stroke-width="0.2" stroke-linejoin="round"/>
<path d="M193.52 469.117L229.03 448.617L264.54 469.117L229.03 489.617L193.52 469.117Z" fill="#769AF0" stroke="#1E2532" stroke-width="0.2" stroke-linejoin="round"/>
<path d="M229.027 530.607L264.537 551.107V510.107L229.027 489.617V530.607Z" fill="#1A49BA" stroke="#1E2532" stroke-width="0.2" stroke-linejoin="round"/>
<path d="M300.039 489.617L264.539 510.107V551.107L300.039 530.607V489.617Z" fill="#769AF0" stroke="#1E2532" stroke-width="0.2" stroke-linejoin="round"/>
<path d="M229.027 489.617L264.537 469.117L300.037 489.617L264.537 510.107L229.027 489.617Z" fill="#769AF0" stroke="#1E2532" stroke-width="0.2" stroke-linejoin="round"/>
<path d="M264.539 551.107L300.039 571.607V530.607L264.539 510.107V551.107Z" fill="#1A49BA" stroke="#1E2532" stroke-width="0.2" stroke-linejoin="round"/>
<path d="M335.549 510.107L300.039 530.607V571.607L335.549 551.107V510.107Z" fill="#1A49BA" stroke="#1E2532" stroke-width="0.2" stroke-linejoin="round"/>
<path d="M264.539 510.107L300.039 489.617L335.549 510.107L300.039 530.607L264.539 510.107Z" fill="#769AF0" stroke="#1E2532" stroke-width="0.2" stroke-linejoin="round"/>
<path d="M16 448.617L51.51 469.117V428.117L16 407.617V448.617Z" fill="#1A49BA" stroke="#1E2532" stroke-width="0.2" stroke-linejoin="round"/>
<path d="M87.0117 407.617L51.5117 428.117V469.117L87.0117 448.617V407.617Z" fill="#769AF0" stroke="#1E2532" stroke-width="0.2" stroke-linejoin="round"/>
<path d="M16 407.617L51.51 387.117L87.01 407.617L51.51 428.117L16 407.617Z" fill="#769AF0" stroke="#1E2532" stroke-width="0.2" stroke-linejoin="round"/>
<path d="M51.5078 469.117L87.0078 489.617V448.617L51.5078 428.117V469.117Z" fill="#1A49BA" stroke="#1E2532" stroke-width="0.2" stroke-linejoin="round"/>
<path d="M122.508 428.117L87.0078 448.617V489.617L122.508 469.117V428.117Z" fill="#769AF0" stroke="#1E2532" stroke-width="0.2" stroke-linejoin="round"/>
<path d="M51.5078 428.117L87.0078 407.617L122.508 428.117L87.0078 448.617L51.5078 428.117Z" fill="#769AF0" stroke="#1E2532" stroke-width="0.2" stroke-linejoin="round"/>
<path d="M87.0078 489.617L122.508 510.107V469.117L87.0078 448.617V489.617Z" fill="#1A49BA" stroke="#1E2532" stroke-width="0.2" stroke-linejoin="round"/>
<path d="M158.018 448.617L122.508 469.117V510.107L158.018 489.617V448.617Z" fill="#769AF0" stroke="#1E2532" stroke-width="0.2" stroke-linejoin="round"/>
<path d="M87.0078 448.617L122.508 428.117L158.018 448.617L122.508 469.117L87.0078 448.617Z" fill="#769AF0" stroke="#1E2532" stroke-width="0.2" stroke-linejoin="round"/>
<path d="M122.508 510.107L158.018 530.607V489.617L122.508 469.117V510.107Z" fill="#1A49BA" stroke="#1E2532" stroke-width="0.2" stroke-linejoin="round"/>
<path d="M193.52 469.117L158.02 489.617V530.607L193.52 510.107V469.117Z" fill="#769AF0" stroke="#1E2532" stroke-width="0.2" stroke-linejoin="round"/>
<path d="M122.508 469.117L158.018 448.617L193.518 469.117L158.018 489.617L122.508 469.117Z" fill="#769AF0" stroke="#1E2532" stroke-width="0.2" stroke-linejoin="round"/>
<path d="M158.02 530.607L193.52 551.107V510.107L158.02 489.617V530.607Z" fill="#1A49BA" stroke="#1E2532" stroke-width="0.2" stroke-linejoin="round"/>
<path d="M229.03 489.617L193.52 510.107V551.107L229.03 530.607V489.617Z" fill="#1A49BA" stroke="#1E2532" stroke-width="0.2" stroke-linejoin="round"/>
<path d="M158.02 489.617L193.52 469.117L229.03 489.617L193.52 510.107L158.02 489.617Z" fill="#769AF0" stroke="#1E2532" stroke-width="0.2" stroke-linejoin="round"/>
<path d="M264.539 469.117L300.039 489.617V448.617L264.539 428.117V469.117Z" fill="#1A49BA" stroke="#1E2532" stroke-width="0.2" stroke-linejoin="round"/>
<path d="M335.549 428.117L300.039 448.617V489.617L335.549 469.117V428.117Z" fill="#1A49BA" stroke="#1E2532" stroke-width="0.2" stroke-linejoin="round"/>
<path d="M264.539 428.117L300.039 407.617L335.549 428.117L300.039 448.617L264.539 428.117Z" fill="#769AF0" stroke="#1E2532" stroke-width="0.2" stroke-linejoin="round"/>
<path d="M185.848 103.878C185.768 91.3984 193.918 78.8784 210.308 69.3984C243.078 50.3984 296.368 50.3984 329.308 69.3984C345.798 78.9184 354.088 91.3984 354.158 103.878" stroke="#37C99E" stroke-width="0.2" stroke-miterlimit="10"/>
<path d="M194.2 152.638C194.14 141.688 201.29 130.738 215.66 122.388C244.41 105.678 291.16 105.678 320.1 122.388C334.57 130.738 341.84 141.688 341.9 152.628" stroke="#37C99E" stroke-width="0.2" stroke-miterlimit="10"/>
<path d="M244.873 59.102L244.931 59.1026L244.961 59.0522L253.568 44.2212L311.357 29.1217L326.882 85.7953L318.158 100.497L318.128 100.548L318.158 100.599L326.892 115.301L311.367 171.878L253.578 156.65L244.971 141.819L244.942 141.769L244.884 141.769L227.541 141.898L185.143 100.42L227.541 58.9416L244.873 59.102ZM246.288 61.2418L246.261 61.2485L246.242 61.2678L214.084 93.2421L213.912 93.413H214.154H265.145H265.202L265.231 93.3639L290.731 50.2099L290.853 50.0034L290.621 50.062L246.288 61.2418ZM246.241 139.432L246.261 139.451L246.288 139.458L290.749 150.606L290.981 150.664L290.859 150.458L265.359 107.336L265.33 107.287H265.272H214.282H214.04L214.211 107.458L246.241 139.432ZM302.979 143.625L303.098 143.825L303.161 143.601L315.454 100.436L315.461 100.409L315.454 100.382L303.161 57.2274L303.098 57.0035L302.979 57.204L277.479 100.369L277.449 100.42L277.479 100.47L302.979 143.625Z" fill="#1E2532" stroke="#1E2532" stroke-width="0.2"/>
<path d="M321.04 259.668V271.378C321.04 278.888 316.04 286.378 306.21 292.128C286.35 303.668 254.05 303.668 234.07 292.128C224.01 286.318 218.98 278.698 219 271.128V259.418C219 267.028 224 274.648 234.06 280.418C254.06 291.958 286.34 291.958 306.2 280.418C316.08 274.678 321.02 267.178 321.04 259.668Z" fill="#494F59" stroke="#1E2532" stroke-width="0.2" stroke-miterlimit="10"/>
<path d="M321.008 259.637C321.054 243.317 298.253 230.024 270.081 229.945C241.909 229.866 219.034 243.033 218.989 259.352C218.943 275.672 241.744 288.966 269.916 289.045C298.088 289.123 320.963 275.957 321.008 259.637Z" fill="#95989C" stroke="#1E2532" stroke-width="0.2" stroke-miterlimit="10"/>
<path d="M308.906 255.953C308.941 243.504 291.549 233.364 270.059 233.304C248.57 233.244 231.121 243.287 231.086 255.735C231.052 268.184 248.444 278.324 269.933 278.384C291.423 278.444 308.871 268.401 308.906 255.953Z" fill="#1E2532" stroke="#1E2532" stroke-width="0.2" stroke-miterlimit="10"/>
<path d="M354.201 103.877C354.271 116.347 346.121 128.827 329.741 138.347C296.971 157.347 243.681 157.347 210.741 138.347C194.241 128.827 185.961 116.347 185.891 103.877" stroke="#37C99E" stroke-width="0.2" stroke-miterlimit="10"/>
<path d="M341.938 152.627C341.998 163.627 334.848 174.527 320.478 182.877C291.728 199.587 244.978 199.587 216.038 182.877C201.578 174.527 194.298 163.577 194.238 152.637" stroke="#37C99E" stroke-width="0.2" stroke-miterlimit="10"/>
<path d="M326.924 195.549C326.977 176.716 300.667 161.376 268.16 161.285C235.652 161.194 209.257 176.388 209.205 195.22C209.152 214.053 235.462 229.394 267.969 229.485C300.476 229.575 326.872 214.382 326.924 195.549Z" stroke="#37C99E" stroke-width="0.2" stroke-miterlimit="10"/>
<path d="M311.832 227.478C311.871 213.378 292.173 201.893 267.834 201.825C243.494 201.757 223.732 213.132 223.692 227.232C223.653 241.332 243.352 252.817 267.691 252.885C292.03 252.953 311.793 241.578 311.832 227.478Z" stroke="#37C99E" stroke-width="0.2" stroke-miterlimit="10"/>
<path d="M282.289 499.867L300.039 510.117V489.617L282.289 479.367V499.867Z" fill="#31E7B6" stroke="#1E2532" stroke-width="0.2" stroke-linejoin="round"/>
<path d="M317.799 479.367L300.039 489.617V510.117L317.799 499.867V479.367Z" fill="#37C99E" stroke="#1E2532" stroke-width="0.2" stroke-linejoin="round"/>
<path d="M282.289 479.367L300.039 469.107L317.799 479.367L300.039 489.617L282.289 479.367Z" fill="#31E7B6" stroke="#1E2532" stroke-width="0.2" stroke-linejoin="round"/>
<path d="M221.029 349.499L369.649 280.999C374.145 278.405 379.244 277.039 384.434 277.039C389.624 277.039 394.723 278.405 399.219 280.999L455.619 296.239C469.869 304.469 466.979 331.069 460.469 335.069L306.609 423.889C302.233 426.419 297.268 427.751 292.214 427.751C287.16 427.751 282.195 426.419 277.819 423.889L217.989 388.259C208.639 382.869 207.739 355.469 221.029 349.499Z" fill="#494F59" stroke="#1E2532" stroke-width="0.2" stroke-linejoin="round"/>
<path d="M221.029 349.5L227.659 345.67L319.879 398.91V416.29L306.609 423.89C302.233 426.42 297.268 427.752 292.214 427.752C287.16 427.752 282.195 426.42 277.819 423.89L217.989 388.26C209.089 383.37 207.34 356 221.029 349.5Z" fill="#0099FF" stroke="#1E2532" stroke-width="0.2" stroke-linejoin="round"/>
<path d="M221.028 349.501L369.648 263.691C374.144 261.096 379.243 259.73 384.433 259.73C389.624 259.73 394.723 261.096 399.218 263.691L455.618 296.251C457.759 297.476 459.537 299.245 460.774 301.378C462.011 303.512 462.663 305.934 462.663 308.401C462.663 310.867 462.011 313.289 460.774 315.423C459.537 317.556 457.759 319.325 455.618 320.551L306.618 406.551C302.241 409.076 297.277 410.406 292.223 410.406C287.17 410.406 282.205 409.076 277.828 406.551L221.038 373.761C218.907 372.533 217.136 370.766 215.905 368.638C214.673 366.509 214.024 364.093 214.023 361.633C214.022 359.174 214.669 356.758 215.899 354.628C217.129 352.498 218.898 350.729 221.028 349.501V349.501Z" fill="#95989C" stroke="#1E2532" stroke-width="0.2" stroke-linejoin="round"/>
<path d="M221.028 349.5L227.658 345.67L319.878 398.91L306.608 406.58C302.231 409.106 297.267 410.436 292.213 410.436C287.16 410.436 282.195 409.106 277.818 406.58L221.028 373.79C218.89 372.564 217.114 370.795 215.878 368.663C214.643 366.53 213.992 364.109 213.992 361.645C213.992 359.18 214.643 356.76 215.878 354.627C217.114 352.494 218.89 350.726 221.028 349.5V349.5Z" fill="#1BB5FF" stroke="#1E2532" stroke-width="0.2" stroke-linejoin="round"/>
<path d="M246.098 345.67L338.328 292.43L411.998 335.08L319.878 388.26L246.098 345.67Z" fill="#1E2532" stroke="#1E2532" stroke-width="0.2" stroke-linejoin="round"/>
<path d="M264.551 345.671L338.521 302.961L393.551 335.081L319.881 378.051L264.551 345.671Z" fill="#FFDA54" stroke="#1E2532" stroke-width="0.2" stroke-linejoin="round"/>
<path d="M416.72 285.889V292.239C416.72 296.309 414.03 300.379 408.72 303.489C397.95 309.749 380.44 309.749 369.6 303.489C364.14 300.339 361.42 296.209 361.43 292.079V285.729C361.43 289.859 364.14 293.989 369.6 297.139C380.44 303.399 397.95 303.399 408.72 297.139C414.03 293.999 416.71 289.999 416.72 285.889Z" fill="#E2E2E2" stroke="#1E2532" stroke-width="0.2" stroke-miterlimit="10"/>
<path d="M416.705 285.849C416.73 276.996 404.361 269.785 389.08 269.742C373.798 269.699 361.39 276.842 361.365 285.695C361.34 294.548 373.709 301.759 388.99 301.802C404.272 301.845 416.68 294.702 416.705 285.849Z" fill="white" stroke="#1E2532" stroke-width="0.2" stroke-miterlimit="10"/>
<path d="M408.677 281.2V285.7C408.677 288.59 406.767 291.47 402.977 293.7C395.337 298.13 382.977 298.13 375.237 293.7C371.377 291.46 369.447 288.53 369.457 285.61V281.1C369.457 284.03 371.377 286.96 375.247 289.19C382.927 293.63 395.347 293.63 402.977 289.19C406.767 287 408.667 284.08 408.677 281.2Z" fill="#E2E2E2" stroke="#1E2532" stroke-width="0.2" stroke-miterlimit="10"/>
<path d="M408.642 281.164C408.66 274.89 399.894 269.779 389.064 269.749C378.234 269.719 369.44 274.78 369.422 281.054C369.405 287.328 378.17 292.439 389.001 292.469C399.831 292.499 408.625 287.438 408.642 281.164Z" fill="white" stroke="#1E2532" stroke-width="0.2" stroke-miterlimit="10"/>
<path d="M404.191 277.631V281.101C404.191 283.331 402.721 285.561 399.801 287.261C393.911 290.681 384.331 290.681 378.411 287.261C375.411 285.531 373.941 283.261 373.941 281.021V277.551C373.941 279.801 375.431 282.061 378.411 283.781C384.331 287.201 393.911 287.201 399.801 283.781C402.721 282.081 404.191 279.861 404.191 277.631Z" fill="#E2E2E2" stroke="#1E2532" stroke-width="0.2" stroke-miterlimit="10"/>
<path d="M404.155 277.602C404.169 272.764 397.41 268.823 389.06 268.8C380.709 268.776 373.929 272.679 373.915 277.517C373.902 282.355 380.66 286.296 389.011 286.32C397.361 286.343 404.142 282.44 404.155 277.602Z" fill="white" stroke="#1E2532" stroke-width="0.2" stroke-miterlimit="10"/>
<path d="M395.59 237.58H382.5V276.4C382.51 277.011 382.697 277.606 383.038 278.114C383.378 278.621 383.858 279.019 384.42 279.26C385.853 279.99 387.437 280.37 389.045 280.37C390.653 280.37 392.238 279.99 393.67 279.26C394.228 279.018 394.703 278.619 395.037 278.111C395.371 277.603 395.549 277.008 395.55 276.4V276.4L395.59 237.58Z" fill="#E2E2E2" stroke="#1E2532" stroke-width="0.2" stroke-miterlimit="10"/>
<path d="M388.84 244C399.609 244 408.34 235.27 408.34 224.5C408.34 213.73 399.609 205 388.84 205C378.07 205 369.34 213.73 369.34 224.5C369.34 235.27 378.07 244 388.84 244Z" fill="#FE595A" stroke="#1E2532" stroke-width="0.2" stroke-miterlimit="10"/>
<path d="M230.919 359.18V361.11C230.888 361.4 230.779 361.677 230.603 361.91C230.426 362.142 230.19 362.322 229.919 362.43C229.205 362.795 228.415 362.986 227.614 362.986C226.812 362.986 226.022 362.795 225.309 362.43C225.036 362.319 224.799 362.135 224.622 361.899C224.446 361.663 224.338 361.383 224.309 361.09V359.16C224.338 359.454 224.447 359.735 224.623 359.973C224.799 360.211 225.036 360.396 225.309 360.51C226.025 360.87 226.817 361.057 227.619 361.057C228.421 361.057 229.212 360.87 229.929 360.51C230.198 360.398 230.432 360.216 230.607 359.981C230.781 359.747 230.889 359.47 230.919 359.18V359.18Z" fill="#1E2532" stroke="#1E2532" stroke-width="0.2" stroke-miterlimit="10"/>
<path d="M229.959 357.831C231.239 358.571 231.249 359.771 229.959 360.511C229.242 360.871 228.451 361.058 227.649 361.058C226.847 361.058 226.056 360.871 225.339 360.511C224.069 359.771 224.059 358.571 225.339 357.831C226.055 357.47 226.847 357.281 227.649 357.281C228.451 357.281 229.243 357.47 229.959 357.831V357.831Z" fill="#494F59" stroke="#1E2532" stroke-width="0.2" stroke-miterlimit="10"/>
<path d="M241.49 366V367.93C241.464 368.215 241.362 368.488 241.195 368.72C241.028 368.952 240.802 369.135 240.54 369.25C239.826 369.616 239.036 369.806 238.235 369.806C237.433 369.806 236.643 369.616 235.93 369.25C235.658 369.138 235.421 368.954 235.245 368.718C235.069 368.483 234.96 368.203 234.93 367.91V365.98C234.959 366.275 235.068 366.556 235.244 366.793C235.42 367.031 235.657 367.217 235.93 367.331C236.645 367.696 237.437 367.886 238.24 367.886C239.043 367.886 239.834 367.696 240.55 367.331C240.81 367.212 241.034 367.026 241.199 366.792C241.364 366.559 241.464 366.285 241.49 366V366Z" fill="#1E2532" stroke="#1E2532" stroke-width="0.2" stroke-miterlimit="10"/>
<path d="M240.529 364.611C241.809 365.341 241.819 366.541 240.529 367.281C239.814 367.646 239.022 367.836 238.219 367.836C237.416 367.836 236.625 367.646 235.909 367.281C234.639 366.541 234.629 365.341 235.909 364.611C236.624 364.244 237.416 364.053 238.219 364.053C239.023 364.053 239.815 364.244 240.529 364.611Z" fill="#494F59" stroke="#1E2532" stroke-width="0.2" stroke-miterlimit="10"/>
<path d="M418.341 314.241V317.921C418.292 318.466 418.098 318.988 417.78 319.432C417.462 319.877 417.031 320.229 416.531 320.451C415.165 321.147 413.654 321.509 412.121 321.509C410.588 321.509 409.077 321.147 407.711 320.451C407.205 320.224 406.767 319.866 406.444 319.415C406.121 318.963 405.923 318.434 405.871 317.881V314.201C405.924 314.755 406.123 315.285 406.448 315.736C406.773 316.188 407.213 316.545 407.721 316.771C409.085 317.467 410.595 317.829 412.126 317.829C413.657 317.829 415.167 317.467 416.531 316.771C417.031 316.549 417.462 316.197 417.78 315.752C418.098 315.308 418.292 314.786 418.341 314.241V314.241Z" fill="#06A77C" stroke="#1E2532" stroke-width="0.2" stroke-miterlimit="10"/>
<path d="M416.511 311.671C418.951 313.081 418.971 315.361 416.511 316.771C415.146 317.466 413.637 317.829 412.106 317.829C410.574 317.829 409.065 317.466 407.701 316.771C405.251 315.361 405.241 313.081 407.701 311.671C409.065 310.977 410.575 310.615 412.106 310.615C413.637 310.615 415.146 310.977 416.511 311.671V311.671Z" fill="#31E7B6" stroke="#1E2532" stroke-width="0.2" stroke-miterlimit="10"/>
<path d="M433.493 305.638V309.318C433.443 309.862 433.249 310.383 432.931 310.828C432.613 311.273 432.183 311.625 431.683 311.848C430.317 312.543 428.806 312.906 427.273 312.906C425.741 312.906 424.229 312.543 422.863 311.848C422.356 311.622 421.917 311.265 421.594 310.813C421.27 310.361 421.073 309.831 421.023 309.278V305.598C421.076 306.15 421.273 306.68 421.596 307.131C421.92 307.583 422.357 307.94 422.863 308.168C424.229 308.863 425.741 309.226 427.273 309.226C428.806 309.226 430.317 308.863 431.683 308.168C432.183 307.945 432.613 307.593 432.931 307.148C433.249 306.703 433.443 306.182 433.493 305.638V305.638Z" fill="#CE3434" stroke="#1E2532" stroke-width="0.2" stroke-miterlimit="10"/>
<path d="M431.654 303.058C434.094 304.468 434.114 306.758 431.654 308.168C430.288 308.863 428.777 309.226 427.244 309.226C425.711 309.226 424.2 308.863 422.834 308.168C420.394 306.758 420.384 304.468 422.834 303.058C424.2 302.363 425.711 302 427.244 302C428.777 302 430.288 302.363 431.654 303.058V303.058Z" fill="#FE595A" stroke="#1E2532" stroke-width="0.2" stroke-miterlimit="10"/>
<path d="M447.497 297.638V301.318C447.443 301.861 447.248 302.38 446.93 302.824C446.613 303.268 446.184 303.621 445.687 303.848C444.321 304.543 442.81 304.906 441.277 304.906C439.744 304.906 438.233 304.543 436.867 303.848C436.36 303.622 435.921 303.265 435.598 302.813C435.274 302.361 435.077 301.831 435.027 301.278V297.598C435.077 298.151 435.274 298.681 435.598 299.133C435.921 299.585 436.36 299.942 436.867 300.168C438.233 300.863 439.744 301.226 441.277 301.226C442.81 301.226 444.321 300.863 445.687 300.168C446.185 299.943 446.615 299.59 446.933 299.146C447.251 298.702 447.445 298.181 447.497 297.638V297.638Z" fill="#FFA735" stroke="#1E2532" stroke-width="0.2" stroke-miterlimit="10"/>
<path d="M445.658 295.058C448.098 296.468 448.108 298.758 445.658 300.168C444.292 300.863 442.78 301.226 441.248 301.226C439.715 301.226 438.204 300.863 436.838 300.168C434.398 298.758 434.378 296.468 436.838 295.058C438.204 294.363 439.715 294 441.248 294C442.78 294 444.292 294.363 445.658 295.058Z" fill="#FFDA54" stroke="#1E2532" stroke-width="0.2" stroke-miterlimit="10"/>
<path d="M230.919 366.881V368.801C230.887 369.092 230.777 369.37 230.601 369.604C230.425 369.838 230.189 370.02 229.919 370.131C229.205 370.496 228.415 370.687 227.614 370.687C226.812 370.687 226.022 370.496 225.309 370.131C225.034 370.019 224.796 369.834 224.62 369.596C224.444 369.358 224.336 369.076 224.309 368.781V366.861C224.338 367.155 224.446 367.434 224.622 367.67C224.799 367.906 225.036 368.09 225.309 368.201C226.024 368.567 226.816 368.757 227.619 368.757C228.422 368.757 229.213 368.567 229.929 368.201C230.199 368.093 230.434 367.913 230.608 367.68C230.783 367.447 230.89 367.171 230.919 366.881V366.881Z" fill="#1E2532" stroke="#1E2532" stroke-width="0.2" stroke-miterlimit="10"/>
<path d="M229.959 365.531C231.239 366.271 231.249 367.471 229.959 368.201C229.244 368.566 228.452 368.757 227.649 368.757C226.846 368.757 226.054 368.566 225.339 368.201C225.06 368.106 224.818 367.926 224.647 367.687C224.475 367.448 224.383 367.16 224.383 366.866C224.383 366.571 224.475 366.284 224.647 366.045C224.818 365.805 225.06 365.626 225.339 365.531C226.055 365.167 226.846 364.977 227.649 364.977C228.452 364.977 229.244 365.167 229.959 365.531V365.531Z" fill="#494F59" stroke="#1E2532" stroke-width="0.2" stroke-miterlimit="10"/>
<path d="M240.15 358.219V360.139C240.123 360.425 240.02 360.698 239.854 360.932C239.687 361.165 239.461 361.351 239.2 361.469C238.486 361.834 237.696 362.025 236.895 362.025C236.093 362.025 235.303 361.834 234.59 361.469C234.317 361.355 234.08 361.17 233.904 360.932C233.728 360.694 233.619 360.413 233.59 360.119V358.199C233.62 358.492 233.729 358.771 233.905 359.007C234.081 359.243 234.318 359.427 234.59 359.539C235.303 359.904 236.093 360.095 236.895 360.095C237.696 360.095 238.486 359.904 239.2 359.539C239.462 359.424 239.688 359.241 239.855 359.009C240.022 358.777 240.124 358.504 240.15 358.219V358.219Z" fill="#1E2532" stroke="#1E2532" stroke-width="0.2" stroke-miterlimit="10"/>
<path d="M239.179 356.87C240.459 357.61 240.469 358.81 239.179 359.54C238.466 359.905 237.676 360.095 236.874 360.095C236.073 360.095 235.283 359.905 234.569 359.54C233.289 358.81 233.279 357.61 234.569 356.87C235.283 356.505 236.073 356.314 236.874 356.314C237.676 356.314 238.466 356.505 239.179 356.87Z" fill="#494F59" stroke="#1E2532" stroke-width="0.2" stroke-miterlimit="10"/>
<path d="M267.447 380.13V382.13C267.415 382.779 267.225 383.411 266.894 383.97C266.563 384.529 266.1 384.999 265.547 385.34C264.166 386.212 262.565 386.676 260.932 386.676C259.298 386.676 257.698 386.212 256.317 385.34C255.752 384.999 255.28 384.524 254.944 383.957C254.607 383.39 254.416 382.749 254.387 382.09V380.09C254.387 381.27 255.027 381.29 256.307 382.19C257.688 383.067 259.291 383.532 260.927 383.532C262.563 383.532 264.165 383.067 265.547 382.19C266.807 381.3 267.447 381.29 267.447 380.13Z" fill="#1E2532" stroke="#1E2532" stroke-width="0.2" stroke-miterlimit="10"/>
<path d="M271.108 375.38V377.94C271.108 379.44 270.108 380.94 268.108 382.08C265.875 383.219 263.404 383.813 260.898 383.813C258.391 383.813 255.92 383.219 253.688 382.08C251.688 380.92 250.688 379.4 250.688 377.88V375.32C250.688 376.84 251.688 376.87 253.688 378.03C255.919 379.169 258.388 379.763 260.893 379.763C263.397 379.763 265.866 379.169 268.098 378.03C270.118 376.89 271.108 376.88 271.108 375.38Z" fill="#769AF0" stroke="#1E2532" stroke-width="0.2" stroke-miterlimit="10"/>
<path d="M268.098 371.17C265.865 370.036 263.396 369.445 260.893 369.445C258.389 369.445 255.92 370.036 253.688 371.17C251.688 372.32 250.688 373.83 250.688 375.34V377.88C250.688 379.4 251.688 380.88 253.688 382.08C255.92 383.219 258.391 383.813 260.898 383.813C263.404 383.813 265.875 383.219 268.108 382.08C270.108 380.94 271.108 379.44 271.108 377.94C271.155 377.088 271.155 376.233 271.108 375.38C270.982 374.488 270.643 373.639 270.119 372.906C269.595 372.173 268.901 371.577 268.098 371.17V371.17Z" fill="#494F59" stroke="#1E2532" stroke-width="0.2" stroke-miterlimit="10"/>
<path d="M267.129 372.121C270.589 373.901 270.609 376.791 267.179 378.581C265.214 379.461 263.086 379.916 260.934 379.916C258.781 379.916 256.653 379.461 254.689 378.581C251.229 376.791 251.219 373.901 254.689 372.121C256.645 371.244 258.765 370.791 260.909 370.791C263.053 370.791 265.172 371.244 267.129 372.121V372.121Z" fill="#95989C"/>
<path d="M273.77 393.59L282.99 388.26L292.22 393.59L282.99 398.91L273.77 393.59Z" fill="#494F59" stroke="#1E2532" stroke-width="0.2" stroke-miterlimit="10"/>
<path d="M387.57 366.11V371.53L401.66 363.4V358L387.57 366.11Z" fill="#1E2532" stroke="#1E2532" stroke-width="0.2" stroke-linejoin="round"/>
<path d="M531.012 350.529V407.529C531.012 412.789 538.392 417.049 547.502 417.049C556.612 417.049 564.002 412.789 564.002 407.529V350.529H531.012Z" fill="#FFDA54" stroke="black" stroke-width="0.2" stroke-linejoin="round"/>
<path d="M547.5 360.06C556.613 360.06 564 355.793 564 350.53C564 345.267 556.613 341 547.5 341C538.387 341 531 345.267 531 350.53C531 355.793 538.387 360.06 547.5 360.06Z" fill="#FFA735" stroke="black" stroke-width="0.2" stroke-linejoin="round"/>
</svg>
