<svg width="600" height="600" viewBox="0 0 600 600" fill="none" xmlns="http://www.w3.org/2000/svg">
<path d="M460.07 378.769L495.57 399.269V358.269L460.07 337.779V378.769Z" fill="#FFA735" stroke="#1E2532" stroke-width="0.2" stroke-linejoin="round"/>
<path d="M531.08 337.779L495.57 358.269V399.269L531.08 378.769V337.779Z" fill="#FFDA54" stroke="#1E2532" stroke-width="0.2" stroke-linejoin="round"/>
<path d="M460.07 337.779L495.57 317.279L531.08 337.779L495.57 358.269L460.07 337.779Z" fill="#FFDA54" stroke="#1E2532" stroke-width="0.2" stroke-linejoin="round"/>
<path d="M495.559 399.391L531.059 419.891V378.891L495.559 358.391V399.391Z" fill="#FFDA54" stroke="#1E2532" stroke-width="0.2" stroke-linejoin="round"/>
<path d="M566.569 358.391L531.059 378.891V419.891L566.569 399.391V358.391Z" fill="#FFA735" stroke="#1E2532" stroke-width="0.2" stroke-linejoin="round"/>
<path d="M495.559 358.391L531.059 337.891L566.569 358.391L531.059 378.891L495.559 358.391Z" fill="#FFDA54" stroke="#1E2532" stroke-width="0.2" stroke-linejoin="round"/>
<path d="M282.527 235.279L318.037 255.779V214.779L282.527 194.279V235.279Z" fill="#FFDA54" stroke="#1E2532" stroke-width="0.2" stroke-linejoin="round"/>
<path d="M353.539 194.279L318.039 214.779V255.779L353.539 235.279V194.279Z" fill="#FFDA54" stroke="#1E2532" stroke-width="0.2" stroke-linejoin="round"/>
<path d="M282.527 194.279L318.037 173.779L353.537 194.279L318.037 214.779L282.527 194.279Z" fill="#FFDA54" stroke="#1E2532" stroke-width="0.2" stroke-linejoin="round"/>
<path d="M318.039 255.779L353.539 276.279V235.279L318.039 214.779V255.779Z" fill="#FFDA54" stroke="#1E2532" stroke-width="0.2" stroke-linejoin="round"/>
<path d="M389.039 214.779L353.539 235.279V276.279L389.039 255.779V214.779Z" fill="#FFDA54" stroke="#1E2532" stroke-width="0.2" stroke-linejoin="round"/>
<path d="M318.039 214.779L353.539 194.279L389.039 214.779L353.539 235.279L318.039 214.779Z" fill="#FFDA54" stroke="#1E2532" stroke-width="0.2" stroke-linejoin="round"/>
<path d="M353.539 276.279L389.039 296.779V255.779L353.539 235.279V276.279Z" fill="#FFDA54" stroke="#1E2532" stroke-width="0.2" stroke-linejoin="round"/>
<path d="M424.549 235.279L389.039 255.779V296.779L424.549 276.279V235.279Z" fill="#FFDA54" stroke="#1E2532" stroke-width="0.2" stroke-linejoin="round"/>
<path d="M353.539 235.279L389.039 214.779L424.549 235.279L389.039 255.779L353.539 235.279Z" fill="#FFDA54" stroke="#1E2532" stroke-width="0.2" stroke-linejoin="round"/>
<path d="M389.039 296.779L424.549 317.279V276.279L389.039 255.779V296.779Z" fill="#FFDA54" stroke="#1E2532" stroke-width="0.2" stroke-linejoin="round"/>
<path d="M460.051 255.779L424.551 276.279V317.279L460.051 296.779V255.779Z" fill="#FFDA54" stroke="#1E2532" stroke-width="0.2" stroke-linejoin="round"/>
<path d="M389.039 255.779L424.549 235.279L460.049 255.779L424.549 276.279L389.039 255.779Z" fill="#FFDA54" stroke="#1E2532" stroke-width="0.2" stroke-linejoin="round"/>
<path d="M424.551 317.279L460.051 337.779V296.779L424.551 276.279V317.279Z" fill="#FFDA54" stroke="#1E2532" stroke-width="0.2" stroke-linejoin="round"/>
<path d="M495.561 276.279L460.051 296.779V337.779L495.561 317.279V276.279Z" fill="#FFDA54" stroke="#1E2532" stroke-width="0.2" stroke-linejoin="round"/>
<path d="M424.551 276.279L460.051 255.779L495.561 276.279L460.051 296.779L424.551 276.279Z" fill="#FFDA54" stroke="#1E2532" stroke-width="0.2" stroke-linejoin="round"/>
<path d="M460.051 337.779L495.561 358.269V317.279L460.051 296.779V337.779Z" fill="#FFDA54" stroke="#1E2532" stroke-width="0.2" stroke-linejoin="round"/>
<path d="M531.062 296.779L495.562 317.279V358.269L531.062 337.779V296.779Z" fill="#FFA735" stroke="#1E2532" stroke-width="0.2" stroke-linejoin="round"/>
<path d="M460.051 296.779L495.561 276.279L531.061 296.779L495.561 317.279L460.051 296.779Z" fill="#FFDA54" stroke="#1E2532" stroke-width="0.2" stroke-linejoin="round"/>
<path d="M247.027 255.779L282.527 276.279V235.279L247.027 214.779V255.779Z" fill="#FFDA54" stroke="#1E2532" stroke-width="0.2" stroke-linejoin="round"/>
<path d="M318.037 214.779L282.527 235.279V276.279L318.037 255.779V214.779Z" fill="#FFDA54" stroke="#1E2532" stroke-width="0.2" stroke-linejoin="round"/>
<path d="M247.027 214.779L282.527 194.279L318.037 214.779L282.527 235.279L247.027 214.779Z" fill="#FFDA54" stroke="#1E2532" stroke-width="0.2" stroke-linejoin="round"/>
<path d="M282.527 276.279L318.037 296.779V255.779L282.527 235.279V276.279Z" fill="#FFDA54" stroke="#1E2532" stroke-width="0.2" stroke-linejoin="round"/>
<path d="M353.539 235.279L318.039 255.779V296.779L353.539 276.279V235.279Z" fill="#FFDA54" stroke="#1E2532" stroke-width="0.2" stroke-linejoin="round"/>
<path d="M282.527 235.279L318.037 214.779L353.537 235.279L318.037 255.779L282.527 235.279Z" fill="#FFDA54" stroke="#1E2532" stroke-width="0.2" stroke-linejoin="round"/>
<path d="M318.039 296.779L353.539 317.279V276.279L318.039 255.779V296.779Z" fill="#FFDA54" stroke="#1E2532" stroke-width="0.2" stroke-linejoin="round"/>
<path d="M389.039 255.779L353.539 276.279V317.279L389.039 296.779V255.779Z" fill="#FFDA54" stroke="#1E2532" stroke-width="0.2" stroke-linejoin="round"/>
<path d="M318.039 255.779L353.539 235.279L389.039 255.779L353.539 276.279L318.039 255.779Z" fill="#FFDA54" stroke="#1E2532" stroke-width="0.2" stroke-linejoin="round"/>
<path d="M353.539 317.279L389.039 337.779V296.779L353.539 276.279V317.279Z" fill="#FFDA54" stroke="#1E2532" stroke-width="0.2" stroke-linejoin="round"/>
<path d="M424.549 276.279L389.039 296.779V337.779L424.549 317.279V276.279Z" fill="#FFDA54" stroke="#1E2532" stroke-width="0.2" stroke-linejoin="round"/>
<path d="M353.539 276.279L389.039 255.779L424.549 276.279L389.039 296.779L353.539 276.279Z" fill="#FFDA54" stroke="#1E2532" stroke-width="0.2" stroke-linejoin="round"/>
<path d="M389.039 337.779L424.549 358.269V317.279L389.039 296.779V337.779Z" fill="#FFDA54" stroke="#1E2532" stroke-width="0.2" stroke-linejoin="round"/>
<path d="M460.051 296.779L424.551 317.279V358.269L460.051 337.779V296.779Z" fill="#FFDA54" stroke="#1E2532" stroke-width="0.2" stroke-linejoin="round"/>
<path d="M389.039 296.779L424.549 276.279L460.049 296.779L424.549 317.279L389.039 296.779Z" fill="#FFDA54" stroke="#1E2532" stroke-width="0.2" stroke-linejoin="round"/>
<path d="M424.551 358.269L460.051 378.769V337.779L424.551 317.279V358.269Z" fill="#FFDA54" stroke="#1E2532" stroke-width="0.2" stroke-linejoin="round"/>
<path d="M495.561 317.279L460.051 337.779V378.769L495.561 358.269V317.279Z" fill="#FFA735" stroke="#1E2532" stroke-width="0.2" stroke-linejoin="round"/>
<path d="M424.551 317.279L460.051 296.779L495.561 317.279L460.051 337.779L424.551 317.279Z" fill="#FFDA54" stroke="#1E2532" stroke-width="0.2" stroke-linejoin="round"/>
<path d="M211.52 276.279L247.03 296.779V255.779L211.52 235.279V276.279Z" fill="#FFDA54" stroke="#1E2532" stroke-width="0.2" stroke-linejoin="round"/>
<path d="M282.531 235.279L247.031 255.779V296.779L282.531 276.279V235.279Z" fill="#FFDA54" stroke="#1E2532" stroke-width="0.2" stroke-linejoin="round"/>
<path d="M211.52 235.279L247.03 214.779L282.53 235.279L247.03 255.779L211.52 235.279Z" fill="#FFDA54" stroke="#1E2532" stroke-width="0.2" stroke-linejoin="round"/>
<path d="M247.027 296.779L282.527 317.279V276.279L247.027 255.779V296.779Z" fill="#FFDA54" stroke="#1E2532" stroke-width="0.2" stroke-linejoin="round"/>
<path d="M318.037 255.779L282.527 276.279V317.279L318.037 296.779V255.779Z" fill="#FFDA54" stroke="#1E2532" stroke-width="0.2" stroke-linejoin="round"/>
<path d="M247.027 255.779L282.527 235.279L318.037 255.779L282.527 276.279L247.027 255.779Z" fill="#FFDA54" stroke="#1E2532" stroke-width="0.2" stroke-linejoin="round"/>
<path d="M282.527 317.279L318.037 337.779V296.779L282.527 276.279V317.279Z" fill="#FFDA54" stroke="#1E2532" stroke-width="0.2" stroke-linejoin="round"/>
<path d="M353.539 276.279L318.039 296.779V337.779L353.539 317.279V276.279Z" fill="#FFDA54" stroke="#1E2532" stroke-width="0.2" stroke-linejoin="round"/>
<path d="M282.527 276.279L318.037 255.779L353.537 276.279L318.037 296.779L282.527 276.279Z" fill="#FFDA54" stroke="#1E2532" stroke-width="0.2" stroke-linejoin="round"/>
<path d="M318.039 337.779L353.539 358.269V317.279L318.039 296.779V337.779Z" fill="#FFDA54" stroke="#1E2532" stroke-width="0.2" stroke-linejoin="round"/>
<path d="M389.039 296.779L353.539 317.279V358.269L389.039 337.779V296.779Z" fill="#FFDA54" stroke="#1E2532" stroke-width="0.2" stroke-linejoin="round"/>
<path d="M318.039 296.779L353.539 276.279L389.039 296.779L353.539 317.279L318.039 296.779Z" fill="#FFDA54" stroke="#1E2532" stroke-width="0.2" stroke-linejoin="round"/>
<path d="M353.539 358.269L389.039 378.769V337.779L353.539 317.279V358.269Z" fill="#FFDA54" stroke="#1E2532" stroke-width="0.2" stroke-linejoin="round"/>
<path d="M424.549 317.279L389.039 337.779V378.769L424.549 358.269V317.279Z" fill="#FFDA54" stroke="#1E2532" stroke-width="0.2" stroke-linejoin="round"/>
<path d="M353.539 317.279L389.039 296.779L424.549 317.279L389.039 337.779L353.539 317.279Z" fill="#FFDA54" stroke="#1E2532" stroke-width="0.2" stroke-linejoin="round"/>
<path d="M389.039 378.769L424.549 399.269V358.269L389.039 337.779V378.769Z" fill="#FFDA54" stroke="#1E2532" stroke-width="0.2" stroke-linejoin="round"/>
<path d="M460.051 337.779L424.551 358.269V399.269L460.051 378.769V337.779Z" fill="#FFA735" stroke="#1E2532" stroke-width="0.2" stroke-linejoin="round"/>
<path d="M389.039 337.779L424.549 317.279L460.049 337.779L424.549 358.269L389.039 337.779Z" fill="#FFDA54" stroke="#1E2532" stroke-width="0.2" stroke-linejoin="round"/>
<path d="M176.02 296.779L211.52 317.279V276.279L176.02 255.779V296.779Z" fill="#FFDA54" stroke="#1E2532" stroke-width="0.2" stroke-linejoin="round"/>
<path d="M247.03 255.779L211.52 276.279V317.279L247.03 296.779V255.779Z" fill="#FFDA54" stroke="#1E2532" stroke-width="0.2" stroke-linejoin="round"/>
<path d="M176.02 255.779L211.52 235.279L247.03 255.779L211.52 276.279L176.02 255.779Z" fill="#FFDA54" stroke="#1E2532" stroke-width="0.2" stroke-linejoin="round"/>
<path d="M211.52 317.279L247.03 337.779V296.779L211.52 276.279V317.279Z" fill="#FFDA54" stroke="#1E2532" stroke-width="0.2" stroke-linejoin="round"/>
<path d="M282.531 276.279L247.031 296.779V337.779L282.531 317.279V276.279Z" fill="#FFDA54" stroke="#1E2532" stroke-width="0.2" stroke-linejoin="round"/>
<path d="M211.52 276.279L247.03 255.779L282.53 276.279L247.03 296.779L211.52 276.279Z" fill="#FFDA54" stroke="#1E2532" stroke-width="0.2" stroke-linejoin="round"/>
<path d="M247.027 337.779L282.527 358.269V317.279L247.027 296.779V337.779Z" fill="#FFDA54" stroke="#1E2532" stroke-width="0.2" stroke-linejoin="round"/>
<path d="M318.037 296.779L282.527 317.279V358.269L318.037 337.779V296.779Z" fill="#FFDA54" stroke="#1E2532" stroke-width="0.2" stroke-linejoin="round"/>
<path d="M247.027 296.779L282.527 276.279L318.037 296.779L282.527 317.279L247.027 296.779Z" fill="#FFDA54" stroke="#1E2532" stroke-width="0.2" stroke-linejoin="round"/>
<path d="M282.527 358.269L318.037 378.769V337.779L282.527 317.279V358.269Z" fill="#FFDA54" stroke="#1E2532" stroke-width="0.2" stroke-linejoin="round"/>
<path d="M353.539 317.279L318.039 337.779V378.769L353.539 358.269V317.279Z" fill="#FFDA54" stroke="#1E2532" stroke-width="0.2" stroke-linejoin="round"/>
<path d="M282.527 317.279L318.037 296.779L353.537 317.279L318.037 337.779L282.527 317.279Z" fill="#FFDA54" stroke="#1E2532" stroke-width="0.2" stroke-linejoin="round"/>
<path d="M318.039 378.769L353.539 399.269V358.269L318.039 337.779V378.769Z" fill="#FFDA54" stroke="#1E2532" stroke-width="0.2" stroke-linejoin="round"/>
<path d="M389.039 337.779L353.539 358.269V399.269L389.039 378.769V337.779Z" fill="#FFDA54" stroke="#1E2532" stroke-width="0.2" stroke-linejoin="round"/>
<path d="M318.039 337.779L353.539 317.279L389.039 337.779L353.539 358.269L318.039 337.779Z" fill="#FFDA54" stroke="#1E2532" stroke-width="0.2" stroke-linejoin="round"/>
<path d="M353.539 399.27L389.039 419.77V378.77L353.539 358.27V399.27Z" fill="#FFDA54" stroke="#1E2532" stroke-width="0.2" stroke-linejoin="round"/>
<path d="M424.549 358.27L389.039 378.77V419.77L424.549 399.27V358.27Z" fill="#FFDA54" stroke="#1E2532" stroke-width="0.2" stroke-linejoin="round"/>
<path d="M353.539 358.269L389.039 337.779L424.549 358.269L389.039 378.769L353.539 358.269Z" fill="#FFDA54" stroke="#1E2532" stroke-width="0.2" stroke-linejoin="round"/>
<path d="M140.508 317.279L176.018 337.779V296.779L140.508 276.279V317.279Z" fill="#FFDA54" stroke="#1E2532" stroke-width="0.2" stroke-linejoin="round"/>
<path d="M211.52 276.279L176.02 296.779V337.779L211.52 317.279V276.279Z" fill="#FFDA54" stroke="#1E2532" stroke-width="0.2" stroke-linejoin="round"/>
<path d="M140.508 276.279L176.018 255.779L211.518 276.279L176.018 296.779L140.508 276.279Z" fill="#FFDA54" stroke="#1E2532" stroke-width="0.2" stroke-linejoin="round"/>
<path d="M176.02 337.779L211.52 358.269V317.279L176.02 296.779V337.779Z" fill="#FFDA54" stroke="#1E2532" stroke-width="0.2" stroke-linejoin="round"/>
<path d="M247.03 296.779L211.52 317.279V358.269L247.03 337.779V296.779Z" fill="#FFDA54" stroke="#1E2532" stroke-width="0.2" stroke-linejoin="round"/>
<path d="M176.02 296.779L211.52 276.279L247.03 296.779L211.52 317.279L176.02 296.779Z" fill="#FFDA54" stroke="#1E2532" stroke-width="0.2" stroke-linejoin="round"/>
<path d="M211.52 358.269L247.03 378.769V337.779L211.52 317.279V358.269Z" fill="#FFDA54" stroke="#1E2532" stroke-width="0.2" stroke-linejoin="round"/>
<path d="M282.531 317.279L247.031 337.779V378.769L282.531 358.269V317.279Z" fill="#FFDA54" stroke="#1E2532" stroke-width="0.2" stroke-linejoin="round"/>
<path d="M211.52 317.279L247.03 296.779L282.53 317.279L247.03 337.779L211.52 317.279Z" fill="#FFDA54" stroke="#1E2532" stroke-width="0.2" stroke-linejoin="round"/>
<path d="M247.027 378.769L282.527 399.269V358.269L247.027 337.779V378.769Z" fill="#FFDA54" stroke="#1E2532" stroke-width="0.2" stroke-linejoin="round"/>
<path d="M318.037 337.779L282.527 358.269V399.269L318.037 378.769V337.779Z" fill="#FFDA54" stroke="#1E2532" stroke-width="0.2" stroke-linejoin="round"/>
<path d="M247.027 337.779L282.527 317.279L318.037 337.779L282.527 358.269L247.027 337.779Z" fill="#FFDA54" stroke="#1E2532" stroke-width="0.2" stroke-linejoin="round"/>
<path d="M282.527 399.27L318.037 419.77V378.77L282.527 358.27V399.27Z" fill="#FFDA54" stroke="#1E2532" stroke-width="0.2" stroke-linejoin="round"/>
<path d="M353.539 358.27L318.039 378.77V419.77L353.539 399.27V358.27Z" fill="#FFDA54" stroke="#1E2532" stroke-width="0.2" stroke-linejoin="round"/>
<path d="M282.527 358.269L318.037 337.779L353.537 358.269L318.037 378.769L282.527 358.269Z" fill="#FFDA54" stroke="#1E2532" stroke-width="0.2" stroke-linejoin="round"/>
<path d="M318.039 419.77L353.539 440.27V399.27L318.039 378.77V419.77Z" fill="#FFDA54" stroke="#1E2532" stroke-width="0.2" stroke-linejoin="round"/>
<path d="M389.039 378.77L353.539 399.27V440.27L389.039 419.77V378.77Z" fill="#FFA735" stroke="#1E2532" stroke-width="0.2" stroke-linejoin="round"/>
<path d="M318.039 378.77L353.539 358.27L389.039 378.77L353.539 399.27L318.039 378.77Z" fill="#FFDA54" stroke="#1E2532" stroke-width="0.2" stroke-linejoin="round"/>
<path d="M105 337.779L140.51 358.269V317.279L105 296.779V337.779Z" fill="#FFDA54" stroke="#1E2532" stroke-width="0.2" stroke-linejoin="round"/>
<path d="M176.022 296.779L140.512 317.279V358.269L176.022 337.779V296.779Z" fill="#FFDA54" stroke="#1E2532" stroke-width="0.2" stroke-linejoin="round"/>
<path d="M105 296.779L140.51 276.279L176.02 296.779L140.51 317.279L105 296.779Z" fill="#FFDA54" stroke="#1E2532" stroke-width="0.2" stroke-linejoin="round"/>
<path d="M140.508 358.269L176.018 378.769V337.779L140.508 317.279V358.269Z" fill="#FFA735" stroke="#1E2532" stroke-width="0.2" stroke-linejoin="round"/>
<path d="M211.52 317.279L176.02 337.779V378.769L211.52 358.269V317.279Z" fill="#FFDA54" stroke="#1E2532" stroke-width="0.2" stroke-linejoin="round"/>
<path d="M140.508 317.279L176.018 296.779L211.518 317.279L176.018 337.779L140.508 317.279Z" fill="#FFDA54" stroke="#1E2532" stroke-width="0.2" stroke-linejoin="round"/>
<path d="M176.02 378.769L211.52 399.269V358.269L176.02 337.779V378.769Z" fill="#FFA735" stroke="#1E2532" stroke-width="0.2" stroke-linejoin="round"/>
<path d="M247.03 337.779L211.52 358.269V399.269L247.03 378.769V337.779Z" fill="#FFDA54" stroke="#1E2532" stroke-width="0.2" stroke-linejoin="round"/>
<path d="M176.02 337.779L211.52 317.279L247.03 337.779L211.52 358.269L176.02 337.779Z" fill="#FFDA54" stroke="#1E2532" stroke-width="0.2" stroke-linejoin="round"/>
<path d="M211.52 399.27L247.03 419.77V378.77L211.52 358.27V399.27Z" fill="#FFDA54" stroke="#1E2532" stroke-width="0.2" stroke-linejoin="round"/>
<path d="M282.531 358.27L247.031 378.77V419.77L282.531 399.27V358.27Z" fill="#FFDA54" stroke="#1E2532" stroke-width="0.2" stroke-linejoin="round"/>
<path d="M211.52 358.269L247.03 337.779L282.53 358.269L247.03 378.769L211.52 358.269Z" fill="#FFDA54" stroke="#1E2532" stroke-width="0.2" stroke-linejoin="round"/>
<path d="M247.027 419.77L282.527 440.27V399.27L247.027 378.77V419.77Z" fill="#FFDA54" stroke="#1E2532" stroke-width="0.2" stroke-linejoin="round"/>
<path d="M318.037 378.77L282.527 399.27V440.27L318.037 419.77V378.77Z" fill="#FFDA54" stroke="#1E2532" stroke-width="0.2" stroke-linejoin="round"/>
<path d="M247.027 378.77L282.527 358.27L318.037 378.77L282.527 399.27L247.027 378.77Z" fill="#FFDA54" stroke="#1E2532" stroke-width="0.2" stroke-linejoin="round"/>
<path d="M69.5 399.391L105 419.891V378.891L69.5 358.391V399.391Z" fill="#FFDA54" stroke="#1E2532" stroke-width="0.2" stroke-linejoin="round"/>
<path d="M140.51 358.391L105 378.891V419.891L140.51 399.391V358.391Z" fill="#FFDA54" stroke="#1E2532" stroke-width="0.2" stroke-linejoin="round"/>
<path d="M69.5 358.391L105 337.891L140.51 358.391L105 378.891L69.5 358.391Z" fill="#FFDA54" stroke="#1E2532" stroke-width="0.2" stroke-linejoin="round"/>
<path d="M105 419.891L140.51 440.381V399.391L105 378.891V419.891Z" fill="#FFDA54" stroke="#1E2532" stroke-width="0.2" stroke-linejoin="round"/>
<path d="M176.022 378.891L140.512 399.391V440.381L176.022 419.891V378.891Z" fill="#FFDA54" stroke="#1E2532" stroke-width="0.2" stroke-linejoin="round"/>
<path d="M105 378.891L140.51 358.391L176.02 378.891L140.51 399.391L105 378.891Z" fill="#FFDA54" stroke="#1E2532" stroke-width="0.2" stroke-linejoin="round"/>
<path d="M140.508 440.381L176.018 460.881V419.891L140.508 399.391V440.381Z" fill="#FFDA54" stroke="#1E2532" stroke-width="0.2" stroke-linejoin="round"/>
<path d="M211.52 399.391L176.02 419.891V460.881L211.52 440.381V399.391Z" fill="#FFDA54" stroke="#1E2532" stroke-width="0.2" stroke-linejoin="round"/>
<path d="M140.508 399.391L176.018 378.891L211.518 399.391L176.018 419.891L140.508 399.391Z" fill="#FFDA54" stroke="#1E2532" stroke-width="0.2" stroke-linejoin="round"/>
<path d="M176.02 460.881L211.52 481.381V440.381L176.02 419.891V460.881Z" fill="#FFDA54" stroke="#1E2532" stroke-width="0.2" stroke-linejoin="round"/>
<path d="M247.03 419.891L211.52 440.381V481.381L247.03 460.881V419.891Z" fill="#FFDA54" stroke="#1E2532" stroke-width="0.2" stroke-linejoin="round"/>
<path d="M176.02 419.891L211.52 399.391L247.03 419.891L211.52 440.381L176.02 419.891Z" fill="#FFDA54" stroke="#1E2532" stroke-width="0.2" stroke-linejoin="round"/>
<path d="M211.52 481.381L247.03 501.881V460.881L211.52 440.381V481.381Z" fill="#FFDA54" stroke="#1E2532" stroke-width="0.2" stroke-linejoin="round"/>
<path d="M282.531 440.381L247.031 460.881V501.881L282.531 481.381V440.381Z" fill="#FFA735" stroke="#1E2532" stroke-width="0.2" stroke-linejoin="round"/>
<path d="M211.52 440.381L247.03 419.891L282.53 440.381L247.03 460.881L211.52 440.381Z" fill="#FFDA54" stroke="#1E2532" stroke-width="0.2" stroke-linejoin="round"/>
<path d="M34 419.891L69.5 440.381V399.391L34 378.891V419.891Z" fill="#FFA735" stroke="#1E2532" stroke-width="0.2" stroke-linejoin="round"/>
<path d="M105 378.891L69.5 399.391V440.381L105 419.891V378.891Z" fill="#FFDA54" stroke="#1E2532" stroke-width="0.2" stroke-linejoin="round"/>
<path d="M34 378.891L69.5 358.391L105 378.891L69.5 399.391L34 378.891Z" fill="#FFDA54" stroke="#1E2532" stroke-width="0.2" stroke-linejoin="round"/>
<path d="M69.5 440.381L105 460.881V419.891L69.5 399.391V440.381Z" fill="#FFA735" stroke="#1E2532" stroke-width="0.2" stroke-linejoin="round"/>
<path d="M140.51 399.391L105 419.891V460.881L140.51 440.381V399.391Z" fill="#FFDA54" stroke="#1E2532" stroke-width="0.2" stroke-linejoin="round"/>
<path d="M69.5 399.391L105 378.891L140.51 399.391L105 419.891L69.5 399.391Z" fill="#FFDA54" stroke="#1E2532" stroke-width="0.2" stroke-linejoin="round"/>
<path d="M105 460.881L140.51 481.381V440.381L105 419.891V460.881Z" fill="#FFA735" stroke="#1E2532" stroke-width="0.2" stroke-linejoin="round"/>
<path d="M176.022 419.891L140.512 440.381V481.381L176.022 460.881V419.891Z" fill="#FFDA54" stroke="#1E2532" stroke-width="0.2" stroke-linejoin="round"/>
<path d="M105 419.891L140.51 399.391L176.02 419.891L140.51 440.381L105 419.891Z" fill="#FFDA54" stroke="#1E2532" stroke-width="0.2" stroke-linejoin="round"/>
<path d="M140.508 481.381L176.018 501.881V460.881L140.508 440.381V481.381Z" fill="#FFA735" stroke="#1E2532" stroke-width="0.2" stroke-linejoin="round"/>
<path d="M211.52 440.381L176.02 460.881V501.881L211.52 481.381V440.381Z" fill="#FFDA54" stroke="#1E2532" stroke-width="0.2" stroke-linejoin="round"/>
<path d="M140.508 440.381L176.018 419.891L211.518 440.381L176.018 460.881L140.508 440.381Z" fill="#FFDA54" stroke="#1E2532" stroke-width="0.2" stroke-linejoin="round"/>
<path d="M176.02 501.881L211.52 522.381V481.381L176.02 460.881V501.881Z" fill="#FFA735" stroke="#1E2532" stroke-width="0.2" stroke-linejoin="round"/>
<path d="M247.03 460.881L211.52 481.381V522.381L247.03 501.881V460.881Z" fill="#FFA735" stroke="#1E2532" stroke-width="0.2" stroke-linejoin="round"/>
<path d="M176.02 460.881L211.52 440.381L247.03 460.881L211.52 481.381L176.02 460.881Z" fill="#FFDA54" stroke="#1E2532" stroke-width="0.2" stroke-linejoin="round"/>
<path d="M176.02 419.891L211.52 440.381V399.391L176.02 378.891V419.891Z" fill="#FFA735" stroke="#1E2532" stroke-width="0.2" stroke-linejoin="round"/>
<path d="M247.03 378.891L211.52 399.391V440.381L247.03 419.891V378.891Z" fill="#FFDA54" stroke="#1E2532" stroke-width="0.2" stroke-linejoin="round"/>
<path d="M176.02 378.891L211.52 358.391L247.03 378.891L211.52 399.391L176.02 378.891Z" fill="#FFDA54" stroke="#1E2532" stroke-width="0.2" stroke-linejoin="round"/>
<path d="M211.52 440.381L247.03 460.881V419.891L211.52 399.391V440.381Z" fill="#FFDA54" stroke="#1E2532" stroke-width="0.2" stroke-linejoin="round"/>
<path d="M282.531 399.391L247.031 419.891V460.881L282.531 440.381V399.391Z" fill="#FFA735" stroke="#1E2532" stroke-width="0.2" stroke-linejoin="round"/>
<path d="M211.52 399.391L247.03 378.891L282.53 399.391L247.03 419.891L211.52 399.391Z" fill="#FFDA54" stroke="#1E2532" stroke-width="0.2" stroke-linejoin="round"/>
<path d="M176.02 460.881L211.52 481.381V440.381L176.02 419.891V460.881Z" fill="#FFA735" stroke="#1E2532" stroke-width="0.2" stroke-linejoin="round"/>
<path d="M247.03 419.891L211.52 440.381V481.381L247.03 460.881V419.891Z" fill="#FFA735" stroke="#1E2532" stroke-width="0.2" stroke-linejoin="round"/>
<path d="M176.02 419.891L211.52 399.391L247.03 419.891L211.52 440.381L176.02 419.891Z" fill="#FFDA54" stroke="#1E2532" stroke-width="0.2" stroke-linejoin="round"/>
<path d="M282.527 440.27L318.037 460.77V419.77L282.527 399.27V440.27Z" fill="#FFA735" stroke="#1E2532" stroke-width="0.2" stroke-linejoin="round"/>
<path d="M353.539 399.27L318.039 419.77V460.77L353.539 440.27V399.27Z" fill="#FFA735" stroke="#1E2532" stroke-width="0.2" stroke-linejoin="round"/>
<path d="M282.527 399.27L318.037 378.77L353.537 399.27L318.037 419.77L282.527 399.27Z" fill="#FFDA54" stroke="#1E2532" stroke-width="0.2" stroke-linejoin="round"/>
<path d="M424.559 440.381L460.069 460.881V419.891L424.559 399.391V440.381Z" fill="#FFDA54" stroke="#1E2532" stroke-width="0.2" stroke-linejoin="round"/>
<path d="M495.57 399.391L460.07 419.891V460.881L495.57 440.381V399.391Z" fill="#FFDA54" stroke="#1E2532" stroke-width="0.2" stroke-linejoin="round"/>
<path d="M424.559 399.391L460.069 378.891L495.569 399.391L460.069 419.891L424.559 399.391Z" fill="#FFDA54" stroke="#1E2532" stroke-width="0.2" stroke-linejoin="round"/>
<path d="M389.059 460.881L424.559 481.381V440.381L389.059 419.891V460.881Z" fill="#FFDA54" stroke="#1E2532" stroke-width="0.2" stroke-linejoin="round"/>
<path d="M460.069 419.891L424.559 440.381V481.381L460.069 460.881V419.891Z" fill="#FFDA54" stroke="#1E2532" stroke-width="0.2" stroke-linejoin="round"/>
<path d="M389.059 419.891L424.559 399.391L460.069 419.891L424.559 440.381L389.059 419.891Z" fill="#FFDA54" stroke="#1E2532" stroke-width="0.2" stroke-linejoin="round"/>
<path d="M389.059 419.77L424.559 440.27V399.27L389.059 378.77V419.77Z" fill="#FFA735" stroke="#1E2532" stroke-width="0.2" stroke-linejoin="round"/>
<path d="M460.069 378.77L424.559 399.27V440.27L460.069 419.77V378.77Z" fill="#FFA735" stroke="#1E2532" stroke-width="0.2" stroke-linejoin="round"/>
<path d="M389.059 378.77L424.559 358.27L460.069 378.77L424.559 399.27L389.059 378.77Z" fill="#FFDA54" stroke="#1E2532" stroke-width="0.2" stroke-linejoin="round"/>
<path d="M353.551 481.381L389.061 501.881V460.881L353.551 440.381V481.381Z" fill="#FFDA54" stroke="#1E2532" stroke-width="0.2" stroke-linejoin="round"/>
<path d="M424.562 440.381L389.062 460.881V501.881L424.562 481.381V440.381Z" fill="#FFDA54" stroke="#1E2532" stroke-width="0.2" stroke-linejoin="round"/>
<path d="M353.551 440.381L389.061 419.891L424.561 440.381L389.061 460.881L353.551 440.381Z" fill="#FFDA54" stroke="#1E2532" stroke-width="0.2" stroke-linejoin="round"/>
<path d="M318.051 501.881L353.551 522.381V481.381L318.051 460.881V501.881Z" fill="#FFA735" stroke="#1E2532" stroke-width="0.2" stroke-linejoin="round"/>
<path d="M389.061 460.881L353.551 481.381V522.381L389.061 501.881V460.881Z" fill="#FFDA54" stroke="#1E2532" stroke-width="0.2" stroke-linejoin="round"/>
<path d="M318.051 460.881L353.551 440.381L389.061 460.881L353.551 481.381L318.051 460.881Z" fill="#FFDA54" stroke="#1E2532" stroke-width="0.2" stroke-linejoin="round"/>
<path d="M283 522.5L318.5 543V502L283 481.5V522.5Z" fill="#FFA735" stroke="#1E2532" stroke-width="0.2" stroke-linejoin="round"/>
<path d="M354.01 481.5L318.5 502V543L354.01 522.5V481.5Z" fill="#FFDA54" stroke="#1E2532" stroke-width="0.2" stroke-linejoin="round"/>
<path d="M283 481.5L318.5 461L354.01 481.5L318.5 502L283 481.5Z" fill="#FFDA54" stroke="#1E2532" stroke-width="0.2" stroke-linejoin="round"/>
<path d="M460.051 460.77L495.561 481.27V440.27L460.051 419.77V460.77Z" fill="#FFDA54" stroke="#1E2532" stroke-width="0.2" stroke-linejoin="round"/>
<path d="M531.062 419.77L495.562 440.27V481.27L531.062 460.77V419.77Z" fill="#FFA735" stroke="#1E2532" stroke-width="0.2" stroke-linejoin="round"/>
<path d="M460.051 419.77L495.561 399.27L531.061 419.77L495.561 440.27L460.051 419.77Z" fill="#FFDA54" stroke="#1E2532" stroke-width="0.2" stroke-linejoin="round"/>
<path d="M424.551 481.27L460.051 501.77V460.77L424.551 440.27V481.27Z" fill="#FFDA54" stroke="#1E2532" stroke-width="0.2" stroke-linejoin="round"/>
<path d="M495.561 440.27L460.051 460.77V501.77L495.561 481.27V440.27Z" fill="#FFA735" stroke="#1E2532" stroke-width="0.2" stroke-linejoin="round"/>
<path d="M424.551 440.27L460.051 419.77L495.561 440.27L460.051 460.77L424.551 440.27Z" fill="#FFDA54" stroke="#1E2532" stroke-width="0.2" stroke-linejoin="round"/>
<path d="M389.039 501.77L424.549 522.26V481.27L389.039 460.77V501.77Z" fill="#FFDA54" stroke="#1E2532" stroke-width="0.2" stroke-linejoin="round"/>
<path d="M460.051 460.77L424.551 481.27V522.26L460.051 501.77V460.77Z" fill="#FFA735" stroke="#1E2532" stroke-width="0.2" stroke-linejoin="round"/>
<path d="M389.039 460.77L424.549 440.27L460.049 460.77L424.549 481.27L389.039 460.77Z" fill="#FFDA54" stroke="#1E2532" stroke-width="0.2" stroke-linejoin="round"/>
<path d="M353.539 522.26L389.039 542.76V501.77L353.539 481.27V522.26Z" fill="#FFA735" stroke="#1E2532" stroke-width="0.2" stroke-linejoin="round"/>
<path d="M424.549 481.27L389.039 501.77V542.76L424.549 522.26V481.27Z" fill="#FFA735" stroke="#1E2532" stroke-width="0.2" stroke-linejoin="round"/>
<path d="M353.539 481.27L389.039 460.77L424.549 481.27L389.039 501.77L353.539 481.27Z" fill="#FFDA54" stroke="#1E2532" stroke-width="0.2" stroke-linejoin="round"/>
<path d="M318.488 542.879L353.988 563.379V522.389L318.488 501.889V542.879Z" fill="#FFA735" stroke="#1E2532" stroke-width="0.2" stroke-linejoin="round"/>
<path d="M389.498 501.889L353.988 522.389V563.379L389.498 542.879V501.889Z" fill="#FFA735" stroke="#1E2532" stroke-width="0.2" stroke-linejoin="round"/>
<path d="M318.488 501.889L353.988 481.389L389.498 501.889L353.988 522.389L318.488 501.889Z" fill="#FFDA54" stroke="#1E2532" stroke-width="0.2" stroke-linejoin="round"/>
<path d="M490.44 307.27L490.45 312.6L330.17 405.14L330.16 399.81L490.44 307.27Z" fill="#1A49BA" stroke="#1E2532" stroke-width="0.2" stroke-linejoin="round"/>
<path d="M330.16 399.809L330.17 405.139L262.77 365.969L262.75 360.639L330.16 399.809Z" fill="#1A49BA" stroke="#1E2532" stroke-width="0.2" stroke-linejoin="round"/>
<path d="M423.03 268.1L490.44 307.27L330.16 399.81L262.75 360.64L423.03 268.1Z" fill="#769AF0" stroke="#1E2532" stroke-width="0.2" stroke-linejoin="round"/>
<path d="M282.409 355.01C282.981 354.717 283.615 354.564 284.259 354.564C284.902 354.564 285.536 354.717 286.109 355.01L286.539 355.26C287.539 355.86 287.539 356.81 286.539 357.41L280.979 360.62C280.405 360.911 279.772 361.063 279.129 361.063C278.486 361.063 277.852 360.911 277.279 360.62L276.849 360.37C276.625 360.295 276.431 360.15 276.293 359.959C276.156 359.767 276.082 359.537 276.082 359.3C276.082 359.064 276.156 358.834 276.293 358.642C276.431 358.45 276.625 358.306 276.849 358.23L282.409 355.01Z" fill="#1E2532" stroke="#1E2532" stroke-width="0.2" stroke-miterlimit="10"/>
<path d="M296.327 346.97C296.899 346.679 297.531 346.527 298.172 346.527C298.813 346.527 299.446 346.679 300.017 346.97L300.447 347.22C300.671 347.295 300.865 347.439 301.002 347.631C301.14 347.823 301.214 348.053 301.214 348.29C301.214 348.526 301.14 348.756 301.002 348.948C300.865 349.14 300.671 349.284 300.447 349.36L294.877 352.58C294.305 352.868 293.673 353.018 293.032 353.018C292.391 353.018 291.759 352.868 291.187 352.58L290.747 352.33C290.524 352.254 290.329 352.11 290.192 351.918C290.054 351.726 289.98 351.496 289.98 351.26C289.98 351.023 290.054 350.793 290.192 350.601C290.329 350.409 290.524 350.265 290.747 350.19L296.327 346.97Z" fill="#1E2532" stroke="#1E2532" stroke-width="0.2" stroke-miterlimit="10"/>
<path d="M304.329 351.669C304.902 351.378 305.536 351.227 306.179 351.227C306.822 351.227 307.456 351.378 308.029 351.669L313.559 354.889C313.782 354.965 313.977 355.109 314.114 355.301C314.252 355.493 314.326 355.723 314.326 355.959C314.326 356.195 314.252 356.425 314.114 356.617C313.977 356.809 313.782 356.953 313.559 357.029L307.989 360.239C307.416 360.532 306.782 360.685 306.139 360.685C305.496 360.685 304.862 360.532 304.289 360.239L298.759 357.029C298.535 356.953 298.341 356.809 298.204 356.617C298.066 356.425 297.992 356.195 297.992 355.959C297.992 355.723 298.066 355.493 298.204 355.301C298.341 355.109 298.535 354.965 298.759 354.889L304.329 351.669Z" fill="#1E2532" stroke="#1E2532" stroke-width="0.2" stroke-miterlimit="10"/>
<path d="M290.41 359.669C290.985 359.381 291.621 359.23 292.265 359.23C292.909 359.23 293.544 359.381 294.12 359.669L299.65 362.889C300.65 363.479 300.65 364.439 299.65 365.029L294.04 368.229C293.466 368.52 292.832 368.672 292.19 368.672C291.547 368.672 290.913 368.52 290.34 368.229L284.81 365.009C284.586 364.933 284.392 364.789 284.254 364.597C284.117 364.406 284.043 364.175 284.043 363.939C284.043 363.703 284.117 363.473 284.254 363.281C284.392 363.089 284.586 362.945 284.81 362.869L290.41 359.669Z" fill="#1E2532" stroke="#1E2532" stroke-width="0.2" stroke-miterlimit="10"/>
<path d="M317.44 359.239C318.012 358.948 318.644 358.797 319.285 358.797C319.926 358.797 320.558 358.948 321.13 359.239L326.67 362.449C326.892 362.528 327.085 362.673 327.221 362.866C327.357 363.058 327.431 363.288 327.431 363.524C327.431 363.76 327.357 363.99 327.221 364.182C327.085 364.375 326.892 364.521 326.67 364.599L321.1 367.809C320.527 368.1 319.893 368.251 319.25 368.251C318.607 368.251 317.973 368.1 317.4 367.809L311.87 364.599C311.648 364.521 311.455 364.375 311.319 364.182C311.183 363.99 311.109 363.76 311.109 363.524C311.109 363.288 311.183 363.058 311.319 362.866C311.455 362.673 311.648 362.528 311.87 362.449L317.44 359.239Z" fill="#1E2532" stroke="#1E2532" stroke-width="0.2" stroke-miterlimit="10"/>
<path d="M331.36 351.2C331.931 350.909 332.563 350.758 333.205 350.758C333.846 350.758 334.478 350.909 335.05 351.2L340.59 354.42C341.59 355.01 341.59 355.97 340.59 356.56L335.04 359.77C334.469 360.068 333.834 360.224 333.19 360.224C332.546 360.224 331.911 360.068 331.34 359.77L325.81 356.56C325.586 356.484 325.392 356.34 325.254 356.148C325.117 355.956 325.043 355.726 325.043 355.49C325.043 355.254 325.117 355.024 325.254 354.832C325.392 354.64 325.586 354.496 325.81 354.42L331.36 351.2Z" fill="#1E2532" stroke="#1E2532" stroke-width="0.2" stroke-miterlimit="10"/>
<path d="M345.27 343.169C345.843 342.878 346.477 342.727 347.12 342.727C347.763 342.727 348.396 342.878 348.97 343.169L354.51 346.379C355.51 346.969 355.51 347.929 354.51 348.529L348.94 351.739C348.368 352.03 347.736 352.181 347.095 352.181C346.454 352.181 345.821 352.03 345.25 351.739L339.72 348.519C339.496 348.443 339.302 348.299 339.165 348.107C339.027 347.915 338.953 347.685 338.953 347.449C338.953 347.213 339.027 346.983 339.165 346.791C339.302 346.599 339.496 346.455 339.72 346.379L345.27 343.169Z" fill="#1E2532" stroke="#1E2532" stroke-width="0.2" stroke-miterlimit="10"/>
<path d="M332.158 335.55C332.733 335.259 333.369 335.107 334.013 335.107C334.658 335.107 335.293 335.259 335.868 335.55L341.398 338.76C341.621 338.838 341.813 338.984 341.949 339.176C342.086 339.369 342.159 339.599 342.159 339.835C342.159 340.071 342.086 340.301 341.949 340.493C341.813 340.686 341.621 340.831 341.398 340.91L335.838 344.12C335.265 344.411 334.631 344.562 333.988 344.562C333.345 344.562 332.712 344.411 332.138 344.12L326.608 340.91C326.386 340.831 326.193 340.686 326.057 340.493C325.921 340.301 325.848 340.071 325.848 339.835C325.848 339.599 325.921 339.369 326.057 339.176C326.193 338.984 326.386 338.838 326.608 338.76L332.158 335.55Z" fill="#1E2532" stroke="#1E2532" stroke-width="0.2" stroke-miterlimit="10"/>
<path d="M318.247 343.589C318.82 343.298 319.454 343.146 320.097 343.146C320.74 343.146 321.373 343.298 321.947 343.589L327.477 346.799C327.7 346.875 327.895 347.019 328.032 347.211C328.17 347.403 328.243 347.633 328.243 347.869C328.243 348.105 328.17 348.335 328.032 348.527C327.895 348.719 327.7 348.863 327.477 348.939L321.907 352.159C321.333 352.45 320.7 352.601 320.057 352.601C319.414 352.601 318.78 352.45 318.207 352.159L312.677 348.939C312.453 348.863 312.259 348.719 312.122 348.527C311.984 348.335 311.91 348.105 311.91 347.869C311.91 347.633 311.984 347.403 312.122 347.211C312.259 347.019 312.453 346.875 312.677 346.799L318.247 343.589Z" fill="#1E2532" stroke="#1E2532" stroke-width="0.2" stroke-miterlimit="10"/>
<path d="M310.248 338.929C310.82 338.64 311.452 338.49 312.093 338.49C312.734 338.49 313.366 338.64 313.938 338.929L314.368 339.179C314.592 339.255 314.786 339.399 314.923 339.591C315.061 339.783 315.135 340.013 315.135 340.249C315.135 340.485 315.061 340.715 314.923 340.907C314.786 341.099 314.592 341.243 314.368 341.319L308.798 344.539C308.226 344.83 307.594 344.981 306.953 344.981C306.312 344.981 305.68 344.83 305.108 344.539L304.668 344.289C303.668 343.699 303.668 342.739 304.668 342.149L310.248 338.929Z" fill="#1E2532" stroke="#1E2532" stroke-width="0.2" stroke-miterlimit="10"/>
<path d="M324.158 330.899C324.73 330.606 325.364 330.453 326.008 330.453C326.651 330.453 327.285 330.606 327.858 330.899L328.288 331.149C329.288 331.739 329.288 332.699 328.288 333.289L322.728 336.499C322.157 336.797 321.522 336.953 320.878 336.953C320.233 336.953 319.599 336.797 319.028 336.499L318.598 336.249C317.598 335.659 317.598 334.709 318.598 334.109L324.158 330.899Z" fill="#1E2532" stroke="#1E2532" stroke-width="0.2" stroke-miterlimit="10"/>
<path d="M352.037 314.829C352.609 314.538 353.241 314.387 353.882 314.387C354.523 314.387 355.155 314.538 355.727 314.829L356.157 315.079C356.381 315.155 356.575 315.299 356.712 315.491C356.85 315.683 356.924 315.913 356.924 316.149C356.924 316.385 356.85 316.615 356.712 316.807C356.575 316.999 356.381 317.143 356.157 317.219L350.587 320.439C350.015 320.73 349.383 320.881 348.742 320.881C348.101 320.881 347.469 320.73 346.897 320.439L346.457 320.179C345.457 319.589 345.457 318.639 346.457 318.039L352.037 314.829Z" fill="#1E2532" stroke="#1E2532" stroke-width="0.2" stroke-miterlimit="10"/>
<path d="M360.04 319.479C360.613 319.189 361.247 319.037 361.89 319.037C362.533 319.037 363.166 319.189 363.74 319.479L369.27 322.699C369.493 322.775 369.688 322.919 369.825 323.111C369.963 323.303 370.036 323.533 370.036 323.769C370.036 324.005 369.963 324.236 369.825 324.428C369.688 324.62 369.493 324.764 369.27 324.839L363.7 328.049C363.129 328.347 362.494 328.503 361.85 328.503C361.206 328.503 360.571 328.347 360 328.049L354.47 324.839C354.246 324.764 354.052 324.62 353.915 324.428C353.777 324.236 353.703 324.005 353.703 323.769C353.703 323.533 353.777 323.303 353.915 323.111C354.052 322.919 354.246 322.775 354.47 322.699L360.04 319.479Z" fill="#1E2532" stroke="#1E2532" stroke-width="0.2" stroke-miterlimit="10"/>
<path d="M329.727 382.509C330.302 382.218 330.937 382.066 331.582 382.066C332.226 382.066 332.862 382.218 333.437 382.509L338.967 385.729C339.189 385.807 339.382 385.953 339.518 386.145C339.654 386.338 339.727 386.568 339.727 386.804C339.727 387.04 339.654 387.27 339.518 387.462C339.382 387.655 339.189 387.8 338.967 387.879L333.407 391.089C332.833 391.377 332.199 391.528 331.557 391.528C330.914 391.528 330.281 391.377 329.707 391.089L324.177 387.869C323.953 387.793 323.759 387.649 323.622 387.457C323.484 387.265 323.41 387.035 323.41 386.799C323.41 386.563 323.484 386.333 323.622 386.141C323.759 385.949 323.953 385.805 324.177 385.729L329.727 382.509Z" fill="#1E2532" stroke="#1E2532" stroke-width="0.2" stroke-miterlimit="10"/>
<path d="M414.858 302.99C415.431 302.704 416.062 302.555 416.703 302.555C417.343 302.555 417.975 302.704 418.548 302.99L424.088 306.21C425.088 306.8 425.088 307.76 424.088 308.35L418.528 311.57C417.955 311.86 417.321 312.012 416.678 312.012C416.035 312.012 415.401 311.86 414.828 311.57L409.298 308.35C409.074 308.274 408.88 308.13 408.743 307.938C408.605 307.746 408.531 307.516 408.531 307.28C408.531 307.044 408.605 306.813 408.743 306.622C408.88 306.43 409.074 306.286 409.298 306.21L414.858 302.99Z" fill="#1E2532" stroke="#1E2532" stroke-width="0.2" stroke-miterlimit="10"/>
<path d="M427.968 310.61C428.539 310.319 429.172 310.168 429.813 310.168C430.454 310.168 431.086 310.319 431.658 310.61L437.188 313.83C437.411 313.906 437.605 314.05 437.743 314.242C437.88 314.434 437.954 314.664 437.954 314.9C437.954 315.136 437.88 315.366 437.743 315.558C437.605 315.75 437.411 315.894 437.188 315.97L431.618 319.18C431.048 319.476 430.415 319.631 429.773 319.631C429.13 319.631 428.498 319.476 427.928 319.18L422.388 315.97C422.164 315.894 421.97 315.75 421.833 315.558C421.695 315.366 421.621 315.136 421.621 314.9C421.621 314.664 421.695 314.434 421.833 314.242C421.97 314.05 422.164 313.906 422.388 313.83L427.968 310.61Z" fill="#1E2532" stroke="#1E2532" stroke-width="0.2" stroke-miterlimit="10"/>
<path d="M454.977 310.2C455.551 309.907 456.187 309.754 456.832 309.754C457.477 309.754 458.113 309.907 458.687 310.2L464.217 313.42C464.44 313.496 464.635 313.64 464.772 313.832C464.91 314.024 464.984 314.254 464.984 314.49C464.984 314.726 464.91 314.956 464.772 315.148C464.635 315.34 464.44 315.484 464.217 315.56L458.657 318.77C458.084 319.063 457.45 319.216 456.807 319.216C456.164 319.216 455.529 319.063 454.957 318.77L449.427 315.56C449.203 315.484 449.009 315.34 448.872 315.148C448.734 314.956 448.66 314.726 448.66 314.49C448.66 314.254 448.734 314.024 448.872 313.832C449.009 313.64 449.203 313.496 449.427 313.42L454.977 310.2Z" fill="#1E2532" stroke="#1E2532" stroke-width="0.2" stroke-miterlimit="10"/>
<path d="M441.039 318.229C441.612 317.939 442.246 317.787 442.889 317.787C443.532 317.787 444.165 317.939 444.739 318.229L450.269 321.439C450.492 321.515 450.686 321.659 450.824 321.851C450.961 322.043 451.035 322.273 451.035 322.509C451.035 322.746 450.961 322.976 450.824 323.168C450.686 323.36 450.492 323.503 450.269 323.579L444.699 326.799C444.125 327.09 443.492 327.242 442.849 327.242C442.206 327.242 441.572 327.09 440.999 326.799L435.469 323.579C434.469 322.989 434.469 322.039 435.469 321.439L441.039 318.229Z" fill="#1E2532" stroke="#1E2532" stroke-width="0.2" stroke-miterlimit="10"/>
<path d="M414.037 318.67C414.607 318.373 415.24 318.219 415.882 318.219C416.524 318.219 417.157 318.373 417.727 318.67L423.257 321.88C423.481 321.956 423.675 322.1 423.812 322.292C423.95 322.483 424.024 322.714 424.024 322.95C424.024 323.186 423.95 323.416 423.812 323.608C423.675 323.8 423.481 323.944 423.257 324.02L417.687 327.24C417.115 327.53 416.483 327.682 415.842 327.682C415.201 327.682 414.569 327.53 413.997 327.24L408.457 324.02C407.457 323.43 407.457 322.47 408.457 321.88L414.037 318.67Z" fill="#1E2532" stroke="#1E2532" stroke-width="0.2" stroke-miterlimit="10"/>
<path d="M427.147 326.259C427.721 325.968 428.355 325.816 428.997 325.816C429.64 325.816 430.274 325.968 430.847 326.259L436.378 329.479C436.601 329.555 436.795 329.699 436.933 329.891C437.07 330.082 437.144 330.313 437.144 330.549C437.144 330.785 437.07 331.015 436.933 331.207C436.795 331.399 436.601 331.543 436.378 331.619L430.807 334.839C430.235 335.125 429.603 335.274 428.962 335.274C428.322 335.274 427.69 335.125 427.117 334.839L421.568 331.669C421.344 331.593 421.15 331.449 421.012 331.257C420.875 331.065 420.801 330.835 420.801 330.599C420.801 330.363 420.875 330.132 421.012 329.941C421.15 329.749 421.344 329.605 421.568 329.529L427.147 326.259Z" fill="#1E2532" stroke="#1E2532" stroke-width="0.2" stroke-miterlimit="10"/>
<path d="M400.13 326.669C400.704 326.378 401.337 326.227 401.98 326.227C402.623 326.227 403.257 326.378 403.83 326.669L409.36 329.879C409.583 329.957 409.775 330.103 409.911 330.295C410.048 330.488 410.121 330.718 410.121 330.954C410.121 331.19 410.048 331.42 409.911 331.612C409.775 331.805 409.583 331.95 409.36 332.029L403.8 335.239C403.229 335.53 402.597 335.681 401.955 335.681C401.314 335.681 400.682 335.53 400.11 335.239L394.57 332.019C393.57 331.429 393.57 330.479 394.57 329.879L400.13 326.669Z" fill="#1E2532" stroke="#1E2532" stroke-width="0.2" stroke-miterlimit="10"/>
<path d="M386.221 334.72C386.791 334.424 387.423 334.27 388.066 334.27C388.708 334.27 389.341 334.424 389.911 334.72L395.441 337.93C395.664 338.006 395.858 338.15 395.996 338.342C396.133 338.534 396.207 338.764 396.207 339C396.207 339.237 396.133 339.467 395.996 339.659C395.858 339.851 395.664 339.995 395.441 340.07L389.871 343.29C389.299 343.581 388.667 343.733 388.026 343.733C387.384 343.733 386.752 343.581 386.181 343.29L380.641 340.07C379.641 339.48 379.641 338.52 380.641 337.93L386.221 334.72Z" fill="#1E2532" stroke="#1E2532" stroke-width="0.2" stroke-miterlimit="10"/>
<path d="M372.299 342.749C372.87 342.458 373.502 342.307 374.144 342.307C374.785 342.307 375.417 342.458 375.989 342.749L381.519 345.969C382.519 346.559 382.519 347.509 381.519 348.109L375.949 351.319C375.379 351.615 374.746 351.77 374.104 351.77C373.461 351.77 372.829 351.615 372.259 351.319L366.719 348.109C365.719 347.509 365.719 346.559 366.719 345.969L372.299 342.749Z" fill="#1E2532" stroke="#1E2532" stroke-width="0.2" stroke-miterlimit="10"/>
<path d="M413.23 334.3C413.804 334.006 414.44 333.854 415.085 333.854C415.73 333.854 416.365 334.006 416.94 334.3L422.47 337.51C422.692 337.588 422.885 337.734 423.021 337.926C423.157 338.119 423.23 338.349 423.23 338.585C423.23 338.82 423.157 339.051 423.021 339.243C422.885 339.436 422.692 339.581 422.47 339.66L389.04 358.94C388.468 359.23 387.836 359.382 387.195 359.382C386.553 359.382 385.921 359.23 385.35 358.94L379.81 355.72C379.586 355.644 379.392 355.5 379.254 355.308C379.117 355.116 379.043 354.886 379.043 354.65C379.043 354.414 379.117 354.183 379.254 353.991C379.392 353.8 379.586 353.655 379.81 353.58L413.23 334.3Z" fill="#1E2532" stroke="#1E2532" stroke-width="0.2" stroke-miterlimit="10"/>
<path d="M358.379 350.79C358.952 350.499 359.586 350.348 360.229 350.348C360.871 350.348 361.505 350.499 362.079 350.79L367.609 354.01C368.609 354.6 368.609 355.56 367.609 356.15L362.039 359.35C361.469 359.646 360.836 359.801 360.194 359.801C359.551 359.801 358.918 359.646 358.349 359.35L352.809 356.13C351.809 355.54 351.809 354.58 352.809 353.99L358.379 350.79Z" fill="#1E2532" stroke="#1E2532" stroke-width="0.2" stroke-miterlimit="10"/>
<path d="M371.477 358.409C372.051 358.116 372.687 357.963 373.332 357.963C373.977 357.963 374.613 358.116 375.187 358.409L380.717 361.629C380.94 361.705 381.135 361.849 381.272 362.041C381.41 362.233 381.484 362.463 381.484 362.699C381.484 362.935 381.41 363.165 381.272 363.357C381.135 363.549 380.94 363.693 380.717 363.769L375.157 366.979C374.584 367.272 373.95 367.425 373.307 367.425C372.664 367.425 372.029 367.272 371.457 366.979L365.927 363.769C365.703 363.693 365.509 363.549 365.372 363.357C365.234 363.165 365.16 362.935 365.16 362.699C365.16 362.463 365.234 362.233 365.372 362.041C365.509 361.849 365.703 361.705 365.927 361.629L371.477 358.409Z" fill="#1E2532" stroke="#1E2532" stroke-width="0.2" stroke-miterlimit="10"/>
<path d="M344.468 358.819C345.039 358.529 345.672 358.377 346.313 358.377C346.954 358.377 347.586 358.529 348.158 358.819L353.688 362.039C353.911 362.115 354.105 362.259 354.243 362.451C354.38 362.643 354.454 362.873 354.454 363.109C354.454 363.345 354.38 363.575 354.243 363.767C354.105 363.959 353.911 364.103 353.688 364.179L348.118 367.389C347.546 367.68 346.914 367.831 346.273 367.831C345.632 367.831 344.999 367.68 344.428 367.389L338.888 364.179C338.664 364.103 338.47 363.959 338.333 363.767C338.195 363.575 338.121 363.345 338.121 363.109C338.121 362.873 338.195 362.643 338.333 362.451C338.47 362.259 338.664 362.115 338.888 362.039L344.468 358.819Z" fill="#1E2532" stroke="#1E2532" stroke-width="0.2" stroke-miterlimit="10"/>
<path d="M357.569 366.44C358.142 366.147 358.776 365.994 359.419 365.994C360.062 365.994 360.696 366.147 361.269 366.44L366.799 369.65C367.023 369.726 367.217 369.87 367.354 370.062C367.492 370.254 367.566 370.484 367.566 370.72C367.566 370.956 367.492 371.186 367.354 371.378C367.217 371.57 367.023 371.714 366.799 371.79L361.229 375.01C360.656 375.301 360.022 375.452 359.379 375.452C358.736 375.452 358.102 375.301 357.529 375.01L352.039 371.79C351.039 371.2 351.039 370.25 352.039 369.65L357.569 366.44Z" fill="#1E2532" stroke="#1E2532" stroke-width="0.2" stroke-miterlimit="10"/>
<path d="M330.549 366.859C331.119 366.563 331.751 366.408 332.394 366.408C333.036 366.408 333.669 366.563 334.239 366.859L339.769 370.069C339.992 370.145 340.186 370.289 340.324 370.481C340.461 370.673 340.535 370.903 340.535 371.139C340.535 371.375 340.461 371.605 340.324 371.797C340.186 371.989 339.992 372.133 339.769 372.209L334.199 375.429C333.627 375.72 332.995 375.871 332.354 375.871C331.713 375.871 331.08 375.72 330.509 375.429L324.969 372.209C323.969 371.619 323.969 370.659 324.969 370.069L330.549 366.859Z" fill="#1E2532" stroke="#1E2532" stroke-width="0.2" stroke-miterlimit="10"/>
<path d="M343.65 374.47C344.223 374.179 344.857 374.027 345.5 374.027C346.143 374.027 346.777 374.179 347.35 374.47L352.88 377.69C353.104 377.766 353.298 377.91 353.435 378.102C353.573 378.293 353.647 378.524 353.647 378.76C353.647 378.996 353.573 379.226 353.435 379.418C353.298 379.61 353.104 379.754 352.88 379.83L347.31 383.04C346.737 383.33 346.103 383.482 345.46 383.482C344.817 383.482 344.183 383.33 343.61 383.04L338.04 379.83C337.817 379.754 337.622 379.61 337.485 379.418C337.347 379.226 337.273 378.996 337.273 378.76C337.273 378.524 337.347 378.293 337.485 378.102C337.622 377.91 337.817 377.766 338.04 377.69L343.65 374.47Z" fill="#1E2532" stroke="#1E2532" stroke-width="0.2" stroke-miterlimit="10"/>
<path d="M359.19 335.13C359.763 334.842 360.395 334.691 361.035 334.691C361.676 334.691 362.308 334.842 362.88 335.13L368.42 338.35C368.644 338.426 368.838 338.57 368.976 338.762C369.113 338.954 369.187 339.184 369.187 339.42C369.187 339.656 369.113 339.886 368.976 340.078C368.838 340.27 368.644 340.414 368.42 340.49L362.84 343.67C362.266 343.958 361.633 344.109 360.99 344.109C360.348 344.109 359.714 343.958 359.14 343.67L353.61 340.45C353.387 340.374 353.193 340.23 353.055 340.038C352.918 339.846 352.844 339.616 352.844 339.38C352.844 339.144 352.918 338.914 353.055 338.722C353.193 338.53 353.387 338.386 353.61 338.31L359.19 335.13Z" fill="#1E2532" stroke="#1E2532" stroke-width="0.2" stroke-miterlimit="10"/>
<path d="M346.04 327.52C346.612 327.227 347.246 327.074 347.89 327.074C348.533 327.074 349.167 327.227 349.74 327.52L355.27 330.73C355.493 330.806 355.688 330.95 355.825 331.142C355.963 331.334 356.036 331.564 356.036 331.8C356.036 332.036 355.963 332.266 355.825 332.458C355.688 332.65 355.493 332.794 355.27 332.87L349.7 336.09C349.126 336.381 348.493 336.533 347.85 336.533C347.207 336.533 346.573 336.381 346 336.09L340.47 332.87C340.246 332.794 340.052 332.65 339.915 332.458C339.777 332.266 339.703 332.036 339.703 331.8C339.703 331.564 339.777 331.334 339.915 331.142C340.052 330.95 340.246 330.806 340.47 330.73L346.04 327.52Z" fill="#1E2532" stroke="#1E2532" stroke-width="0.2" stroke-miterlimit="10"/>
<path d="M338.037 322.869C338.607 322.573 339.24 322.418 339.882 322.418C340.524 322.418 341.157 322.573 341.727 322.869L342.157 323.119C343.157 323.709 343.157 324.659 342.157 325.259L336.587 328.469C336.015 328.76 335.383 328.911 334.742 328.911C334.101 328.911 333.469 328.76 332.897 328.469L332.457 328.219C331.457 327.629 331.457 326.669 332.457 326.079L338.037 322.869Z" fill="#1E2532" stroke="#1E2532" stroke-width="0.2" stroke-miterlimit="10"/>
<path d="M365.908 306.799C366.48 306.506 367.114 306.354 367.758 306.354C368.401 306.354 369.035 306.506 369.608 306.799L370.038 307.049C370.26 307.128 370.453 307.274 370.589 307.466C370.725 307.659 370.798 307.889 370.798 308.125C370.798 308.36 370.725 308.59 370.589 308.783C370.453 308.975 370.26 309.121 370.038 309.2L364.478 312.409C363.904 312.7 363.271 312.852 362.628 312.852C361.985 312.852 361.351 312.7 360.778 312.409L360.348 312.159C359.348 311.569 359.348 310.609 360.348 310.019L365.908 306.799Z" fill="#1E2532" stroke="#1E2532" stroke-width="0.2" stroke-miterlimit="10"/>
<path d="M379.827 298.761C380.399 298.47 381.031 298.318 381.672 298.318C382.313 298.318 382.946 298.47 383.517 298.761L383.947 299.011C384.171 299.087 384.365 299.231 384.502 299.422C384.64 299.614 384.714 299.844 384.714 300.081C384.714 300.317 384.64 300.547 384.502 300.739C384.365 300.931 384.171 301.075 383.947 301.151L378.377 304.371C377.806 304.661 377.173 304.813 376.532 304.813C375.891 304.813 375.259 304.661 374.687 304.371L374.247 304.121C374.024 304.045 373.829 303.901 373.692 303.709C373.554 303.517 373.48 303.287 373.48 303.051C373.48 302.815 373.554 302.584 373.692 302.392C373.829 302.201 374.024 302.056 374.247 301.981L379.827 298.761Z" fill="#1E2532" stroke="#1E2532" stroke-width="0.2" stroke-miterlimit="10"/>
<path d="M393.748 290.72C394.32 290.431 394.952 290.281 395.593 290.281C396.234 290.281 396.866 290.431 397.438 290.72L397.868 290.98C398.092 291.056 398.286 291.2 398.423 291.392C398.561 291.584 398.635 291.814 398.635 292.05C398.635 292.286 398.561 292.516 398.423 292.708C398.286 292.9 398.092 293.044 397.868 293.12L392.298 296.33C391.726 296.621 391.094 296.772 390.453 296.772C389.812 296.772 389.18 296.621 388.608 296.33L388.168 296.08C387.168 295.49 387.168 294.53 388.168 293.94L393.748 290.72Z" fill="#1E2532" stroke="#1E2532" stroke-width="0.2" stroke-miterlimit="10"/>
<path d="M429.58 279.31C430.153 279.019 430.787 278.867 431.43 278.867C432.073 278.867 432.707 279.019 433.28 279.31L438.81 282.519C439.034 282.595 439.228 282.739 439.365 282.931C439.503 283.123 439.577 283.353 439.577 283.589C439.577 283.826 439.503 284.056 439.365 284.248C439.228 284.44 439.034 284.584 438.81 284.659L433.24 287.88C432.667 288.17 432.033 288.322 431.39 288.322C430.747 288.322 430.113 288.17 429.54 287.88L424.04 284.669C423.817 284.594 423.622 284.45 423.485 284.258C423.347 284.066 423.273 283.836 423.273 283.599C423.273 283.363 423.347 283.133 423.485 282.941C423.622 282.749 423.817 282.605 424.04 282.529L429.58 279.31Z" fill="#1E2532" stroke="#1E2532" stroke-width="0.2" stroke-miterlimit="10"/>
<path d="M441.88 302.579C442.454 302.288 443.087 302.137 443.73 302.137C444.373 302.137 445.007 302.288 445.58 302.579L451.11 305.799C452.11 306.389 452.11 307.349 451.11 307.949L445.55 311.159C444.979 311.45 444.347 311.601 443.705 311.601C443.064 311.601 442.432 311.45 441.86 311.159L436.32 307.939C435.32 307.349 435.32 306.389 436.32 305.799L441.88 302.579Z" fill="#1E2532" stroke="#1E2532" stroke-width="0.2" stroke-miterlimit="10"/>
<path d="M468.899 302.159C469.473 301.868 470.106 301.717 470.749 301.717C471.392 301.717 472.026 301.868 472.599 302.159L478.129 305.379C478.353 305.455 478.547 305.599 478.684 305.791C478.822 305.983 478.896 306.213 478.896 306.449C478.896 306.685 478.822 306.915 478.684 307.107C478.547 307.299 478.353 307.443 478.129 307.519L472.559 310.729C471.988 311.02 471.355 311.171 470.714 311.171C470.073 311.171 469.441 311.02 468.869 310.729L463.329 307.519C463.106 307.443 462.911 307.299 462.774 307.107C462.636 306.915 462.562 306.685 462.562 306.449C462.562 306.213 462.636 305.983 462.774 305.791C462.911 305.599 463.106 305.455 463.329 305.379L468.899 302.159Z" fill="#1E2532" stroke="#1E2532" stroke-width="0.2" stroke-miterlimit="10"/>
<path d="M442.688 286.929C443.258 286.633 443.891 286.479 444.533 286.479C445.176 286.479 445.808 286.633 446.378 286.929L451.918 290.139C452.142 290.215 452.336 290.359 452.474 290.551C452.611 290.743 452.685 290.973 452.685 291.209C452.685 291.446 452.611 291.676 452.474 291.868C452.336 292.06 452.142 292.204 451.918 292.279L446.348 295.499C445.775 295.79 445.141 295.942 444.498 295.942C443.855 295.942 443.222 295.79 442.648 295.499L437.118 292.279C436.895 292.204 436.701 292.06 436.563 291.868C436.426 291.676 436.352 291.446 436.352 291.209C436.352 290.973 436.426 290.743 436.563 290.551C436.701 290.359 436.895 290.215 437.118 290.139L442.688 286.929Z" fill="#1E2532" stroke="#1E2532" stroke-width="0.2" stroke-miterlimit="10"/>
<path d="M455.799 294.54C456.37 294.249 457.002 294.098 457.644 294.098C458.285 294.098 458.917 294.249 459.489 294.54L465.019 297.76C466.019 298.35 466.019 299.31 465.019 299.9L459.449 303.11C458.879 303.406 458.246 303.561 457.604 303.561C456.961 303.561 456.329 303.406 455.759 303.11L450.219 299.9C449.219 299.31 449.219 298.35 450.219 297.76L455.799 294.54Z" fill="#1E2532" stroke="#1E2532" stroke-width="0.2" stroke-miterlimit="10"/>
<path d="M428.77 294.96C429.343 294.669 429.977 294.518 430.62 294.518C431.263 294.518 431.897 294.669 432.47 294.96L438.04 298.17C438.262 298.248 438.455 298.394 438.591 298.586C438.727 298.779 438.801 299.009 438.801 299.245C438.801 299.481 438.727 299.711 438.591 299.903C438.455 300.096 438.262 300.241 438.04 300.32L432.47 303.53C431.898 303.821 431.266 303.972 430.625 303.972C429.984 303.972 429.352 303.821 428.78 303.53L423.25 300.31C422.25 299.73 422.25 298.77 423.25 298.17L428.77 294.96Z" fill="#1E2532" stroke="#1E2532" stroke-width="0.2" stroke-miterlimit="10"/>
<path d="M415.657 287.35C416.231 287.057 416.867 286.904 417.512 286.904C418.157 286.904 418.793 287.057 419.367 287.35L424.897 290.57C425.897 291.16 425.897 292.12 424.897 292.71L419.337 295.92C418.764 296.211 418.13 296.363 417.487 296.363C416.844 296.363 416.21 296.211 415.637 295.92L410.087 292.67C409.863 292.594 409.669 292.45 409.532 292.258C409.394 292.067 409.32 291.836 409.32 291.6C409.32 291.364 409.394 291.134 409.532 290.942C409.669 290.75 409.863 290.606 410.087 290.53L415.657 287.35Z" fill="#1E2532" stroke="#1E2532" stroke-width="0.2" stroke-miterlimit="10"/>
<path d="M407.658 282.669C408.231 282.378 408.865 282.227 409.508 282.227C410.15 282.227 410.784 282.378 411.358 282.669L411.788 282.919C412.788 283.509 412.788 284.469 411.788 285.059L406.228 288.269C405.657 288.567 405.022 288.722 404.378 288.722C403.733 288.722 403.099 288.567 402.528 288.269L402.098 288.019C401.098 287.429 401.098 286.479 402.098 285.879L407.658 282.669Z" fill="#1E2532" stroke="#1E2532" stroke-width="0.2" stroke-miterlimit="10"/>
<path d="M421.58 274.67C422.15 274.373 422.783 274.219 423.425 274.219C424.067 274.219 424.7 274.373 425.27 274.67L425.7 274.92C426.7 275.51 426.7 276.46 425.7 277.06L420.13 280.27C419.56 280.566 418.927 280.721 418.285 280.721C417.643 280.721 417.01 280.566 416.44 280.27L416 280.02C415 279.43 415 278.47 416 277.88L421.58 274.67Z" fill="#1E2532" stroke="#1E2532" stroke-width="0.2" stroke-miterlimit="10"/>
<path d="M387.829 303.409C388.403 303.121 389.037 302.971 389.679 302.971C390.322 302.971 390.955 303.121 391.529 303.409L397.039 306.669C397.263 306.745 397.457 306.889 397.595 307.081C397.732 307.273 397.806 307.503 397.806 307.739C397.806 307.976 397.732 308.206 397.595 308.398C397.457 308.589 397.263 308.734 397.039 308.809L391.469 312.019C390.897 312.313 390.263 312.465 389.619 312.465C388.976 312.465 388.342 312.313 387.769 312.019L382.239 308.809C382.016 308.734 381.822 308.589 381.684 308.398C381.547 308.206 381.473 307.976 381.473 307.739C381.473 307.503 381.547 307.273 381.684 307.081C381.822 306.889 382.016 306.745 382.239 306.669L387.829 303.409Z" fill="#1E2532" stroke="#1E2532" stroke-width="0.2" stroke-miterlimit="10"/>
<path d="M373.91 311.451C374.486 311.162 375.121 311.012 375.765 311.012C376.409 311.012 377.045 311.162 377.62 311.451L383.15 314.671C384.15 315.261 384.15 316.221 383.15 316.821L377.59 320.031C377.017 320.321 376.383 320.473 375.74 320.473C375.098 320.473 374.464 320.321 373.89 320.031L368.36 316.811C368.137 316.735 367.943 316.591 367.805 316.399C367.668 316.207 367.594 315.977 367.594 315.741C367.594 315.504 367.668 315.274 367.805 315.082C367.943 314.89 368.137 314.746 368.36 314.671L373.91 311.451Z" fill="#1E2532" stroke="#1E2532" stroke-width="0.2" stroke-miterlimit="10"/>
<path d="M401.747 295.38C402.32 295.089 402.954 294.938 403.597 294.938C404.24 294.938 404.874 295.089 405.447 295.38L410.977 298.59C411.2 298.666 411.395 298.81 411.532 299.002C411.67 299.194 411.744 299.424 411.744 299.66C411.744 299.896 411.67 300.126 411.532 300.318C411.395 300.51 411.2 300.654 410.977 300.73L405.407 303.95C404.834 304.241 404.2 304.392 403.557 304.392C402.914 304.392 402.28 304.241 401.707 303.95L396.177 300.73C395.953 300.654 395.759 300.51 395.622 300.318C395.484 300.126 395.41 299.896 395.41 299.66C395.41 299.424 395.484 299.194 395.622 299.002C395.759 298.81 395.953 298.666 396.177 298.59L401.747 295.38Z" fill="#1E2532" stroke="#1E2532" stroke-width="0.2" stroke-miterlimit="10"/>
<path d="M316.629 374.889C317.202 374.596 317.836 374.443 318.479 374.443C319.122 374.443 319.756 374.596 320.329 374.889L325.859 378.099C326.081 378.178 326.274 378.323 326.41 378.516C326.546 378.708 326.62 378.939 326.62 379.174C326.62 379.41 326.546 379.64 326.41 379.833C326.274 380.025 326.081 380.171 325.859 380.249L320.299 383.459C319.727 383.75 319.095 383.902 318.454 383.902C317.813 383.902 317.181 383.75 316.609 383.459L311.039 380.239C310.039 379.649 310.039 378.699 311.039 378.099L316.629 374.889Z" fill="#1E2532" stroke="#1E2532" stroke-width="0.2" stroke-miterlimit="10"/>
<path d="M303.52 367.28C304.093 366.987 304.727 366.834 305.37 366.834C306.014 366.834 306.648 366.987 307.22 367.28L312.76 370.5C313.76 371.09 313.76 372.05 312.76 372.64L307.19 375.85C306.62 376.146 305.988 376.301 305.345 376.301C304.703 376.301 304.07 376.146 303.5 375.85L297.95 372.67C297.727 372.594 297.533 372.45 297.395 372.258C297.258 372.066 297.184 371.836 297.184 371.6C297.184 371.364 297.258 371.134 297.395 370.942C297.533 370.75 297.727 370.606 297.95 370.53L303.52 367.28Z" fill="#1E2532" stroke="#1E2532" stroke-width="0.2" stroke-miterlimit="10"/>
<path d="M400.938 311.03C401.51 310.739 402.142 310.588 402.783 310.588C403.425 310.588 404.057 310.739 404.628 311.03L410.168 314.25C411.168 314.84 411.168 315.79 410.168 316.39L404.598 319.6C404.025 319.891 403.391 320.042 402.748 320.042C402.105 320.042 401.472 319.891 400.898 319.6L395.368 316.39C395.145 316.314 394.951 316.17 394.813 315.978C394.676 315.786 394.602 315.556 394.602 315.32C394.602 315.084 394.676 314.854 394.813 314.662C394.951 314.47 395.145 314.326 395.368 314.25L400.938 311.03Z" fill="#1E2532" stroke="#1E2532" stroke-width="0.2" stroke-miterlimit="10"/>
<path d="M387.04 319.069C387.613 318.776 388.247 318.623 388.89 318.623C389.534 318.623 390.168 318.776 390.74 319.069L396.28 322.289C397.28 322.879 397.28 323.839 396.28 324.429L390.67 327.669C390.1 327.965 389.468 328.12 388.825 328.12C388.183 328.12 387.55 327.965 386.98 327.669L381.45 324.459C381.227 324.383 381.033 324.239 380.895 324.047C380.758 323.855 380.684 323.625 380.684 323.389C380.684 323.153 380.758 322.923 380.895 322.731C381.033 322.539 381.227 322.395 381.45 322.319L387.04 319.069Z" fill="#1E2532" stroke="#1E2532" stroke-width="0.2" stroke-miterlimit="10"/>
<path d="M373.107 327.1C373.679 326.81 374.311 326.658 374.952 326.658C375.594 326.658 376.226 326.81 376.797 327.1L382.337 330.31C382.561 330.386 382.755 330.53 382.893 330.722C383.03 330.914 383.104 331.144 383.104 331.38C383.104 331.617 383.03 331.847 382.893 332.039C382.755 332.23 382.561 332.375 382.337 332.45L376.757 335.67C376.184 335.961 375.55 336.113 374.907 336.113C374.264 336.113 373.631 335.961 373.057 335.67L367.527 332.45C366.527 331.87 366.527 330.91 367.527 330.31L373.107 327.1Z" fill="#1E2532" stroke="#1E2532" stroke-width="0.2" stroke-miterlimit="10"/>
<path d="M128.668 296.66L247.028 364.99V241.99L128.668 173.66V296.66Z" fill="#1A49BA" stroke="#1E2532" stroke-width="0.2" stroke-linejoin="round"/>
<path d="M424.547 139.5L247.027 241.99V364.99L424.547 262.49V139.5Z" fill="#769AF0" stroke="#1E2532" stroke-width="0.2" stroke-linejoin="round"/>
<path d="M128.668 173.66L306.198 71.1699L424.548 139.5L247.028 241.99L128.668 173.66Z" fill="#769AF0" stroke="#1E2532" stroke-width="0.2" stroke-linejoin="round"/>
<path d="M258.527 248.4L412.707 160V255.66L258.857 344.49L258.527 248.4Z" fill="#1E2532" stroke="#1E2532" stroke-width="0.2" stroke-linejoin="round"/>
<path d="M199.68 173.66L317.78 105.15L365.38 132.67L247.03 201L199.68 173.66Z" fill="#1E2532" stroke="#1E2532" stroke-width="0.2" stroke-linejoin="round"/>
<path d="M223.348 173.66L318.038 119L341.698 132.67L247.028 187.33L223.348 173.66Z" fill="#494F59" stroke="#1E2532" stroke-width="0.2" stroke-linejoin="round"/>
<path d="M318.039 132.67V119L341.699 132.67L329.869 139.5L318.039 132.67Z" fill="#95989C" stroke="#1E2532" stroke-width="0.2" stroke-linejoin="round"/>
<path d="M223.348 173.66L235.188 180.5L318.038 132.67V119L223.348 173.66Z" fill="#95989C" stroke="#1E2532" stroke-width="0.2" stroke-linejoin="round"/>
<path d="M369.316 148.611V144.051L377.206 148.611V153.171L369.316 148.611Z" fill="#CE3334" stroke="#1E2532" stroke-width="0.2" stroke-linejoin="round"/>
<path d="M385.097 144.051V148.611L377.207 153.171V148.611L385.097 144.051Z" fill="#CE3334" stroke="#1E2532" stroke-width="0.2" stroke-linejoin="round"/>
<path d="M369.316 144.05L377.206 139.5L385.096 144.05L377.206 148.61L369.316 144.05Z" fill="#FE595A" stroke="#1E2532" stroke-width="0.2" stroke-linejoin="round"/>
<path d="M383.848 140.161V135.611L391.738 140.161V144.721L383.848 140.161Z" fill="#06A77C" stroke="#1E2532" stroke-width="0.2" stroke-linejoin="round"/>
<path d="M399.628 135.611V140.161L391.738 144.721V140.161L399.628 135.611Z" fill="#06A77C" stroke="#1E2532" stroke-width="0.2" stroke-linejoin="round"/>
<path d="M383.848 135.611L391.738 131.051L399.628 135.611L391.738 140.161L383.848 135.611Z" fill="#31E7B6" stroke="#1E2532" stroke-width="0.2" stroke-linejoin="round"/>
<path d="M235.188 180.5L318.038 132.67V37L235.188 84.84V180.5Z" fill="white" stroke="#1E2532" stroke-width="0.2" stroke-linejoin="round"/>
<path d="M149.779 242.301L155.009 239.301C153.009 240.481 151.719 243.011 151.709 246.621C151.709 253.871 156.709 262.621 163.049 266.251C167.579 268.861 170.589 267.971 172.049 267.101L166.809 270.151C165.319 271.011 162.309 271.901 157.809 269.291C151.489 265.641 146.449 256.911 146.469 249.661C146.479 246.011 147.739 243.491 149.779 242.301Z" fill="#769AF0" stroke="#1E2532" stroke-width="0.2" stroke-linejoin="round"/>
<path d="M176.89 275.951L171.66 278.951C172.143 278.683 172.584 278.346 172.97 277.951L178.21 274.951C177.816 275.341 177.372 275.677 176.89 275.951V275.951Z" fill="white" stroke="#1E2532" stroke-width="0.2" stroke-linejoin="round"/>
<path d="M167.93 269.27L173.17 266.23L178.21 274.96L172.97 278L167.93 269.27Z" fill="#769AF0" stroke="#1E2532" stroke-width="0.2" stroke-linejoin="round"/>
<path d="M163.141 231.951C157.581 228.741 152.671 228.421 149.201 230.431L143.961 233.431C147.431 231.431 152.341 231.731 157.911 234.951C167.761 240.631 172.541 251.121 172.791 251.671L178.031 248.671C177.781 248.131 173.041 237.671 163.141 231.951Z" fill="#769AF0" stroke="#1E2532" stroke-width="0.2" stroke-linejoin="round"/>
<path d="M157.91 235.001C167.76 240.681 172.54 251.171 172.79 251.721L167.72 254.611C167.54 254.221 164.19 246.761 157.89 243.121C151.59 239.481 146.49 242.361 146.47 249.621C146.45 256.881 151.469 265.621 157.809 269.251C164.379 273.041 167.75 269.461 167.93 269.251L172.93 277.981C172.68 278.241 167.85 283.201 157.75 277.361C146.88 271.081 138.57 256.691 138.61 245.081C138.65 233.471 147.04 228.721 157.91 235.001Z" fill="white" stroke="#1E2532" stroke-width="0.2" stroke-linejoin="round"/>
<path d="M190.19 281.841L195.43 278.801L195.4 288.661L190.16 291.711L190.19 281.841Z" fill="#769AF0" stroke="#1E2532" stroke-width="0.2" stroke-linejoin="round"/>
<path d="M175.809 266.261L181.049 263.221L189.629 268.181L184.399 271.221L175.809 266.261Z" fill="#769AF0" stroke="#1E2532" stroke-width="0.2" stroke-linejoin="round"/>
<path d="M198.797 279.54L204.027 276.49L204.007 283.75L198.777 286.8L198.797 279.54Z" fill="#769AF0" stroke="#1E2532" stroke-width="0.2" stroke-linejoin="round"/>
<path d="M190.211 274.581L195.451 271.541L204.031 276.491L198.801 279.541L190.211 274.581Z" fill="#769AF0" stroke="#1E2532" stroke-width="0.2" stroke-linejoin="round"/>
<path d="M190.241 264.71L195.481 261.67L195.451 271.54L190.211 274.58L190.241 264.71Z" fill="#769AF0" stroke="#1E2532" stroke-width="0.2" stroke-linejoin="round"/>
<path d="M184.418 261.351L189.658 258.311L195.478 261.671L190.238 264.711L184.418 261.351Z" fill="#769AF0" stroke="#1E2532" stroke-width="0.2" stroke-linejoin="round"/>
<path d="M190.239 264.71L190.209 274.58L198.799 279.54L198.779 286.8L190.189 281.84L190.159 291.71L184.349 288.35L184.369 278.48L175.789 273.52L175.809 266.26L184.399 271.22L184.419 261.35L190.239 264.71Z" fill="white" stroke="#1E2532" stroke-width="0.2" stroke-linejoin="round"/>
<path d="M216.737 297.171L221.967 294.121L221.937 303.991L216.707 307.031L216.737 297.171Z" fill="#769AF0" stroke="#1E2532" stroke-width="0.2" stroke-linejoin="round"/>
<path d="M202.348 281.591L207.588 278.551L216.178 283.501L210.938 286.551L202.348 281.591Z" fill="#769AF0" stroke="#1E2532" stroke-width="0.2" stroke-linejoin="round"/>
<path d="M225.336 294.86L230.576 291.82L230.556 299.08L225.316 302.12L225.336 294.86Z" fill="#769AF0" stroke="#1E2532" stroke-width="0.2" stroke-linejoin="round"/>
<path d="M216.758 289.911L221.988 286.861L230.578 291.821L225.338 294.861L216.758 289.911Z" fill="#769AF0" stroke="#1E2532" stroke-width="0.2" stroke-linejoin="round"/>
<path d="M216.788 280.04L222.018 277L221.988 286.86L216.758 289.91L216.788 280.04Z" fill="#769AF0" stroke="#1E2532" stroke-width="0.2" stroke-linejoin="round"/>
<path d="M210.969 276.681L216.209 273.641L222.019 277.001L216.789 280.041L210.969 276.681Z" fill="#769AF0" stroke="#1E2532" stroke-width="0.2" stroke-linejoin="round"/>
<path d="M216.788 280.04L216.758 289.91L225.338 294.86L225.318 302.12L216.738 297.17L216.708 307.03L210.888 303.67L210.918 293.81L202.328 288.85L202.348 281.59L210.938 286.55L210.968 276.68L216.788 280.04Z" fill="white" stroke="#1E2532" stroke-width="0.2" stroke-linejoin="round"/>
<path d="M343.426 220.281L343.436 223.101L272.596 264.001L272.586 261.181L343.426 220.281Z" fill="white"/>
<path d="M343.406 213.391L343.416 216.211L272.576 257.111L272.566 254.301L343.406 213.391Z" fill="white"/>
<path d="M289.226 284.191L289.236 287.011L272.686 296.561L272.676 293.751L289.226 284.191Z" fill="white"/>
<path d="M309.464 266.971L309.474 269.791L272.664 291.041V288.221L309.464 266.971Z" fill="white"/>
<path d="M301.915 265.791V268.601L272.655 285.501L272.645 282.681L301.915 265.791Z" fill="white"/>
<path d="M313.705 253.441L313.715 256.261L272.635 279.971L272.625 277.161L313.705 253.441Z" fill="white"/>
<path d="M387.295 216.49L387.305 219.31L346.225 243.02L346.215 240.21L387.295 216.49Z" fill="white"/>
<path d="M362.806 241.711V244.531L346.256 254.091L346.246 251.271L362.806 241.711Z" fill="white"/>
<path d="M364.638 235.121L364.648 237.931L346.248 248.561L346.238 245.741L364.638 235.121Z" fill="white"/>
<path d="M380.657 231.41V234.22L371.467 239.54L371.457 236.72L380.657 231.41Z" fill="white"/>
<path d="M387.277 210.961L387.287 213.781L346.207 237.501V234.681L387.277 210.961Z" fill="white"/>
<path d="M395.387 183.381L395.397 186.201L365.697 203.351L365.688 200.531L395.387 183.381Z" fill="white"/>
<path d="M395.407 190.271L395.417 193.091L365.717 210.242L365.707 207.422L395.407 190.271Z" fill="white"/>
<path d="M362.957 202.102L362.967 204.922L346.147 214.642L346.137 211.822L362.957 202.102Z" fill="white"/>
<path d="M371.91 430.02L389.66 440.27V419.77L371.91 409.52V430.02Z" fill="#CE3334" stroke="#1E2532" stroke-width="0.2" stroke-linejoin="round"/>
<path d="M407.41 409.52L389.66 419.77V440.27L407.41 430.02V409.52Z" fill="#CE3334" stroke="#1E2532" stroke-width="0.2" stroke-linejoin="round"/>
<path d="M371.91 409.52L389.66 399.27L407.41 409.52L389.66 419.77L371.91 409.52Z" fill="#FE595A" stroke="#1E2532" stroke-width="0.2" stroke-linejoin="round"/>
<path d="M433.73 435.14L451.49 445.39V424.9L433.73 414.65V435.14Z" fill="#1BB5FF" stroke="#1E2532" stroke-width="0.2" stroke-linejoin="round"/>
<path d="M469.242 414.65L451.492 424.9V445.39L469.242 435.14V414.65Z" fill="#0099FF" stroke="#1E2532" stroke-width="0.2" stroke-linejoin="round"/>
<path d="M433.73 414.65L451.49 404.4L469.24 414.65L451.49 424.9L433.73 414.65Z" fill="#1BB5FF" stroke="#1E2532" stroke-width="0.2" stroke-linejoin="round"/>
<path d="M51.1484 320.859V378.149C51.1484 378.149 51.1484 386.589 66.7085 387.149C66.7085 387.149 80.6284 387.539 82.2584 378.149V320.859H51.1484Z" fill="white" stroke="#1E2532" stroke-width="0.2" stroke-linejoin="round"/>
<path d="M66.7085 329.84C75.2885 329.84 82.2584 325.84 82.2584 320.84C82.2584 315.84 75.2585 311.84 66.7085 311.84C58.1585 311.84 51.1484 315.84 51.1484 320.84C51.1484 325.84 58.1185 329.84 66.7085 329.84Z" fill="white" stroke="#1E2532" stroke-width="0.2" stroke-linejoin="round"/>
<path d="M124.961 362.879V420.159C124.961 420.159 124.961 428.599 140.511 429.159C140.511 429.159 154.441 429.559 156.061 420.159V362.879H124.961Z" fill="white" stroke="#1E2532" stroke-width="0.2" stroke-linejoin="round"/>
<path d="M140.511 371.859C149.101 371.859 156.061 367.859 156.061 362.859C156.061 357.859 149.061 353.859 140.511 353.859C131.961 353.859 124.961 357.859 124.961 362.859C124.961 367.859 131.921 371.859 140.511 371.859Z" fill="white" stroke="#1E2532" stroke-width="0.2" stroke-linejoin="round"/>
<path d="M34 322.42L69.5 342.92V301.92L34 281.42V322.42Z" fill="#FFA735" stroke="#1E2532" stroke-width="0.2" stroke-linejoin="round"/>
<path d="M105 281.42L69.5 301.92V342.92L105 322.42V281.42Z" fill="#FFDA54" stroke="#1E2532" stroke-width="0.2" stroke-linejoin="round"/>
<path d="M34 281.42L69.5 260.92L105 281.42L69.5 301.92L34 281.42Z" fill="#FFDA54" stroke="#1E2532" stroke-width="0.2" stroke-linejoin="round"/>
<path d="M69.5 342.92L105 363.42V322.42L69.5 301.92V342.92Z" fill="#FFA735" stroke="#1E2532" stroke-width="0.2" stroke-linejoin="round"/>
<path d="M140.51 301.92L105 322.42V363.42L140.51 342.92V301.92Z" fill="#FFDA54" stroke="#1E2532" stroke-width="0.2" stroke-linejoin="round"/>
<path d="M69.5 301.92L105 281.42L140.51 301.92L105 322.42L69.5 301.92Z" fill="#FFDA54" stroke="#1E2532" stroke-width="0.2" stroke-linejoin="round"/>
<path d="M105 363.42L140.51 383.92V342.92L105 322.42V363.42Z" fill="#FFA735" stroke="#1E2532" stroke-width="0.2" stroke-linejoin="round"/>
<path d="M176.022 322.42L140.512 342.92V383.92L176.022 363.42V322.42Z" fill="#FFA735" stroke="#1E2532" stroke-width="0.2" stroke-linejoin="round"/>
<path d="M105 322.42L140.51 301.92L176.02 322.42L140.51 342.92L105 322.42Z" fill="#FFDA54" stroke="#1E2532" stroke-width="0.2" stroke-linejoin="round"/>
</svg>
